<svg width="331" height="454" viewBox="0 0 331 454" fill="none" xmlns="http://www.w3.org/2000/svg">
<g clip-path="url(#clip0)">
<path d="M149.337 120.008C154.358 112.856 159.235 105.847 164.256 98.9817C168.273 93.5463 172.433 88.3969 176.45 83.1046C177.024 82.3894 177.167 81.3881 177.167 80.5299C177.024 78.8134 177.598 77.5261 179.176 77.24C182.906 76.3818 184.627 73.092 185.918 70.3743C187.209 67.6565 182.906 67.6565 181.901 65.654C181.901 65.511 180.037 65.654 179.606 66.2262C175.733 71.0894 172.003 76.0957 168.273 80.959C163.109 87.5387 158.088 94.2615 152.637 100.698C151.489 102.129 149.337 102.844 147.472 103.416C145.751 103.988 145.607 102.558 146.181 101.413C147.472 98.8387 148.907 96.264 150.485 93.9754C154.645 87.8248 158.805 81.8172 163.109 75.8097C166.695 70.6603 170.568 65.654 174.155 60.5047C171.286 58.0731 170.999 58.2161 168.847 60.7908C162.822 67.9426 156.94 75.3806 150.628 82.2463C148.907 84.1058 146.755 86.3944 143.168 86.1083C143.312 85.3932 143.168 84.678 143.455 84.2489C144.029 83.1046 144.89 81.9603 145.607 80.816C148.62 76.6679 150.628 71.6616 154.788 68.2287C155.793 67.3705 156.223 65.654 157.084 64.5097C160.096 60.3616 163.252 56.3566 166.408 52.3516C170.282 47.6313 174.585 43.0541 178.459 38.3339C178.889 37.7618 178.745 36.6175 178.459 35.7593C178.028 34.901 177.311 34.1858 176.45 33.0415C175.302 34.3289 174.585 35.0441 174.011 35.9023C168.99 42.9111 163.97 49.7769 158.805 56.7857C156.797 59.6465 154.645 62.5072 152.35 65.0819C151.345 66.2262 149.767 67.2274 147.902 66.5122C145.464 65.654 144.746 63.6515 146.181 61.5059C150.198 56.0705 154.358 50.6351 158.375 45.1997C162.678 39.3352 166.695 33.4707 170.855 27.4631C171.142 27.034 170.999 26.0327 170.712 25.4606C170.282 24.7454 169.564 24.3163 168.99 23.6011C167.126 21.7416 166.695 19.1669 167.986 17.8796C169.564 16.0201 172.72 15.8771 174.729 17.5935C175.159 18.0226 175.446 18.7378 176.02 19.453C176.594 18.5948 176.737 18.1657 177.024 17.7366C178.028 16.4492 180.037 14.7328 179.75 13.7315C179.176 11.586 177.311 9.72649 176.163 7.72397C175.303 6.29359 174.298 4.72018 174.298 3.14678C174.155 0.142995 178.172 -1.14434 181.184 0.715143C182.332 1.43033 183.336 2.57463 184.771 1.00122C184.914 0.85818 185.344 0.715143 185.488 0.858181C188.357 2.00248 191.37 3.14678 194.239 4.43411C195.673 5.1493 196.104 6.29359 194.956 7.72397C194.095 8.72523 193.521 9.72649 192.661 11.0138C195.099 14.3037 197.825 17.7366 200.264 21.1695C202.559 24.4593 204.854 27.6061 207.15 31.039C212.171 38.62 216.905 46.487 222.212 53.925C224.508 57.2148 227.951 59.7895 230.533 62.9363C232.111 64.9388 233.402 67.5135 234.263 69.9451C234.55 70.6603 233.402 72.3768 232.541 72.8059C231.25 73.378 229.529 73.378 228.094 73.235C226.803 73.092 225.655 72.5198 226.946 70.8034C227.233 70.5173 226.946 69.373 226.516 68.9439C223.504 65.368 220.348 62.0781 217.478 58.3591C213.749 53.4959 210.162 48.6326 206.719 43.6263C202.703 37.7618 198.686 31.6112 194.669 25.7466C193.808 24.4593 192.948 23.315 191.943 22.1707C191.656 21.8846 191.083 21.5986 190.939 21.7416C190.652 22.0277 190.222 22.4568 190.222 22.8859C190.652 27.177 191.226 31.4681 191.8 35.7593C191.943 36.4744 192.087 37.1896 191.943 37.7618C191.656 39.6213 192.374 40.7656 193.808 41.9098C194.812 42.625 195.386 43.3402 195.386 44.9136C195.386 46.487 197.108 48.0604 198.255 49.4908C200.407 52.3516 202.846 54.9262 204.998 57.787C206.289 59.5034 207.437 61.3629 208.728 63.2224C212.457 68.6578 216.187 73.9502 219.774 79.3856C223.647 85.1071 227.52 90.8286 231.394 96.5501C232.972 98.9817 234.55 101.413 236.128 103.988C237.419 105.991 237.562 108.136 236.128 110.139C238.136 113.571 242.44 116.003 240.862 121.868C238.136 119.722 235.697 118.149 233.545 116.146C231.394 114.144 229.529 111.855 227.52 109.996C226.516 109.137 225.225 108.708 224.221 107.993C221.208 105.847 218.196 103.702 215.04 101.699C209.875 98.5526 204.711 95.5488 199.403 92.545C198.399 91.9729 197.251 91.5437 195.96 90.9716C195.96 94.5475 195.817 97.8374 195.96 101.127C196.104 106.134 196.677 111.14 196.821 116.146C197.251 131.308 197.538 146.613 197.968 161.775C198.112 165.923 198.399 169.928 198.686 173.933C198.686 174.219 198.829 174.648 198.973 174.934C200.407 178.081 199.69 179.226 196.247 179.655C195.386 179.798 194.669 180.084 193.808 180.37C191.226 179.083 191.656 176.365 191.513 174.076C191.226 165.78 191.226 157.341 191.083 149.045C190.939 142.179 191.226 135.17 190.939 128.304C190.796 122.154 190.078 116.003 189.792 109.996C189.361 103.416 188.931 96.9792 188.644 90.3995C188.644 88.683 188.5 87.3957 186.635 86.8235C184.771 86.2514 183.766 86.6805 182.475 88.3969C178.889 93.4032 174.729 98.2665 170.999 103.13C167.269 107.993 163.826 112.856 160.24 117.72C158.805 119.579 157.227 121.152 155.362 122.583C153.354 123.727 151.059 122.726 149.337 120.008ZM200.407 62.9363C199.546 63.9376 198.973 64.3667 198.542 64.9388C196.247 67.6565 196.534 68.3717 199.116 70.5173C202.846 73.6641 206.432 76.954 209.875 80.2438C212.027 82.2463 213.892 84.3919 215.9 86.5375C216.044 86.3944 216.331 86.1083 216.474 85.9653C211.166 78.3843 205.859 70.6603 200.407 62.9363ZM176.02 52.2085C178.889 54.9262 179.463 54.9262 181.615 52.2085C182.332 51.3503 183.193 50.349 183.91 49.4908C185.057 47.9174 185.201 45.4858 183.91 43.9124C181.328 46.6301 178.745 49.3478 176.02 52.2085ZM206.863 87.6817C207.006 87.3957 207.15 87.2526 207.15 86.9666C203.133 83.3906 199.116 79.9577 194.812 76.2388C193.665 80.1008 194.382 81.6742 197.108 82.8185C198.112 83.2476 199.116 83.9628 200.264 84.5349C202.559 85.6792 204.711 86.6805 206.863 87.6817ZM182.762 29.1795C183.193 29.0365 183.479 29.0365 183.91 28.8935C183.91 27.3201 183.91 25.7466 183.91 24.1732C183.766 24.0302 183.479 23.8872 183.336 23.7441C182.762 24.4593 181.758 25.0315 181.758 25.7466C181.615 26.8909 182.332 28.0352 182.762 29.1795ZM193.091 58.9313C195.243 57.0718 194.956 55.6414 192.374 54.6402C192.661 56.0705 192.948 57.3579 193.091 58.9313Z" fill="#FDF5E6"/>
<path d="M324.784 296.087C325.501 297.66 326.218 299.377 327.366 301.522C325.501 302.094 323.779 302.667 321.914 302.953C321.341 303.096 320.623 302.523 320.05 302.094C314.455 297.088 308.86 291.939 303.265 286.789C302.978 286.503 302.691 286.503 301.974 286.646C304.7 290.222 307.425 293.798 310.008 297.517C313.594 302.237 317.037 307.101 320.48 311.821C322.058 313.966 322.488 316.255 321.771 319.116C318.472 319.116 316.463 316.97 314.598 314.968C311.012 310.963 307.569 306.672 304.269 302.38C301.257 298.375 298.388 294.227 295.519 290.222C294.945 289.364 294.084 288.649 293.51 288.077C293.654 294.513 293.941 300.807 293.941 307.244C293.941 314.682 293.941 321.977 293.797 329.414C293.797 332.561 293.797 335.708 293.654 338.998C293.223 345.006 292.793 351.013 292.219 357.164C292.076 358.308 291.071 359.452 290.067 360.167C289.207 360.74 287.629 361.026 286.911 360.597C286.051 360.024 285.477 358.451 285.62 357.307C286.051 352.157 286.768 347.151 287.055 342.002C287.485 333.992 287.915 325.982 288.059 318.115C288.202 312.107 288.059 305.956 287.772 299.949C287.485 293.512 286.768 287.075 286.051 280.639C285.907 279.781 285.046 278.922 284.329 278.35C282.464 276.634 282.464 275.203 284.042 273.487C286.337 271.198 286.481 269.482 284.473 266.335C283.325 267.908 282.177 269.339 281.173 270.769C278.017 275.346 275.004 280.067 271.848 284.501C267.401 290.794 262.954 296.945 258.364 303.096C257.359 304.526 254.921 304.669 253.199 303.525C251.765 302.523 251.621 300.521 252.769 298.948C256.929 293.226 261.089 287.505 265.106 281.783C269.41 275.632 273.57 269.339 278.16 263.474C280.456 260.757 279.021 258.754 278.304 255.75C276.439 257.896 274.718 259.755 273.14 261.615C267.258 268.767 261.376 275.919 255.638 283.07C254.06 284.93 252.912 287.219 251.334 289.078C250.474 290.365 247.031 290.222 245.74 288.649C245.166 287.791 245.022 285.788 245.74 284.93C251.191 277.492 256.786 270.054 262.524 263.045C267.401 257.038 272.709 251.459 277.874 245.738C279.308 244.164 279.595 242.877 277.443 241.161C275.722 243.163 274 245.166 272.422 247.168C268.692 251.602 264.963 256.036 261.376 260.614C257.933 264.762 254.777 269.053 251.191 273.201C249.039 275.776 246.744 278.064 244.448 280.496C243.157 281.783 240.288 281.926 239.427 280.782C238.136 279.208 238.28 276.777 239.714 275.203C245.309 269.053 251.191 263.045 256.499 256.609C261.089 251.173 265.106 245.309 269.41 239.587C271.418 237.012 273.57 234.581 275.722 232.292C277.874 230.004 277.156 227.858 275.865 225.14C272.422 229.431 269.123 233.437 265.967 237.442C262.237 242.162 258.794 247.168 254.921 251.745C251.047 256.466 247.031 261.043 242.87 265.62C242.01 266.621 240.719 267.622 239.427 268.052C237.419 268.481 235.698 267.336 235.554 265.334C235.554 263.903 236.558 262.187 237.706 261.043C240.432 258.325 243.588 256.036 246.17 253.176C249.756 249.171 252.912 244.879 256.212 240.588C259.368 236.44 262.38 232.149 265.536 227.858C268.549 223.853 271.562 219.705 274.718 215.7C275.865 214.127 277.013 212.553 278.304 210.98C279.452 209.549 279.308 208.262 278.017 206.975C275.148 204.114 275.291 202.254 278.591 199.966C279.308 199.537 279.882 198.822 280.599 198.392C281.317 197.963 282.608 196.962 283.038 197.248C285.333 198.678 288.489 198.249 290.354 200.681C291.358 202.111 291.072 202.97 290.641 204.4C290.354 205.258 290.498 206.689 291.071 207.547C295.662 213.84 300.54 219.705 304.843 226.142C307.856 230.576 310.008 235.582 312.733 240.016C316.033 245.309 320.05 250.172 323.349 255.464C326.075 259.898 328.226 264.476 330.235 269.196C331.526 272.2 329.231 274.917 325.501 275.346C326.362 276.205 327.079 276.634 327.653 277.349C328.657 278.779 329.518 280.353 327.796 281.783C325.931 283.5 324.066 283.5 322.632 281.926C318.328 277.206 314.024 272.486 309.577 267.765C309.29 267.479 308.717 267.479 307.999 267.622C310.008 270.34 312.016 273.201 314.168 275.776C318.328 280.496 322.632 284.93 326.792 289.507C329.661 291.939 329.087 293.655 324.784 296.087ZM293.08 238.014C303.552 249.886 314.024 261.472 324.353 273.201C324.497 273.058 324.784 272.915 324.927 272.772C324.927 272.343 325.07 271.914 324.927 271.484C322.919 267.622 321.197 263.474 318.902 259.755C315.459 254.177 311.442 248.885 307.999 243.449C304.269 237.585 300.826 231.577 297.097 225.569C295.949 223.71 294.658 221.994 293.367 219.991C290.354 223.281 288.346 226.428 290.641 230.576C292.506 229.575 294.228 229.002 295.519 231.148C296.953 233.437 296.236 235.153 293.08 238.014ZM320.193 292.654C310.581 281.211 301.4 270.483 292.363 259.612C292.076 259.755 291.789 259.898 291.502 260.041C292.076 261.472 292.219 263.045 293.08 264.19C295.375 267.05 297.814 269.768 300.396 272.486C305.561 278.207 310.725 283.786 316.033 289.364C317.037 290.508 318.472 291.224 320.193 292.654ZM280.169 251.888C280.456 252.174 280.743 252.604 281.173 252.89C285.046 252.317 285.333 252.174 283.468 248.741C282.177 249.886 281.173 250.887 280.169 251.888Z" fill="#FDF5E6"/>
<path d="M48.6314 139.604C46.4795 138.031 44.1842 136.601 45.4753 134.169C46.7664 131.594 48.6314 129.163 50.7832 127.017C51.9308 125.873 54.2261 127.16 54.513 129.02C54.7999 130.164 54.7999 131.308 54.9434 133.311C57.0952 131.594 58.8167 130.164 60.6816 129.02C62.1162 128.161 63.5507 127.303 65.1287 126.731C65.846 126.445 67.424 126.874 67.5675 127.16C67.8544 128.161 67.9979 129.735 67.424 130.45C65.5591 132.739 63.2638 134.598 61.112 136.744C60.3947 137.459 59.3905 139.032 59.534 139.175C60.5382 140.176 61.8293 141.178 63.1204 141.607C64.5549 142.179 66.1329 142.322 68.1413 142.894C65.846 146.041 67.424 147.471 69.1455 149.617C74.4534 155.625 79.4743 162.061 84.6387 168.212C91.3811 176.365 98.1235 184.375 105.009 192.528C106.587 194.388 107.305 195.961 105.87 198.536C104.579 200.681 103.288 200.109 102.284 198.822C97.6932 193.386 93.246 187.808 88.6555 182.229C85.356 178.224 82.0565 174.219 78.6136 170.214C75.4576 166.495 72.1581 162.776 69.002 159.2C65.846 161.203 65.846 162.204 68.1413 164.922C72.445 169.785 76.6052 174.791 80.9089 179.655C87.2209 186.664 93.5329 193.672 99.845 200.681C100.132 200.967 100.419 201.253 100.706 201.539C103.862 203.971 103.862 205.974 100.706 208.548C100.562 208.691 100.419 208.834 99.9884 209.263C101.423 210.551 102.571 211.981 104.149 212.982C108.165 215.414 108.596 218.132 103.718 221.136C104.722 222.709 105.583 224.282 106.587 225.856C106.3 226.142 106.014 226.428 105.727 226.571C103.144 224.711 100.275 223.138 97.8366 220.993C92.5288 216.129 87.5078 211.123 82.3434 206.26C78.4701 202.684 74.7403 198.965 70.867 195.532C66.5633 191.67 62.2596 187.951 57.2387 183.803C57.2387 186.95 57.0952 189.524 57.2387 192.099C57.5256 200.538 57.8125 208.977 58.2429 217.417C58.6732 225.284 59.2471 233.294 59.8209 241.161C60.3947 249.886 60.8251 258.468 61.2554 267.194C61.6858 274.059 62.2596 280.925 62.69 287.791C62.8335 290.652 62.8335 293.512 62.8335 296.373C62.8335 304.097 62.9769 311.964 62.8335 319.688C62.8335 322.406 62.2596 324.98 59.9643 326.697C59.1036 327.412 57.8125 327.412 56.8083 327.698C56.6649 326.697 56.091 325.696 56.378 324.837C57.956 317.257 58.0994 309.676 57.5256 302.095C56.8083 292.654 56.8083 283.071 56.5214 273.63C56.2345 267.05 55.9476 260.471 55.6607 253.891C55.2303 246.882 54.9434 239.73 54.513 232.722C54.0827 227.143 53.3654 221.565 53.0785 215.843C52.7916 212.553 52.935 209.406 52.935 206.117C52.7916 197.82 52.7916 189.524 52.6481 181.228C52.6481 180.656 52.5047 180.084 52.3612 178.797C49.9225 181.228 47.7706 183.231 45.7622 185.376C41.7455 189.667 38.0156 194.102 33.712 198.25C28.5476 203.256 23.3832 208.119 17.9319 212.839C13.0544 216.844 11.4764 216.558 7.02923 212.267C5.16431 213.555 3.44284 214.27 1.29101 212.696C-0.287003 211.409 -0.143548 210.265 0.860641 209.12C5.88159 203.256 10.9025 197.391 15.9235 191.527C21.9486 184.518 28.1172 177.652 34.2858 170.643C35.0031 169.928 35.5769 169.07 36.2942 168.641C38.5895 167.067 37.8722 165.923 35.8638 165.065C35.29 164.779 34.1423 164.779 33.8554 165.208C31.2732 168.212 28.8345 171.216 26.2523 174.219C21.3748 179.798 16.3538 185.519 11.3329 190.955C9.46798 192.957 7.31614 192.528 5.59468 190.526C4.16012 188.952 4.30358 186.95 6.1685 185.948C10.7591 183.517 13.4847 179.226 16.9277 175.65C20.6575 171.645 24.1004 167.354 27.5434 163.205C30.6994 159.63 33.8554 156.054 37.0115 152.335C37.4418 151.906 37.4418 150.332 37.0115 149.903C35.29 147.757 33.1381 146.041 31.5601 143.895C30.6994 142.608 30.1256 140.606 30.5559 139.175C30.6994 138.317 32.7078 137.173 33.9989 137.173C35.1465 137.173 36.4376 138.174 37.4418 139.175C38.7329 140.463 39.4502 142.751 41.0282 143.323C42.4628 143.752 44.4711 142.608 46.1926 142.036C46.9099 141.035 47.4837 140.32 48.6314 139.604ZM9.46798 208.691C13.4847 207.69 15.2062 206.546 19.0795 202.827C24.5308 197.534 30.1256 192.385 35.5769 187.093C38.7329 183.946 41.3151 180.513 44.4711 177.366C47.4837 174.505 47.4837 174.505 44.3277 171.931C44.1842 171.788 43.8973 171.502 43.7539 171.502C43.0366 171.502 42.1759 171.359 41.8889 171.788C37.8722 176.079 33.9989 180.37 29.9821 184.804C27.6868 187.379 25.2481 189.953 22.8093 192.528C20.0837 195.532 17.358 198.679 14.6324 201.826C13.0544 203.828 11.4764 205.974 9.46798 208.691ZM68.7151 185.376C69.0021 185.09 69.289 184.804 69.5759 184.518C65.7026 180.513 61.8293 176.365 57.5256 171.788C57.3821 173.075 57.0952 173.933 57.3821 174.219C61.112 177.938 64.9853 181.657 68.7151 185.376ZM61.2554 151.333C60.3947 152.621 58.9602 153.908 59.2471 154.48C59.8209 155.911 61.112 157.198 62.4031 157.77C62.9769 158.056 64.4115 156.197 65.7026 155.195C64.1246 153.908 62.8335 152.907 61.2554 151.333ZM43.18 161.489C44.0408 160.488 45.3319 159.343 45.1884 159.057C44.4711 157.913 43.467 156.626 42.1758 155.911C41.8889 155.768 40.5978 157.055 39.7371 157.627C40.8848 158.771 41.8889 159.916 43.18 161.489ZM50.6397 163.635C49.4921 164.493 48.7748 165.065 47.9141 165.923C49.2052 167.211 50.3528 168.212 51.5005 169.213C51.6439 169.07 51.7874 169.07 51.9308 168.927C51.5005 167.354 51.0701 165.78 50.6397 163.635Z" fill="#FDF5E6"/>
<path d="M149.337 325.41C149.911 324.408 150.198 323.407 150.772 322.978C151.919 322.263 153.497 321.119 154.502 321.405C156.223 321.977 156.08 323.693 155.075 325.124C153.497 327.412 153.784 329.987 155.075 331.846C159.809 338.569 164.543 345.149 169.564 351.585C173.007 355.877 176.737 360.025 180.324 364.173C180.754 364.602 181.328 365.031 181.328 365.603C181.471 366.604 181.184 367.463 181.041 368.464C180.037 368.035 178.746 367.892 178.315 367.32C173.868 361.598 169.421 355.734 164.974 349.869C161.674 345.435 158.231 341.144 154.645 336.424C153.928 338.569 153.928 339.999 155.362 341.573C160.957 348.153 166.552 354.732 172.003 361.455C174.729 364.888 177.454 368.321 179.893 372.04C180.61 373.041 180.467 374.614 180.467 375.902C180.467 376.331 179.463 376.76 178.889 376.903C178.602 376.903 177.885 376.331 177.741 375.902C176.163 372.898 175.016 369.751 173.007 367.033C169.851 362.456 166.265 358.308 162.965 353.874C162.535 353.302 161.818 352.73 161.1 352.158C157.944 355.877 157.944 355.734 160.814 358.88C165.404 363.887 170.138 368.75 174.442 373.899C178.315 378.476 181.902 383.483 185.488 388.346C185.918 388.918 186.205 390.492 185.918 390.778C185.344 391.35 184.197 391.35 182.906 391.35C184.484 389.204 183.049 388.489 181.902 387.202C177.885 382.481 174.155 377.475 170.138 372.755C166.982 369.036 163.539 365.46 160.24 361.884C159.953 361.598 159.666 361.169 159.379 360.883C158.375 360.168 158.375 357.736 156.51 359.023C154.932 360.025 154.788 363.458 156.08 364.745C159.522 368.035 163.109 371.182 166.265 374.757C171.429 380.622 176.163 386.63 181.041 392.637C181.328 392.923 181.471 393.352 181.615 393.781C181.615 394.067 181.615 394.211 181.471 394.926C173.581 384.913 164.83 376.188 155.219 367.177C154.788 396.213 154.358 424.534 153.784 452.999C151.345 454.429 150.485 454 150.628 450.853C150.772 447.42 151.346 443.987 151.346 440.555C151.489 434.69 151.632 428.826 151.489 422.961C151.489 417.383 151.059 411.661 151.202 406.083C151.346 399.503 152.063 392.923 152.206 386.487C152.35 380.193 152.206 373.899 152.206 367.606C151.919 367.463 151.489 367.32 151.202 367.177C148.333 371.468 145.607 375.759 142.595 379.907C139.439 384.198 136.426 388.632 132.84 392.494C129.397 396.213 126.815 401.076 121.363 402.507C124.376 399.074 127.675 395.641 130.401 391.922C134.705 386.2 138.865 380.336 143.025 374.471C145.32 371.182 147.616 368.035 149.911 364.745C151.489 362.456 148.907 362.027 148.046 360.883C147.185 359.596 146.038 360.025 145.32 361.026C144.029 362.742 142.738 364.459 141.447 366.318C137.574 372.04 133.557 377.618 129.684 383.483C128.536 385.199 128.106 387.202 127.102 388.918C126.671 389.633 125.667 390.062 124.806 390.778C124.806 389.776 124.376 388.775 124.663 387.917C128.393 378.906 134.561 371.468 140.156 363.601C141.447 361.741 143.025 360.025 144.603 358.165C143.742 357.307 143.025 356.592 141.877 355.59C139.008 359.166 135.996 362.885 133.127 366.461C131.262 368.893 129.397 371.182 127.675 373.756C126.815 374.9 126.384 376.474 125.523 377.618C124.806 378.476 123.802 379.335 122.941 379.907C122.654 380.05 121.363 379.192 121.507 378.906C121.65 377.904 121.794 376.617 122.367 375.759C125.093 372.326 127.962 369.179 130.831 365.746C133.127 363.028 135.278 360.311 137.43 357.593C140.156 354.16 142.882 350.87 145.607 347.437C146.898 346.007 148.476 344.72 149.481 343.146C149.911 342.574 149.481 341.43 149.337 340.572C148.476 340.715 147.472 340.572 147.042 341.144C143.312 345.435 139.439 349.726 135.996 354.16C132.84 358.165 130.114 362.599 127.102 366.604C126.671 367.176 125.81 367.176 125.093 367.463C124.95 366.747 124.519 365.889 124.806 365.46C125.954 363.458 127.102 361.598 128.393 359.882C132.266 354.875 136.283 349.869 140.299 344.72C141.877 342.717 143.599 340.572 144.89 338.426C145.32 337.711 144.747 336.424 144.603 335.422C144.316 335.422 144.029 335.422 143.742 335.422C140.873 338.855 138.004 342.145 135.278 345.578C131.979 349.869 128.966 354.303 125.523 358.594C125.093 359.166 123.659 359.166 122.654 359.309C122.654 358.308 122.224 356.878 122.654 356.306C123.802 354.875 125.667 354.017 126.815 352.587C129.397 349.44 131.836 346.15 134.418 343.003C136.426 340.429 138.435 337.854 140.443 335.279C140.873 334.85 141.447 334.278 141.447 333.849C141.304 330.273 144.89 329.987 146.468 327.412C145.607 326.697 144.747 325.696 143.599 324.981C142.308 324.122 141.877 322.692 143.025 321.834C143.742 321.262 145.464 321.691 146.468 322.12C148.046 322.978 148.476 324.265 149.337 325.41ZM155.793 353.588C156.653 352.587 157.514 351.872 158.088 351.013C158.518 350.441 158.518 349.726 158.805 349.011C157.944 348.725 156.797 348.153 156.223 348.439C153.928 349.869 154.502 351.585 155.793 353.588ZM149.05 335.565C150.628 334.135 151.632 332.848 149.911 330.988C149.624 330.559 148.333 330.416 148.046 330.702C146.468 332.418 147.329 333.992 149.05 335.565ZM151.919 360.311C151.776 357.879 151.776 356.163 151.632 354.16C148.333 356.163 148.189 357.45 151.919 360.311ZM149.337 350.87C148.907 350.584 148.333 350.441 147.903 350.155C147.329 351.299 146.755 352.587 146.181 353.731C146.755 353.874 147.759 354.303 147.903 354.16C148.333 353.159 148.907 352.015 149.337 350.87Z" fill="#FDF5E6"/>
</g>
<defs>
<clipPath id="clip0">
<rect width="330.665" height="454" fill="white"/>
</clipPath>
</defs>
</svg>
