<svg width="213" height="346" viewBox="0 0 213 346" fill="none" xmlns="http://www.w3.org/2000/svg">
<path d="M151.2 160.1C152.3 158.9 153.6 158.6 155.1 159.4C155.5 159.6 156.2 159.3 156.8 159.3C157.9 159.4 159.2 159.1 159.9 159.7C161 160.6 161.8 161.9 160.7 163.5C159.7 164.8 158.7 166.2 157.9 167.6C157.5 168.4 157.2 169.6 157.5 170.3C158.3 172.2 159.4 174 160.4 175.8C163.8 181.7 167.2 187.6 170.7 193.4C172.4 196.3 174.5 198.9 176.3 201.8C180 207.6 183.4 213.6 185.8 220.2C186.1 221 185.4 222.1 185.2 223C184.4 222.5 183.4 222.1 182.9 221.4C180.7 218.1 178.7 214.7 176.6 211.4C172.3 204.7 167.9 198 163.7 191.3C161.7 188.1 159.8 184.8 157.9 181.6C157.6 181.1 157.3 180.6 157 180.2C156.8 180.3 156.6 180.3 156.4 180.4C156.6 181.1 156.6 181.9 157 182.4C158.5 184.6 158.6 185.7 157.1 188C156.8 188.6 156.5 189.3 156.5 189.9C156.4 193.7 156.5 197.5 156.4 201.2C156.4 202 156.2 202.8 156 203.7C155.5 206.3 155.8 208.5 157.6 210.8C162.2 216.3 166.4 222.1 170.7 227.8C172.8 230.6 174.7 233.6 176.7 236.5C177.6 237.9 176.3 238.8 175.9 239.9C175.9 239.9 174.8 239.8 174.5 239.5C172.2 237 169.9 234.4 167.7 231.8C164.7 228.3 161.8 224.7 158.8 221.1C157.7 219.7 156.7 218.2 155.6 216.7C155.4 216.8 155.2 216.8 155 216.9C154.8 218.6 154.5 220.2 154.3 221.9C154.2 222.6 154.3 223.3 154.2 224C153.9 225.5 153.9 226.9 155.9 227.2C156.3 227.3 156.5 227.8 156.9 228.1C157.4 228.6 157.8 229.2 158.4 229.5C160.2 230.4 160.6 231.5 159.9 233.5C159.6 234.3 159.7 235.5 160.1 236.2C163.6 241.6 167.1 246.9 170.7 252.2C173.3 256 176.2 259.6 178.9 263.4C182 267.7 185 272.1 187.8 276.6C188.7 278 189.3 279.7 189.7 281.3C190.1 282.7 190.1 284.3 190.1 285.8C190.1 286.2 189.7 286.6 189.5 286.9C189 286.6 188.4 286.4 188.2 286C186.9 283.8 185.7 281.4 184.3 279.2C182.3 276.1 180.2 273.1 178.1 270.2C174.8 265.7 171.2 261.4 168 256.9C164.5 251.9 161.2 246.8 157.8 241.7C156.6 239.9 155.6 238.1 154.5 236.3C154.3 236.3 154.1 236.2 153.9 236.2C153.5 237.1 153 238 152.8 238.9C152.1 243 151.6 247.1 151 251.2C150.7 253.2 150.5 255.2 150.3 257.2C149.7 263.4 149.1 269.5 148.5 275.7C148.1 279.8 147.7 283.8 147.4 287.9C147.2 289.8 147.2 291.7 147.1 293.7C147 296.2 144.1 297.9 142.6 296.4C142.1 295.9 141.7 295.2 141.7 294.6C141.7 292.8 141.9 290.9 142 289.1C142.4 284.8 142.9 280.5 143.3 276.2C143.7 272.1 144.2 268 144.6 263.8C145.1 258.6 145.6 253.4 146.2 248.2C146.4 246.4 146.9 244.6 147.4 242.3C146.5 242.8 146 243 145.6 243.3C141 247.8 136.4 252.3 131.8 256.8C127.4 261.1 123.2 265.5 118.7 269.6C114.7 273.3 110.4 276.7 106.2 280.2C104 282.1 101.7 283.9 99.3997 285.6C98.7997 286 97.3997 286.1 97.0997 285.7C96.6997 285.1 96.4997 283.8 96.8997 283.2C97.5997 282.1 98.6997 281.2 99.7997 280.3C101.6 278.7 103.5 277.1 105.4 275.5C108 273.2 110.6 270.8 113.2 268.4C116.5 265.3 119.9 262.2 123.1 259C125.9 256.2 128.6 253.2 131.5 250.4C134.4 247.5 137.4 244.7 140.5 241.9C142.8 239.8 145.1 237.8 147.4 235.7C147.9 235.3 148.2 234.5 148.3 233.9C148.6 232.1 148.7 230.3 148.9 228.6C149.2 226.4 149.5 224.3 149.8 222.1C150 220.9 150.1 219.7 150.2 218.6C150.4 216.6 150.6 214.6 150.9 212.6C151.1 211.1 150.5 210.1 149.5 209.1C147.8 207.4 146.2 205.7 144.5 204.1C143.5 203.1 142.9 204 142.4 204.8C140.5 207.6 138.6 210.4 136.6 213.2C132.5 219.1 128.4 225.1 124.1 230.9C121 235.1 117.8 239.1 114.5 243C113.1 244.7 111.2 246.1 109.5 247.5C109.1 247.8 108.1 247.9 107.9 247.7C107.6 247.3 107.4 246.4 107.7 246C109 243.8 110.4 241.6 111.8 239.5C114.2 236 116.5 232.6 119 229.2C121.1 226.3 123.3 223.4 125.4 220.5C126.4 219.1 127.3 217.5 128.3 216.1C131.7 211.1 135 206.1 138.7 201.3C142.5 196.3 146.7 191.6 150.7 186.7C151.3 186 151.6 184.9 151.6 184C151.7 182.4 151.5 180.7 151.4 179C151.2 178.9 151 178.8 150.9 178.7C150.4 179.3 149.8 179.9 149.3 180.5C147.4 183.1 145.6 185.9 143.6 188.4C139.8 193.1 136 197.6 132 202.1C128.9 205.6 125.8 209 122.5 212.3C119.8 215.1 116.7 217.3 113.1 218.7C112.5 218.9 111.7 219 111.2 218.8C110.5 218.5 109.7 217.8 109.4 217.2C109 216.2 109.6 215.3 110.8 214.9C114.2 213.6 116.5 210.9 119.1 208.6C122.7 205.4 125.6 201.6 128.8 198.1C132.6 193.9 136.1 189.5 139.5 185C143 180.3 146.4 175.5 149.7 170.7C150.1 170.1 150.2 168.9 149.9 168.3C149 166.9 147.8 165.6 146.6 164.3C145.3 163 145.1 161.1 146.2 159.8C147 158.8 149 158.7 150.3 159.6C150.6 159.6 150.9 159.8 151.2 160.1ZM150.8 203.1C151 202.9 151.3 202.8 151.5 202.6C151.5 199.8 151.5 196.9 151.5 193.7C150 195.5 148.8 197 147.7 198.5C147.5 198.7 147.5 199.3 147.7 199.5C148.7 200.7 149.7 201.9 150.8 203.1Z" fill="#FDF5E6"/>
<path d="M86.8998 57.1999C86.6998 61.8999 86.3998 66.5999 86.1998 70.8999C87.4998 70.8999 88.5998 70.5999 89.3998 70.9999C89.9998 71.2999 90.1998 72.3999 90.2998 73.1999C90.2998 73.6999 89.7998 74.2999 89.3998 74.5999C87.8998 75.5999 88.4998 76.6999 89.1998 77.7999C90.9998 80.5999 92.8998 83.3999 94.6998 86.1999C96.5998 88.9999 98.3998 91.7999 100.4 94.5999C103.9 99.3999 107.6 104.1 111 109C111.7 109.9 111.9 111.3 112 112.5C112 113.2 111.2 114 110.6 115.1C105.9 109.6 101.3 104.7 97.2998 99.2999C93.2998 93.8999 89.7998 88.0999 86.0998 82.4999C85.9998 82.5999 85.7998 82.5999 85.6998 82.6999C85.0998 91.0999 84.5998 99.4999 83.8998 108.4C85.6998 107 87.1998 106 88.5998 104.9C89.9998 103.8 91.3998 103.8 92.3998 105C93.3998 106.3 92.9998 107.3 91.4998 108.6C88.9998 110.9 86.4998 113.2 84.2998 115.7C82.8998 117.4 83.2998 119.6 84.6998 121.3C87.8998 125.4 90.8998 129.6 93.2998 134.3C94.2998 136.3 95.8998 138.1 97.2998 139.9C98.9998 142.1 100.6 144.5 102.5 146.5C105.1 149.3 108 151.9 110.8 154.5C111.6 155.2 112.6 155.8 113.1 156.8C113.5 157.5 113.5 158.9 113 159.5C112.4 160.2 111.4 161.4 110 160.1C107.2 157.6 104 155.5 101.4 152.8C98.4998 150 95.7998 146.9 93.4998 143.6C90.2998 139.2 87.5998 134.4 84.6998 129.8C84.3998 129.3 83.9998 128.8 83.2998 127.8C83.1998 128.6 83.0998 129 83.0998 129.4C82.7998 138.8 82.6998 148.2 82.2998 157.6C81.9998 163.3 81.3998 169.1 80.7998 174.8C80.5998 177.4 80.1998 179.9 79.7998 182.5C79.6998 183.2 79.1998 183.8 78.7998 184.5C78.1998 183.7 76.9998 182.9 76.9998 182.1C76.9998 178.7 77.2998 175.2 77.4998 171.8C77.6998 169 77.9998 166.2 78.0998 163.4C78.3998 156.3 78.6998 149.2 78.8998 142.1C79.0998 136.8 79.1998 131.6 79.5998 126.4C79.6998 124.6 78.2998 124.1 77.3998 123.2C77.2998 123.1 76.2998 123.5 75.9998 123.8C74.0998 125.8 72.3998 128 70.4998 130C67.0998 133.5 63.5998 136.8 60.2998 140.3C56.0998 144.6 52.0998 149 47.9998 153.4C44.8998 156.7 41.8998 159.9 38.6998 163.1C37.7998 164.1 36.3998 164.3 35.2998 163.4C34.3998 162.6 33.2998 161.5 34.3998 160.2C36.2998 157.9 38.3998 155.6 40.4998 153.4C44.6998 149 48.8998 144.6 53.1998 140.3C56.3998 137 59.6998 133.9 62.8998 130.6C65.6998 127.8 68.3998 124.9 71.0998 122C73.7998 119.1 76.5998 116.2 79.2998 113.2C79.9998 112.4 80.3998 111.2 80.4998 110.2C80.7998 104.5 80.7998 98.6999 80.9998 92.9999C81.0998 90.4999 81.3998 88.0999 81.5998 85.5999C81.5998 85.1999 81.4998 84.7999 81.4998 84.3999C81.2998 84.2999 81.0998 84.0999 80.8998 83.9999C80.0998 84.9999 79.2998 85.9999 78.4998 86.8999C75.3998 90.3999 72.1998 93.7999 68.9998 97.2999C65.5998 101 62.2998 104.9 58.7998 108.5C55.1998 112.2 51.3998 115.6 47.6998 119.2C42.6998 124 37.7998 128.9 32.7998 133.7C30.9998 135.4 29.1998 137.1 27.1998 138.6C25.7998 139.6 24.1998 139.8 22.5998 138.8C21.9998 134.7 22.1998 134.8 25.6998 132.4C28.1998 130.7 30.3998 128.6 32.5998 126.5C36.3998 122.9 39.9998 119.1 43.6998 115.5C47.8998 111.3 52.1998 107.3 56.3998 103.1C61.2998 98.0999 66.2998 93.0999 70.9998 87.9999C73.9998 84.7999 76.5998 81.1999 79.4998 77.8999C81.6998 75.2999 82.3998 72.3999 82.2998 69.0999C82.1998 64.6999 82.6998 60.1999 82.8998 55.7999C82.8998 54.9999 82.8998 54.2999 82.8998 52.9999C81.1998 54.5999 79.7998 55.8999 78.4998 57.1999C74.0998 61.6999 69.6998 66.0999 65.3998 70.5999C61.3998 74.6999 57.4998 78.8999 53.4998 82.9999C52.0998 84.4999 50.3998 85.7999 48.9998 87.1999C48.2998 87.8999 47.6998 88.8999 47.1998 89.7999C46.3998 91.1999 44.9998 91.8999 43.4998 91.9999C42.7998 91.9999 41.8998 91.1999 41.3998 90.4999C40.3998 88.8999 40.9998 86.7999 42.4998 85.3999C46.0998 82.0999 49.6998 78.6999 53.2998 75.2999C55.6998 73.0999 57.9998 70.7999 60.2998 68.4999C63.4998 65.2999 66.5998 62.0999 69.7998 58.8999C73.2998 55.2999 76.8998 51.7999 80.3998 48.1999C80.7998 47.7999 80.8998 46.5999 80.5998 46.0999C79.0998 43.9999 77.2998 42.0999 75.7998 39.9999C74.9998 38.7999 74.5998 37.1999 74.2998 35.6999C74.0998 34.8999 76.8998 33.4999 77.5998 34.0999C78.7998 35.0999 79.9998 36.0999 81.0998 37.2999C81.8998 38.1999 82.4998 39.2999 83.2998 40.4999C84.4998 39.8999 85.7998 39.4999 86.7998 41.2999C88.2998 39.4999 89.6998 37.7999 91.1998 36.1999C93.3998 33.6999 95.6998 31.2999 97.7998 28.7999C98.7998 27.5999 99.8998 26.5999 101.6 26.8999C102.5 27.0999 103.3 30.5999 102.7 31.7999C102.5 32.1999 102.1 32.4999 101.8 32.8999C97.9998 36.8999 94.2998 40.7999 90.4998 44.7999C90.3998 44.8999 90.2998 45.0999 90.1998 45.1999C87.6998 47.5999 87.6998 47.5999 89.2998 50.4999C91.5998 54.6999 93.8998 58.9999 96.1998 63.1999C98.0998 66.6999 99.8998 70.2999 102.2 73.4999C104.2 76.2999 106.7 78.6999 109 81.2999C109.6 81.9999 110.1 82.7999 110.6 83.6999C111.4 85.3999 109.9 87.9999 108 87.8999C107.1 87.8999 106.1 87.8999 106.2 86.2999C106.3 85.5999 105.5 84.5999 104.9 83.8999C102.3 80.9999 99.3998 78.2999 96.9998 75.1999C95.3998 73.1999 94.3998 70.7999 93.1998 68.5999C91.1998 64.7999 89.2998 60.9999 87.3998 57.1999C87.2998 57.2999 87.0998 57.2999 86.8998 57.1999Z" fill="#FDF5E6"/>
</svg>
