<svg width="311" height="427" viewBox="0 0 311 427" fill="none" xmlns="http://www.w3.org/2000/svg">
<g clip-path="url(#clip0)">
<path d="M140.456 112.871C145.178 106.145 149.766 99.5526 154.488 93.0951C158.266 87.983 162.179 83.1399 165.957 78.1622C166.496 77.4896 166.631 76.5479 166.631 75.7407C166.496 74.1263 167.036 72.9155 168.52 72.6465C172.028 71.8393 173.647 68.7451 174.862 66.189C176.076 63.6329 172.028 63.6329 171.084 61.7495C171.084 61.615 169.33 61.7495 168.925 62.2876C165.282 66.8617 161.774 71.5702 158.266 76.1443C153.409 82.3327 148.686 88.6556 143.559 94.7095C142.48 96.0548 140.456 96.7275 138.702 97.2656C137.083 97.8037 136.948 96.4584 137.488 95.3821C138.702 92.9606 140.051 90.539 141.535 88.3866C145.448 82.6017 149.361 76.9515 153.409 71.3012C156.782 66.4581 160.425 61.7495 163.798 56.9064C161.099 54.6194 160.829 54.7539 158.806 57.1755C153.139 63.902 147.607 70.8976 141.67 77.355C140.051 79.104 138.027 81.2564 134.654 80.9874C134.789 80.3147 134.654 79.6421 134.924 79.2385C135.464 78.1622 136.273 77.086 136.948 76.0097C139.781 72.1084 141.67 67.3998 145.583 64.1711C146.528 63.3639 146.932 61.7495 147.742 60.6733C150.575 56.7719 153.544 53.005 156.512 49.2382C160.155 44.7987 164.203 40.4937 167.846 36.0542C168.25 35.516 168.115 34.4398 167.846 33.6326C167.441 32.8254 166.766 32.1528 165.957 31.0765C164.877 32.2873 164.203 32.96 163.663 33.7671C158.941 40.3591 154.218 46.8166 149.361 53.4086C147.472 56.0992 145.448 58.7898 143.289 61.2114C142.345 62.2876 140.861 63.2293 139.107 62.5567C136.813 61.7495 136.138 59.8661 137.488 57.8481C141.266 52.736 145.178 47.6238 148.956 42.5116C153.004 36.9959 156.782 31.4801 160.695 25.8298C160.964 25.4263 160.83 24.4845 160.56 23.9464C160.155 23.2738 159.48 22.8702 158.941 22.1975C157.187 20.4486 156.782 18.0271 157.996 16.8163C159.48 15.0674 162.449 14.9329 164.338 16.5472C164.742 16.9508 165.012 17.6235 165.552 18.2961C166.092 17.4889 166.226 17.0854 166.496 16.6818C167.441 15.471 169.33 13.8566 169.06 12.9149C168.52 10.8969 166.766 9.14805 165.687 7.26462C164.877 5.91932 163.933 4.43948 163.933 2.95964C163.798 0.134503 167.576 -1.07627 170.409 0.672625C171.489 1.34528 172.433 2.42152 173.782 0.941686C173.917 0.807156 174.322 0.672625 174.457 0.807156C177.155 1.8834 179.989 2.95964 182.687 4.17042C184.036 4.84307 184.441 5.91932 183.362 7.26462C182.552 8.20634 182.013 9.14805 181.203 10.3588C183.497 13.453 186.06 16.6818 188.354 19.9105C190.513 23.0047 192.672 25.9644 194.83 29.1931C199.553 36.3232 204.005 43.7224 208.997 50.718C211.156 53.8122 214.394 56.2338 216.823 59.1934C218.307 61.0769 219.521 63.4984 220.331 65.7854C220.601 66.4581 219.521 68.0724 218.712 68.476C217.498 69.0142 215.879 69.0142 214.529 68.8796C213.315 68.7451 212.236 68.207 213.45 66.5926C213.72 66.3235 213.45 65.2473 213.045 64.8437C210.212 61.4804 207.243 58.3862 204.545 54.8884C201.037 50.3144 197.664 45.7404 194.426 41.0318C190.648 35.516 186.87 29.7312 183.092 24.2155C182.282 23.0047 181.473 21.9285 180.528 20.8522C180.259 20.5831 179.719 20.3141 179.584 20.4486C179.314 20.7177 178.909 21.1213 178.909 21.5249C179.314 25.5608 179.854 29.5967 180.393 33.6326C180.528 34.3053 180.663 34.9779 180.528 35.516C180.259 37.2649 180.933 38.3412 182.282 39.4174C183.227 40.0901 183.767 40.7627 183.767 42.2426C183.767 43.7224 185.386 45.2022 186.465 46.5476C188.489 49.2382 190.783 51.6597 192.806 54.3503C194.021 55.9647 195.1 57.7136 196.315 59.4625C199.823 64.5746 203.331 69.5523 206.704 74.6644C210.347 80.0457 213.99 85.4269 217.633 90.8081C219.117 93.0951 220.601 95.3821 222.085 97.8037C223.299 99.6871 223.434 101.705 222.085 103.589C223.974 106.817 228.022 109.104 226.538 114.62C223.974 112.602 221.68 111.122 219.656 109.239C217.633 107.355 215.879 105.203 213.99 103.454C213.045 102.647 211.831 102.243 210.886 101.571C208.053 99.5526 205.22 97.5346 202.251 95.6512C197.394 92.6915 192.537 89.8664 187.544 87.0412C186.6 86.5031 185.521 86.0995 184.306 85.5614C184.306 88.9247 184.171 92.0189 184.306 95.1131C184.441 99.8217 184.981 104.53 185.116 109.239C185.521 123.499 185.79 137.894 186.195 152.154C186.33 156.055 186.6 159.822 186.87 163.589C186.87 163.858 187.005 164.262 187.14 164.531C188.489 167.491 187.814 168.567 184.576 168.97C183.767 169.105 183.092 169.374 182.282 169.643C179.854 168.432 180.259 165.876 180.124 163.724C179.854 155.921 179.854 147.984 179.719 140.181C179.584 133.723 179.854 127.131 179.584 120.674C179.449 114.889 178.774 109.104 178.505 103.454C178.1 97.2656 177.695 91.2117 177.425 85.0233C177.425 83.4089 177.29 82.1982 175.536 81.66C173.782 81.1219 172.838 81.5255 171.623 83.1399C168.25 87.8484 164.338 92.4225 160.829 96.9965C157.321 101.571 154.083 106.145 150.71 110.719C149.361 112.468 147.877 113.947 146.123 115.293C144.234 116.369 142.075 115.427 140.456 112.871ZM188.489 59.1934C187.679 60.1351 187.14 60.5387 186.735 61.0769C184.576 63.6329 184.846 64.3056 187.275 66.3235C190.783 69.2832 194.156 72.3774 197.394 75.4716C199.418 77.355 201.172 79.373 203.061 81.391C203.196 81.2564 203.465 80.9874 203.6 80.8528C198.608 73.7227 193.616 66.4581 188.489 59.1934ZM165.552 49.1036C168.25 51.6597 168.79 51.6597 170.814 49.1036C171.488 48.2964 172.298 47.3547 172.973 46.5476C174.052 45.0677 174.187 42.7807 172.973 41.3009C170.544 43.8569 168.115 46.413 165.552 49.1036ZM194.561 82.4672C194.695 82.1982 194.83 82.0636 194.83 81.7946C191.052 78.4313 187.275 75.2026 183.227 71.7048C182.148 75.3371 182.822 76.8169 185.386 77.8932C186.33 78.2968 187.275 78.9694 188.354 79.5075C190.513 80.5838 192.537 81.5255 194.561 82.4672ZM171.893 27.4442C172.298 27.3097 172.568 27.3097 172.973 27.1751C172.973 25.6953 172.973 24.2155 172.973 22.7356C172.838 22.6011 172.568 22.4666 172.433 22.332C171.893 23.0047 170.949 23.5428 170.949 24.2155C170.814 25.2917 171.489 26.368 171.893 27.4442ZM181.608 55.4266C183.632 53.6777 183.362 52.3324 180.933 51.3907C181.203 52.736 181.473 53.9467 181.608 55.4266Z" fill="black"/>
<path d="M305.468 278.478C306.143 279.958 306.817 281.572 307.897 283.59C306.143 284.129 304.524 284.667 302.77 284.936C302.23 285.07 301.555 284.532 301.016 284.129C295.754 279.42 290.492 274.577 285.23 269.734C284.96 269.465 284.69 269.465 284.015 269.599C286.579 272.962 289.142 276.326 291.571 279.824C294.944 284.263 298.182 288.837 301.42 293.277C302.905 295.295 303.309 297.447 302.635 300.138C299.532 300.138 297.643 298.12 295.889 296.236C292.515 292.469 289.277 288.434 286.174 284.398C283.341 280.631 280.642 276.729 277.944 272.962C277.404 272.155 276.594 271.483 276.055 270.945C276.19 276.998 276.459 282.918 276.459 288.972C276.459 295.967 276.46 302.828 276.325 309.824C276.325 312.784 276.325 315.743 276.19 318.837C275.785 324.488 275.38 330.138 274.84 335.923C274.705 336.999 273.761 338.075 272.817 338.748C272.007 339.286 270.523 339.555 269.848 339.152C269.039 338.613 268.499 337.134 268.634 336.057C269.039 331.214 269.713 326.506 269.983 321.663C270.388 314.129 270.793 306.595 270.928 299.196C271.063 293.546 270.928 287.761 270.658 282.111C270.388 276.057 269.713 270.003 269.039 263.949C268.904 263.142 268.094 262.335 267.42 261.796C265.666 260.182 265.666 258.837 267.15 257.222C269.309 255.07 269.443 253.456 267.555 250.496C266.475 251.976 265.396 253.321 264.451 254.666C261.483 258.971 258.65 263.411 255.681 267.581C251.499 273.501 247.316 279.285 242.998 285.07C242.054 286.416 239.76 286.55 238.141 285.474C236.792 284.532 236.657 282.649 237.736 281.169C241.649 275.788 245.562 270.406 249.34 265.025C253.387 259.24 257.3 253.321 261.618 247.805C263.777 245.249 262.427 243.366 261.753 240.541C259.999 242.559 258.38 244.307 256.896 246.056C251.364 252.783 245.832 259.509 240.435 266.236C238.951 267.985 237.871 270.137 236.387 271.886C235.578 273.097 232.339 272.963 231.125 271.483C230.585 270.675 230.45 268.792 231.125 267.985C236.252 260.989 241.514 253.994 246.911 247.402C251.499 241.751 256.491 236.505 261.348 231.123C262.697 229.644 262.967 228.433 260.943 226.819C259.324 228.702 257.705 230.585 256.221 232.469C252.713 236.639 249.205 240.81 245.832 245.115C242.594 249.016 239.625 253.052 236.252 256.953C234.228 259.375 232.069 261.527 229.911 263.814C228.696 265.025 225.998 265.16 225.188 264.083C223.974 262.604 224.109 260.317 225.458 258.837C230.72 253.052 236.252 247.402 241.244 241.348C245.562 236.236 249.34 230.72 253.387 225.339C255.276 222.917 257.3 220.63 259.324 218.478C261.348 216.325 260.673 214.307 259.459 211.751C256.221 215.787 253.118 219.554 250.149 223.321C246.641 227.76 243.403 232.469 239.76 236.774C236.117 241.213 232.339 245.518 228.427 249.823C227.617 250.765 226.403 251.707 225.188 252.11C223.299 252.514 221.68 251.438 221.545 249.554C221.545 248.209 222.49 246.595 223.569 245.518C226.133 242.962 229.101 240.81 231.53 238.119C234.903 234.352 237.871 230.316 240.974 226.28C243.943 222.379 246.776 218.343 249.745 214.307C252.578 210.54 255.411 206.639 258.38 202.872C259.459 201.392 260.538 199.912 261.753 198.433C262.832 197.087 262.697 195.876 261.483 194.666C258.784 191.975 258.919 190.226 262.023 188.074C262.697 187.67 263.237 186.997 263.912 186.594C264.586 186.19 265.801 185.249 266.205 185.518C268.364 186.863 271.332 186.459 273.086 188.746C274.031 190.092 273.761 190.899 273.356 192.244C273.086 193.051 273.221 194.397 273.761 195.204C278.079 201.123 282.666 206.639 286.714 212.693C289.547 216.863 291.571 221.572 294.135 225.742C297.238 230.72 301.016 235.294 304.119 240.272C306.682 244.442 308.706 248.747 310.595 253.187C311.81 256.012 309.651 258.568 306.143 258.971C306.952 259.779 307.627 260.182 308.167 260.855C309.111 262.2 309.921 263.68 308.302 265.025C306.548 266.64 304.794 266.64 303.444 265.16C299.397 260.72 295.349 256.281 291.166 251.841C290.896 251.572 290.357 251.572 289.682 251.707C291.571 254.263 293.46 256.953 295.484 259.375C299.397 263.814 303.444 267.985 307.357 272.29C310.056 274.577 309.516 276.191 305.468 278.478ZM275.65 223.859C285.499 235.025 295.349 245.922 305.063 256.953C305.198 256.819 305.468 256.684 305.603 256.55C305.603 256.146 305.738 255.743 305.603 255.339C303.714 251.707 302.095 247.805 299.936 244.307C296.698 239.061 292.92 234.083 289.682 228.971C286.174 223.455 282.936 217.805 279.428 212.155C278.348 210.406 277.134 208.791 275.92 206.908C273.086 210.002 271.197 212.962 273.356 216.863C275.11 215.922 276.729 215.383 277.944 217.401C279.293 219.554 278.618 221.168 275.65 223.859ZM301.151 275.25C292.111 264.487 283.476 254.397 274.975 244.173C274.705 244.307 274.436 244.442 274.166 244.577C274.705 245.922 274.84 247.402 275.65 248.478C277.809 251.169 280.102 253.725 282.531 256.281C287.388 261.662 292.246 266.909 297.238 272.155C298.182 273.232 299.532 273.904 301.151 275.25ZM263.507 236.908C263.777 237.177 264.046 237.581 264.451 237.85C268.094 237.312 268.364 237.177 266.61 233.949C265.396 235.025 264.451 235.967 263.507 236.908Z" fill="black"/>
<path d="M45.7393 131.302C43.7154 129.822 41.5566 128.477 42.771 126.19C43.9853 123.768 45.7393 121.481 47.7632 119.463C48.8425 118.387 51.0013 119.598 51.2712 121.347C51.541 122.423 51.541 123.499 51.6759 125.382C53.6998 123.768 55.3189 122.423 57.0729 121.347C58.4222 120.539 59.7714 119.732 61.2556 119.194C61.9302 118.925 63.4143 119.329 63.5493 119.598C63.8191 120.539 63.954 122.019 63.4143 122.692C61.6603 124.844 59.5015 126.593 57.4777 128.611C56.8031 129.284 55.8586 130.764 55.9935 130.898C56.938 131.84 58.1523 132.782 59.3666 133.185C60.7159 133.723 62.2 133.858 64.089 134.396C61.9302 137.356 63.4143 138.701 65.0334 140.719C70.0256 146.369 74.748 152.423 79.6052 158.208C85.9467 165.876 92.2881 173.41 98.7645 181.078C100.249 182.827 100.923 184.307 99.574 186.728C98.3597 188.746 97.1454 188.208 96.2009 186.997C91.8833 181.885 87.7007 176.639 83.3831 171.392C80.2799 167.625 77.1766 163.858 73.9384 160.091C70.9701 156.594 67.8668 153.096 64.8985 149.732C61.9302 151.616 61.9302 152.558 64.089 155.114C68.1367 159.688 72.0495 164.396 76.0972 168.97C82.0339 175.562 87.9705 182.154 93.9072 188.746C94.177 189.015 94.4469 189.284 94.7167 189.553C97.6851 191.841 97.6851 193.724 94.7167 196.146C94.5818 196.28 94.4469 196.415 94.0421 196.818C95.3913 198.029 96.4707 199.374 97.9549 200.316C101.733 202.603 102.138 205.159 97.5501 207.984C98.4946 209.464 99.3042 210.944 100.249 212.424C99.9788 212.693 99.7089 212.962 99.4391 213.096C97.0104 211.347 94.312 209.868 92.0182 207.85C87.0261 203.276 82.3037 198.567 77.4465 193.993C73.8035 190.63 70.2955 187.132 66.6525 183.903C62.6048 180.271 58.5571 176.773 53.8347 172.872C53.8347 175.831 53.6998 178.253 53.8347 180.674C54.1046 188.612 54.3744 196.549 54.7792 204.486C55.184 211.886 55.7237 219.419 56.2634 226.818C56.8031 235.025 57.2078 243.097 57.6126 251.303C58.0174 257.76 58.5571 264.218 58.9619 270.675C59.0968 273.366 59.0968 276.057 59.0968 278.747C59.0968 286.012 59.2317 293.411 59.0968 300.676C59.0968 303.232 58.5571 305.653 56.3983 307.268C55.5887 307.94 54.3744 307.94 53.43 308.209C53.295 307.268 52.7553 306.326 53.0252 305.519C54.5094 298.389 54.6443 291.259 54.1046 284.128C53.43 275.249 53.43 266.236 53.1601 257.357C52.8903 251.169 52.6204 244.98 52.3506 238.792C51.9458 232.2 51.676 225.473 51.2712 218.881C50.8664 213.634 50.1918 208.388 49.9219 203.007C49.6521 199.912 49.787 196.953 49.787 193.858C49.6521 186.056 49.6521 178.253 49.5172 170.45C49.5172 169.912 49.3822 169.374 49.2473 168.163C46.9536 170.45 44.9297 172.334 43.0408 174.352C39.2629 178.387 35.7549 182.558 31.7072 186.459C26.8499 191.168 21.9927 195.742 16.8655 200.181C12.2781 203.948 10.794 203.679 6.6113 199.643C4.85729 200.854 3.2382 201.527 1.21434 200.047C-0.269824 198.836 -0.1349 197.76 0.809569 196.684C5.53191 191.168 10.2543 185.652 14.9766 180.136C20.6434 173.544 26.4451 167.087 32.2469 160.495C32.9215 159.822 33.4612 159.015 34.1358 158.611C36.2946 157.132 35.62 156.055 33.731 155.248C33.1914 154.979 32.112 154.979 31.8421 155.383C29.4135 158.208 27.1198 161.033 24.6911 163.858C20.1037 169.105 15.3814 174.486 10.659 179.598C8.90501 181.482 6.88115 181.078 5.26206 179.195C3.91282 177.715 4.04775 175.831 5.80176 174.89C10.1193 172.603 12.6829 168.567 15.9211 165.203C19.4291 161.437 22.6673 157.401 25.9055 153.499C28.8738 150.136 31.8421 146.773 34.8104 143.275C35.2152 142.871 35.2152 141.392 34.8104 140.988C33.1913 138.97 31.1675 137.356 29.6833 135.338C28.8738 134.127 28.3341 132.243 28.7389 130.898C28.8738 130.091 30.7627 129.015 31.977 129.015C33.0564 129.015 34.2707 129.956 35.2152 130.898C36.4295 132.109 37.1041 134.261 38.5883 134.8C39.9376 135.203 41.8265 134.127 43.4456 133.589C44.1202 132.647 44.6599 131.974 45.7393 131.302ZM8.90501 196.28C12.6829 195.338 14.302 194.262 17.9449 190.764C23.072 185.787 28.3341 180.944 33.4612 175.966C36.4295 173.006 38.8582 169.778 41.8265 166.818C44.6599 164.127 44.6599 164.127 41.6916 161.706C41.5566 161.571 41.2868 161.302 41.1519 161.302C40.4773 161.302 39.6677 161.168 39.3979 161.571C35.62 165.607 31.977 169.643 28.1992 173.813C26.0404 176.235 23.7467 178.657 21.453 181.078C18.8894 183.903 16.3258 186.863 13.7623 189.823C12.2781 191.706 10.794 193.724 8.90501 196.28ZM64.6287 174.352C64.8985 174.082 65.1684 173.813 65.4382 173.544C61.7953 169.778 58.1523 165.876 54.1046 161.571C53.9697 162.782 53.6998 163.589 53.9697 163.858C57.4777 167.356 61.1206 170.854 64.6287 174.352ZM57.6126 142.333C56.8031 143.544 55.4538 144.755 55.7237 145.293C56.2634 146.638 57.4777 147.849 58.692 148.387C59.2317 148.656 60.5809 146.907 61.7953 145.966C60.3111 144.755 59.0968 143.813 57.6126 142.333ZM40.6122 151.885C41.4217 150.943 42.636 149.867 42.5011 149.598C41.8265 148.522 40.882 147.311 39.6677 146.638C39.3979 146.504 38.1835 147.714 37.374 148.253C38.4534 149.329 39.3979 150.405 40.6122 151.885ZM47.6282 153.903C46.5488 154.71 45.8742 155.248 45.0647 156.055C46.279 157.266 47.3584 158.208 48.4378 159.15C48.5727 159.015 48.7076 159.015 48.8425 158.881C48.4378 157.401 48.033 155.921 47.6282 153.903Z" fill="black"/>
<path d="M140.456 306.057C140.996 305.115 141.266 304.174 141.805 303.77C142.885 303.097 144.369 302.021 145.313 302.29C146.932 302.828 146.797 304.443 145.853 305.788C144.369 307.94 144.639 310.362 145.853 312.111C150.305 318.434 154.758 324.622 159.48 330.676C162.718 334.712 166.227 338.613 169.6 342.515C170.004 342.918 170.544 343.322 170.544 343.86C170.679 344.802 170.409 345.609 170.274 346.551C169.33 346.147 168.115 346.013 167.711 345.474C163.528 340.093 159.345 334.577 155.163 329.062C152.059 324.891 148.821 320.855 145.448 316.416C144.774 318.434 144.774 319.779 146.123 321.259C151.385 327.447 156.647 333.636 161.774 339.959C164.338 343.187 166.901 346.416 169.195 349.914C169.869 350.856 169.735 352.335 169.735 353.546C169.735 353.95 168.79 354.353 168.25 354.488C167.981 354.488 167.306 353.95 167.171 353.546C165.687 350.721 164.607 347.761 162.718 345.205C159.75 340.9 156.377 336.999 153.274 332.829C152.869 332.29 152.194 331.752 151.52 331.214C148.551 334.712 148.551 334.577 151.25 337.537C155.568 342.246 160.02 346.82 164.068 351.663C167.711 355.968 171.084 360.676 174.457 365.25C174.862 365.789 175.132 367.268 174.862 367.537C174.322 368.076 173.243 368.076 172.028 368.076C173.512 366.058 172.163 365.385 171.084 364.174C167.306 359.735 163.798 355.026 160.02 350.587C157.052 347.089 153.813 343.726 150.71 340.362C150.44 340.093 150.171 339.69 149.901 339.421C148.956 338.748 148.956 336.461 147.202 337.672C145.718 338.613 145.583 341.842 146.797 343.053C150.036 346.147 153.409 349.107 156.377 352.47C161.234 357.986 165.687 363.636 170.274 369.286C170.544 369.555 170.679 369.959 170.814 370.363C170.814 370.632 170.814 370.766 170.679 371.439C163.258 362.022 155.028 353.815 145.988 345.34C145.583 372.65 145.178 399.287 144.639 426.058C142.345 427.404 141.535 427 141.67 424.04C141.805 420.812 142.345 417.583 142.345 414.354C142.48 408.838 142.615 403.323 142.48 397.807C142.48 392.56 142.075 387.179 142.21 381.932C142.345 375.744 143.02 369.555 143.154 363.502C143.289 357.582 143.154 351.663 143.154 345.743C142.885 345.609 142.48 345.474 142.21 345.34C139.512 349.376 136.948 353.412 134.115 357.313C131.146 361.349 128.313 365.519 124.94 369.152C121.702 372.65 119.273 377.224 114.146 378.569C116.979 375.34 120.082 372.111 122.646 368.614C126.694 363.232 130.607 357.717 134.519 352.201C136.678 349.107 138.837 346.147 140.996 343.053C142.48 340.9 140.051 340.497 139.242 339.421C138.432 338.21 137.353 338.613 136.678 339.555C135.464 341.169 134.25 342.784 133.035 344.533C129.392 349.914 125.614 355.161 121.971 360.676C120.892 362.291 120.487 364.174 119.543 365.789C119.138 366.461 118.194 366.865 117.384 367.537C117.384 366.596 116.979 365.654 117.249 364.847C120.757 356.371 126.559 349.376 131.821 341.977C133.035 340.228 134.519 338.613 136.004 336.864C135.194 336.057 134.519 335.385 133.44 334.443C130.741 337.806 127.908 341.304 125.21 344.667C123.456 346.954 121.702 349.107 120.082 351.528C119.273 352.605 118.868 354.084 118.059 355.161C117.384 355.968 116.44 356.775 115.63 357.313C115.36 357.448 114.146 356.64 114.281 356.371C114.416 355.43 114.551 354.219 115.09 353.412C117.654 350.183 120.352 347.223 123.051 343.995C125.21 341.438 127.233 338.882 129.257 336.326C131.821 333.098 134.384 330.003 136.948 326.775C138.162 325.429 139.646 324.219 140.591 322.739C140.996 322.201 140.591 321.124 140.456 320.317C139.646 320.452 138.702 320.317 138.297 320.855C134.789 324.891 131.146 328.927 127.908 333.098C124.94 336.864 122.376 341.035 119.543 344.802C119.138 345.34 118.328 345.34 117.654 345.609C117.519 344.936 117.114 344.129 117.384 343.726C118.463 341.842 119.543 340.093 120.757 338.479C124.4 333.77 128.178 329.062 131.956 324.219C133.44 322.335 135.059 320.317 136.273 318.299C136.678 317.627 136.138 316.416 136.004 315.474C135.734 315.474 135.464 315.474 135.194 315.474C132.495 318.703 129.797 321.797 127.233 325.026C124.13 329.062 121.297 333.232 118.059 337.268C117.654 337.806 116.305 337.806 115.36 337.941C115.36 336.999 114.955 335.654 115.36 335.116C116.44 333.77 118.194 332.963 119.273 331.618C121.702 328.658 123.995 325.564 126.424 322.604C128.313 320.183 130.202 317.761 132.091 315.34C132.495 314.936 133.035 314.398 133.035 313.994C132.9 310.631 136.273 310.362 137.758 307.94C136.948 307.268 136.138 306.326 135.059 305.653C133.845 304.846 133.44 303.501 134.519 302.694C135.194 302.156 136.813 302.559 137.758 302.963C139.242 303.77 139.646 304.981 140.456 306.057ZM146.528 332.559C147.337 331.618 148.147 330.945 148.686 330.138C149.091 329.6 149.091 328.927 149.361 328.255C148.551 327.985 147.472 327.447 146.932 327.716C144.774 329.062 145.313 330.676 146.528 332.559ZM140.186 315.609C141.67 314.263 142.615 313.053 140.996 311.304C140.726 310.9 139.512 310.766 139.242 311.035C137.758 312.649 138.567 314.129 140.186 315.609ZM142.885 338.882C142.75 336.595 142.75 334.981 142.615 333.098C139.512 334.981 139.377 336.192 142.885 338.882ZM140.456 330.003C140.051 329.734 139.512 329.6 139.107 329.331C138.567 330.407 138.027 331.618 137.488 332.694C138.027 332.829 138.972 333.232 139.107 333.098C139.512 332.156 140.051 331.08 140.456 330.003Z" fill="black"/>
</g>
<defs>
<clipPath id="clip0">
<rect width="311" height="427" fill="white"/>
</clipPath>
</defs>
</svg>
