<svg width="689" height="546" viewBox="0 0 689 546" fill="none" xmlns="http://www.w3.org/2000/svg">
<path d="M363.48 239.469C364.525 239.538 365.501 239.748 366.546 239.748C372.886 239.608 377.415 243.301 380.412 249.154C383.686 255.634 382.014 259.884 377.415 263.647C373.304 266.991 368.775 270.057 364.037 272.287C359.369 274.517 350.799 267.967 350.659 262.741C350.59 260.72 351.704 259.745 353.516 260.581C355.258 261.348 356.93 262.393 358.324 263.717C359.926 265.249 361.32 265.668 363.201 264.413C366.476 262.253 369.89 260.163 373.095 257.933C377.137 255.146 378.251 248.945 375.255 245.391C374.559 244.555 372.538 244.068 371.562 244.486C368.497 245.809 365.57 246.437 362.992 243.858C362.086 242.953 361.668 241.489 360.971 240.305C360.484 239.399 359.926 238.493 359.439 237.588C358.324 238.493 356.164 239.399 356.164 240.235C356.373 243.44 355.397 244.555 352.192 243.928C351.356 243.789 350.241 244.486 349.405 245.043C348.848 245.391 348.569 246.088 348.151 246.646C346.966 248.388 345.224 249.363 343.413 248.109C342.577 247.551 342.507 245.809 341.88 243.998C339.79 242.883 336.933 241.489 338.187 237.378C338.326 236.96 337.49 235.846 337.281 235.915C336.584 235.985 335.539 236.403 335.33 236.891C334.564 238.772 334.355 240.932 333.449 242.674C332.543 244.486 331.08 246.018 329.686 247.969C331.986 250.199 334.355 252.289 336.445 254.589C337.072 255.286 337.002 256.609 337.281 257.655C336.306 257.724 335.121 258.212 334.424 257.794C328.502 254.868 324.112 250.269 320.768 244.625C317.423 238.981 313.939 233.407 310.804 227.624C308.644 223.582 307.181 219.193 305.09 215.082C302.721 210.413 300.073 205.954 297.565 201.355C295.475 197.523 293.384 193.621 291.364 189.719C289.761 186.584 288.437 183.309 286.904 180.173C286.486 179.337 285.581 178.71 284.187 177.247C284.048 179.546 283.978 180.8 283.978 182.124C283.978 187.838 284.117 193.621 283.978 199.335C283.839 206.302 283.421 213.27 283.212 220.308C283.002 225.324 282.724 230.411 282.654 235.428C282.584 238.772 282.933 242.117 283.002 245.461C283.072 249.224 283.211 252.986 282.793 256.749C282.654 258.282 281.191 259.675 280.006 261.557C274.293 253.962 269.276 247.064 263.911 240.444C262.099 238.145 259.312 236.612 256.873 234.87C256.455 234.591 255.619 235.009 253.947 235.288C257.082 238.006 259.452 240.096 261.821 242.256C263.562 243.858 265.304 245.461 266.768 247.273C267.255 247.969 267.325 249.99 266.837 250.199C265.792 250.757 264.399 250.896 263.144 250.826C262.239 250.757 261.333 250.129 260.357 249.781C260.148 250.199 259.939 250.548 259.73 250.966C261.054 252.429 262.587 253.683 263.702 255.286C264.538 256.47 264.886 258.003 265.513 259.397C263.981 259.466 262.169 260.093 261.054 259.466C257.222 257.376 253.738 254.868 252.275 250.338C251.857 249.084 250.254 248.318 249.766 247.064C249.07 245.252 247.955 242.604 248.721 241.42C250.463 238.702 249.07 237.378 247.606 235.706C246.143 233.964 244.541 232.292 243.356 230.411C242.659 229.296 242.799 227.763 242.52 226.439C244.053 226.439 245.795 226.021 247.188 226.509C250.254 227.624 253.041 229.714 256.177 230.48C262.239 231.944 265.862 236.682 270.391 240.166C272.969 242.117 275.199 244.486 278.195 247.133C278.195 241.977 278.404 237.378 278.125 232.78C277.846 226.788 276.871 220.726 276.801 214.733C276.801 209.298 277.846 203.933 278.125 198.498C278.404 192.994 278.682 187.42 278.055 181.985C277.289 175.644 277.846 169.095 275.547 162.824C274.223 159.2 274.92 154.95 274.572 150.978C274.153 146.449 273.526 141.92 273.178 137.391C273.108 136.486 273.387 134.953 273.944 134.744C274.85 134.395 276.732 134.535 277.01 135.092C278.543 138.088 279.797 141.224 280.842 144.359C281.47 146.171 281.679 148.191 282.097 150.073C282.306 150.978 282.863 152.233 282.445 152.72C279.31 156.622 281.888 159.27 284.675 161.291C288.089 163.799 288.298 167.84 289.97 171.115C291.782 174.738 292.827 178.71 294.36 182.403C295.335 184.702 296.59 186.862 297.774 189.022C299.795 192.715 302.024 196.269 303.906 199.962C306.832 205.815 309.55 211.877 312.476 217.799C315.193 223.443 317.981 229.157 320.837 234.731C322.161 237.378 323.624 239.887 325.157 242.395C325.506 242.953 326.342 243.162 326.969 243.51C327.248 242.953 327.735 242.395 327.805 241.838C328.153 232.083 331.568 222.955 334.076 213.688C334.773 211.11 336.445 208.671 337.978 206.372C339.511 203.933 341.95 204.351 344.11 205.397C346.618 206.651 345.294 208.114 344.388 209.926C342.228 214.385 340.347 218.984 338.535 223.582C338.257 224.209 338.884 225.185 339.093 225.951C339.859 225.533 340.695 225.324 341.322 224.767C345.155 221.353 348.708 217.66 352.75 214.664C353.864 213.828 356.512 215.012 359.299 215.43C356.651 221.283 354.282 226.369 351.983 231.386C355.328 231.386 358.602 231.456 361.877 231.386C366.894 231.247 371.981 231.038 376.997 230.898C380.76 230.759 384.453 230.48 388.215 230.411C392.953 230.271 397.692 230.829 402.36 230.132C409.397 229.087 416.086 230.829 422.915 231.317C429.882 231.804 436.85 232.71 443.748 233.895C447.859 234.591 451.761 236.821 455.872 237.378C461.098 238.075 465.557 240.026 469.877 242.813C473.291 244.973 476.636 247.203 479.981 249.363C482.698 251.105 485.764 252.359 488.063 254.519C491.895 258.142 495.449 262.114 498.793 266.155C501.232 269.012 503.113 272.357 505.482 275.283C506.11 276.049 507.921 276.677 508.827 276.398C511.196 275.701 513.286 274.238 515.586 273.402C519.07 272.148 522.623 271.242 526.455 270.127C526.525 270.406 526.316 269.778 525.968 268.803C528.128 268.176 529.87 267.2 527.919 264.622C527.64 264.274 527.919 263.089 528.337 262.811C528.824 262.532 529.87 262.532 530.357 262.88C534.19 265.598 538.231 265.807 542.342 263.717C543.178 263.298 543.735 262.462 544.432 261.835C543.666 261.278 542.969 260.372 542.063 260.163C540.461 259.675 538.719 259.466 536.977 259.188C533.702 258.63 531.472 257.028 531.333 252.289C535.653 253.335 539.833 254.24 543.805 255.495C546.383 256.331 548.752 257.864 551.33 258.839C552.306 259.188 553.839 259.257 554.605 258.7C555.093 258.351 555.093 256.54 554.675 255.704C553.211 252.777 551.609 249.92 549.797 247.203C547.15 243.231 544.571 239.26 541.506 235.637C538.51 232.153 535.095 228.878 531.472 225.951C528.197 223.304 524.574 221.074 520.951 218.914C514.262 215.012 507.364 211.389 500.605 207.417C498.724 206.302 496.982 204.7 495.588 202.958C494.961 202.191 495.31 200.589 495.17 199.335C496.564 199.474 498.236 199.265 499.421 199.892C502.068 201.355 504.368 203.515 506.946 205.048C511.405 207.696 516.143 209.995 520.602 212.713C524.783 215.221 528.894 217.799 532.657 220.795C535.931 223.443 538.858 226.648 541.715 229.714C545.756 233.964 549.867 238.215 553.421 242.813C556.138 246.297 558.228 250.269 560.179 254.171C561.224 256.261 562.2 256.609 564.221 255.913C565.962 255.355 567.844 255.146 570.631 254.589C571.606 253.404 573.348 252.011 576.623 251.802C581.291 251.453 585.89 249.502 590.559 248.248C595.297 246.994 600.035 245.809 604.773 244.625C610.556 243.162 616.339 241.698 622.192 240.444C626.861 239.469 631.599 238.772 636.337 238.145C637.451 238.006 638.636 238.772 639.89 239.19C635.988 245.67 629.508 244.973 624.073 246.576C616.479 248.806 608.675 250.478 600.941 252.289C595.575 253.544 590.071 254.519 584.706 255.843C581.64 256.609 578.644 257.864 575.648 258.839C572.721 259.815 569.795 260.72 566.799 261.557C564.848 262.044 564.43 263.02 565.196 264.831C566.659 268.455 565.126 271.869 561.642 273.123C559.204 273.959 555.511 271.451 554.326 268.315C554.048 267.549 552.863 266.364 552.375 266.504C549.17 267.34 546.104 268.524 542.83 269.639C545.826 272.775 548.334 275.98 551.4 278.349C552.584 279.255 555.162 278.697 557.044 278.349C563.593 277.025 570.004 275.353 576.553 274.098C581.082 273.262 585.681 272.984 590.21 272.148C595.506 271.102 600.731 269.778 606.236 268.455C605.957 268.942 605.4 269.36 605.47 269.709C605.609 270.475 606.027 271.242 606.306 272.008C606.933 271.59 607.978 271.242 607.978 270.754C608.257 268.594 609.511 268.594 611.322 268.315C616.479 267.479 621.635 266.295 626.791 265.249C627 265.18 627.209 265.11 627.488 265.11C633.062 264.622 638.566 264.135 644.141 263.577C647.973 263.159 651.805 262.393 655.637 261.905C660.933 261.278 666.298 260.651 671.593 260.442C672.987 260.372 674.868 261.557 675.704 262.741C676.401 263.717 676.401 266.225 675.704 266.922C674.729 267.897 672.708 267.827 671.175 268.106C670.2 268.315 669.155 268.246 668.11 268.455C667.343 268.594 666.507 269.221 665.81 269.082C656.822 267.479 648.042 269.709 639.263 270.754C630.762 271.799 622.262 272.775 613.831 274.029C607.281 275.004 600.801 276.398 594.251 277.582C585.193 279.255 576.135 280.857 567.008 282.529C563.942 283.087 560.876 283.575 557.88 284.202C555.999 284.62 555.302 285.665 556.695 287.407C557.113 287.964 557.392 288.522 557.741 289.149C560.179 293.538 560.667 293.608 564.778 290.612C564.917 291.727 565.126 292.702 565.196 293.678C565.266 294.584 565.126 295.489 565.057 296.744C569.725 296.744 574.254 296.535 578.713 296.813C583.451 297.092 588.329 297.231 592.928 298.346C600.453 300.088 608.187 299.6 615.782 300.855C625.397 302.387 635.152 303.224 644.907 304.478C652.223 305.384 659.609 306.359 666.925 307.265C672.151 307.892 677.446 308.589 682.672 308.798C687.062 309.007 686.365 312.769 688.246 315.905C686.086 316.462 683.996 317.717 682.393 317.229C671.872 314.093 660.933 314.093 650.272 312.56C641.702 311.306 633.201 309.564 624.631 308.519C612.298 307.056 599.895 306.08 587.493 304.896C583.521 304.478 579.619 304.129 575.648 303.642C574.672 303.502 573.697 302.736 572.442 302.178C571.815 302.875 571.049 303.711 569.934 304.826C575.299 305.175 577.25 306.986 577.181 310.679C577.111 312.56 576.275 313.327 574.602 312.909C564.708 310.191 555.65 314.163 546.801 317.089C539.346 319.528 532.587 324.336 525.968 328.656C519.836 332.628 514.053 337.226 508.479 341.895C505.273 344.612 502.695 348.026 499.421 351.58C502.208 352.416 504.507 352.973 506.737 353.809C510.43 355.273 514.122 356.875 517.746 358.408C519.209 359.035 520.672 359.802 522.135 360.359C524.574 361.404 525.271 363.564 524.086 365.376C523.32 366.491 520.533 367.536 519.418 367.048C513.356 364.052 507.015 364.261 500.814 365.515C496.006 366.491 491.477 368.72 486.879 370.532C481.792 372.553 476.566 374.434 471.689 376.873C466.184 379.52 460.959 382.795 455.524 385.582C450.925 388.021 446.048 390.042 441.519 392.48C437.059 394.919 432.809 397.637 428.489 400.284C421.8 404.326 416.574 409.83 411.557 415.753C410.094 417.495 408.282 420.421 405.077 417.982C404.938 417.913 404.59 417.913 404.381 418.052C399.782 421.188 395.113 424.253 390.515 427.389C394.208 432.197 394.068 432.057 389.609 436.029C387.937 437.492 387.17 440 385.986 442.021C385.289 443.136 384.801 444.46 383.826 445.226C376.161 451.358 367.242 454.563 357.766 457.071C348.081 459.58 338.953 459.162 329.686 455.817C326.899 454.772 323.973 454.075 321.116 453.169C318.817 452.403 316.866 450.8 317.911 448.431C318.329 447.526 321.534 447.317 323.346 447.595C326.621 448.153 329.756 449.407 332.961 450.313C342.507 452.96 351.704 451.427 360.693 448.083C363.619 446.968 366.197 444.878 368.984 443.206C370.169 442.509 371.284 441.394 372.608 441.185C377.206 440.349 378.461 435.541 381.944 433.381C382.153 433.242 382.084 432.545 382.153 431.918C377.973 432.824 374.071 434.147 370.03 434.566C358.115 435.889 346.2 437.353 334.285 437.84C325.715 438.189 317.144 436.865 308.574 436.447C305.508 436.307 302.373 437.213 299.307 437.004C294.29 436.656 289.064 435.959 285.441 432.057C282.515 428.852 280.146 424.95 277.916 421.188C277.359 420.282 278.055 418.191 278.822 417.077C279.24 416.519 281.191 416.38 282.097 416.798C289.273 420.212 296.729 422.79 304.533 424.323C305.996 424.602 307.459 426.274 308.435 427.598C311.082 431.36 315.611 431.082 318.747 430.803C331.01 429.758 343.204 427.876 355.397 425.926C359.508 425.229 363.48 423.487 367.451 422.233C371.214 421.048 374.977 420.003 378.6 418.609C382.781 416.937 387.31 415.474 390.863 412.826C399.921 406.207 408.073 398.542 415.32 389.902C415.877 389.206 417.759 388.997 418.734 389.345C423.124 390.878 425.562 389.972 429.046 386.976C432.879 383.701 437.268 381.053 441.588 378.336C446.675 375.131 451.831 371.995 457.196 369.278C465.07 365.306 473.152 361.404 482.28 361.126C484.231 361.056 484.719 360.289 485.555 358.478C486.948 355.342 489.387 352.555 491.408 349.698C493.359 346.981 497.121 345.309 496.424 340.989C496.355 340.362 497.33 339.456 498.027 338.898C502.556 335.345 507.015 331.652 511.753 328.447C517.676 324.475 523.808 320.922 530.009 317.368C538.091 312.769 546.383 308.589 555.65 306.847C557.044 306.568 558.437 306.08 560.249 305.523C557.671 301.551 554.048 302.806 551.051 302.736C545.129 302.597 539.137 302.945 533.214 303.224C531.542 303.293 529.521 303.015 528.755 305.593C528.546 306.359 526.804 306.708 525.759 307.195C525.828 306.777 525.828 306.359 525.898 305.871C524.017 305.244 522.135 303.99 520.324 303.99C514.192 304.129 508.061 304.687 501.859 305.175C501.371 305.244 500.884 305.593 499.699 306.15C503.392 308.031 506.528 309.495 509.524 311.237C510.987 312.073 512.381 313.257 513.565 314.442C514.889 315.905 516.91 317.368 515.446 319.807C514.053 322.106 511.475 322.315 509.593 321.479C503.671 318.831 497.539 320.852 491.547 320.504C479.841 319.807 468.902 324.127 457.684 326.566C455.384 327.053 453.294 328.656 451.064 329.701C451.064 330.049 451.134 330.398 451.134 330.746C454.966 331.582 458.799 332.558 462.701 333.185C465.488 333.603 468.553 332.906 471.131 333.742C473.501 334.509 475.451 336.599 477.472 338.202C477.681 338.411 477.472 339.665 477.054 339.944C475.939 340.849 474.406 342.313 473.431 342.034C467.508 340.571 462.073 342.94 456.499 343.706C455.942 343.776 455.384 344.194 454.827 344.124C445.769 343.218 438.035 348.166 429.673 350.186C428.489 350.465 427.792 352.555 426.747 353.67C425.772 354.715 424.657 355.969 423.402 356.457C421.73 357.015 421.451 355.621 420.894 354.158C420.337 352.834 418.177 352.137 416.644 351.092C416.783 350.604 416.783 350.117 416.992 349.768C418.037 347.538 422.079 346.911 420.128 343.009C418.873 340.64 417.898 337.923 417.619 335.275C417.131 330.607 414.135 327.68 411.209 324.684C409.119 322.524 406.819 320.295 404.171 319.04C398.11 316.114 391.212 314.651 385.637 311.028C378.809 306.638 372.19 301.551 368.357 293.817C366.267 289.637 363.132 285.944 360.414 282.111C360.135 281.693 359.439 281.136 359.021 281.206C355.258 281.554 351.495 281.902 347.872 282.669C346.897 282.878 346.061 284.411 345.503 285.526C344.319 288.104 342.995 290.751 342.437 293.538C341.81 296.395 341.532 299.531 341.95 302.318C342.786 307.544 343.97 312.769 345.712 317.717C347.524 322.873 350.032 327.75 352.541 332.627C355.049 337.505 357.906 342.243 360.623 347.051C360.344 347.329 360.135 347.538 359.857 347.817C357.418 345.657 354.631 343.776 352.61 341.267C349.893 337.993 346.897 334.648 345.433 330.746C343.134 324.684 339.023 319.319 338.396 312.421C337.908 307.126 335.888 301.969 334.633 296.744C334.424 295.768 334.355 294.723 334.564 293.748C335.4 289.567 336.375 285.386 337.211 281.206C337.908 277.513 338.884 276.886 341.532 277.652C343.692 275.91 345.433 274.377 347.315 273.053C350.659 270.615 354.073 272.008 357.557 272.984C362.644 274.377 365.361 277.234 367.382 282.39C371.075 291.936 378.6 298.834 386.613 304.896C390.863 308.101 396.089 309.495 401.036 311.376C405.008 312.909 408.422 315.766 412.254 317.717C413.439 318.344 415.32 318.413 416.574 317.926C423.472 315.347 430.37 312.56 437.199 309.704C439.289 308.798 441.24 307.544 443.33 306.568C448.138 304.338 453.085 302.318 457.893 300.018C460.54 298.695 462.84 296.744 465.418 295.28C471.062 292.145 476.706 289.009 482.559 286.222C486.809 284.202 491.338 282.878 495.797 281.206C497.121 280.718 498.515 280.16 499.699 279.255C500.117 278.976 500.187 277.513 499.839 276.955C497.888 273.889 495.658 270.963 493.637 267.897C490.85 263.577 486.809 260.929 482.489 258.351C478.517 255.913 474.894 252.917 470.922 250.408C468.344 248.806 465.488 247.342 462.631 246.297C457.196 244.416 451.691 242.953 446.187 241.28C444.027 240.653 441.797 239.678 439.568 239.469C431.415 238.633 423.193 238.563 415.111 237.378C407.655 236.264 400.27 235.706 392.744 236.333C390.724 236.473 388.703 236.891 386.682 236.891C380.69 236.96 374.698 236.751 368.775 236.821C367.103 236.821 365.431 237.239 363.759 237.518C363.41 238.563 363.48 238.981 363.48 239.469ZM422.079 328.795C423.542 332.418 425.284 335.972 426.468 339.804C427.792 344.194 427.792 344.333 432.391 343.079C437.965 341.546 443.609 340.083 449.253 338.62C449.392 338.55 449.532 338.271 449.741 337.853C449.322 337.435 448.904 336.599 448.417 336.599C446.048 336.32 443.679 336.111 441.24 336.042C436.014 335.833 436.014 335.833 434.481 329.84C454.479 319.807 475.521 313.884 498.724 313.954C497.679 313.048 496.982 312.003 496.076 311.724C492.383 310.54 488.621 309.495 484.858 308.519C483.325 308.101 481.583 307.544 480.12 307.892C469.668 310.122 459.217 311.933 449.183 316.044C439.916 319.737 430.301 322.455 422.079 328.795ZM513.495 280.857C514.332 286.013 517.049 287.825 521.439 286.78C524.574 286.013 527.779 285.526 530.984 285.108C534.19 284.689 535.862 282.46 534.677 280.16C534.19 279.185 534.259 277.931 534.05 276.816C535.095 276.677 536.141 276.258 537.116 276.398C538.161 276.537 539.137 277.164 540.042 277.791C541.506 278.837 542.83 280.091 544.223 281.275C544.502 281.066 544.781 280.788 545.129 280.578C544.711 279.742 544.502 278.697 543.875 278.209C540.182 275.283 537.116 270.406 531.333 274.308C530.845 272.566 530.566 271.381 530.218 270.197C529.8 270.266 529.451 270.266 529.033 270.336C529.033 271.799 529.033 273.193 529.033 275.213C524.086 277.025 518.861 278.906 513.495 280.857ZM549.588 295.559C547.777 294.096 545.408 292.633 543.666 290.612C541.854 288.591 540.112 288.591 537.882 289.218C534.19 290.194 530.497 290.96 526.804 292.006C525.759 292.284 524.853 293.329 523.947 293.957C524.713 294.862 525.34 296.395 526.177 296.535C529.103 297.092 532.03 297.162 535.026 297.301C537.464 297.44 539.903 297.301 542.411 297.301C541.854 301.621 541.924 301.691 544.781 300.646C541.157 293.748 549.24 299.043 549.588 295.559ZM477.751 296.744C477.89 297.092 477.96 297.51 478.099 297.858C478.587 297.998 479.214 298.277 479.632 298.137C484.231 296.813 488.83 295.28 493.498 294.096C496.494 293.329 499.56 293.051 501.859 292.633C505.273 291.239 508.061 289.985 510.917 288.8C510.917 288.382 510.917 287.964 510.917 287.477C508.479 286.64 505.482 284.48 503.601 285.177C494.822 288.661 486.321 292.842 477.751 296.744ZM340.835 234.243C340.974 234.591 341.183 234.94 341.322 235.288C344.319 235.079 347.802 234.8 349.405 232.083C351.008 229.435 352.959 226.16 351.217 221.91C347.454 226.3 344.179 230.271 340.835 234.243ZM447.371 381.471C447.581 381.68 447.859 381.82 448.068 382.029C455.175 378.406 462.213 374.782 469.668 370.95C466.951 369.766 455.454 374.504 448.556 379.242C447.929 379.66 447.79 380.775 447.371 381.471Z" fill="black"/>
<path d="M56.7597 428.782C56.5506 425.577 60.2435 420.56 63.4487 419.446C66.3055 418.4 69.0926 417.146 71.9493 415.892C74.388 414.777 76.6177 412.966 79.1261 412.548C81.4951 412.13 81.8435 410.945 81.7042 409.342C81.3558 403.629 80.7287 397.985 80.3106 392.341C80.2409 391.157 80.7984 389.902 80.868 388.648C81.2164 382.726 81.3558 376.733 81.7739 370.811C81.9829 368.093 82.3313 365.376 83.1674 362.798C85.8848 353.949 88.8113 345.17 91.7377 336.39C92.6435 333.742 93.828 331.164 94.8035 328.517C95.0126 327.959 94.7339 327.262 94.5248 325.66C90.0655 329.213 86.2332 332.419 82.2616 335.345C81.0771 336.181 79.4048 337.226 78.2203 336.948C76.7571 336.599 75.4332 335.136 74.3184 333.951C74.0397 333.603 74.5274 332.14 75.0151 331.652C80.5893 326.148 83.5158 319.18 86.2332 312.073C87.9055 307.613 89.9958 303.293 92.1558 299.043C96.6848 290.473 101.214 281.833 106.161 273.471C108.739 269.151 112.014 265.25 115.219 261.348C116.682 259.536 118.633 259.884 120.514 261.208C122.535 262.671 122.396 264.135 120.933 265.877C117.031 270.266 112.85 274.377 109.436 279.115C106.579 283.087 104.558 287.755 102.259 292.075C100.029 296.326 97.6603 300.506 95.6397 304.896C94.1068 308.241 92.9919 311.864 91.8771 315.417C91.668 316.114 92.5042 317.508 93.2706 317.926C93.8977 318.274 95.2913 317.856 95.8487 317.229C99.1932 313.745 102.189 309.843 105.743 306.568C109.505 303.084 113.686 300.158 117.867 296.953C120.096 300.576 117.379 301.9 116.055 303.363C114.383 305.175 113.477 306.847 114.034 309.216C114.592 311.794 113.198 312.7 110.899 313.188C109.575 313.466 107.903 314.233 107.206 315.348C104.071 320.295 101.493 325.521 99.8203 331.234C98.2177 336.739 95.5003 341.964 93.828 347.469C91.8771 353.601 90.2745 359.941 89.0203 366.282C88.0448 371.02 87.7661 375.967 87.4177 380.844C87.0693 385.234 87.0693 389.624 87.0693 394.013C87.0693 394.71 87.5571 395.407 88.0448 396.8C90.0655 393.735 91.8074 391.226 93.41 388.648C96.8939 383.004 100.378 377.361 103.722 371.647C106.161 367.466 108.321 363.077 110.481 358.757C112.293 355.133 114.94 354.019 118.703 355.342C120.375 355.9 120.863 356.736 119.818 358.408C117.031 362.868 114.174 367.327 111.735 371.926C110.62 374.016 110.272 376.524 109.784 378.893C108.6 384.607 107.554 390.32 106.231 395.964C105.743 397.985 104.628 399.936 103.862 401.817C106.37 403.35 110.133 402.375 112.989 400.702C116.961 398.333 121.211 396.522 125.462 394.641C127.622 393.665 129.991 393.317 132.081 392.341C132.847 391.993 133.544 390.878 133.823 389.972C134.938 386.14 136.192 382.377 136.958 378.475C138.979 367.466 144.762 357.921 148.943 347.748C150.476 344.055 151.521 340.153 152.914 336.39C155.423 329.771 159.394 324.057 163.993 318.692C166.432 315.905 168.383 312.7 170.543 309.704C173.609 305.453 176.674 301.203 181.97 299.322C182.667 299.043 183.294 298.416 183.712 297.719C189.425 289.079 198.902 285.108 206.984 279.533C211.025 276.746 216.46 275.91 221.198 274.029C224.822 272.635 228.514 271.311 231.789 269.291C237.712 265.668 243.983 263.647 250.672 261.975C253.947 261.139 256.594 261.139 259.451 262.323C260.218 262.671 260.775 263.508 261.402 264.204C261.82 264.622 262.169 265.528 262.587 265.598C266.907 265.877 268.161 269.5 270.321 272.217C266.628 275.422 264.747 275.492 262.099 271.102C259.66 267.061 257.082 270.127 254.574 269.988C253.459 269.918 252.065 271.033 251.09 270.684C246.213 269.151 242.241 271.939 238.2 273.471C232.625 275.562 227.539 278.767 221.965 280.857C211.374 284.829 201.898 290.682 192.909 297.301C188.729 300.437 185.384 304.687 181.273 308.031C174.027 313.954 168.94 321.688 163.436 329.004C162.112 330.746 160.37 332.14 159.046 333.812C158.489 334.509 158.28 335.554 157.931 336.46C164.551 337.853 164.551 338.481 160.509 343.915C157.444 348.026 154.865 352.625 152.566 357.293C151.66 359.175 152.705 361.962 152.078 364.122C150.336 369.975 148.037 375.688 146.086 381.471C145.389 383.562 145.041 385.861 144.484 388.23C149.709 386.558 154.587 384.816 159.534 383.422C168.453 380.844 177.371 378.197 186.36 376.106C190.958 374.991 195.836 374.852 200.643 374.504C201.758 374.434 202.943 375.34 204.127 375.549C205.73 375.828 207.542 376.315 209.005 375.897C213.394 374.434 217.296 374.991 220.293 378.266C220.85 378.893 221.198 380.148 220.989 380.984C220.85 381.541 219.596 382.238 218.899 382.238C210.956 381.75 204.545 386.21 197.647 388.997C191.794 391.435 185.942 393.735 180.298 396.591C177.72 397.915 174.166 398.612 173.4 402.235C173.191 403.002 173.4 403.908 173.4 404.744C174.166 404.604 174.933 404.604 175.629 404.326C182.806 401.051 190.192 398.264 196.881 394.222C201.41 391.505 205.939 392.202 210.538 391.993C211.862 391.923 213.743 392.759 214.579 393.874C215.485 395.128 215.624 396.87 213.116 397.497C210.12 398.333 209.423 400.493 210.677 403.838C215.973 400.354 220.85 396.8 226.006 393.804C230.326 391.296 234.855 389.136 239.454 387.324C241.684 386.419 244.331 386.349 246.143 389.136C246.77 390.111 248.373 390.46 249.905 391.296C250.184 394.64 247.188 395.964 244.819 397.149C241.335 398.96 237.433 399.866 233.88 401.539C229.49 403.699 225.309 406.277 220.989 408.715C219.387 409.621 217.784 410.527 216.112 411.363C211.444 413.732 211.165 414.499 213.046 419.028C210.12 422.024 208.865 422.024 205.382 419.655C204.545 419.097 202.734 418.819 202.037 419.376C193.954 425.159 185.942 431.151 177.998 437.074C177.789 437.213 177.789 437.701 177.511 438.816C181.552 437.84 185.105 436.865 188.729 436.238C195.278 435.053 201.828 433.73 208.447 433.033C214.509 432.406 220.641 432.057 226.633 432.545C236.876 433.242 247.049 434.635 256.316 439.652C260.984 442.23 266.14 443.206 271.296 444.39C274.711 445.226 277.916 447.108 280.633 448.292C280.006 451.149 279.936 453.17 279.17 454.981C278.822 455.817 277.01 456.793 276.243 456.514C268.37 453.657 260.636 450.522 252.832 447.526C251.856 447.177 250.811 447.108 249.766 446.899C246.979 446.341 244.889 445.296 243.495 442.3C241.962 438.955 238.06 438.537 234.925 438.259C228.166 437.771 221.198 437.353 214.509 438.189C204.894 439.373 195.348 441.742 185.872 443.624C185.036 443.763 183.782 444.53 183.712 445.087C183.364 449.128 181.482 448.64 178.625 447.386C177.371 446.829 175.49 447.456 174.027 447.874C170.264 448.919 166.502 450.104 162.809 451.288C161.833 451.567 160.788 451.846 159.952 452.333C155.562 455.19 151.242 457.768 147.758 462.088C144.484 466.199 139.606 469.126 135.495 472.609C134.45 473.515 133.614 474.63 132.638 475.606C131.175 477.069 130.2 479.299 127.273 478.532C126.576 478.393 125.322 479.786 124.556 480.692C123.72 481.737 123.441 483.2 122.535 484.176C117.24 490.029 111.317 495.324 106.509 501.595C102.189 507.239 99.1235 513.789 95.57 519.99C92.5042 525.355 89.508 530.79 86.5119 536.225C86.2332 536.713 85.7455 537.27 85.8151 537.758C86.1635 540.615 84.77 542.357 82.3313 543.471C81.9132 543.68 81.8435 544.447 81.1468 545.771C80.7984 544.099 80.241 543.053 80.45 542.217C81.2164 539.012 82.0526 535.807 83.2371 532.741C85.7455 526.191 88.1842 519.572 91.25 513.301C93.41 508.842 96.5455 504.87 99.4022 500.759C101.562 497.763 103.931 494.976 106.3 492.05C107.415 490.656 108.391 489.053 110.829 490.377C111.317 490.656 113.059 488.775 114.174 487.939C114.034 487.729 113.825 487.451 113.686 487.242C113.129 487.242 112.502 487.242 111.874 487.242C111.944 486.893 111.944 486.545 112.084 486.475C115.01 484.037 116.473 479.647 121.211 479.508C121.699 479.508 122.117 477.696 122.814 476.372C123.093 476.372 124.138 476.511 125.253 476.651C125.531 471.982 130.269 467.941 135.356 468.22C134.52 463.97 137.585 462.228 140.512 460.346C144.832 457.559 144.971 456.793 143.369 452.055C143.09 451.288 143.926 449.686 144.762 449.128C148.525 446.411 148.525 445.853 145.041 442.788C143.717 441.603 142.672 440.07 141.418 438.607C144.274 433.52 149.152 435.611 153.82 435.332C153.333 434.287 153.193 433.033 152.705 432.963C141.975 430.803 131.245 426.692 120.166 429.27C115.567 430.315 111.317 433.102 107.136 435.541C100.587 439.304 94.2461 443.484 87.9055 447.526C84.4216 449.755 81.0771 452.194 77.5235 454.145C76.2693 454.842 74.388 454.493 72.1584 454.702C72.2977 455.051 72.6461 456.096 73.1339 457.28C70.4164 458.953 67.49 460.555 64.7029 462.437C59.268 466.199 53.8332 470.101 48.5377 474.073C44.0087 477.417 39.5493 480.901 35.2293 484.455C34.3235 485.151 33.5571 486.475 33.4874 487.59C33.2784 490.308 31.6758 491.701 29.4461 492.119C26.5893 492.677 23.5235 492.398 21.5726 489.82C21.0152 489.123 21.2242 487.033 21.8513 486.336C26.3106 481.668 30.979 477.348 36.6229 474.003C40.8732 471.425 44.7055 468.15 48.8861 465.363C52.37 462.994 55.9932 460.764 59.9648 458.256C61.3584 459.162 62.8216 460.486 63.9364 456.723C64.5635 454.563 68.1171 453.17 70.4164 451.637C75.0848 448.431 79.8926 445.366 84.4216 442.37C85.6061 443.136 86.5119 443.693 87.4177 444.251C87.6964 443.275 88.0448 442.3 88.3235 441.394C88.4629 440.976 88.4629 440.349 88.7416 440.14C92.3648 437.562 89.6474 435.123 88.6719 432.545C88.1145 431.151 87.139 429.27 87.6268 428.364C88.1842 427.389 90.2745 427.18 92.6435 426.274C93.2009 422.93 93.9674 418.61 94.8732 413.314C92.8526 414.22 91.25 414.986 89.6474 415.683C85.8848 417.146 82.0526 418.47 78.3597 420.073C74.5274 421.745 70.8345 423.696 67.0022 425.368C63.6577 426.762 60.2435 427.807 56.8293 429.061L56.7597 428.782ZM164.481 404.047C152.427 410.318 141.418 416.031 130.339 421.815C130.757 422.581 130.896 423.069 131.105 423.139C135.704 424.253 140.442 425.089 145.041 426.483C149.918 427.946 154.726 429.688 159.534 431.5C164.133 433.242 168.453 436.865 173.469 432.545C175.908 430.455 178.277 428.434 180.785 426.413C184.757 423.278 189.147 420.56 192.77 417.077C196.254 413.802 201.549 412.06 202.455 406.346C203.013 402.932 203.849 399.518 204.615 395.686C203.64 395.964 203.152 395.964 202.803 396.173C195.975 400.006 189.216 403.838 182.458 407.67C174.236 412.339 168.801 418.609 171.031 428.922C171.17 429.619 170.473 430.733 169.916 431.221C168.313 432.475 163.227 431.291 162.739 429.479C161.345 424.184 160.161 418.819 162.251 413.314C163.227 410.666 163.645 407.74 164.481 404.047ZM124.904 417.425C126.925 416.31 128.876 415.265 131.105 414.011C132.778 415.892 134.798 414.986 136.192 413.453C139.118 410.318 141.348 406.346 146.644 407.461C146.713 407.461 146.853 407.391 146.922 407.322C148.525 403.977 152.148 403.141 154.935 401.399C158.21 399.379 161.903 397.915 165.387 396.313C169.149 394.571 170.891 391.575 170.264 387.882C169.916 387.882 169.567 387.742 169.289 387.882C165.526 389.415 161.833 391.435 157.931 392.48C150.476 394.501 144.762 398.473 140.373 404.883C137.794 408.715 134.241 408.924 131.245 405.719C130.2 404.604 130.409 402.305 129.991 400.006C127.552 400.702 124.556 401.33 121.769 402.305C116.891 403.977 112.153 406.137 107.206 407.6C102.05 409.133 100.517 411.084 101.214 416.659C101.284 417.425 101.005 418.191 100.935 418.958C100.796 421.048 100.726 423.208 100.587 425.717C101.98 425.229 102.747 424.741 103.444 424.811C109.436 425.299 114.801 423.626 119.748 420.282C120.166 420.003 121.002 420.212 121.629 420.282C122.674 420.421 123.789 420.77 124.834 420.979C124.904 419.933 124.904 418.819 124.904 417.425ZM96.9635 394.083C95.57 397.358 94.1068 400.633 92.7132 403.977C92.3648 404.744 92.4345 405.719 92.2951 406.555C93.2009 406.277 94.7338 406.207 95.0126 405.58C96.6151 402.026 98.7751 398.542 96.9635 394.083ZM182.527 388.23C185.175 385.652 189.425 386.558 191.028 382.586C184.13 382.935 181.552 384.468 182.527 388.23Z" fill="black"/>
<path d="M77.9417 108.963C82.2617 109.59 86.5817 110.078 90.9017 110.775C95.3611 111.471 100.099 111.402 104.001 114.259C104.907 114.886 106.231 114.746 107.276 115.234C108.53 115.861 109.645 116.767 110.829 117.603C109.715 118.648 108.739 120.321 107.555 120.599C103.165 121.435 98.6359 122.062 94.1766 122.202C86.9998 122.481 82.192 127.01 79.8927 132.584C77.454 138.367 77.245 145.195 78.8475 151.745C79.5443 154.671 79.3353 157.807 79.5443 161.43C81.0772 161.012 82.1224 161.012 82.8888 160.524C85.1185 158.991 87.1391 158.086 89.9262 159.549C91.5985 160.455 93.6191 158.295 93.5495 155.926C93.4798 154.253 93.2011 152.442 95.5004 152.163C97.5211 151.954 99.472 151.675 100.726 154.253C102.05 156.901 104.001 159.201 105.673 161.639C109.645 158.504 112.223 160.455 115.777 165.75C119.678 171.533 123.929 177.108 127.97 182.751C129.433 184.772 130.548 187.071 132.011 189.022C132.778 190.068 134.171 191.601 134.938 191.461C136.331 191.182 138.213 189.928 138.561 188.674C139.815 184.563 140.512 180.313 141.488 176.062C142.115 173.275 143.229 170.558 143.438 167.771C143.717 163.59 143.438 159.41 143.438 155.229C143.438 152.093 143.299 149.097 140.373 147.007C140.164 146.868 139.955 146.31 140.094 146.031C142.045 140.388 136.749 139.691 134.171 137.182C133.057 136.068 132.011 134.744 130.966 133.559C132.569 132.793 134.102 131.957 135.704 131.19C139.049 129.657 141.766 131.957 144.693 132.932C147.619 133.908 150.267 134.186 153.124 132.444C154.866 131.469 157.235 131.748 159.116 130.842C166.78 127.149 174.306 123.317 178.347 115.164C178.626 114.607 179.183 114.119 180.368 112.726C180.995 115.234 182.179 117.185 181.761 118.648C180.716 121.923 180.368 125.825 176.953 127.706C171.728 130.563 167.059 134.395 161.137 136.346C157.026 137.67 153.402 139.551 148.943 138.855C146.922 138.576 146.713 140.248 147.758 141.642C149.57 144.011 151.521 146.241 153.402 148.54C154.935 150.491 155.284 152.163 152.775 153.766C152.078 154.184 151.382 155.577 151.521 156.483C152.427 165.82 151.173 174.669 147.41 183.309C145.877 186.793 144.693 190.346 143.438 193.9C143.16 194.597 143.578 195.572 143.648 196.408C143.717 197.662 144.344 199.335 143.787 200.031C141.627 202.54 142.602 205.118 143.438 207.557C144.275 209.856 143.16 210.692 141.418 211.598C138.7 208.95 136.053 206.372 133.405 203.864C133.126 204.073 132.848 204.282 132.569 204.561C132.987 205.397 133.405 206.233 133.823 207.139C134.868 209.438 135.844 211.877 137.098 214.106C137.795 215.291 138.84 216.475 140.024 217.102C141.975 218.148 142.742 219.262 142.881 221.631C143.09 224.349 144.066 227.275 145.529 229.644C148.455 234.382 148.037 236.124 142.951 238.354C142.115 238.702 141.557 240.514 141.488 241.699C141.139 246.506 139.328 249.015 135.983 248.457C135.077 248.318 133.614 246.715 133.684 245.949C134.589 239.051 132.917 232.431 131.663 225.742C131.245 223.513 131.663 221.074 130.966 218.914C129.851 215.5 128.458 212.086 126.786 208.881C119.4 195.502 110.62 183.17 99.1933 172.788C97.5908 171.324 95.7791 170.07 94.0372 168.677C93.0617 169.234 92.1559 169.722 91.7379 170.001C88.1843 167.492 84.9095 165.123 81.565 162.824C81.2166 163.033 80.8682 163.311 80.5198 163.521C81.6346 167.004 82.8191 170.558 83.934 174.042C84.2824 175.017 84.7004 175.993 85.0488 176.968C87.2785 183.03 89.4385 189.162 91.6682 195.224C91.9469 195.921 92.783 196.408 93.2011 197.035C94.1766 198.638 95.7791 200.31 95.9185 202.052C96.1972 205.257 96.3366 208.184 99.8204 209.856C98.1482 211.737 96.8243 212.364 95.0127 210.483C94.3159 209.786 93.0617 209.717 92.0166 209.368C91.8772 209.647 91.7379 209.926 91.6682 210.204C93.5495 212.922 95.3611 215.709 97.3817 218.357C101.562 224.001 105.116 230.271 110.202 234.87C114.662 238.981 114.94 245.182 119.051 248.806C121.769 251.175 124.068 255.286 128.806 254.24C129.433 256.958 127.831 258.979 124.695 258.63C122.953 258.421 120.933 257.655 119.748 256.47C115.01 251.662 110.411 246.715 106.161 241.49C101.632 235.915 97.5211 229.923 93.3404 224.07C89.5082 218.775 85.6062 213.479 82.0527 207.975C78.7082 202.819 75.7121 197.384 72.5069 192.088C71.183 189.928 69.7198 187.838 68.4656 185.678C66.654 182.612 64.9817 179.407 63.2398 176.271C63.1004 176.062 63.1701 175.784 63.0308 175.644C57.8746 170.001 56.8295 162.406 53.8333 155.786C52.3701 152.651 52.9275 148.54 52.5095 144.917C52.3004 143.035 51.9521 141.154 51.6733 139.273C51.534 138.576 51.1159 137.81 51.2553 137.252C52.9275 131.887 50.7675 126.382 51.6733 121.017C51.8127 120.111 51.8824 119.066 52.3701 118.439C56.6901 112.517 61.2191 106.733 68.814 104.643C69.9985 104.295 71.1133 103.528 72.1585 102.901C78.2901 98.9295 85.3972 99.696 92.1559 99.5566C99.6811 99.4173 107.206 100.393 114.662 101.09C115.916 101.229 117.1 102.274 118.424 102.762C122.048 104.086 125.671 105.201 129.224 106.594C130.339 107.012 131.802 108.127 132.011 109.102C132.22 110.008 131.106 111.471 130.2 112.238C127.064 114.746 124.068 112.029 121.002 111.541C118.215 111.123 115.568 110.008 112.78 109.381C107.346 108.127 101.911 106.733 96.4759 105.758C90.0656 104.573 83.7946 105.061 78.0114 108.336C77.9417 108.266 77.9417 108.615 77.9417 108.963ZM68.1869 119.902C61.4979 121.435 58.7108 130.284 62.7521 138.088C64.703 131.748 66.3753 125.964 68.1869 119.902Z" fill="black"/>
<path d="M466.115 168.537C470.992 172.578 475.87 176.62 480.747 180.661C480.538 180.94 480.399 181.288 480.19 181.567C477.89 180.313 475.521 179.198 473.431 177.804C469.808 175.435 466.324 172.857 462.84 170.349C461.028 169.025 459.147 167.701 457.614 166.098C454.757 163.242 452.11 160.176 449.392 157.18C447.79 155.438 448.277 153.278 450.019 152.651C455.106 150.909 455.524 146.519 456.36 142.478C458.172 133.838 458.52 124.989 459.217 116.14C459.635 110.147 461.586 104.295 462.77 98.3023C463.606 93.9126 464.233 89.5229 464.861 85.1333C465.348 81.9978 465.627 78.7926 465.975 75.6572C466.045 74.7513 465.836 73.7759 465.627 71.9642C463.119 75.0997 462.213 77.5384 462.91 80.7436C463.397 83.1823 463.258 85.7604 462.979 88.2688C462.77 90.15 461.725 91.3346 459.426 90.7771C456.29 90.0804 454.688 87.572 454.27 84.3668C453.782 80.2559 452.667 76.2146 451.831 72.1733C451.134 68.8984 450.646 65.6236 449.88 62.4184C449.044 59.0739 447.65 55.8688 447.163 52.5243C446.605 48.4133 444.306 46.323 441.031 44.163C437.826 42.0726 434.621 41.1668 430.997 41.0972C428.001 41.0275 424.935 40.6791 422.079 41.2365C420.197 41.5849 418.595 43.2572 416.923 44.372C416.365 44.7204 415.947 45.5565 415.39 45.6262C409.467 46.6713 406.541 51.5488 402.569 55.172C399.085 58.3075 396.786 61.861 395.462 66.3901C398.179 67.0868 400.966 67.7139 403.684 68.4107C403.823 68.8288 403.893 69.2468 404.032 69.6649C402.221 70.7101 400.548 72.0339 398.667 72.7307C396.089 73.7062 396.368 74.4726 398.04 76.3539C399.921 78.4442 401.245 81.0223 402.778 83.461C404.868 86.8055 406.959 90.15 409.119 93.4946C411 96.421 413.09 99.2778 415.041 102.204C415.599 103.11 416.017 104.086 416.504 105.061C416.226 105.34 415.947 105.618 415.668 105.897C413.648 104.573 411.279 103.598 409.676 101.856C406.819 98.8597 404.52 95.3759 401.872 92.101C400.2 90.0804 398.388 88.1294 396.716 86.0391C395.671 84.7152 394.417 83.3217 394.068 81.7888C392.605 75.7268 390.515 74.7513 384.941 77.6081C380.551 79.8378 376.161 82.0675 370.866 81.9281C366.685 81.8584 364.316 79.6288 362.017 76.7023C362.992 72.8701 362.992 72.9397 366.337 74.821C367.034 75.1694 367.939 75.5875 368.636 75.3784C373.792 73.9152 379.018 72.452 384.104 70.6404C386.752 69.6649 388.494 66.3204 388.703 63.603C388.773 62.4881 389.261 61.3036 389.818 60.3281C393.163 54.6842 397.273 49.3888 399.852 43.4662C403.614 34.7565 409.606 27.6494 415.808 20.9604C422.009 14.2714 429.534 8.55781 437.199 3.54104C441.101 0.962971 446.675 -0.291222 451.413 0.0571653C455.106 0.335875 459.008 3.40168 461.934 6.1191C466.672 10.5785 468.902 16.5707 470.574 22.981C472.177 29.043 471.341 34.9655 471.759 40.9578C471.898 43.3268 472.595 45.6959 472.734 48.1346C473.013 52.3152 473.431 56.6352 473.083 60.8159C472.525 67.9926 471.48 75.0301 470.574 82.2068C470.086 86.4571 469.668 90.7075 469.111 94.8881C468.344 100.741 467.578 106.664 466.672 112.516C465.836 118.021 464.721 123.456 463.955 128.96C463.188 134.883 464.094 141.363 461.795 146.519C459.565 151.606 462.143 152.581 464.861 154.88C470.713 159.967 476.288 165.332 482.001 170.627C489.039 177.177 495.937 183.936 503.113 190.346C505.622 192.576 508.827 194.109 511.475 196.269C513.008 197.523 514.332 199.265 515.168 201.076C515.655 202.052 515.028 204.63 514.61 204.7C513.077 204.978 510.917 205.118 509.803 204.212C504.298 199.613 498.933 194.875 493.777 189.928C490.084 186.375 486.879 182.333 483.116 178.78C480.19 175.993 476.775 173.693 473.501 171.185C472.177 170.14 470.783 169.095 469.39 168.258C468.623 167.771 467.648 167.701 466.812 167.422C466.463 167.771 466.254 168.119 466.115 168.537ZM463.885 27.3707C464.234 27.2314 464.582 27.092 464.93 26.9526C464.234 21.3785 463.467 15.5952 459.147 11.5539C456.36 8.97587 453.294 5.70104 448.765 6.46749C446.466 6.88555 444.097 7.652 442.146 8.83652C437.338 11.6933 432.53 14.6197 428.141 18.0339C424.726 20.6817 421.8 24.0262 418.873 27.301C416.923 29.461 415.39 31.9694 413.648 34.3385C413.926 34.6172 414.275 34.8959 414.554 35.1746C415.529 34.3385 416.504 33.5023 417.41 32.6662C419.71 30.6455 421.8 28.4159 424.239 26.5346C426.817 24.5139 429.673 22.772 432.461 21.0997C437.268 18.243 442.076 15.2468 448.138 15.8739C454.688 16.5707 459.495 19.8456 462.91 25.4197C463.258 26.1165 463.537 26.7436 463.885 27.3707ZM426.538 33.5023C430.788 34.5475 433.994 35.3139 437.547 36.2197C437.547 34.1991 437.756 32.7359 437.477 31.2726C437.059 28.9733 435.526 28.0675 433.436 29.1126C431.346 30.0881 429.464 31.5514 426.538 33.5023ZM465.836 57.6107C465.418 57.6107 465 57.541 464.582 57.541C463.537 61.861 462.631 66.181 463.606 70.7101C463.676 71.0584 464.373 71.4765 464.861 71.6159C465.139 71.6855 465.766 71.1281 465.836 70.8494C465.906 66.3901 465.836 62.0004 465.836 57.6107ZM446.048 27.8585C447.302 30.9939 448.556 33.9901 450.019 37.4739C451.692 33.2933 449.113 27.4404 446.048 27.8585Z" fill="black"/>
<path d="M378.53 387.045C376.509 387.603 374.837 388.021 372.677 388.648C370.517 390.738 370.865 392.689 373.722 394.919C375.046 395.964 375.325 398.263 376.091 400.005C375.673 400.354 375.255 400.772 374.837 401.12C372.956 400.145 371.075 399.1 368.636 397.776C368.009 398.054 366.476 398.612 365.013 399.378C364.455 399.657 363.619 400.423 363.689 400.772C364.943 405.858 360.553 406.137 357.766 408.018C357.696 409.203 357.557 410.457 357.418 411.99C352.68 411.572 350.589 408.924 350.171 405.022C347.802 404.813 345.642 404.395 343.482 404.465C342.855 404.465 341.671 405.51 341.671 406.067C341.671 409.412 339.093 409.551 337.42 408.715C334.912 407.461 334.006 407.809 333.1 410.248C332.752 411.223 331.567 411.92 330.662 412.965C331.01 413.383 331.428 413.732 331.707 414.15C332.404 415.125 333.727 416.867 333.518 417.007C332.473 418.052 330.801 419.724 329.825 419.445C323.206 417.634 316.447 415.892 310.176 413.105C307.668 411.99 305.926 408.576 304.533 405.858C302.582 402.165 301.049 398.264 299.795 394.292C298.401 389.902 299.446 387.185 303.278 384.746C306.762 382.516 310.525 380.635 314.148 378.614C314.915 378.196 315.681 377.569 316.308 377.012C320.419 373.389 324.6 370.044 330.383 369.556C330.94 369.487 331.567 369.208 332.055 369.417C336.096 371.229 339.929 368.511 343.761 368.79C350.032 369.208 354.909 365.445 360.623 364.331C361.877 364.122 362.992 363.216 364.176 362.519C366.894 360.986 368.427 362.589 370.238 364.4C372.677 366.978 375.534 369.069 378.042 371.507C379.575 373.04 381.038 374.782 382.153 376.663C385.358 382.238 388.006 388.021 387.449 394.71C387.24 397.427 387.031 400.214 385.986 402.653C385.358 404.186 383.338 405.231 381.735 406.207C381.247 406.485 379.715 406.067 379.575 405.649C379.296 404.813 379.575 403.768 379.645 402.792C379.924 397.427 381.875 391.853 378.53 387.045ZM322.509 412.756C322.509 412.408 322.509 411.99 322.44 411.642C323.067 410.457 323.624 409.203 324.251 408.018C324.739 407.112 325.366 406.207 325.924 405.301C324.6 405.092 322.858 404.256 322.091 404.813C319.722 406.346 317.702 408.506 315.263 410.666C317.911 411.433 320.21 412.06 322.509 412.756ZM304.463 396.313C308.016 394.849 310.525 389.902 309.41 386.488C303.278 389.763 302.233 391.853 304.463 396.313ZM363.41 385.791C362.783 387.951 362.226 390.111 361.32 393.386C363.201 392.689 364.734 392.62 365.222 391.853C366.336 390.111 365.013 386.488 363.41 385.791Z" fill="black"/>
<path d="M446.884 162.754C446.257 163.102 445.281 163.66 444.445 164.078C436.502 158.713 432.321 149.236 423.054 145.822C423.472 143.662 424.308 141.363 424.308 138.994C424.308 137.461 422.845 136.067 422.497 134.465C421.242 129.796 420.197 125.058 419.013 120.042C417.34 120.878 415.529 121.993 413.578 122.829C410.164 124.222 406.54 122.55 405.426 119.066C405.147 118.16 405.495 116.767 406.122 116C406.471 115.582 407.795 115.861 408.7 115.861C409.746 115.791 410.86 115.931 411.836 115.582C417.41 113.213 419.988 107.709 424.03 103.667C426.19 101.507 427.931 98.79 429.325 96.0029C431.206 92.2403 432.46 88.199 434.133 84.3667C434.69 83.0429 436.014 82.0674 436.641 80.7435C437.756 78.4441 438.453 75.9358 439.498 73.5667C440.055 72.2429 440.891 70.9887 441.588 69.6648C443.121 70.71 445.699 71.5461 446.117 72.9396C448.208 80.3951 450.019 87.7112 448.138 95.8635C445.908 105.827 441.309 114.746 437.826 124.083C437.408 125.267 437.338 126.731 437.408 128.054C437.477 129.587 437.965 131.19 438.104 132.723C438.592 138.018 438.313 143.453 439.777 148.47C441.031 153.487 444.236 157.807 446.884 162.754Z" fill="black"/>
<path d="M354.282 59.2133C352.053 60.3978 349.684 61.3733 347.524 62.6972C343.9 64.9269 340.347 67.2959 336.793 69.6649C331.358 73.2882 325.854 76.8417 320.698 80.8133C316.796 83.8095 313.242 87.2933 309.619 90.6378C309.062 91.1256 308.574 91.9617 308.435 92.7282C308.016 94.8185 307.041 97.3269 304.881 96.3514C303.069 95.5153 301.118 92.7978 301.118 90.8469C300.979 86.7359 302.094 82.6249 302.721 78.514C302.791 77.8869 302.93 77.1901 303.139 76.2146C302.233 76.2843 301.467 76.0753 301.049 76.354C293.802 81.8585 286.625 87.363 279.518 92.9372C278.613 93.634 277.916 94.6095 277.219 95.5153C274.293 99.6262 272.272 99.6959 269.206 95.794C268.858 95.3759 268.44 94.9578 267.464 93.7733C271.018 90.8469 274.432 87.9204 277.985 85.203C284.605 80.1166 291.224 75.0998 298.053 70.2224C301.397 67.8533 304.881 65.6933 308.644 64.0211C309.967 63.4637 312.615 64.2301 313.73 65.3449C315.333 66.8778 316.169 69.1075 314.357 71.5462C312.545 74.0546 311.013 76.772 309.41 79.4198C309.689 79.6985 309.967 79.9772 310.246 80.2559C311.013 79.9075 311.779 79.6985 312.476 79.2107C317.214 75.8662 321.882 72.452 326.551 69.1772C329.686 66.9475 332.752 64.7178 335.957 62.7669C343.413 58.2378 351.007 53.8482 358.463 49.3888C359.787 48.5527 360.902 47.2288 362.365 46.6714C363.898 46.0443 366.476 45.3475 367.242 46.0443C368.775 47.5772 370.796 49.5978 368.775 52.3849C365.361 56.914 362.016 61.5824 358.742 66.1811C356.651 69.1075 354.84 72.3127 352.61 75.1695C351.216 76.9114 349.335 78.3049 347.524 79.6985C347.175 79.9772 345.712 79.6288 345.712 79.4198C345.503 78.0959 345.015 76.4933 345.573 75.5178C348.499 70.1527 351.774 64.9269 354.909 59.7011C354.631 59.6314 354.491 59.4224 354.282 59.2133Z" fill="black"/>
<path d="M248.512 376.315C249.069 369.835 249.418 364.261 250.114 358.757C250.602 355.133 251.787 351.65 252.553 348.096C253.111 345.588 253.25 342.94 254.016 340.501C255.41 335.833 257.082 331.234 258.685 326.566C260.566 321.201 262.517 315.835 264.538 310.54C266.071 306.499 268.718 303.851 273.108 302.875C274.78 302.457 276.313 301.133 277.846 300.088C280.076 298.555 281.818 296.326 285.023 296.395C286.068 296.395 287.462 295.141 288.158 294.096C289.691 291.727 291.782 291.17 293.454 293.469C295.614 296.326 297.286 299.601 299.167 302.666C299.307 302.875 299.237 303.154 299.376 303.293C306.274 311.306 305.578 321.828 308.365 331.164C309.549 335.066 308.992 339.456 309.34 343.567C309.758 348.514 310.455 353.461 310.664 358.478C310.734 359.802 309.758 361.195 309.201 362.589C308.365 361.474 307.041 360.429 306.832 359.244C305.578 353.043 304.463 346.842 303.487 340.641C302.442 333.673 302.024 326.566 300.422 319.807C299.098 314.024 296.52 308.589 294.29 303.015C293.593 301.342 287.392 299.531 285.72 300.158C280.424 302.179 278.264 304.687 278.264 307.892C278.264 310.052 278.334 313.397 274.014 312.282C273.178 312.073 271.436 313.466 270.878 314.511C268.997 318.204 267.394 322.037 265.792 325.869C264.607 328.795 263.562 331.791 262.587 334.857C261.054 339.595 259.73 344.333 258.058 349.002C256.107 354.437 255.201 359.941 254.852 365.724C254.852 369.348 253.459 373.528 248.512 376.315Z" fill="black"/>
<path d="M167.338 117.533C165.108 119.763 162.53 118.439 161.206 116.697C158.558 113.213 154.517 112.516 151.173 110.356C148.873 108.893 146.783 107.151 144.135 105.2C152.427 105.2 159.952 105.131 167.477 105.2C175.142 105.34 182.876 105.479 190.54 105.897C198.135 106.315 205.8 107.151 213.394 107.778C213.604 107.36 213.743 106.873 213.952 106.455C213.046 105.688 212.14 104.922 211.165 104.225C208.517 102.413 205.591 100.95 203.291 98.8597C202.176 97.8842 202.176 95.6545 201.689 94.052C203.152 93.6339 204.685 93.0068 206.148 92.9371C210.956 92.7978 215.833 92.5191 220.641 92.8675C235.831 93.7733 250.184 97.5358 262.935 106.176C263.493 106.524 263.702 107.36 264.05 107.987C263.423 108.266 262.726 108.824 262.308 108.684C258.197 107.43 254.086 106.176 250.045 104.713C246.979 103.667 244.122 101.786 241.056 101.298C233.044 99.9745 224.891 99.2081 216.739 98.2326C215.973 98.1629 215.067 97.9539 214.37 98.1629C213.325 98.4416 212.349 98.9991 211.374 99.4868C212.071 100.462 212.628 101.856 213.534 102.344C216.251 103.667 219.317 104.434 222.034 105.688C224.682 106.873 227.121 108.475 229.769 110.008C228.166 112.935 226.494 113.562 223.916 113.422C216.878 113.004 209.841 113.074 202.804 112.726C199.947 112.586 197.16 111.75 194.303 111.611C190.053 111.402 185.802 111.471 181.552 111.402C176.814 111.262 172.006 110.984 167.268 110.914C165.596 110.914 163.924 111.541 161.764 112.795C163.645 114.328 165.387 115.861 167.338 117.533Z" fill="black"/>
<path d="M271.784 283.087C278.264 288.313 277.15 297.928 269.833 300.506C264.12 302.527 257.988 303.502 251.996 304.339C247.885 304.896 244.332 302.875 242.241 299.322C240.081 295.699 237.782 291.936 236.667 287.964C235.901 285.108 236.737 281.624 237.433 278.558C237.573 277.861 240.36 277.095 241.475 277.513C243.356 278.279 245.864 279.952 244.541 282.46C241.893 287.337 244.471 291.309 246.073 295.49C247.119 298.207 249.488 298.555 251.857 298.068C255.828 297.301 260.009 296.883 263.493 295.141C265.862 293.957 267.395 290.821 269.067 288.452C270.112 286.85 270.809 285.038 271.784 283.087Z" fill="black"/>
<path d="M56.6901 428.713C53.694 430.315 50.7676 431.988 47.7018 433.381C40.4553 436.795 33.2089 440 26.0321 443.554C20.3185 446.341 14.6747 449.268 9.17015 452.403C8.19466 452.96 7.49789 454.633 7.28885 455.817C6.94047 458.186 5.40756 459.371 3.66563 457.908C2.27208 456.723 0.94821 454.981 0.390791 453.239C-0.724048 449.825 0.530146 448.362 4.3624 446.759C7.63724 445.366 10.7727 443.693 14.0476 442.091C19.2734 439.582 24.4992 437.004 29.6553 434.496C30.9095 433.869 32.0243 433.102 33.2785 432.615C35.9263 431.569 38.6437 430.733 41.2914 429.618C43.5908 428.643 45.8205 427.598 47.9108 426.204C51.2553 423.975 51.1159 423.905 55.4359 424.671C54.9482 425.647 54.5301 426.692 54.0424 427.668C54.9482 428.086 55.854 428.434 56.6901 428.713C56.7598 428.782 56.6901 428.713 56.6901 428.713Z" fill="black"/>
<path d="M251.857 275.771C253.808 277.234 255.55 278.14 258.198 276.398C261.124 274.517 262.239 277.164 263.214 279.603C265.165 284.481 264.12 287.825 259.591 289.706C257.919 290.403 251.787 287.546 250.045 285.247C247.119 281.206 247.467 278.906 251.857 275.771Z" fill="black"/>
<path d="M359.996 250.547C364.734 249.92 367.033 251.453 367.033 255.216C367.033 259.118 363.062 261.696 359.856 259.396C357.487 257.724 355.467 255.216 353.795 252.777C352.122 250.338 352.889 247.691 355.676 246.924C356.86 246.576 358.672 248.596 360.205 249.572C360.066 249.851 360.065 250.199 359.996 250.547Z" fill="black"/>
<path d="M523.947 241.28C521.996 236.264 520.045 231.247 518.094 226.3C518.652 226.091 519.14 225.882 519.697 225.673C521.16 230.898 525.341 235.009 525.759 240.653C525.132 240.793 524.574 241.071 523.947 241.28Z" fill="black"/>
</svg>
