<svg width="152" height="154" viewBox="0 0 152 154" fill="none" xmlns="http://www.w3.org/2000/svg">
<path d="M13.8368 71.1855C11.3081 71.1855 11.1501 73.7141 9.72769 74.8204C9.09552 75.4526 8.93747 76.5589 8.14726 77.1911C7.67313 77.6652 6.72488 77.6652 5.93467 77.8233C5.77662 77.1911 5.46053 76.5589 5.77661 76.0848C7.199 72.7659 8.46334 69.2889 10.0438 66.1281C13.3627 59.0161 16.8396 52.0623 20.1585 45.1084C20.9487 43.3699 21.897 41.7894 22.5292 40.051C22.8453 39.2608 23.0033 38.4705 23.1613 37.6803C22.8453 37.5223 22.6872 37.5223 22.3711 37.3642C21.1068 39.7349 20.0005 42.2636 18.5781 44.6342C14.9431 51.272 11.4662 58.0679 7.67312 64.7057C6.72487 66.4442 4.98641 67.8665 3.56402 69.447C2.77381 70.3952 1.82553 70.8694 0.56119 69.9211C-0.545111 69.1309 0.245114 68.3407 0.719243 67.5505C4.03815 60.2805 7.51508 53.0105 10.834 45.5825C13.0466 40.5251 14.9431 35.1516 16.9977 30.0943C16.9977 29.9362 16.9977 29.9362 17.1557 29.7782C18.5781 27.4075 20.0005 24.7208 21.739 22.5082C23.1614 20.6117 25.0579 20.6117 27.2705 21.876C31.0635 23.9306 33.2761 27.5656 35.6467 30.8845C40.5461 37.5223 44.9713 44.4762 49.8706 51.114C51.9252 54.1168 54.2958 56.8035 56.5084 59.8063C57.1406 60.5966 58.4049 61.5448 56.8245 62.4931C55.5601 63.4414 54.1378 65.1798 52.3993 63.4413C49.8706 61.0707 47.1839 58.542 44.9713 55.6972C40.8621 50.3238 36.9111 44.6342 32.96 39.1027C32.3278 38.1545 31.5376 37.3643 30.5894 36.258C30.9054 39.5769 31.0635 42.5797 31.3796 45.4244C31.5376 46.5308 31.8537 47.9531 32.4859 48.7433C36.4369 53.4846 40.388 58.2259 44.6552 62.8092C47.5 65.97 50.5028 68.8148 53.5056 71.9757C55.2441 73.7141 55.244 76.5589 53.6636 77.8233C52.3993 78.7715 50.9769 79.4037 49.5545 77.9813C45.2874 73.5561 40.8622 69.1309 36.595 64.7057C35.9628 64.0735 35.3307 63.2833 34.6985 62.6511C32.96 65.812 34.3824 70.2372 37.7013 72.6078C42.2846 75.9267 46.7098 79.4037 51.135 83.0387C51.9252 83.6709 52.3993 84.4611 52.8734 85.2513C53.8217 86.5156 54.2958 87.78 52.8734 89.0443C51.451 90.1506 49.8706 90.3086 48.2902 89.2023C44.023 86.0415 39.9139 82.8806 35.1726 80.0358C35.4887 80.9841 35.6467 82.0904 36.2789 82.8806C37.8593 84.9352 39.4398 86.8317 41.3363 88.5702C43.865 90.9408 46.7098 93.1534 49.5545 95.366C50.8189 96.3143 52.5573 97.2626 51.451 98.843C50.6608 99.9493 48.6062 100.739 47.3419 100.423C45.2873 100.107 43.3909 99.001 41.4943 98.0528C39.9139 97.2626 38.6495 95.9982 36.4369 94.5758C36.753 97.2625 37.2272 99.1591 37.3852 101.214C38.0174 108.484 38.6496 115.754 39.1237 122.866C39.5978 129.029 40.0719 135.035 40.5461 141.198C40.8622 144.201 41.1782 147.362 41.3363 150.365C41.4943 152.103 39.2817 154 36.753 154C35.0146 154 34.2243 152.736 34.0663 150.997C33.9083 145.466 33.7502 140.092 33.4341 134.561C32.802 126.026 32.0117 117.492 31.3796 108.958C31.0635 104.849 30.7474 100.739 30.4313 96.6304C30.1152 93.6275 29.9572 90.6247 29.4831 87.6219C29.325 86.9897 28.8509 86.3576 28.3768 85.8834C26.4802 83.6708 26.3222 82.0904 27.4285 79.5617C28.0607 78.2974 28.0607 76.7169 28.3768 75.2946C28.0607 75.2946 27.9026 75.1365 27.5865 75.1365C26.1642 77.1911 24.7418 79.4037 23.3194 81.4582C20.6327 85.5674 17.9459 89.6765 15.2592 93.6276C13.8368 95.8402 11.4662 96.3143 9.56964 95.0499C8.14725 94.2597 7.04095 93.3115 8.77942 91.573C9.09551 91.2569 9.25356 90.7828 9.41161 90.4667C9.25356 90.1506 9.09553 89.9926 9.09553 89.8345C5.14445 89.2023 4.51227 88.4121 6.25075 84.6191C8.46335 79.8778 11.1501 75.6107 13.8368 71.1855C13.8368 70.8694 13.8368 70.5533 13.8368 70.3952C13.8368 70.2372 13.6788 69.9211 13.6788 69.7631C13.5207 69.7631 13.3627 69.7631 13.3627 69.7631C13.3627 70.0791 13.3627 70.2372 13.3627 70.5533C13.3627 70.7113 13.6788 71.0274 13.8368 71.1855ZM20.9487 69.9211C21.739 69.447 22.6872 68.9728 23.1613 68.1826C24.4257 66.1281 26.3222 64.3896 26.4803 61.8609C26.3222 61.7029 26.0061 61.5448 25.8481 61.5448C24.1096 64.3896 22.5292 67.2344 20.9487 69.9211C20.9487 70.2372 20.7907 70.3952 20.7907 70.7113C20.6327 71.1855 20.6327 71.5015 20.4746 71.9757C20.7907 71.9757 21.1068 72.1337 21.2648 71.9757C21.4229 71.6596 21.739 71.1854 21.739 70.8694C21.5809 70.5533 21.1068 70.2372 20.9487 69.9211ZM13.5207 85.2513C13.3627 85.2513 13.2046 85.4093 13.2046 85.4093C13.3627 85.5674 13.5207 85.7254 13.5207 85.7254C13.6788 85.7254 13.8368 85.5674 13.9948 85.4093C13.8368 85.4093 13.6788 85.4093 13.5207 85.2513ZM21.897 48.4273C22.055 48.2692 22.3711 47.9531 22.3711 47.7951C22.3711 47.6371 22.055 47.321 21.897 47.321C21.5809 47.479 21.4229 47.6371 21.2648 47.7951C21.4229 48.1112 21.5809 48.2692 21.897 48.4273ZM36.595 114.173V114.015C36.437 114.015 36.2789 114.015 36.2789 114.173V114.331C36.2789 114.173 36.437 114.173 36.595 114.173ZM8.93747 72.7659C8.77943 72.7659 8.62139 72.6078 8.62139 72.6078C8.46335 72.6078 8.46335 72.7659 8.30531 72.9239C8.46335 72.9239 8.62139 73.082 8.62139 73.082C8.77944 73.082 8.93747 72.9239 8.93747 72.7659ZM15.5753 90.3086C15.5753 90.3086 15.7333 90.3087 15.7333 90.1506C15.5753 90.1506 15.5753 89.9926 15.4172 89.9926C15.5753 89.9926 15.4172 89.9926 15.5753 90.3086C15.4172 90.1506 15.5753 90.1506 15.5753 90.3086ZM38.0174 129.187C38.0174 129.345 37.8593 129.503 37.8593 129.503C38.0174 129.503 38.0174 129.503 38.1754 129.503C38.0174 129.345 38.0174 129.187 38.0174 129.187ZM34.8565 130.452C34.6985 130.61 34.6985 130.61 34.5404 130.768L34.6985 130.926C34.8565 130.926 34.8565 130.926 35.0146 130.926C35.0146 130.768 35.0146 130.61 34.8565 130.452Z" fill="black"/>
<path d="M118.935 42.3213C118.145 42.7954 117.197 42.9535 116.723 43.5856C115.142 45.6402 113.878 47.6947 112.298 49.7493C111.665 50.5395 110.875 51.3297 109.927 51.4878C108.188 51.9619 106.924 50.6976 107.556 48.9591C108.505 46.2724 109.611 43.4276 110.875 40.8989C114.036 34.8933 117.197 28.8876 120.358 22.882C120.832 22.0918 120.832 20.9855 120.99 20.0372C120.674 19.8792 120.516 19.8792 120.2 19.7211C118.303 22.4079 116.407 25.0946 114.352 27.7813C112.456 30.31 110.717 32.9967 108.821 35.5254C107.556 37.1059 104.711 37.2639 103.447 35.8415C103.131 35.5254 103.131 34.4191 103.447 33.945C105.502 30.31 107.714 26.8331 109.769 23.3561C112.614 18.2987 115.3 13.0833 117.987 8.02596C118.461 6.91966 118.461 5.49727 118.461 4.07488C118.303 2.33641 119.41 1.38814 120.674 0.755972C123.677 -0.824458 127.47 0.1238 129.366 3.12662C133.317 9.76442 139.007 14.8218 144.38 20.1953C147.383 23.3561 149.912 26.8331 151.492 30.9422C152.441 33.4709 151.65 35.6835 149.754 35.9996C148.806 36.1576 147.225 35.6835 146.909 35.0513C142.958 27.6233 136.478 22.5659 130.947 16.5603C129.682 15.2959 128.418 14.0316 126.679 13.0833C127.154 15.1379 127.628 17.3505 128.102 19.405C128.26 20.0372 128.734 20.6694 129.208 20.9855C134.424 24.1463 138.059 29.0457 142.168 33.3128C143.59 34.8933 145.329 36.3157 146.751 37.738C149.438 40.7409 148.805 43.1115 144.696 44.3758C145.803 45.1661 146.435 46.1143 147.541 46.5884C148.964 47.3787 148.806 48.3269 148.331 49.4332C147.857 50.6976 147.225 51.6458 145.329 51.3297C141.694 50.6976 138.691 48.8011 136.004 46.4304C135.214 45.7982 134.266 45.166 133.475 44.5339C133.317 44.85 133.001 45.008 132.843 45.3241C134.582 46.9045 136.32 48.485 138.059 49.9073C141.852 53.0682 145.645 56.071 149.28 59.2319C150.544 60.1801 150.702 61.6025 150.228 63.0249C149.596 64.2893 148.806 65.2375 147.225 64.2892C143.59 61.9186 139.797 59.548 136.162 57.1773C135.214 56.5451 134.266 56.071 133.001 55.1228C133.001 56.5452 132.843 57.4934 133.001 58.4417C133.949 63.499 135.056 68.5564 136.162 73.6138C136.32 74.246 136.794 74.8781 137.11 75.6684C137.901 77.7229 137.268 79.4614 135.372 80.2516C133.791 80.8838 131.737 79.9355 131.105 78.039C129.998 74.7201 128.892 71.4012 128.26 68.0823C127.154 62.5508 126.521 57.0193 125.731 51.3297C125.573 50.6976 125.415 50.0654 125.099 49.4332C124.941 49.1171 124.467 48.643 124.151 48.643C123.835 48.643 123.519 49.1171 123.203 49.4332C121.622 51.9619 120.042 54.4906 118.461 57.0193C117.355 58.9158 115.458 59.2319 113.562 58.9158C111.507 58.7577 111.033 57.9675 111.982 55.913C114.194 51.4878 116.565 46.9045 118.935 42.3213C118.935 41.8471 118.935 41.373 118.935 41.0569H118.777C118.777 41.5311 118.935 41.8471 118.935 42.3213ZM137.584 39.1604C137.742 39.0024 137.743 39.0024 137.901 38.8443C136.478 37.422 135.214 35.9996 133.791 34.5772C133.791 34.5772 133.791 34.5772 133.633 34.7352C135.056 36.1576 136.32 37.738 137.584 39.1604Z" fill="black"/>
</svg>
