<svg width="169" height="271" viewBox="0 0 169 271" fill="none" xmlns="http://www.w3.org/2000/svg">
<path d="M129.2 134.1C130.3 132.9 131.6 132.6 133.1 133.4C133.5 133.6 134.2 133.3 134.8 133.3C135.9 133.4 137.2 133.1 137.9 133.7C139 134.6 139.8 135.9 138.7 137.5C137.7 138.8 136.7 140.2 135.9 141.6C135.5 142.4 135.2 143.6 135.5 144.3C136.3 146.2 137.4 148 138.4 149.8C141.8 155.7 145.2 161.6 148.7 167.4C150.4 170.3 152.5 172.9 154.3 175.8C158 181.6 161.4 187.6 163.8 194.2C164.1 195 163.4 196.1 163.2 197C162.4 196.5 161.4 196.1 160.9 195.4C158.7 192.1 156.7 188.7 154.6 185.4C150.3 178.7 145.9 172 141.7 165.3C139.7 162.1 137.8 158.8 135.9 155.6C135.6 155.1 135.3 154.6 135 154.2C134.8 154.3 134.6 154.3 134.4 154.4C134.6 155.1 134.6 155.9 135 156.4C136.5 158.6 136.6 159.7 135.1 162C134.8 162.6 134.5 163.3 134.5 163.9C134.4 167.7 134.5 171.5 134.4 175.2C134.4 176 134.2 176.8 134 177.7C133.5 180.3 133.8 182.5 135.6 184.8C140.2 190.3 144.4 196.1 148.7 201.8C150.8 204.6 152.7 207.6 154.7 210.5C155.6 211.9 154.3 212.8 153.9 213.9C153.9 213.9 152.8 213.8 152.5 213.5C150.2 211 147.9 208.4 145.7 205.8C142.7 202.3 139.8 198.7 136.8 195.1C135.7 193.7 134.7 192.2 133.6 190.7C133.4 190.8 133.2 190.8 133 190.9C132.8 192.6 132.5 194.2 132.3 195.9C132.2 196.6 132.3 197.3 132.2 198C131.9 199.5 131.9 200.9 133.9 201.2C134.3 201.3 134.5 201.8 134.9 202.1C135.4 202.6 135.8 203.2 136.4 203.5C138.2 204.4 138.6 205.5 137.9 207.5C137.6 208.3 137.7 209.5 138.1 210.2C141.6 215.6 145.1 220.9 148.7 226.2C151.3 230 154.2 233.6 156.9 237.4C160 241.7 163 246.1 165.8 250.6C166.7 252 167.3 253.7 167.7 255.3C168.1 256.7 168.1 258.3 168.1 259.8C168.1 260.2 167.7 260.6 167.5 260.9C167 260.6 166.4 260.4 166.2 260C164.9 257.8 163.7 255.4 162.3 253.2C160.3 250.1 158.2 247.1 156.1 244.2C152.8 239.7 149.2 235.4 146 230.9C142.5 225.9 139.2 220.8 135.8 215.7C134.6 213.9 133.6 212.1 132.5 210.3C132.3 210.3 132.1 210.2 131.9 210.2C131.5 211.1 131 212 130.8 212.9C130.1 217 129.6 221.1 129 225.2C128.7 227.2 128.5 229.2 128.3 231.2C127.7 237.4 127.1 243.5 126.5 249.7C126.1 253.8 125.7 257.8 125.4 261.9C125.2 263.8 125.2 265.7 125.1 267.7C125 270.2 122.1 271.9 120.6 270.4C120.1 269.9 119.7 269.2 119.7 268.6C119.7 266.8 119.9 264.9 120 263.1C120.4 258.8 120.9 254.5 121.3 250.2C121.7 246.1 122.2 242 122.6 237.8C123.1 232.6 123.6 227.4 124.2 222.2C124.4 220.4 124.9 218.6 125.4 216.3C124.5 216.8 124 217 123.6 217.3C119 221.8 114.4 226.3 109.8 230.8C105.4 235.1 101.2 239.5 96.7 243.6C92.7 247.3 88.4 250.7 84.2 254.2C82 256.1 79.7 257.9 77.4 259.6C76.8 260 75.4 260.1 75.1 259.7C74.7 259.1 74.5 257.8 74.9 257.2C75.6 256.1 76.7 255.2 77.8 254.3C79.6 252.7 81.5 251.1 83.4 249.5C86 247.2 88.6 244.8 91.2 242.4C94.5 239.3 97.9 236.2 101.1 233C103.9 230.2 106.6 227.2 109.5 224.4C112.4 221.5 115.4 218.7 118.5 215.9C120.8 213.8 123.1 211.8 125.4 209.7C125.9 209.3 126.2 208.5 126.3 207.9C126.6 206.1 126.7 204.3 126.9 202.6C127.2 200.4 127.5 198.3 127.8 196.1C128 194.9 128.1 193.7 128.2 192.6C128.4 190.6 128.6 188.6 128.9 186.6C129.1 185.1 128.5 184.1 127.5 183.1C125.8 181.4 124.2 179.7 122.5 178.1C121.5 177.1 120.9 178 120.4 178.8C118.5 181.6 116.6 184.4 114.6 187.2C110.5 193.1 106.4 199.1 102.1 204.9C99 209.1 95.8 213.1 92.5 217C91.1 218.7 89.2 220.1 87.5 221.5C87.1 221.8 86.1 221.9 85.9 221.7C85.6 221.3 85.4 220.4 85.7 220C87 217.8 88.4 215.6 89.8 213.5C92.2 210 94.5 206.6 97 203.2C99.1 200.3 101.3 197.4 103.4 194.5C104.4 193.1 105.3 191.5 106.3 190.1C109.7 185.1 113 180.1 116.7 175.3C120.5 170.3 124.7 165.6 128.7 160.7C129.3 160 129.6 158.9 129.6 158C129.7 156.4 129.5 154.7 129.4 153C129.2 152.9 129 152.8 128.9 152.7C128.4 153.3 127.8 153.9 127.3 154.5C125.4 157.1 123.6 159.9 121.6 162.4C117.8 167.1 114 171.6 110 176.1C106.9 179.6 103.8 183 100.5 186.3C97.8 189.1 94.7 191.3 91.1 192.7C90.5 192.9 89.7 193 89.2 192.8C88.5 192.5 87.7 191.8 87.4 191.2C87 190.2 87.6 189.3 88.8 188.9C92.2 187.6 94.5 184.9 97.1 182.6C100.7 179.4 103.6 175.6 106.8 172.1C110.6 167.9 114.1 163.5 117.5 159C121 154.3 124.4 149.5 127.7 144.7C128.1 144.1 128.2 142.9 127.9 142.3C127 140.9 125.8 139.6 124.6 138.3C123.3 137 123.1 135.1 124.2 133.8C125 132.8 127 132.7 128.3 133.6C128.6 133.6 128.9 133.8 129.2 134.1ZM128.8 177.1C129 176.9 129.3 176.8 129.5 176.6C129.5 173.8 129.5 170.9 129.5 167.7C128 169.5 126.8 171 125.7 172.5C125.5 172.7 125.5 173.3 125.7 173.5C126.7 174.7 127.7 175.9 128.8 177.1Z" fill="black"/>
<path d="M64.9 31.1999C64.7 35.8999 64.4 40.5999 64.2 44.8999C65.5 44.8999 66.6 44.5999 67.4 44.9999C68 45.2999 68.2 46.3999 68.3 47.1999C68.3 47.6999 67.8 48.2999 67.4 48.5999C65.9 49.5999 66.5 50.6999 67.2 51.7999C69 54.5999 70.9 57.3999 72.7 60.1999C74.6 62.9999 76.4 65.7999 78.4 68.5999C81.9 73.3999 85.6 78.0999 89 82.9999C89.7 83.8999 89.9 85.2999 90 86.4999C90 87.1999 89.2 87.9999 88.6 89.0999C83.9 83.5999 79.3 78.6999 75.3 73.2999C71.3 67.8999 67.8 62.0999 64.1 56.4999C64 56.5999 63.8 56.5999 63.7 56.6999C63.1 65.0999 62.6 73.4999 61.9 82.3999C63.7 80.9999 65.2 79.9999 66.6 78.8999C68 77.7999 69.4 77.7999 70.4 78.9999C71.4 80.2999 71 81.2999 69.5 82.5999C67 84.8999 64.5 87.1999 62.3 89.6999C60.9 91.3999 61.3 93.5999 62.7 95.2999C65.9 99.3999 68.9 103.6 71.3 108.3C72.3 110.3 73.9 112.1 75.3 113.9C77 116.1 78.6 118.5 80.5 120.5C83.1 123.3 86 125.9 88.8 128.5C89.6 129.2 90.6 129.8 91.1 130.8C91.5 131.5 91.5 132.9 91 133.5C90.4 134.2 89.4 135.4 88 134.1C85.2 131.6 82 129.5 79.4 126.8C76.5 124 73.8 120.9 71.5 117.6C68.3 113.2 65.6 108.4 62.7 103.8C62.4 103.3 62 102.8 61.3 101.8C61.2 102.6 61.1 103 61.1 103.4C60.8 112.8 60.7 122.2 60.3 131.6C60 137.3 59.4 143.1 58.8 148.8C58.6 151.4 58.2 153.9 57.8 156.5C57.7 157.2 57.2 157.8 56.8 158.5C56.2 157.7 55 156.9 55 156.1C55 152.7 55.3 149.2 55.5 145.8C55.7 143 56 140.2 56.1 137.4C56.4 130.3 56.7 123.2 56.9 116.1C57.1 110.8 57.2 105.6 57.6 100.4C57.7 98.5999 56.3 98.0999 55.4 97.1999C55.3 97.0999 54.3 97.4999 54 97.7999C52.1 99.7999 50.4 102 48.5 104C45.1 107.5 41.6 110.8 38.3 114.3C34.1 118.6 30.1 123 26 127.4C22.9 130.7 19.9 133.9 16.7 137.1C15.8 138.1 14.4 138.3 13.3 137.4C12.4 136.6 11.3 135.5 12.4 134.2C14.3 131.9 16.4 129.6 18.5 127.4C22.7 123 26.9 118.6 31.2 114.3C34.4 111 37.7 107.9 40.9 104.6C43.7 101.8 46.4 98.8999 49.1 95.9999C51.8 93.0999 54.6 90.1999 57.3 87.1999C58 86.3999 58.4 85.1999 58.5 84.1999C58.8 78.4999 58.8 72.6999 59 66.9999C59.1 64.4999 59.4 62.0999 59.6 59.5999C59.6 59.1999 59.5 58.7999 59.5 58.3999C59.3 58.2999 59.1 58.0999 58.9 57.9999C58.1 58.9999 57.3 59.9999 56.5 60.8999C53.4 64.3999 50.2 67.7999 47 71.2999C43.6 74.9999 40.3 78.8999 36.8 82.4999C33.2 86.1999 29.4 89.5999 25.7 93.1999C20.7 97.9999 15.8 102.9 10.8 107.7C9.00001 109.4 7.20001 111.1 5.20001 112.6C3.80001 113.6 2.20001 113.8 0.60001 112.8C9.68575e-06 108.7 0.20001 108.8 3.70001 106.4C6.20001 104.7 8.40001 102.6 10.6 100.5C14.4 96.8999 18 93.0999 21.7 89.4999C25.9 85.2999 30.2 81.2999 34.4 77.0999C39.3 72.0999 44.3 67.0999 49 61.9999C52 58.7999 54.6 55.1999 57.5 51.8999C59.7 49.2999 60.4 46.3999 60.3 43.0999C60.2 38.6999 60.7 34.1999 60.9 29.7999C60.9 28.9999 60.9 28.2999 60.9 26.9999C59.2 28.5999 57.8 29.8999 56.5 31.1999C52.1 35.6999 47.7 40.0999 43.4 44.5999C39.4 48.6999 35.5 52.8999 31.5 56.9999C30.1 58.4999 28.4 59.7999 27 61.1999C26.3 61.8999 25.7 62.8999 25.2 63.7999C24.4 65.1999 23 65.8999 21.5 65.9999C20.8 65.9999 19.9 65.1999 19.4 64.4999C18.4 62.8999 19 60.7999 20.5 59.3999C24.1 56.0999 27.7 52.6999 31.3 49.2999C33.7 47.0999 36 44.7999 38.3 42.4999C41.5 39.2999 44.6 36.0999 47.8 32.8999C51.3 29.2999 54.9 25.7999 58.4 22.1999C58.8 21.7999 58.9 20.5999 58.6 20.0999C57.1 17.9999 55.3 16.0999 53.8 13.9999C53 12.7999 52.6 11.1999 52.3 9.69994C52.1 8.89994 54.9 7.49994 55.6 8.09994C56.8 9.09994 58 10.0999 59.1 11.2999C59.9 12.1999 60.5 13.2999 61.3 14.4999C62.5 13.8999 63.8 13.4999 64.8 15.2999C66.3 13.4999 67.7 11.7999 69.2 10.1999C71.4 7.69994 73.7 5.29994 75.8 2.79994C76.8 1.59994 77.9 0.599942 79.6 0.899942C80.5 1.09994 81.3 4.59994 80.7 5.79994C80.5 6.19994 80.1 6.49994 79.8 6.89994C76 10.8999 72.3 14.7999 68.5 18.7999C68.4 18.8999 68.3 19.0999 68.2 19.1999C65.7 21.5999 65.7 21.5999 67.3 24.4999C69.6 28.6999 71.9 32.9999 74.2 37.1999C76.1 40.6999 77.9 44.2999 80.2 47.4999C82.2 50.2999 84.7 52.6999 87 55.2999C87.6 55.9999 88.1 56.7999 88.6 57.6999C89.4 59.3999 87.9 61.9999 86 61.8999C85.1 61.8999 84.1 61.8999 84.2 60.2999C84.3 59.5999 83.5 58.5999 82.9 57.8999C80.3 54.9999 77.4 52.2999 75 49.1999C73.4 47.1999 72.4 44.7999 71.2 42.5999C69.2 38.7999 67.3 34.9999 65.4 31.1999C65.3 31.2999 65.1 31.2999 64.9 31.1999Z" fill="black"/>
</svg>
