<svg width="556" height="306" viewBox="0 0 556 306" fill="none" xmlns="http://www.w3.org/2000/svg">
<path d="M140.939 179.458C143.297 176.658 145.066 174.152 147.276 172.089C152.729 167.079 159.065 163.247 165.844 160.3C173.36 157.058 181.17 155.29 189.128 154.995C196.496 154.7 204.012 155.142 211.38 155.584C215.801 155.879 220.222 156.763 224.643 157.353C225.822 157.5 227.001 157.5 228.033 157.5C232.896 157.205 237.611 156.911 242.475 156.616C245.569 156.321 248.811 155.732 251.906 155.732C257.801 155.732 263.548 156.469 269.442 156.469C274.306 156.321 279.169 155.584 284.179 155.142C286.684 154.847 289.042 154.847 291.547 154.553C299.358 153.816 307.315 153.079 315.126 152.342C321.463 151.753 327.652 150.721 333.841 150.427C341.357 150.132 348.873 150.279 356.241 150.574C359.925 150.721 363.757 152.342 367.441 152.048C371.42 151.605 375.251 152.342 379.083 152.784C386.451 153.816 393.082 156.911 398.682 162.068C404.724 167.668 410.177 174.005 416.366 179.31C419.756 182.258 424.029 184.615 428.45 185.942C436.85 188.447 445.545 190.363 454.239 191.984C460.576 193.163 466.913 193.31 473.249 194.342C480.323 195.52 487.544 196.257 494.175 199.205C500.954 202.152 508.028 204.657 514.659 207.899C520.406 210.699 525.712 214.531 531.311 217.773C540.006 223.078 547.522 229.415 552.237 238.551C556.806 247.246 555.922 253.435 548.258 260.656C543.838 264.93 538.532 267.14 532.932 269.351C525.712 272.298 518.343 274.509 510.828 275.835C503.017 277.161 495.207 278.487 487.396 279.372C479.439 280.256 471.334 280.698 463.228 281.14C456.45 281.435 449.523 281.14 442.745 281.14C433.755 281.14 424.913 281.14 415.924 280.993C410.029 280.845 404.135 279.961 398.387 280.256C390.872 280.698 383.356 281.729 375.988 282.761C369.651 283.645 363.314 284.971 357.125 286.445C348.578 288.508 340.031 290.719 331.483 292.929C326.768 294.108 322.199 295.287 317.484 296.466C310.852 298.087 304.221 300.003 297.589 301.624C295.231 302.213 292.874 302.361 290.516 302.803C286.684 303.392 283 304.129 279.169 304.571C269.59 305.897 259.864 306.192 250.285 305.75C241.738 305.455 233.043 305.161 224.496 304.571C219.78 304.276 215.064 303.097 210.201 302.213C205.633 301.476 201.065 300.887 196.496 299.708C189.865 297.94 183.381 295.877 177.044 293.519C171.886 291.603 166.876 289.098 161.718 286.74C155.676 283.94 149.634 280.698 144.918 275.982C140.792 271.856 135.634 270.972 130.034 270.677C120.014 270.235 109.845 269.351 99.8244 268.614C90.5404 268.024 81.109 267.435 71.8249 266.698C70.2039 266.551 68.4355 266.256 66.8145 265.814C60.7725 264.193 54.4358 263.751 48.9832 260.067C45.8885 258.004 42.6465 256.53 39.4045 254.761C33.2151 251.225 30.4151 239.288 33.5098 233.541C34.8361 230.888 37.194 228.825 39.2571 226.615C41.7623 223.962 44.4149 221.309 47.2148 218.952C50.899 215.857 54.7305 213.204 58.4146 210.11C61.0672 207.899 63.4251 205.247 65.7829 202.594C68.5829 199.352 71.5302 196.847 75.9512 196.11C79.0458 195.52 81.9932 194.194 85.0878 193.605C88.0352 193.015 91.1298 192.72 94.2245 192.426C97.9087 192.131 101.593 192.131 105.277 191.689C109.993 191.099 114.856 190.657 119.277 189.331C123.403 188.152 127.234 185.942 131.066 184.026C134.013 182.7 136.961 181.079 139.908 179.752C140.497 179.163 141.087 179.458 140.939 179.458ZM70.3513 211.583C68.1408 212.468 66.0777 213.057 64.3093 214.089C61.2146 216.004 58.1199 218.215 55.4673 220.72C50.899 224.846 46.478 229.415 42.057 233.688C39.6992 236.046 39.2571 238.993 39.5518 241.941C39.9939 245.183 40.7307 248.572 43.6781 250.783C48.3938 254.467 53.5516 257.119 59.1515 258.74C62.6882 259.772 66.5198 260.361 70.2039 260.951C73.4459 261.54 76.8354 262.13 80.0774 262.425C84.0563 262.867 88.0352 262.867 92.1614 263.161C97.4666 263.603 102.772 264.193 108.077 264.635C108.961 264.635 109.845 263.898 110.729 264.046C112.645 264.193 114.561 264.782 116.477 264.93C119.866 265.077 123.256 264.782 126.498 264.93C130.329 265.077 134.308 265.224 137.992 265.961C140.645 266.403 143.445 267.288 145.36 268.909C153.613 275.835 162.602 281.435 172.476 285.708C179.991 288.95 188.244 291.013 196.202 293.371C199.738 294.403 203.275 294.992 206.812 295.729C210.054 296.319 213.296 297.35 216.538 297.645C225.233 298.234 233.78 298.677 242.475 299.119C244.98 299.266 247.338 299.413 249.843 299.266C252.201 299.266 254.558 298.824 257.064 298.824C261.043 298.677 264.874 298.971 268.853 298.529C272.684 298.234 276.516 297.203 280.348 296.761C288.158 296.024 295.674 294.403 303.189 292.192C307.168 291.014 311.294 289.687 315.273 288.656C318.22 287.771 321.315 287.329 324.41 286.445C331.926 284.382 339.441 282.024 347.104 280.256C354.62 278.487 362.43 277.603 369.946 275.687C376.43 274.066 383.061 273.477 389.693 273.182C391.461 273.182 393.23 273.182 394.851 273.182C398.682 273.182 402.514 273.182 406.345 273.182C408.998 273.182 411.798 273.035 414.45 273.33C419.756 273.772 425.061 272.74 430.366 273.035C437.882 273.477 445.545 273.182 453.06 273.035C457.334 272.888 461.755 272.003 466.028 272.445C469.565 272.74 472.955 273.33 476.491 272.887C477.818 272.74 479.291 272.887 480.618 272.74C481.797 272.74 482.975 272.593 484.154 272.298C487.396 271.561 490.491 270.088 493.733 270.235C497.712 270.382 501.544 269.498 505.375 268.909C510.68 268.024 515.838 266.551 521.143 265.224C522.469 264.93 523.943 264.782 525.122 264.193C528.217 262.719 531.017 260.804 534.111 259.33C538.532 257.267 542.216 254.319 545.164 250.635C546.49 248.867 547.816 246.804 547.08 244.299C545.901 240.025 543.69 236.193 540.448 233.541C534.406 228.678 528.217 223.815 521.733 219.688C513.48 214.678 504.933 210.11 495.649 206.868C488.428 204.362 481.354 202.447 473.839 201.268C465.292 199.941 456.597 199.057 448.05 197.878C444.66 197.436 441.271 196.699 438.029 195.963C435.229 195.373 432.429 194.636 429.776 193.899C423.44 192.131 417.398 189.921 412.535 185.5C408.556 181.963 405.166 177.984 401.482 174.152C396.619 169.142 391.609 164.426 385.125 161.626C382.325 160.447 379.525 160.153 376.577 159.858C372.598 159.563 368.767 158.679 364.788 158.384C360.072 158.09 355.504 158.09 350.788 157.795C345.778 157.647 340.767 156.911 335.904 157.353C323.673 158.384 311.589 159.711 299.505 161.037C294.789 161.479 290.074 162.216 285.358 162.658C279.758 163.247 274.158 163.837 268.558 163.984C262.811 164.132 256.916 163.542 251.169 163.542C246.895 163.542 242.475 163.984 238.201 164.132C235.843 164.279 233.485 164.721 231.127 164.868C228.622 165.016 225.97 165.163 223.464 165.016C220.37 164.868 217.275 164.279 214.328 164.132C208.875 163.689 203.57 163.247 198.117 163.247C191.781 163.247 185.444 162.216 179.107 164.279C175.57 165.31 171.886 165.9 168.644 167.374C163.486 169.731 158.476 172.531 153.466 175.184C151.55 176.216 149.487 177.1 148.013 178.573C141.971 184.615 133.571 186.679 126.35 190.657C123.256 192.426 119.277 192.573 115.593 193.31C109.698 194.342 103.803 195.226 97.9087 196.11C94.0772 196.699 90.2456 196.699 86.4141 197.436C81.2563 198.468 76.3933 200.384 72.5618 204.362C70.0565 206.72 69.025 208.931 70.3513 211.583Z" fill="black"/>
<path d="M341.652 13.3763C341.504 13.9657 341.21 14.5552 341.21 15.1447C341.504 20.1551 341.946 25.1655 341.946 30.0286C341.946 34.0075 344.01 36.8074 346.662 39.1653C353.441 45.2073 360.367 51.1019 367.146 56.9965C367.883 57.586 368.325 58.6176 368.472 59.5018C368.62 60.386 368.325 61.5649 367.883 62.3017C367.588 62.7438 366.114 62.7438 365.525 62.4491C362.578 60.5333 359.483 58.4702 356.683 56.2597C352.704 53.165 349.02 49.7756 345.189 46.5336C343.862 45.3546 342.831 45.6494 342.831 47.5651C342.831 50.2177 342.978 52.5756 345.041 54.7861C349.462 59.5018 353.146 64.6596 357.567 69.3753C359.925 71.8805 362.872 73.7962 365.525 75.8594C366.557 76.7436 367.441 77.6278 368.62 78.6593C367.735 80.133 367.293 81.1645 365.083 80.5751C357.272 78.3646 351.673 73.2068 346.22 67.6069C345.778 67.1648 345.336 66.5753 344.746 66.1332C344.599 65.9859 344.452 66.1332 343.862 65.9859C344.01 67.7542 344.157 69.3753 344.304 70.9963C344.599 76.7436 344.599 82.6382 345.041 88.3855C345.336 92.6591 346.367 96.9327 346.367 101.354C346.367 103.859 345.483 106.511 344.599 108.869C344.304 109.459 342.241 110.196 341.652 109.753C340.768 109.164 339.883 107.838 339.736 106.659C338.999 96.3432 338.41 86.0276 337.673 75.5646C337.231 69.8174 336.789 64.2175 336.494 58.4702C336.347 56.9965 336.199 56.1124 334.726 55.3755C331.926 54.0492 331.778 51.544 334.136 49.6283C336.936 47.2704 335.315 44.6178 335.462 41.2284C334.431 42.1126 333.841 42.4073 333.399 42.8494C330.157 47.2704 326.915 51.6914 323.673 56.1124C319.989 61.1228 315.715 65.9859 312.473 71.291C309.084 77.0383 303.779 80.7224 299.505 85.5855C299.063 86.175 297 85.8802 296.116 85.2908C294.937 84.4066 296.116 83.9645 296.853 83.2277C297.737 82.3435 298.326 81.0172 299.063 79.9856C302.452 74.9752 305.842 69.8174 309.231 64.8069C312.326 60.2386 315.273 55.6702 318.368 51.2493C320.431 48.302 322.936 45.6494 324.999 42.7021C328.094 38.5758 331.041 34.4496 333.841 30.0286C334.431 29.1444 334.283 27.6707 334.136 26.4918C333.989 24.2813 333.547 22.0708 332.662 19.5656C332.22 20.3025 331.631 21.0393 331.189 21.6288C327.652 26.9339 324.115 32.0917 320.578 37.3969C319.252 39.46 317.926 41.5231 316.452 43.4389C314.831 45.3546 313.063 47.2704 311.294 49.0388C310.852 49.4809 309.968 49.4809 309.084 49.7756C308.937 50.0703 308.494 50.9545 308.052 51.1019C307.021 51.2493 305.989 50.8072 304.958 50.6598C305.105 49.923 305.105 49.0388 305.547 48.302C308.052 44.4704 310.705 40.6389 313.063 36.8074C318.073 28.7023 323.084 20.5972 327.947 12.4921C329.42 9.98685 330.452 7.33427 332.073 4.97642C332.957 3.65013 334.873 3.20803 334.873 1.14491C334.873 0.850176 335.462 0.408078 335.757 0.260713C337.525 -0.476116 342.094 0.408078 343.273 2.17647C345.925 5.86061 348.283 9.69212 350.788 13.5236C352.852 16.7657 354.767 20.0077 356.536 23.2498C358.894 27.376 360.809 31.797 363.167 35.7759C364.493 38.1337 366.262 40.0495 367.883 42.26C368.472 42.9968 369.209 43.881 369.209 44.7652C369.356 45.7967 368.914 46.9757 368.62 48.0072C367.441 47.7125 365.967 47.8599 365.23 47.123C362.136 44.3231 358.894 41.5231 356.536 38.1337C353.441 33.7127 351.083 28.7023 348.283 23.9866C346.22 20.3025 344.01 16.4709 341.946 12.7868C342.241 13.2289 341.946 13.3763 341.652 13.3763Z" fill="black"/>
<path d="M476.049 74.091C477.523 74.9752 478.702 75.7121 479.881 76.5963C480.618 77.1857 481.944 78.0699 481.944 78.8067C481.944 83.2277 485.481 85.4382 487.396 88.6802C490.049 92.9539 492.996 97.0801 495.944 101.206C496.091 101.501 496.386 101.796 496.386 102.091C496.386 103.122 496.238 104.301 496.238 105.333C495.354 105.038 494.323 105.038 493.733 104.448C491.228 102.091 488.723 99.5853 486.512 96.9327C483.712 93.5433 481.06 90.0065 478.407 86.6171C477.67 87.0592 477.375 87.0592 477.375 87.2066C473.986 91.9223 473.986 91.9223 477.67 96.638C479.881 99.5853 482.091 102.68 484.154 105.922C486.66 109.606 489.165 113.438 492.112 117.859C491.523 118.153 490.786 118.301 490.344 118.448C493.438 121.248 496.386 123.753 499.333 126.259C499.186 126.553 499.038 126.848 498.891 127.143C497.565 127.143 496.238 127.437 494.912 127.143C490.196 125.669 485.923 123.016 481.649 120.364C476.933 117.417 473.839 113.143 468.828 109.606C469.123 112.848 469.27 115.648 469.418 118.448C469.565 121.69 469.565 124.932 469.712 128.174C469.712 129.501 469.418 130.974 469.565 132.301C469.712 140.995 470.007 149.542 469.86 158.237C469.86 159.416 467.944 160.447 466.912 161.774C464.997 160.005 464.849 158.384 464.997 156.321C465.291 152.637 465.144 148.805 464.849 145.121C464.702 142.469 464.113 139.816 464.113 137.164C463.965 127.143 463.965 117.269 463.818 107.248C463.818 106.659 463.228 106.069 463.081 105.627C459.25 110.343 455.86 114.911 452.029 119.185C450.997 120.217 449.081 120.511 447.46 120.953C447.313 120.953 446.429 119.48 446.429 118.89C447.018 114.911 449.671 111.964 452.029 109.017C455.123 105.038 458.365 101.059 461.46 97.0801C462.197 96.0485 462.049 94.4275 462.344 92.9539C462.049 92.8065 461.902 92.8065 461.607 92.6591C459.25 95.3117 457.039 97.9643 454.681 100.47C452.029 103.417 449.376 106.364 446.723 109.459C444.955 111.375 443.334 113.438 441.566 115.353C440.681 116.238 439.208 117.269 438.029 117.269C436.85 117.269 434.934 116.385 434.639 115.501C434.345 114.322 434.934 112.554 435.818 111.522C438.766 108.133 442.008 105.038 444.955 101.796C448.639 97.6696 452.323 93.396 455.86 89.2697C458.218 86.6171 458.218 86.3224 456.45 82.3435C457.923 81.4593 459.397 80.5751 461.313 79.5436C461.165 79.2488 461.018 78.3646 460.428 76.7436C457.923 79.5436 456.007 82.0488 453.797 84.4066C448.787 89.7118 443.776 95.017 438.766 100.322C437.439 101.648 436.26 103.269 434.934 104.596C433.46 106.364 431.25 106.659 429.924 105.185C428.45 103.564 429.187 102.238 430.661 100.764C433.755 97.6696 436.555 94.2801 439.502 91.1855C443.187 87.2066 446.871 83.3751 450.408 79.3962C453.355 76.0068 456.155 72.3226 459.102 68.7859C460.871 66.5754 460.428 63.9228 458.071 62.3018C454.829 59.9439 454.092 57.8808 455.713 55.5229C456.597 54.0493 457.923 53.4598 459.544 54.4914C461.313 55.6703 462.934 57.144 464.702 58.1755C465.439 58.6176 466.618 58.3229 467.502 58.1755C468.239 58.0282 468.681 57.144 469.27 56.7019C470.891 55.5229 472.66 55.8177 473.397 57.4387C473.986 58.6176 473.691 60.5334 473.102 61.7123C472.512 62.8912 471.186 63.6281 469.86 64.807C470.744 65.9859 471.481 67.1648 472.512 68.7859C473.397 67.0175 473.544 65.5438 474.428 64.807C475.312 64.0702 476.933 63.6281 478.112 63.7754C478.849 63.9228 479.733 65.2491 480.028 66.2806C480.618 69.0806 478.849 70.9964 477.228 73.0595C477.081 72.7647 476.786 73.2068 476.049 74.091ZM472.807 79.3962C468.976 81.4593 467.649 84.4066 469.86 86.0277C470.597 83.6698 474.576 83.0803 472.807 79.3962ZM469.712 97.2275C469.418 97.2275 469.123 97.2275 468.828 97.3748C468.681 98.1117 467.944 99.2906 468.239 99.5853C469.86 101.354 471.776 102.827 473.397 104.448C473.691 104.154 473.986 103.859 474.281 103.712C472.66 101.501 471.186 99.2906 469.712 97.2275ZM465.144 70.7016C465.586 72.6174 465.734 74.091 466.028 75.7121C468.386 73.3542 468.239 72.47 465.144 70.7016Z" fill="black"/>
<path d="M95.1086 92.659C93.0455 95.0168 90.835 97.2273 88.7719 99.5852C85.8246 103.122 83.0246 106.806 80.2247 110.49C78.8984 112.111 75.6564 112.701 74.3301 111.522C72.2669 109.753 73.5932 107.838 74.6248 106.364C78.1616 101.501 81.8457 96.7852 85.5299 91.9221C86.2667 91.0379 86.8561 90.0064 87.4456 88.9748C87.2982 88.8275 87.0035 88.6801 86.8562 88.5327C84.793 90.5958 82.7299 92.659 80.6668 94.8694C78.6037 97.0799 76.5405 99.4378 74.1827 101.501C73.0038 102.532 71.088 102.827 69.467 103.122C67.9933 103.269 67.2565 101.059 68.4354 99.4378C72.5617 94.1326 76.9826 88.8275 81.1089 83.5223C84.4983 79.2487 87.7403 74.6803 91.2771 70.5541C92.4561 69.2278 93.1929 68.1962 92.1613 66.4279C91.8666 65.9858 93.4876 64.3647 94.3718 63.3332C95.1086 62.449 96.877 61.8595 95.256 60.2385C88.9193 67.1647 82.5825 73.9435 75.9511 81.0171C74.9195 78.6592 73.7406 79.396 72.709 80.4276C72.1196 79.6908 71.5301 79.1013 70.7933 78.0697C73.4459 74.533 76.0984 70.9962 79.0458 67.6068C83.9088 61.7121 89.0666 55.9649 93.9297 50.0702C94.3718 49.6281 94.6665 48.4492 94.3718 47.8598C93.635 45.944 94.6665 44.6177 96.1402 44.323C97.4665 44.0283 99.3822 44.1756 100.414 44.9124C102.772 46.8282 104.687 49.1861 106.751 51.3965C109.993 54.786 113.382 58.028 116.477 61.5648C118.54 63.7753 120.898 65.8384 122.371 68.491C123.992 71.1436 124.582 74.2382 125.761 77.4803C123.992 77.6277 123.108 77.775 122.224 77.6277C121.634 77.6277 120.603 77.3329 120.456 76.8908C118.982 72.1751 114.856 69.5225 111.908 66.1331C109.256 63.1858 106.456 60.3859 103.656 57.5859C102.477 56.407 101.151 55.2281 99.5296 53.607C99.0875 54.9333 98.9401 55.8175 98.498 57.1438C99.3822 56.407 99.8243 56.1122 100.561 55.6701C100.561 57.5859 100.561 59.3543 100.561 60.9753C100.414 60.9753 100.266 61.1227 100.266 61.1227C99.9717 60.2385 99.8243 59.3543 99.5296 58.4701C99.3822 58.4701 99.2349 58.4701 98.9401 58.4701C98.7928 59.9438 98.6454 61.27 98.498 62.3016C101.003 64.5121 103.214 66.7226 105.424 68.6383C109.845 72.4699 114.414 76.154 118.982 79.8381C121.487 81.9013 122.224 83.6696 122.077 87.3538C118.098 88.8274 115.74 85.7328 113.087 83.817C109.256 80.8697 105.572 77.9224 101.74 74.9751C100.414 77.3329 100.709 79.1013 103.656 81.3118C107.193 84.1117 110.582 87.2064 114.561 89.4169C118.54 91.6274 119.129 95.0168 119.424 99.1431C118.687 99.1431 118.098 99.1431 117.066 99.1431C117.361 100.027 117.361 100.764 117.656 101.354C118.835 103.564 118.687 104.448 116.182 104.743C114.856 105.038 113.087 104.89 111.908 104.153C108.814 102.532 105.719 100.469 102.772 98.5536C102.477 98.4062 102.035 98.2589 101.298 97.9641C101.151 100.469 100.856 102.68 100.856 104.89C100.856 111.374 100.561 117.859 100.856 124.343C101.151 130.827 102.035 137.163 102.182 143.648C102.33 145.858 102.477 148.658 99.9717 150.279C95.8455 149.69 96.1402 146.447 95.9928 143.648C95.8455 134.363 95.5507 125.522 95.5507 116.68C95.5507 109.459 95.8455 102.238 95.9928 95.0168C95.9928 94.28 95.8455 93.6905 95.8455 92.9537C95.5507 92.8063 95.256 92.8063 95.1086 92.659ZM98.9401 141.142C99.5296 140.7 99.5296 140.7 99.5296 140.7C99.3822 136.279 99.0875 131.858 98.9401 127.437C98.9401 124.932 99.2349 122.574 99.5296 120.069C99.677 118.595 99.9717 117.122 97.4665 116.237C98.0559 124.637 98.498 132.742 98.9401 141.142ZM98.498 107.838C98.9401 107.838 99.3822 107.838 99.9717 107.838C99.9717 104.153 99.9717 100.469 99.9717 96.6378C99.9717 96.1957 99.0875 95.901 98.6454 95.6063C98.498 99.8799 98.498 103.859 98.498 107.838ZM84.9404 67.9015C84.793 67.4594 84.4983 67.0173 84.3509 66.7226C82.2878 66.7226 81.2562 68.491 79.7826 69.6699C79.93 69.9646 80.0773 70.2594 80.2247 70.5541C81.8457 69.6699 83.4667 68.7857 84.9404 67.9015ZM84.3509 65.2489C84.4983 65.3963 84.6457 65.5437 84.793 65.691C85.3825 65.3963 85.8246 65.2489 86.414 64.9542C86.8561 64.8068 87.4456 64.8068 87.593 64.5121C87.8877 64.07 88.0351 63.3332 88.1824 62.7437C87.1509 63.1858 86.1193 63.4805 85.0878 63.9226C84.793 64.07 84.6457 64.8068 84.3509 65.2489Z" fill="black"/>
<path d="M0.0578123 178.426C1.23674 175.331 2.12093 172.679 3.29986 170.174C5.65771 165.016 7.8682 159.858 10.9629 155.142C14.2049 150.279 15.9733 144.384 20.2469 140.111C21.1311 139.227 22.1627 137.311 20.689 135.837C19.9522 135.248 19.2154 134.658 18.3312 134.216C17.8891 134.953 17.2996 135.69 16.8575 136.427C15.0891 139.374 13.3207 142.321 11.5523 145.269C9.48922 148.658 7.4261 152.195 5.36298 155.584C4.92088 156.321 4.18405 157.205 3.29986 157.5C2.41567 157.795 1.23674 157.795 0.352544 157.5C0.0578123 157.353 -0.0895535 155.879 0.0578123 155.29C1.53147 151.9 3.00513 148.658 4.62615 145.269C8.01556 138.637 11.405 132.006 14.9418 125.374C16.8575 121.838 19.2154 118.743 21.5732 115.353C20.0996 111.817 20.2469 110.638 23.0469 109.901C24.0784 109.606 25.9942 109.901 26.731 110.638C28.2047 111.964 29.2362 113.88 30.4152 115.353C35.4256 121.838 40.1413 128.616 46.6254 134.069C47.9517 135.1 50.1622 135.985 49.5727 138.637C49.1306 140.7 47.9517 141.585 46.3307 140.406C43.236 138.195 40.2887 135.985 37.4887 133.479C34.8361 131.122 32.4783 128.322 29.9731 125.669C28.2047 129.648 29.3836 134.806 32.1836 137.016C36.6045 140.553 41.0255 144.237 45.5938 147.627C47.2149 148.953 49.278 149.69 51.1937 150.869C51.7832 151.163 52.3727 152.048 52.2253 152.637C52.0779 153.226 51.3411 154.111 50.899 154.258C49.4254 154.405 47.9517 154.405 46.478 154.111C41.615 152.932 37.6361 149.984 33.5098 147.184C32.6257 146.595 31.7415 146.153 30.4152 145.269C30.4152 147.184 30.2678 148.805 30.5625 150.132C30.5625 150.574 31.7415 151.163 32.3309 151.163C39.5518 152.048 46.0359 154.995 52.0779 158.826C53.5516 159.711 54.4358 161.774 55.32 163.542C55.4673 163.837 54.2884 165.31 53.8463 165.31C52.3727 165.163 50.899 164.868 49.5727 164.279C43.9728 162.068 38.3729 159.858 32.773 157.647C32.4783 157.5 31.2994 158.532 31.2994 158.974C31.7415 163.837 32.4783 168.7 32.9204 173.563C33.3625 177.247 33.6572 181.079 34.0993 184.763C34.2467 186.089 34.5414 187.415 34.9835 188.742C35.7203 190.952 34.9835 193.457 33.2151 193.899C30.7099 194.341 29.8257 192.278 29.3836 190.657C27.6152 184.026 26.2889 177.1 26.1416 170.174C25.9942 166.047 25.5521 161.921 25.11 157.647C25.11 157.205 24.3732 156.763 23.9311 156.321C23.7837 156.174 23.6363 156.321 23.3416 156.321C19.2154 155.879 19.2154 155.879 17.0049 159.711C14.2049 164.426 11.2576 169.142 8.16293 173.858C6.39454 176.216 3.74196 177.689 0.0578123 178.426Z" fill="black"/>
</svg>
