<svg width="396" height="217" viewBox="0 0 396 217" fill="none" xmlns="http://www.w3.org/2000/svg">
<g clip-path="url(#clip0)">
<path d="M235.482 153.425C233.478 156.097 234.926 158.547 235.037 160.996C235.148 164.003 236.15 167.009 236.262 170.126C236.373 173.132 235.928 176.027 235.816 179.033C235.705 182.708 235.594 186.27 236.818 189.833C237.375 191.503 235.26 193.73 233.367 193.841C229.804 194.064 226.909 192.171 224.014 190.613C220.34 188.608 216.889 186.159 213.326 183.821C207.981 180.369 202.415 177.252 196.625 174.802C193.507 173.466 190.39 172.464 187.05 171.908C183.598 171.351 180.147 171.796 176.918 173.132C173.912 174.357 170.906 175.359 168.122 176.918C165.227 178.477 162.332 180.258 160.106 182.596C156.431 186.382 152.98 190.39 149.862 194.621C147.97 197.293 146.745 200.522 145.52 203.639C144.407 206.534 140.955 207.982 138.395 206.2C136.39 204.864 135.277 202.749 134.052 200.744C132.716 198.629 131.046 196.625 129.487 194.621C127.817 192.283 126.37 189.611 124.477 187.606C122.25 185.157 119.69 182.708 116.795 181.037C115.347 180.258 112.675 180.481 111.005 181.26C105.215 184.266 99.4258 187.495 93.9702 191.058C90.5187 193.285 87.5125 196.291 84.395 199.074C82.2796 201.078 80.1641 203.083 78.494 205.421C76.6013 207.982 75.2652 210.876 73.7065 213.66C73.1498 214.662 72.4817 215.553 71.925 217C70.589 217 69.1416 217.223 67.8055 217C66.1354 216.666 65.1334 215.553 64.9107 213.66C64.2426 208.093 63.1292 202.637 61.1251 197.404C60.3458 195.178 58.8984 193.285 57.8963 191.169C57.1169 189.499 56.4489 187.718 55.7809 185.936C54.4448 182.93 53.2201 179.813 51.7727 176.807C50.9933 175.136 49.4345 175.582 48.0985 176.027C42.6428 177.92 38.0779 181.483 33.7357 185.046C28.9481 189.054 24.6059 193.619 19.9297 197.85C17.3689 200.188 14.6967 202.415 12.2473 204.753C10.3545 206.534 8.79574 208.761 6.90297 210.431C5.90092 211.322 4.45351 211.99 3.11744 212.212C1.22468 212.435 -0.222731 210.765 -0.222731 208.984C-0.222731 206.868 -0.668087 204.753 1.002 202.971C1.22468 202.637 1.22468 202.081 1.33602 201.635C2.00405 199.074 2.44941 196.514 3.22878 193.953C4.56485 189.277 5.90092 184.6 7.34833 180.035C8.23904 176.918 9.46378 173.912 10.3545 170.906C11.8019 166.118 13.2493 161.219 14.6967 156.32C15.6988 153.091 16.8122 149.974 17.8142 146.745C18.5936 144.407 19.2616 141.957 20.041 139.619C20.9317 136.947 22.0451 134.275 22.9358 131.714C23.0472 131.492 23.1585 131.269 23.2698 130.935C24.0492 127.817 24.8286 124.7 25.4966 121.582C26.1646 118.465 26.944 115.236 27.3894 112.118C28.0574 106.663 28.7255 101.096 29.0595 95.6403C29.2821 91.0754 29.1708 86.3992 29.0595 81.8342C28.9481 79.1621 28.5028 76.49 28.1688 73.8178C27.9461 71.9251 27.6121 70.0323 27.6121 68.1395C27.6121 63.9086 26.1646 60.0118 24.1605 56.3376C22.7131 53.6654 23.2698 50.7706 25.4966 48.6552C31.8429 42.9769 38.9687 38.6347 46.7624 35.2945C49.8799 33.9584 53.1087 32.9564 56.0035 31.3976C61.0138 28.7255 66.3581 27.6121 71.591 25.8307C76.824 24.0492 82.1682 24.4946 87.4012 23.2698C90.4073 22.6018 93.5248 21.7111 96.531 20.9317C99.2031 20.2637 101.875 19.4843 104.547 18.7049C105.549 18.3709 106.44 17.9256 107.442 17.7029C111.228 16.7008 115.125 15.6988 118.91 14.8081C122.918 13.806 126.927 12.6926 131.046 11.8019C133.718 11.1339 136.502 10.7999 139.285 10.3545C141.067 10.0205 142.848 9.68647 144.518 9.57513C145.966 9.57513 147.524 9.90915 148.972 10.2432C150.753 10.6885 152.201 10.0205 153.982 9.57513C157.99 8.57308 162.11 8.01639 166.118 7.45969C171.24 6.79165 176.361 6.3463 181.483 5.90094C186.048 5.45559 190.613 5.12157 195.177 4.67621C200.744 4.23085 206.423 3.67416 211.99 3.2288C215.219 3.00612 218.559 3.00612 221.788 2.78344C228.468 2.44943 235.26 2.22675 241.94 1.78139C250.513 1.11336 259.086 -0.222712 267.771 0.222645C271.779 0.445323 275.898 0.668001 279.907 1.00202C284.806 1.44738 289.704 2.00407 294.603 2.89478C298.278 3.67416 302.063 4.56487 305.292 7.01433C305.515 7.23701 306.183 7.34835 306.294 7.23701C307.296 6.23496 308.075 6.90299 308.966 7.23701C310.97 8.01639 312.306 9.68647 312.418 11.9133C312.64 15.3648 312.64 18.9276 313.197 22.3791C313.531 24.3832 314.867 26.1647 315.535 28.0574C316.203 29.9502 316.537 31.843 317.094 33.7357C317.762 35.9625 317.873 38.3006 319.543 40.3047C320.211 41.0841 320.323 42.3088 320.768 43.1996C323.774 48.4325 326.446 53.8881 330.566 58.5644C334.351 62.7952 337.914 67.2488 341.477 71.591C343.927 74.4859 346.042 77.6034 348.491 80.3868C352.277 84.5064 356.285 88.2919 360.182 92.1888C362.409 94.5269 364.524 96.9764 366.862 99.3145C368.867 101.319 371.093 103.1 373.209 104.993C375.881 107.442 378.553 109.78 381.337 112.23C383.563 114.234 385.79 116.127 388.017 118.019C390.021 119.69 392.248 121.36 393.918 123.252C394.697 124.143 395.031 125.813 394.92 127.149C394.92 127.706 393.25 128.374 392.359 128.485C391.134 128.597 389.798 128.263 388.462 128.151C385.79 127.929 383.118 127.706 380.557 127.372C376.66 126.815 372.875 126.259 368.978 125.591C364.747 124.811 360.516 124.032 356.397 123.03C353.39 122.25 350.384 121.026 347.378 120.024C344.261 119.133 341.032 118.353 337.914 117.463C336.133 117.017 334.351 116.572 332.125 116.015C332.347 116.795 332.459 117.351 332.793 117.685C337.024 122.696 341.366 127.595 345.597 132.605C348.269 135.722 350.941 138.84 353.39 142.18C356.619 146.634 359.514 151.421 362.854 155.763C365.415 159.104 368.421 161.887 371.093 165.116C372.986 167.343 374.768 169.792 376.549 172.242C378.108 174.357 379.778 176.473 380.78 178.922C381.671 181.037 383.563 182.93 383.341 185.602C383.229 186.159 383.897 186.716 384.231 187.384C384.565 188.163 385.233 189.054 385.345 189.945C385.567 192.505 383.897 193.953 380.668 194.064C375.881 194.175 370.982 194.287 366.194 193.841C362.298 193.507 358.512 192.283 354.726 191.503C353.279 191.169 351.72 190.835 350.273 190.501C343.147 188.831 335.91 187.495 329.118 184.934C324.22 183.042 319.209 181.26 314.199 179.367C309.411 177.475 304.735 175.47 299.948 173.689C294.492 171.685 288.925 169.904 283.469 168.122C279.127 166.786 274.785 165.561 270.443 164.337C265.544 163 260.534 161.776 255.635 160.328C252.517 159.438 249.511 158.102 246.393 157.1C243.165 155.541 239.268 154.539 235.482 153.425ZM383.118 121.471C383.118 121.248 383.229 121.026 383.229 120.803C380.78 118.465 378.33 116.015 375.77 113.677C373.209 111.339 370.314 109.335 367.864 106.886C364.636 103.768 361.518 100.317 358.401 97.0877C356.174 94.8609 354.17 92.3001 351.72 90.4074C347.267 87.1785 344.149 82.8363 340.586 78.7168C337.803 75.4879 335.131 72.2591 332.459 69.0302C329.898 66.0241 326.892 63.2406 324.665 60.0118C321.213 55.0015 318.207 49.5459 314.978 44.3129C314.422 43.4222 313.531 42.6429 313.197 41.7521C311.861 38.1893 310.747 34.5151 309.523 30.9522C309.3 30.2842 308.855 29.6162 308.743 28.9481C307.964 25.4966 307.185 22.0451 306.405 18.0369C304.847 18.8163 303.51 19.4843 302.174 20.041C299.725 21.0431 297.164 22.0451 294.603 22.9358C291.597 24.0492 288.591 25.0513 285.585 26.1647C282.913 27.0554 280.241 27.8348 277.68 28.6141C275.453 29.2822 273.226 30.0615 270.888 30.6182C266.435 31.7316 261.87 32.7337 257.416 33.8471C255.189 34.4038 252.963 35.1831 250.736 35.7398C246.282 36.8532 241.829 38.078 237.375 39.08C233.144 39.9707 228.913 40.6388 224.682 41.5295C219.561 42.5315 214.328 43.7563 209.206 44.7583C203.751 45.7604 198.406 46.7624 192.951 47.6531C188.163 48.5438 183.487 49.5459 178.699 50.1026C173.466 50.6593 168.233 50.882 163.112 51.216C158.992 51.4387 154.873 51.6613 150.865 52.1067C145.743 52.6634 140.621 53.3314 135.5 53.9995C129.933 54.7788 124.477 55.5582 118.91 56.2262C114.791 56.7829 110.56 57.2283 106.44 57.785C105.215 57.8963 103.991 57.8963 102.877 58.0077C99.9825 58.453 97.199 59.0097 94.3042 59.3437C91.298 59.6777 88.0692 59.2324 85.1744 60.0118C81.1662 61.1252 77.158 61.5705 73.0384 61.5705C70.589 61.5705 68.1395 61.5705 65.69 61.6819C63.0179 61.7932 60.3458 62.2386 57.5623 62.2386C55.2242 62.2386 52.7747 62.0159 50.3252 61.9045C48.8778 61.9045 47.4304 61.9045 45.983 61.7932C42.4202 61.5705 38.8573 61.2365 35.1831 61.0138C33.6244 60.9025 33.179 61.7932 33.7357 63.1293C34.1811 64.2427 34.9604 65.4674 34.9604 66.5808C35.2945 71.7024 35.5171 76.9353 35.5171 82.0569C35.6285 87.0672 35.5171 92.1888 35.2945 97.1991C35.0718 101.207 34.6264 105.215 34.2924 109.224C34.1811 110.448 33.7357 111.673 33.513 112.898C33.179 115.347 32.7337 117.685 32.511 120.135C32.177 124.588 30.5069 128.597 29.3935 132.828C28.3914 136.613 26.944 140.287 25.7193 143.962C24.1605 148.972 22.6018 153.982 21.043 158.881C19.1503 164.893 17.0348 170.906 15.1421 176.918C14.2514 179.701 13.5833 182.596 12.6926 185.38C11.9132 188.052 10.9112 190.613 10.1318 193.285C9.68645 194.843 8.46172 196.291 9.35244 198.072C9.57511 198.072 9.79779 198.072 9.79779 197.961C15.0307 193.173 20.2637 188.386 25.4966 183.71C28.7254 180.815 32.2883 178.143 35.6285 175.359C36.9645 174.357 38.3006 173.132 39.8594 172.464C42.8655 171.017 45.983 169.792 48.9892 168.567C50.6593 167.899 54.1108 169.013 55.3355 170.683C56.3376 172.13 57.3396 173.689 58.119 175.248C59.2324 177.586 60.1231 179.924 61.1251 182.262C62.5726 185.714 64.1313 189.165 65.4674 192.728C66.5808 195.623 68.2508 198.295 68.6962 201.524C68.8075 202.86 69.4756 204.196 70.0323 205.866C71.4797 204.641 72.9271 203.639 74.0405 202.415C76.7126 199.52 79.1621 196.402 82.0569 193.619C84.729 190.947 87.6239 188.497 90.63 186.27C93.5248 184.044 96.6423 182.039 99.7598 180.035C103.545 177.586 107.442 175.025 112.007 174.357C116.015 173.8 119.912 175.025 122.918 177.697C125.925 180.481 128.485 183.932 131.157 187.161C133.83 190.501 136.168 193.953 138.729 197.293C139.842 198.74 140.621 198.406 141.512 196.848C143.182 193.73 144.852 190.613 146.856 187.718C152.312 180.147 158.992 173.912 167.565 170.015C171.128 168.456 174.802 166.786 178.699 166.118C184.489 165.116 190.279 165.673 195.846 168.233C201.635 170.906 207.647 173.021 212.88 176.918C217.557 180.369 222.344 183.821 227.8 186.159C229.025 186.716 229.359 186.382 229.359 185.157C229.359 183.042 229.247 180.926 229.359 178.811C229.47 177.252 229.804 175.693 229.915 174.134C230.361 169.235 229.136 164.448 228.357 159.66C227.911 156.654 228.245 153.425 228.357 150.308C228.357 149.306 228.802 147.97 229.47 147.524C230.361 146.968 231.808 146.745 232.921 146.968C237.82 148.081 242.608 149.194 247.396 150.531C251.515 151.755 255.523 153.314 259.643 154.65C264.319 156.097 268.995 157.434 273.672 158.881C279.461 160.662 285.251 162.221 290.929 164.114C295.605 165.673 300.282 167.454 304.847 169.235C309.857 171.24 314.867 173.355 319.877 175.359C323.551 176.695 327.226 177.92 330.9 179.033C335.242 180.369 339.584 181.705 343.927 182.819C349.605 184.266 355.283 185.491 360.961 186.604C364.413 187.272 367.865 187.829 371.316 188.163C373.654 188.386 375.992 188.163 378.33 188.163C378.442 187.94 378.664 187.718 378.776 187.495C377.885 185.491 377.106 183.598 376.215 181.594C374.099 176.807 371.093 172.576 367.642 168.567C365.192 165.784 362.743 163 360.405 160.106C358.401 157.545 356.619 154.65 354.726 151.978C352.611 149.194 350.496 146.522 348.269 143.739C345.374 140.176 342.479 136.724 339.473 133.273C336.244 129.487 332.904 125.702 329.675 121.916C327.56 119.467 325.778 116.461 323.329 114.345C321.547 112.787 322.438 111.228 322.549 109.78C322.549 109.224 324.554 108.333 325.556 108.333C328.005 108.444 330.455 109.112 332.793 109.558C336.467 110.226 340.141 110.782 343.704 111.784C347.601 112.898 351.386 114.568 355.283 115.681C359.848 117.017 364.636 117.908 369.312 119.022C371.65 119.578 373.988 120.024 376.326 120.469C379.11 121.026 381.114 121.248 383.118 121.471ZM31.7316 51.3273C32.511 52.218 33.2904 52.6634 33.2904 53.2201C33.4017 54.8902 34.6264 55.1128 35.7398 55.3355C36.8532 55.5582 38.0779 55.6695 39.3027 55.6695C46.2057 55.7809 53.1087 56.0036 60.1231 55.8922C65.8014 55.8922 71.3683 55.6695 77.0466 55.2242C79.8301 55.0015 82.6136 54.2221 85.5084 53.8881C88.9599 53.4428 92.5228 53.2201 95.9743 52.7747C102.098 51.9954 108.222 51.1046 114.345 50.3253C117.797 49.8799 121.248 49.5459 124.588 49.1005C130.155 48.3212 135.834 47.4304 141.401 46.5397C143.071 46.3171 144.741 46.2057 146.411 46.0944C151.867 45.5377 157.322 44.981 162.889 44.5356C168.345 44.0903 173.912 44.0903 179.479 43.4222C183.821 42.9769 188.052 41.7521 192.394 40.9728C196.625 40.1934 200.856 39.5254 204.975 38.8573C206.757 38.5233 208.427 38.078 210.208 37.7439C214.105 36.9646 218.002 36.0739 222.01 35.2945C223.346 35.0718 224.794 34.9605 226.13 34.7378C229.359 34.0697 232.699 33.2904 235.928 32.511C239.268 31.7316 242.608 30.9523 245.948 30.1729C249.734 29.1708 253.408 28.0574 257.193 27.0554C261.424 25.942 265.767 24.8286 269.997 23.7152C273.894 22.6018 277.791 21.4884 281.577 20.375C284.249 19.5957 286.81 18.8163 289.37 17.9256C292.265 16.9235 295.271 15.9215 298.166 14.6967C300.282 13.806 302.174 12.6926 304.178 11.6906C299.948 8.9071 295.717 7.68237 291.263 7.12567C286.03 6.45764 280.797 6.01228 275.564 5.7896C269.997 5.56692 264.43 5.45558 258.863 5.56692C255.523 5.56692 252.183 6.12362 248.843 6.3463C243.833 6.68032 238.711 6.79165 233.701 7.34835C230.138 7.68237 226.686 8.23906 223.124 8.23906C218.225 8.23906 213.214 8.68442 208.316 9.01844C205.866 9.24112 203.305 9.90915 200.856 10.1318C196.625 10.4658 192.394 10.6885 188.163 11.0225C187.272 11.1339 186.382 11.1339 185.491 11.3566C182.93 11.8019 180.481 12.47 177.92 12.6926C174.246 13.0266 170.46 12.804 166.786 13.3607C162.332 14.0287 158.102 15.3648 153.648 16.1441C151.199 16.5895 148.749 16.4782 146.3 16.5895C145.966 16.5895 145.632 16.1441 145.298 15.9215C144.63 15.6988 143.961 15.1421 143.293 15.2534C138.506 15.9215 133.718 16.5895 129.042 17.4802C125.702 18.0369 122.362 18.8163 119.133 19.5957C117.685 19.9297 116.349 20.2637 115.013 20.709C111.45 21.8224 107.999 23.0472 104.436 24.1606C101.875 24.9399 99.2031 25.274 96.7537 26.3873C93.8588 27.6121 90.4073 26.8327 87.9579 29.1708C87.8465 29.2822 87.2898 29.0595 86.9558 29.0595C86.1764 29.0595 85.2857 28.9481 84.6177 29.0595C82.0569 29.5048 79.6074 30.0615 77.0466 30.5069C74.8198 30.9522 72.4817 31.1749 70.4776 31.9543C63.2406 34.7378 56.0035 37.5213 48.8778 40.7501C44.7583 42.5315 40.9728 44.981 37.0759 47.4304C35.0718 48.3212 33.4017 49.8799 31.7316 51.3273Z" fill="black"/>
<path d="M263.985 108.89C263.763 108.778 263.094 108.778 262.649 108.444C261.09 107.108 259.42 105.884 257.973 104.436C255.078 101.43 252.406 98.3125 249.511 95.3063C247.507 93.1909 245.28 91.2981 243.165 89.294C242.163 88.292 241.94 86.0652 242.831 85.3971C243.944 84.6178 245.392 83.6157 246.728 84.8404C248.954 86.8445 251.07 88.8487 253.074 91.0754C256.637 95.0836 260.088 99.3145 263.429 103.434C264.319 104.547 264.987 105.772 265.655 106.997C266.323 108.333 265.767 109.001 263.985 108.89Z" fill="black"/>
<path d="M84.6177 129.154C85.3971 126.37 86.1765 123.698 86.8445 120.914C87.5126 118.465 88.0692 116.015 88.6259 113.566C89.0713 111.339 89.1826 109.001 89.628 106.774C89.7393 105.995 90.1847 105.216 90.7414 104.659C91.4094 104.102 92.8568 103.434 93.0795 103.657C93.9702 104.548 94.9723 105.772 94.9723 106.886C94.8609 109.446 94.4156 112.119 93.6362 114.679C92.4115 119.244 90.9641 123.698 89.628 128.151C89.1826 129.488 89.0713 130.935 88.6259 132.271C88.1806 133.607 86.9559 133.496 86.2878 132.494C85.3971 131.603 85.1744 130.378 84.6177 129.154Z" fill="black"/>
<path d="M189.499 129.265C187.161 126.593 184.823 123.92 182.373 121.36C181.037 119.912 179.256 118.91 178.031 117.463C176.472 115.347 176.695 114.457 178.699 112.787C180.258 111.562 182.151 111.562 183.487 113.121C184.712 114.568 186.27 115.681 186.493 117.908C186.716 119.356 187.829 120.692 188.608 122.139C189.388 123.586 190.167 125.034 190.613 126.593C190.835 127.372 190.501 128.263 190.39 129.042C190.279 129.153 189.945 129.153 189.499 129.265Z" fill="black"/>
</g>
<defs>
<clipPath id="clip0">
<rect width="395.811" height="217" fill="white"/>
</clipPath>
</defs>
</svg>
