<svg width="52" height="38" viewBox="0 0 52 38" fill="none" xmlns="http://www.w3.org/2000/svg">
<path d="M25.4422 7.53182C25.4422 7.31278 25.4422 5.56055 25.4422 5.22793C25.2881 5.21982 25.1422 5.20359 24.9962 5.20359C24.2664 5.20359 23.5367 5.21171 22.8069 5.19548C22.2636 5.18737 22.0122 4.93588 22.0041 4.40044C21.996 3.53239 21.996 2.67246 22.0041 1.80441C22.0122 1.2852 22.2474 1.01748 22.7663 1.00937C25.0368 1.00126 27.3072 0.993142 29.5776 1.00937C30.0642 1.00937 30.3074 1.2852 30.3155 1.78818C30.3236 2.65623 30.3236 3.51617 30.3155 4.38422C30.3155 4.94399 30.0642 5.19548 29.4884 5.20359C28.7749 5.21171 28.0532 5.20359 27.3396 5.20359C27.1937 5.20359 27.0477 5.20359 26.8693 5.20359C26.8693 5.54432 26.8693 7.28844 26.8693 7.59672C27.6559 7.66162 28.4424 7.70218 29.2128 7.79953C35.2294 8.55401 40.4514 10.8904 44.5058 15.5146C46.541 17.8348 47.9033 20.5039 48.4952 23.5542C48.5844 24.0004 48.3817 24.3493 48.0087 24.4385C47.6114 24.5359 47.2546 24.3006 47.1573 23.8382C45.8356 17.8348 42.0488 13.8759 36.6728 11.288C32.6589 9.35716 28.3938 8.72437 23.9745 9.09755C19.6121 9.46262 15.6145 10.8499 12.0791 13.454C8.71396 15.9365 6.30568 19.1166 5.32453 23.2541C5.07316 24.3249 5.06505 25.4445 4.90288 26.5397C4.8299 27.0183 4.91099 27.4564 5.1137 27.8702C5.21912 28.073 5.39751 28.3001 5.59212 28.3894C6.54894 28.8193 7.48955 29.3061 8.49503 29.5982C11.1709 30.3851 13.936 30.7258 16.701 31.0016C20.9581 31.4235 25.2233 31.5046 29.4966 31.3829C34.0131 31.245 38.5053 30.9124 42.9083 29.8415C44.0192 29.5738 45.0896 29.1438 46.1599 28.7382C47.0519 28.4056 47.4735 27.7404 47.4249 26.7668C47.4006 26.3044 47.733 25.9799 48.1222 25.9799C48.5033 25.988 48.7547 26.272 48.8115 26.7344C48.8277 26.8885 48.8845 27.0508 48.9574 27.1887C49.5575 28.3082 50.1494 29.4278 50.79 30.5311C51.1225 31.099 51.09 31.6588 50.717 32.1212C50.3116 32.6242 49.817 33.1028 49.2737 33.4435C47.7817 34.3765 46.087 34.8308 44.3922 35.2283C40.9785 36.0396 37.5079 36.4452 34.0212 36.7048C29.9506 37.005 25.872 37.078 21.7933 36.9157C17.0254 36.7292 12.2818 36.3154 7.61929 35.2283C6.10296 34.8714 4.61907 34.4414 3.22438 33.7275C2.53514 33.3786 1.87833 32.973 1.41614 32.324C0.970158 31.6993 0.856637 31.0909 1.30262 30.377C2.02429 29.2412 2.68109 28.0568 3.35412 26.8885C3.44331 26.7344 3.51629 26.5397 3.51629 26.3612C3.62981 21.8749 5.37318 18.0701 8.41394 14.8494C11.852 11.2149 16.1172 9.07321 20.9905 8.11592C22.442 7.84821 23.9259 7.72652 25.4422 7.53182ZM3.90551 28.7058C3.41899 29.5333 2.94057 30.3283 2.49459 31.1396C2.43783 31.2369 2.47838 31.4884 2.56757 31.5614C2.94057 31.8859 3.31357 32.2591 3.75955 32.4457C4.95153 32.9324 6.15973 33.4273 7.40846 33.7518C12.0872 34.9606 16.8794 35.35 21.6879 35.5447C25.8801 35.7151 30.0642 35.6421 34.2401 35.3176C37.3944 35.0742 40.5244 34.701 43.6138 34.0033C45.2761 33.6301 46.9221 33.2002 48.4223 32.3646C48.7953 32.1536 49.1196 31.8616 49.4358 31.5695C49.525 31.4965 49.5899 31.2775 49.5413 31.1801C49.1439 30.4175 48.7223 29.6631 48.2925 28.8761C47.3519 29.8902 46.1518 30.3445 44.9274 30.7339C44.2949 30.9367 43.6624 31.1071 43.0138 31.2612C38.3188 32.3321 33.5428 32.6809 28.7424 32.7945C24.4854 32.9 20.2364 32.7783 15.9956 32.3321C13.3197 32.0482 10.6601 31.6831 8.07338 30.9367C6.54083 30.4987 5.00829 30.0362 3.90551 28.7058ZM28.8965 3.792C28.8965 3.30524 28.8965 2.86716 28.8965 2.42096C27.0477 2.42096 25.2395 2.42096 23.4231 2.42096C23.4231 2.8915 23.4231 3.32958 23.4231 3.792C25.2557 3.792 27.0639 3.792 28.8965 3.792Z" fill="black" stroke="black" stroke-width="1.5"/>
</svg>
