<svg width="52" height="38" fill="none" xmlns="http://www.w3.org/2000/svg"><path d="M25.422 7.532V5.228c-.154-.008-.3-.024-.446-.024-.73 0-1.46.008-2.19-.009-.543-.008-.794-.26-.802-.795-.009-.868-.009-1.728 0-2.596.008-.519.243-.787.762-.795 2.27-.008 4.54-.016 6.811 0 .487 0 .73.276.738.78.008.867.008 1.727 0 2.595 0 .56-.251.811-.827.82-.714.008-1.435 0-2.149 0h-.47v2.393c.786.065 1.573.105 2.343.203 6.017.754 11.239 3.09 15.293 7.715 2.035 2.32 3.398 4.989 3.99 8.04.089.445-.114.794-.487.884-.397.097-.754-.138-.851-.6-1.322-6.004-5.109-9.963-10.485-12.551-4.014-1.93-8.279-2.564-12.698-2.19-4.363.365-8.36 1.752-11.895 4.356-3.366 2.482-5.774 5.663-6.755 9.8-.251 1.07-.26 2.19-.422 3.286-.073.478.008.916.211 1.33.106.203.284.43.479.52.956.43 1.897.916 2.903 1.208 2.675.787 5.44 1.128 8.205 1.404 4.258.422 8.523.503 12.796.38 4.517-.137 9.009-.47 13.412-1.54 1.11-.268 2.181-.698 3.251-1.104.892-.332 1.314-.998 1.265-1.971-.024-.463.308-.787.698-.787.38.008.632.292.689.754.016.154.073.317.146.455.6 1.12 1.192 2.239 1.833 3.342.332.568.3 1.128-.074 1.59-.405.503-.9.982-1.443 1.322-1.492.934-3.187 1.388-4.881 1.785-3.414.812-6.885 1.217-10.371 1.477-4.07.3-8.15.373-12.228.21-4.768-.186-9.512-.6-14.174-1.687-1.517-.357-3-.787-4.395-1.5-.69-.35-1.346-.755-1.808-1.404-.446-.625-.56-1.233-.114-1.947.722-1.136 1.379-2.32 2.052-3.488.089-.155.162-.35.162-.528.113-4.486 1.857-8.29 4.897-11.512 3.438-3.634 7.704-5.776 12.577-6.733 1.452-.268 2.935-.39 4.452-.584ZM3.885 28.706c-.487.827-.965 1.622-1.41 2.434-.058.097-.017.348.072.421.373.325.746.698 1.192.885 1.192.486 2.4.981 3.649 1.306 4.679 1.209 9.47 1.598 14.28 1.793 4.192.17 8.376.097 12.552-.227 3.154-.244 6.284-.617 9.373-1.315 1.663-.373 3.309-.803 4.809-1.638.373-.211.697-.503 1.013-.796.09-.072.154-.291.106-.389-.398-.762-.82-1.517-1.249-2.304-.94 1.014-2.14 1.468-3.365 1.858-.633.203-1.265.373-1.914.527-4.695 1.071-9.47 1.42-14.271 1.534-4.257.105-8.506-.017-12.747-.463-2.676-.284-5.335-.649-7.922-1.395-1.533-.438-3.065-.9-4.168-2.231ZM28.876 3.792V2.421h-5.473v1.371h5.473Z" fill="#F7D23A" stroke="#F7D23A" stroke-width="1.474"/></svg>