<svg width="718" height="385" viewBox="0 0 718 385" fill="none" xmlns="http://www.w3.org/2000/svg">
<g clip-path="url(#clip0)">
<path d="M0.629395 279.586C7.08721 268.759 13.3551 258.313 19.623 248.056C24.7512 239.699 30.0695 231.342 35.3877 222.985C43.9348 209.689 52.6718 196.774 60.8391 183.478C64.4478 177.78 66.917 171.322 70.1459 165.434C75.0843 156.317 80.0226 147.2 85.1509 138.273C89.3294 130.676 93.508 123.269 97.6866 115.861C103.385 105.604 109.083 95.158 114.211 84.7115C117.44 78.0638 119.719 71.2261 122.568 64.3884C123.328 62.489 123.708 60.2098 124.847 58.6903C127.127 55.4614 129.216 56.0312 131.495 59.0702C133.964 62.1092 137.003 64.7683 140.232 67.0475C144.601 70.2764 149.919 72.3657 153.148 77.304C153.908 78.4437 154.288 79.5833 154.857 80.9128C157.326 86.8008 160.555 92.119 165.114 96.4876C173.471 104.465 182.398 112.442 190.565 121.179C197.023 128.017 202.341 135.994 208.609 143.212C214.497 150.049 220.575 156.507 226.843 162.965C231.212 167.524 235.96 171.892 240.518 176.451C245.077 181.009 249.635 185.757 254.384 190.316C255.523 191.455 257.043 192.595 258.372 193.545C266.73 183.858 275.467 174.171 283.824 164.105C289.332 157.457 294.46 150.239 299.778 143.402C304.527 137.324 309.465 131.436 314.024 125.168C318.962 118.33 323.71 111.113 328.459 104.085C330.928 100.666 333.587 97.2473 336.056 93.8285C337.766 91.5492 339.665 89.27 341.374 86.9908C343.843 83.7619 347.262 84.1417 348.402 87.9404C350.111 93.0687 352.011 98.3869 355.809 102.376C358.089 104.655 360.558 106.744 363.027 109.023C367.965 113.772 372.714 118.71 377.652 123.269C381.071 126.497 384.87 129.536 388.478 132.765C392.847 126.307 396.836 119.85 401.394 113.582C406.712 106.364 412.22 99.1467 418.108 92.309C429.125 79.7732 439.571 66.6676 448.308 52.4224C454.196 42.5458 460.654 33.049 467.302 23.5522C472.81 15.9548 479.268 8.92712 485.156 1.51962C486.485 -0.189798 488.195 -0.189798 489.714 0.569945C491.993 1.70956 493.893 3.22905 495.982 4.5586C496.552 4.93847 497.312 5.50828 497.881 5.88815C507.188 11.7762 516.875 17.0944 525.802 23.5522C533.969 29.4402 540.997 36.6578 548.784 43.3055C555.242 48.8137 561.89 54.3218 568.538 59.64C579.364 68.1871 590.76 76.3544 601.396 85.2813C607.854 90.7895 613.173 97.8171 619.44 103.515C624.759 108.643 630.647 113.202 636.535 117.76C644.702 123.838 653.249 129.916 661.606 135.614C671.293 142.262 681.36 148.34 691.046 154.988C696.744 158.976 702.442 163.155 707.761 167.714C711.179 170.563 714.029 173.981 717.447 177.59C716.878 178.35 716.308 180.059 715.168 180.439C713.269 181.389 711.559 180.439 710.04 178.73C702.822 170.373 694.655 163.155 685.348 157.077C676.421 151.189 667.304 145.491 658.567 139.413C652.299 135.045 646.411 130.296 640.333 125.738C635.205 121.939 629.507 118.9 624.759 114.721C616.591 107.504 608.424 99.7165 601.017 91.7392C594.749 85.0914 587.911 79.3933 580.314 74.2651C574.426 70.2764 568.348 66.0978 563.029 61.5394C551.253 51.4728 539.857 41.0263 527.891 31.1496C521.434 25.8314 514.216 21.6528 507.378 17.0944C502.44 13.8655 497.502 10.8265 492.753 7.59757C490.284 5.88815 488.385 5.31834 486.295 8.16738C478.508 18.234 470.341 28.1106 462.743 38.3672C458.375 44.4451 455.336 51.4728 451.157 57.5507C443.75 67.8072 435.962 77.8738 428.175 87.9404C420.578 97.8171 412.79 107.504 405.383 117.381C400.824 123.458 396.836 129.916 392.657 136.184C399.495 142.832 405.953 149.1 412.41 155.368C416.399 159.166 420.768 162.775 424.946 166.574C428.745 169.993 432.733 173.412 436.532 177.02C441.66 181.579 446.789 186.137 451.917 190.696C457.235 195.254 462.553 199.623 467.682 204.371C473.76 209.879 479.838 215.577 485.916 221.275C492.753 227.733 499.781 234.001 506.429 240.649C510.987 245.207 515.166 250.336 519.534 255.274C522.003 257.933 524.472 260.592 526.562 263.631C527.132 264.581 526.752 266.48 526.182 267.81C525.232 270.469 522.953 268.759 521.244 268.759C520.674 268.759 519.914 266.86 519.344 265.91C518.774 264.771 518.584 263.441 517.825 262.491C509.088 253.375 500.541 244.068 491.614 235.141C483.066 226.594 474.14 218.236 465.213 209.879C459.135 204.181 452.677 199.053 446.599 193.545C434.443 182.908 422.287 172.272 410.321 161.446C401.014 152.899 391.707 144.161 382.59 135.424C376.323 129.346 370.245 123.269 363.977 117.191C361.128 114.531 357.709 112.252 355.05 109.403C350.871 104.845 347.072 99.9064 342.704 94.5882C339.095 100.096 335.106 106.174 331.118 112.062C326.939 118.14 322.571 124.218 318.202 130.106C310.985 139.793 303.767 149.29 296.17 158.597C287.812 168.853 279.075 178.73 270.528 188.796C267.869 191.835 265.59 195.064 262.931 198.673C267.869 203.991 272.618 209.309 277.556 214.628C282.494 219.946 287.622 225.264 292.561 230.582C294.08 232.292 293.7 233.811 291.991 235.331C290.092 236.85 287.053 236.66 285.913 235.141C281.924 230.202 277.936 225.074 273.947 220.326C269.389 215.008 264.45 209.689 259.702 204.371C258.942 203.421 257.423 203.042 256.093 202.662C252.864 201.902 252.104 200.762 253.434 197.913C248.876 193.355 244.507 188.796 240.139 184.238C229.692 173.791 219.056 163.725 208.989 153.088C204.431 148.15 200.822 142.262 196.833 136.754C190.755 128.207 183.158 121.179 175.56 113.962C167.583 106.364 159.226 99.1467 153.148 90.0297C151.438 87.5606 150.299 84.3317 149.159 81.4826C147.26 77.1141 144.031 74.2651 140.042 71.9858C135.484 70.0865 131.685 67.4274 127.886 64.9582C126.557 68.3771 125.417 71.9858 123.708 75.4047C121.239 80.9128 118.58 86.421 115.92 91.7392C112.692 98.197 109.273 104.845 105.664 111.113C102.055 117.57 98.0665 123.648 94.4577 130.106C90.2791 137.324 86.4804 144.541 82.4917 151.759C78.693 158.787 74.8943 166.004 71.0956 173.032C66.5371 181.389 62.1686 189.746 57.2303 197.723C53.0517 204.561 48.1134 210.829 43.7448 217.667C37.8568 226.973 31.9688 236.47 26.2707 245.777C23.4217 250.526 20.5727 255.274 17.7236 259.832C14.1148 265.72 10.3161 271.608 6.51741 277.496C4.99792 279.776 3.2885 280.725 0.629395 279.586Z" fill="black"/>
<path d="M283.255 252.994C285.914 255.274 288.953 256.983 291.042 259.642C295.791 265.72 300.159 271.988 304.718 278.256C305.097 278.636 304.718 279.585 304.718 281.295C302.628 280.155 301.109 279.395 299.779 278.446C298.26 277.306 297.12 275.977 295.791 274.647C295.601 274.837 295.221 275.027 295.031 275.217C296.93 278.256 299.02 281.105 301.109 284.334C297.69 286.803 299.969 288.892 301.299 290.981C302.059 291.931 302.628 293.071 303.578 293.831C306.237 296.11 305.667 297.819 302.438 299.149C303.198 300.288 304.338 301.238 304.528 302.378C304.908 303.897 305.667 305.986 305.097 306.746C303.008 309.215 304.718 310.545 305.667 312.444C306.237 313.394 306.237 314.723 306.427 315.863C305.287 315.863 303.578 316.243 303.008 315.673C299.209 312.254 295.791 308.456 291.422 304.087C292.182 306.746 292.372 309.215 293.511 310.545C296.74 314.344 300.349 317.762 303.768 321.181C304.718 322.131 305.857 322.701 306.427 323.65C307.187 324.79 307.377 326.12 307.757 327.449C306.617 327.449 305.097 328.209 304.528 327.639C301.299 325.36 298.45 322.891 295.411 320.422C295.031 320.042 294.651 319.662 294.271 319.282C294.271 319.282 294.081 319.282 293.321 319.282C293.511 323.65 293.511 328.209 294.081 332.577C295.031 341.125 296.36 349.672 297.31 358.219C297.5 359.738 297.12 361.448 296.36 362.967C296.17 363.537 294.081 363.727 293.321 363.157C292.182 362.397 290.852 361.068 290.662 359.928C289.903 354.8 289.523 349.672 289.143 344.543C288.573 335.806 288.003 327.069 287.433 317.952C286.864 318.902 286.104 319.662 285.724 320.611C284.964 322.321 284.584 324.03 283.825 325.74C282.685 328.399 280.596 329.349 277.557 328.209C279.076 323.081 280.596 317.952 282.305 311.874C279.646 313.964 277.747 315.293 275.847 316.813C274.898 316.053 274.138 315.483 273.188 314.913C275.088 310.735 276.797 306.746 278.506 302.757C278.127 302.568 277.747 302.188 277.367 301.998C274.898 306.746 271.859 310.735 265.401 311.874C269.959 303.327 274.328 295.35 278.506 287.373C278.317 287.183 278.127 286.803 277.937 286.613C277.177 287.183 276.227 287.563 275.847 288.322C274.708 290.032 273.948 291.931 272.618 293.451C271.669 294.59 270.339 295.54 269.2 295.92C268.25 296.11 266.92 295.35 265.971 294.97C266.351 294.02 266.73 293.071 267.11 292.311C269.39 288.512 271.669 284.524 273.948 280.725C274.898 279.016 275.847 277.306 277.367 276.166C278.506 275.217 280.406 275.217 282.495 274.457C281.925 269.519 281.545 263.821 280.786 258.123C280.596 255.084 280.596 253.564 283.255 252.994ZM284.394 290.792C284.015 290.792 283.635 290.792 283.065 290.792C282.685 292.311 282.305 294.02 281.735 296.3C283.065 295.73 284.394 295.54 284.584 295.16C284.774 293.831 284.584 292.311 284.394 290.792Z" fill="black"/>
<path d="M620.771 236.47C617.542 239.889 615.263 242.738 612.794 245.207C610.135 247.676 606.906 246.727 605.196 242.928C610.704 242.358 611.654 237.23 614.503 234.001C614.313 233.811 614.123 233.431 613.933 233.241C613.174 234.001 612.414 234.571 611.844 235.33C610.135 237.04 608.615 238.939 606.526 240.269C605.766 240.839 603.867 240.079 602.727 240.079C603.107 238.939 603.107 237.42 603.677 236.47C604.247 235.71 605.576 235.33 606.716 234.951C606.336 234.381 605.766 233.811 605.386 233.431C604.436 233.811 603.297 234.571 602.347 234.571C601.208 234.571 600.068 234.191 598.928 233.811C599.308 233.051 599.498 232.102 600.068 231.342C601.018 230.012 602.347 228.683 603.107 226.973C602.537 227.163 601.967 227.353 601.397 227.353C600.448 227.543 599.498 227.353 598.548 227.543C598.548 226.593 598.359 225.264 598.738 224.504C600.828 221.085 603.297 217.856 605.956 214.058C603.297 214.817 601.208 215.577 598.928 216.147C598.738 215.197 598.359 214.438 598.738 214.248C603.677 207.03 608.615 199.623 613.933 192.595C615.263 190.885 617.352 190.126 618.682 188.036C620.011 185.757 624.38 187.467 625.899 189.936C629.888 196.394 633.877 202.851 637.865 209.309C638.625 210.449 638.815 211.968 639.005 213.488C639.005 213.868 638.245 214.817 637.865 215.007C637.295 215.007 636.346 214.627 635.966 214.248C632.737 210.259 629.508 206.27 626.279 202.092C625.139 200.572 624.19 198.863 623.05 196.963C621.341 199.623 621.911 202.092 624 203.611C625.899 205.131 627.609 207.22 629.318 209.119C632.167 212.348 635.016 215.387 637.675 218.806C639.195 220.705 640.524 222.605 641.664 224.694C642.044 225.644 641.854 227.163 641.284 228.113C640.904 228.683 639.195 229.063 638.435 228.683C636.916 227.923 635.396 226.783 634.066 225.644C631.028 222.985 628.178 220.326 624.95 217.477C623.62 219.566 623.81 220.895 625.709 222.035C627.039 222.795 628.368 223.744 629.698 224.884C635.206 229.632 640.524 234.571 645.843 239.509C644.513 241.408 643.943 242.358 643.183 243.308C635.966 241.219 632.167 234.761 626.279 230.582C626.279 233.431 626.089 236.09 626.279 238.749C627.419 249.576 628.558 260.402 629.698 271.228C629.888 272.558 629.888 274.267 629.318 275.597C628.748 276.737 627.229 277.496 626.279 278.446C625.329 277.116 622.29 277.306 623.62 274.267C624.19 273.128 624.19 271.608 624 270.279C623.05 262.491 622.101 254.704 621.341 246.727C620.581 243.498 620.771 240.269 620.771 236.47Z" fill="black"/>
<path d="M173.661 294.021C171.951 295.54 170.242 296.87 168.532 298.389C166.443 300.099 164.544 301.998 162.264 303.328C160.175 304.657 158.276 304.467 156.946 301.808C164.924 294.401 173.281 287.183 178.789 277.496C178.599 277.306 178.219 276.926 178.029 276.737C176.51 278.446 174.99 280.345 173.281 282.055C170.242 285.094 167.963 289.462 162.834 289.842C161.885 289.842 160.935 289.272 159.985 288.892C160.365 288.133 160.745 287.183 161.315 286.423C166.443 280.725 171.951 275.217 176.7 269.139C178.029 267.43 177.649 264.011 177.839 261.542C177.459 261.352 177.079 261.352 176.89 261.162C175.75 262.681 174.61 264.201 173.281 265.72C170.432 268.949 167.773 272.178 164.734 275.217C163.974 275.977 162.264 276.357 160.935 276.357C157.896 276.167 157.516 274.837 159.415 272.368C161.885 269.139 164.734 266.1 167.203 262.681C169.292 259.832 171.381 256.793 173.281 253.754C175.18 250.525 178.219 250.335 180.688 253.185C181.638 254.324 182.967 255.464 184.107 256.413C189.615 261.542 195.313 266.67 200.632 271.988C201.391 272.748 200.632 274.837 200.632 276.167C199.302 275.977 197.593 276.167 196.643 275.407C192.654 271.798 188.856 268 185.057 264.201C184.867 264.011 184.677 264.011 184.487 264.011C183.537 267.05 184.867 270.659 187.146 272.368C190.755 275.027 194.174 277.876 197.403 280.915C198.162 281.675 197.782 283.574 197.972 284.904C197.593 285.284 197.023 285.474 196.643 285.853C193.034 283.954 189.425 282.055 185.627 279.965C185.627 281.295 185.817 283.004 186.006 284.334C191.135 287.183 197.403 287.563 201.011 293.261C195.503 297.06 192.084 291.362 187.336 291.172C187.716 294.97 187.906 298.959 188.476 302.758C189.045 306.746 189.615 310.735 190.185 314.724C190.945 320.232 191.515 325.74 192.084 331.248C192.274 333.527 193.414 336.376 189.995 336.946C188.856 337.136 186.196 336.186 186.006 335.237C184.867 330.678 184.297 325.93 183.727 321.182C182.968 313.584 182.398 305.987 181.638 298.389C181.638 298.009 181.068 297.819 180.498 297.06C179.549 298.579 178.599 299.909 177.649 301.238C175.18 304.467 171.951 306.556 167.963 307.126C167.203 307.126 166.253 306.556 165.303 306.177C165.873 305.417 166.443 304.657 167.013 303.897C168.722 301.808 170.622 299.909 172.331 297.819C173.281 296.68 174.041 295.54 174.8 294.401C174.23 294.591 174.041 294.401 173.661 294.021ZM180.688 292.121C180.498 290.602 180.498 289.272 180.498 287.943C180.308 287.943 179.929 287.753 179.739 287.753C178.789 288.892 177.839 290.222 176.51 291.931C178.219 291.931 179.169 291.931 180.688 292.121Z" fill="black"/>
<path d="M482.497 308.455C484.586 311.874 486.676 315.673 489.145 319.282C490.854 321.751 492.944 324.03 494.843 326.309C495.413 327.069 496.552 327.639 496.742 328.589C497.122 329.728 496.932 331.058 496.932 332.387C495.793 332.387 494.653 332.387 493.513 332.387C493.133 332.387 492.564 332.007 492.184 331.818C491.994 332.007 491.804 332.387 491.614 332.577C492.944 333.717 494.273 335.046 495.793 335.616C500.161 337.706 500.351 338.465 496.362 342.454C496.932 342.644 497.692 342.834 497.882 343.214C498.262 344.543 499.211 346.443 498.642 347.202C497.312 348.912 495.223 348.722 493.323 347.202C491.614 345.873 489.715 344.543 487.056 342.644C487.056 344.733 487.056 345.873 487.056 347.012C487.435 352.141 487.815 357.459 488.005 362.587C488.385 368.855 488.575 374.933 488.955 381.201C488.955 382.91 489.715 385 487.245 385.19C484.966 385.379 483.637 383.86 483.637 381.391C483.257 371.514 483.067 361.827 482.497 351.951C482.307 349.672 481.927 347.582 481.547 344.353C480.218 345.873 479.268 346.633 478.508 347.582C475.849 351.001 473.19 354.61 470.531 358.029C469.012 359.928 467.302 359.168 465.783 358.219C463.503 356.889 463.693 355.749 465.783 354.23C467.302 353.09 468.632 351.761 470.151 350.431C469.961 350.051 469.771 349.861 469.581 349.482C467.872 350.431 465.973 351.191 464.263 352.141C461.984 353.66 460.844 351.951 459.895 350.431C458.945 348.532 460.654 348.342 461.984 347.582C463.883 346.633 465.213 344.733 467.302 342.644C464.263 342.644 462.364 342.644 459.895 342.644C460.654 341.314 461.034 340.365 461.414 339.605C461.984 338.085 463.314 336.566 460.654 335.426C460.275 335.236 459.895 332.957 460.464 332.387C465.213 327.449 468.632 321.561 471.101 315.293C473 309.785 476.799 307.506 482.497 308.455ZM477.939 314.723C476.609 317.192 475.469 319.282 474.33 321.371C477.749 320.611 479.458 318.712 477.939 314.723Z" fill="black"/>
<path d="M380.502 289.652C380.122 290.222 379.742 290.602 379.742 290.982C380.692 296.3 382.022 301.808 382.781 307.126C383.161 309.025 382.781 310.925 382.592 312.824C382.592 313.204 380.122 313.584 379.932 313.394C378.793 311.495 377.273 309.405 376.893 307.316C375.944 301.808 375.374 296.3 374.614 290.792C374.614 290.602 374.234 290.412 373.854 290.032C372.525 291.551 371.005 292.691 370.056 294.4C368.726 296.87 366.637 297.819 364.358 298.009C363.218 298.199 361.888 297.249 360.939 296.3C360.749 296.11 361.509 294.21 362.268 293.451C363.598 292.121 364.927 290.982 366.637 289.652C364.358 289.082 360.559 285.663 359.229 283.764C357.9 281.675 358.28 280.345 360.179 278.826C361.509 277.686 362.648 276.356 363.408 274.267C362.458 274.647 361.319 275.217 360.179 275.787C358.09 273.697 357.52 271.988 360.369 269.519C363.788 266.48 366.827 263.251 369.486 259.642C370.626 258.123 370.246 255.463 370.815 253.374C371.195 252.235 372.145 251.095 372.715 250.145C373.854 251.095 375.374 251.665 375.944 252.804C377.843 256.223 379.173 259.832 381.072 263.251C382.971 266.48 385.251 269.709 387.53 272.938C386.96 273.697 386.2 274.647 385.441 275.597C387.72 277.116 389.999 278.826 388.29 282.244C388.1 282.434 389.619 283.384 390.189 284.334C390.949 285.473 391.518 286.993 392.468 288.512C389.619 289.652 389.049 291.171 391.329 293.451C391.898 294.02 391.708 295.54 392.088 296.49C390.949 296.49 389.429 297.059 388.669 296.49C386.39 294.78 384.301 292.691 382.212 290.602C381.262 290.602 381.072 290.222 380.502 289.652Z" fill="black"/>
<path d="M125.038 121.179C128.647 124.788 127.887 127.827 126.367 131.436C122.759 139.793 119.53 148.34 116.111 156.697C114.212 161.256 112.312 166.004 110.223 170.562C109.653 171.702 108.134 172.842 106.994 173.032C106.234 173.221 104.145 171.512 104.335 170.942C105.095 168.093 106.234 165.434 107.184 162.775C107.944 160.876 108.513 158.786 109.273 156.887C112.882 147.77 116.491 138.653 120.1 129.346C120.479 128.207 120.29 126.687 121.049 125.738C122.189 124.218 123.708 122.699 125.038 121.179Z" fill="black"/>
<path d="M147.259 185.567C146.5 189.746 145.36 194.874 144.41 200.002C143.461 205.13 142.511 210.069 141.182 215.197C140.802 217.096 139.852 219.186 138.712 220.895C138.332 221.465 136.433 221.655 135.673 221.275C134.914 220.895 134.534 219.186 134.724 218.426C136.243 210.638 137.953 202.661 139.472 194.874C140.422 190.315 140.802 185.757 141.751 181.198C141.941 180.059 143.271 179.299 144.031 178.349C144.98 179.299 146.31 180.059 146.88 181.388C147.449 182.148 147.259 183.478 147.259 185.567Z" fill="black"/>
<path d="M481.927 136.563C481.357 129.916 484.396 124.218 486.295 118.33C487.625 114.151 488.005 109.593 488.955 105.224C489.524 102.375 490.284 99.526 493.323 98.5763C494.273 98.1964 495.982 98.7662 496.742 99.526C497.312 100.286 497.502 101.995 497.122 103.135C495.792 107.313 494.463 111.492 492.943 115.481C491.804 118.709 490.474 121.938 489.334 125.357C488.385 128.586 487.625 132.005 486.675 135.234C486.295 136.184 485.916 137.323 485.156 138.083C484.776 138.463 483.636 138.843 483.067 138.653C482.497 138.273 482.307 137.323 481.927 136.563Z" fill="black"/>
<path d="M184.867 188.226C179.549 180.819 174.42 173.411 169.292 166.194C168.342 164.864 166.823 164.104 166.063 162.775C165.303 161.825 164.734 160.306 164.924 159.356C165.113 158.596 166.823 158.026 167.963 158.026C171.761 157.836 173.281 161.445 174.99 163.724C179.359 169.612 183.157 176.07 187.146 182.338C188.476 184.617 188.476 186.897 184.867 188.226Z" fill="black"/>
<path d="M608.424 132.765C609.943 134.284 611.463 135.614 612.792 136.943C617.351 141.882 622.099 146.63 626.658 151.569C628.177 153.278 630.077 154.607 631.596 156.317C632.166 157.077 631.976 158.216 632.166 159.356C631.216 159.356 629.887 159.926 629.317 159.546C619.82 154.228 612.413 146.63 605.385 138.463C604.815 137.893 604.815 136.184 605.385 135.234C605.575 134.094 606.904 133.715 608.424 132.765Z" fill="black"/>
<path d="M517.445 142.452C518.965 143.211 521.244 143.401 520.104 146.63C518.775 150.239 518.205 154.228 517.445 158.026C516.685 161.635 515.926 165.244 515.166 168.853C514.786 170.372 514.406 171.892 513.836 173.221C513.456 173.791 512.317 174.361 511.557 174.171C510.987 173.981 510.038 172.841 510.038 172.272C510.417 167.713 510.987 163.155 511.747 158.596C512.317 154.798 512.887 150.809 513.266 147.01C513.646 143.591 514.976 142.072 517.445 142.452Z" fill="black"/>
<path d="M341.754 160.496C341.185 161.635 340.615 162.775 340.045 163.724C336.056 170.752 331.878 177.59 327.889 184.617C326.749 186.517 325.04 187.276 323.521 185.947C321.811 184.617 322.951 183.288 323.9 181.578C327.319 175.69 330.358 169.612 333.397 163.534C334.157 162.015 334.727 160.306 335.676 158.976C336.436 158.026 337.956 157.267 339.095 157.457C340.235 157.646 341.375 158.786 342.514 159.546C342.134 159.736 341.944 160.116 341.754 160.496Z" fill="black"/>
<path d="M276.416 255.843C279.645 258.313 280.595 262.681 278.315 266.67C274.707 272.938 271.858 280.345 263.69 282.055C263.311 281.675 262.741 281.485 262.361 281.105C267.109 272.748 271.858 264.391 276.416 255.843Z" fill="black"/>
<path d="M342.894 212.538C344.603 204.371 346.313 196.393 348.022 188.226C348.402 186.517 349.542 184.807 351.821 185.567C353.91 186.327 354.48 188.036 353.91 189.936C352.011 197.533 350.302 204.941 348.212 212.348C348.022 213.108 345.553 213.298 344.224 213.678C343.654 213.298 343.274 212.918 342.894 212.538Z" fill="black"/>
<path d="M390.378 213.298C392.847 210.259 395.316 209.499 397.595 211.778C402.724 216.907 407.662 222.225 412.411 227.543C412.98 228.113 412.6 229.632 412.79 230.772C411.841 230.582 410.511 230.582 409.751 230.012C403.294 224.504 396.836 218.996 390.378 213.298Z" fill="black"/>
<path d="M543.086 90.0294C546.125 89.2697 548.024 89.6495 549.164 92.8784C551.063 98.0067 553.912 102.945 557.521 107.314C558.471 108.453 558.471 110.353 559.04 112.252C551.443 111.302 542.136 97.4369 543.086 90.0294Z" fill="black"/>
<path d="M384.68 183.858C382.781 182.528 380.692 181.198 379.362 179.489C376.133 175.69 373.284 171.702 370.435 167.713C369.106 166.004 368.916 163.914 370.625 162.965C371.765 162.395 374.234 163.344 375.184 164.484C378.792 169.232 381.831 174.171 385.06 179.109C385.63 180.059 385.63 181.578 385.82 182.908C385.44 183.098 385.06 183.478 384.68 183.858Z" fill="black"/>
<path d="M582.212 173.791C580.313 175.88 578.604 175.69 577.274 173.791C574.045 168.663 571.006 163.534 568.347 158.216C567.967 157.456 568.917 155.367 569.867 154.797C570.436 154.417 572.146 155.177 573.285 155.557C573.855 155.747 574.045 156.697 574.425 157.267C576.894 162.585 579.553 168.093 582.212 173.791Z" fill="black"/>
</g>
<defs>
<clipPath id="clip0">
<rect width="716.628" height="385" fill="white" transform="translate(0.629395)"/>
</clipPath>
</defs>
</svg>
