<svg width="718" height="760" viewBox="0 0 718 760" fill="none" xmlns="http://www.w3.org/2000/svg">
<g clip-path="url(#clip0)">
<path d="M333.629 110C332.829 114.8 332.329 119.7 330.929 124.4C329.729 128.5 327.029 132 323.929 135C320.229 138.6 316.129 141.6 311.429 143.8C309.829 144.5 308.429 145.7 306.929 146.7C301.829 149.8 296.329 150.5 290.429 150.3C284.329 150 280.129 146.7 276.529 142.2C273.829 138.7 270.929 135.2 268.729 131.4C264.929 124.8 261.629 117.7 262.529 109.8C263.029 105.4 264.529 101.1 267.229 97.4C268.329 95.9 269.229 94.3 270.529 93C274.529 88.9 278.629 84.9 282.829 81.1C286.029 78.2 290.329 78 294.329 77.1C297.629 76.4 300.729 76.8 303.929 77.9C307.329 79.1 310.729 80.1 314.129 81.2C317.229 82.2 319.829 84 322.029 86.3C324.329 88.6 326.829 90.9 328.229 93.8C330.129 97.7 331.229 102 332.529 106.2C332.929 107.4 332.829 108.8 332.929 110.1C333.329 110 333.429 110 333.629 110ZM312.029 125.5C312.029 125.3 312.129 125.1 312.129 125C313.029 125.1 313.929 125.3 314.829 125.3C317.129 125.5 319.929 124.3 320.329 122.9C321.429 119.2 322.529 115.5 323.429 111.7C323.829 109.9 324.029 108.1 323.929 106.3C323.729 102.3 322.229 98.6 320.229 95.3C316.929 89.8 312.229 85.9 306.129 83.6C302.229 82.1 298.229 82.2 294.229 82.9C288.629 83.8 283.629 86.1 279.129 89.6C275.929 92.1 274.129 95.6 272.229 99.1C270.629 102 269.829 105.2 269.529 108.5C269.229 112.3 270.029 115.8 271.129 119.3C272.829 124.7 275.529 129.6 279.129 134C281.229 136.6 283.729 138.8 286.629 140.7C289.429 142.6 292.529 143.3 295.729 143.5C298.429 143.7 301.329 143.2 304.029 142.7C306.729 142.3 309.329 141.4 311.129 139.2C312.129 137.9 313.229 136.7 314.129 135.2C315.729 132.6 317.229 129.8 319.029 126.6C316.429 126.3 314.229 125.9 312.029 125.5ZM328.329 103.6C328.029 105.4 327.729 107.1 327.529 108.8C327.329 110.1 327.429 111.5 327.229 112.9C327.029 115.1 327.129 117.4 326.429 119.4C325.629 121.6 323.929 123.5 322.829 125.7C321.229 128.8 319.729 132.1 318.229 135.2C318.129 135.5 318.129 135.8 318.129 136.2C330.029 127.2 331.329 110.2 328.329 103.6ZM280.429 140.8C281.329 143.1 287.029 146.6 289.229 146.4C286.329 144.6 283.429 142.7 280.429 140.8Z" fill="black"/>
<path d="M213.029 35.3C214.329 34.7 215.229 35 216.229 36.4C217.629 38.3 219.629 39.7 221.429 41.2C224.429 43.8 227.629 46.1 230.429 48.9C234.329 52.8 237.929 56.9 241.729 60.9C244.829 64.1 248.029 67.2 251.129 70.5C253.429 72.9 255.529 75.5 257.729 78.1C258.529 79 258.729 80.1 257.929 81C257.229 81.8 256.329 81.9 255.029 81.7C249.629 80.8 246.429 76.7 242.929 73.4C237.429 68.2 232.429 62.5 227.229 57.1C222.529 52.2 217.829 47.4 213.229 42.5C211.829 41.1 210.429 39.6 209.229 38.1C208.729 37.5 208.229 36.6 208.229 35.9C208.329 34.6 209.329 33.5 210.629 33.5C211.329 33.5 212.129 34.6 213.029 35.3Z" fill="black"/>
<path d="M407.729 182.1C401.729 180.8 397.129 176.9 392.029 173.9C387.329 171.1 382.629 168.3 378.029 165.3C373.929 162.6 369.829 159.8 365.729 157C361.729 154.3 357.729 151.7 353.529 149.2C350.329 147.3 347.029 145.5 343.629 143.9C342.229 143.2 341.129 142.6 341.529 140.9C341.729 139.8 343.929 139.2 345.429 140C348.429 141.6 351.329 143.2 354.229 145C357.429 146.9 360.529 148.9 363.629 151C366.229 152.7 368.629 154.6 371.129 156.4C373.629 158.2 376.229 159.9 378.729 161.6C383.029 164.5 387.329 167.3 391.729 170.1C395.829 172.7 400.029 175.2 404.129 177.7C405.229 178.4 406.329 179 407.529 179.7C409.129 180.4 409.029 181.2 407.729 182.1Z" fill="black"/>
<path d="M414.929 37.5C415.829 39.2 415.629 40.4 414.029 41.2C411.929 42.3 409.729 43.2 407.629 44.4C405.229 45.7 403.129 47.4 400.729 48.7C396.729 50.9 392.629 52.8 388.629 55C382.929 58.1 377.429 61.5 371.729 64.4C365.229 67.7 358.529 70.6 352.029 73.7C350.129 74.6 348.229 75.6 346.329 76.5C345.429 77 344.329 77.4 343.629 76.3C343.129 75.6 342.829 74.4 343.029 73.8C343.329 73.1 344.429 72.5 345.229 72.1C347.929 71 350.829 70.3 353.529 69.1C359.329 66.4 364.929 63.4 370.729 60.6C376.829 57.6 382.829 54.6 388.929 51.6C393.829 49.1 398.629 46.5 403.429 44C406.329 42.5 409.329 41 412.229 39.4C413.129 38.8 413.929 38.2 414.929 37.5Z" fill="black"/>
<path d="M372.229 10.2C373.529 14.9 370.629 17.8 367.829 20.6C363.629 24.7 359.329 28.7 355.129 32.8C349.929 37.9 344.929 43 339.729 48.1C335.229 52.5 330.729 56.8 326.229 61.2C325.429 62 324.629 63 323.829 63.8C323.629 64 323.429 64.2 323.229 64.4C322.229 65.4 321.029 66.1 320.029 64.9C319.629 64.4 320.129 62.6 320.729 62C323.929 58.8 327.429 55.9 330.629 52.7C333.029 50.3 335.329 47.7 337.629 45.2C338.829 44 340.229 43 341.429 41.8C343.029 40.2 344.329 38.4 345.929 36.8C347.529 35.2 349.229 33.7 350.929 32.1C354.929 28.2 358.929 24.3 362.829 20.4C364.529 18.7 366.129 17 367.629 15.2C368.229 14.4 368.629 13.3 368.829 12.3C369.329 10.4 371.029 10.7 372.229 10.2Z" fill="black"/>
<path d="M205.33 168.8C208.33 166.4 211.03 164.2 213.83 162C219.73 157.3 226.73 155 233.43 151.9C238.63 149.5 243.73 147 248.83 144.4C250.43 143.5 251.73 142 253.13 140.7C254.13 139.8 255.03 139 256.43 139.8C257.63 140.5 257.73 142.3 256.63 143.4C253.43 146.5 249.73 149.1 245.63 150.9C237.73 154.5 229.63 157.8 221.83 161.7C217.73 163.7 213.93 166.5 210.03 169C208.73 169.9 207.33 170.4 205.33 168.8Z" fill="black"/>
<path d="M267.529 0C267.929 0.7 268.429 1.4 268.729 2.2C271.529 8 274.629 13.7 277.029 19.6C279.329 25.3 281.329 31.1 283.029 37C284.129 40.8 284.429 44.8 284.929 48.8C285.129 50.2 285.229 51.7 284.829 53C284.629 54 283.629 55 282.729 55.4C281.729 55.9 281.029 54.9 281.129 53.9C281.329 50.2 280.929 46.7 280.029 43.1C279.029 39.2 278.429 35.1 277.029 31.3C274.429 24.1 271.329 17.1 268.429 10.1C268.029 9 267.229 8 267.029 6.9C266.729 5.4 266.829 3.9 266.829 2.4C266.829 1.7 267.029 1 267.029 0.3C267.229 0.1 267.329 0.1 267.529 0Z" fill="black"/>
<path d="M432.129 124.4C429.029 122.9 426.129 121.4 423.229 120C420.429 118.6 417.529 117.3 414.629 115.9C410.429 114 406.329 112 402.129 110.3C398.629 108.9 395.029 107.8 391.529 106.6C388.929 105.8 386.329 105.2 383.829 104.4C383.429 104.3 383.029 103.3 383.129 103C383.529 102.3 384.429 101.1 384.829 101.2C388.029 102 391.229 103.1 394.429 104C397.129 104.8 400.029 105.3 402.729 106.2C404.829 106.9 406.929 107.9 408.929 109C411.529 110.3 413.929 111.9 416.529 113.3C417.629 113.9 418.829 114.3 420.029 114.8C421.329 115.3 422.629 116.5 424.229 114.9C424.629 114.5 426.129 115 426.929 115.5C428.929 116.9 430.729 118.5 432.529 120.1C432.829 120.4 433.029 121 432.929 121.4C432.729 122.2 432.429 123.2 432.129 124.4Z" fill="black"/>
<path d="M265.93 218.4C264.03 217.1 263.83 215.3 264.23 213.7C265.73 208 268.43 202.9 272.53 198.5C274.93 195.9 277.23 193.2 279.63 190.6C281.13 189 282.93 187.5 284.53 186C287.23 183.5 289.93 181 291.63 177.6C292.33 176.2 293.53 175.9 294.63 176.3C296.03 176.8 295.73 178.1 295.23 179.2C293.23 183.7 289.53 186.8 286.13 190.2C280.93 195.4 274.83 199.8 271.33 206.6C269.63 209.8 268.23 213.2 266.63 216.5C266.63 217.2 266.33 217.8 265.93 218.4Z" fill="black"/>
<path d="M368.43 217.5C366.33 218 365.13 216.9 365.63 214.8C364.23 216.1 363.73 215.2 362.83 214.2C360.53 211.5 358.03 209.1 355.53 206.5C353.13 204 350.83 201.4 348.33 199C343.73 194.7 339.03 190.5 334.43 186.3C332.13 184.2 329.83 182.1 327.63 180C326.83 179.2 326.83 177.3 327.73 176.5C328.53 175.7 330.43 176 331.23 176.9C333.03 179 334.73 181.2 336.73 183.1C340.73 187 344.83 190.7 348.83 194.6C351.63 197.3 354.23 200.1 356.83 203C359.13 205.5 361.43 208.1 363.53 210.8C365.23 212.9 366.73 215.1 368.43 217.5Z" fill="black"/>
<path d="M237.73 119.6C235.23 119.9 232.73 120.2 230.23 120.4C225.23 120.7 220.23 120.7 215.23 121.1C209.13 121.6 203.13 122.2 197.03 122.8C196.13 122.9 195.23 123.4 194.33 123.5C193.83 123.6 193.03 123.4 192.73 123.1C192.53 122.7 192.63 121.8 192.93 121.5C194.03 120.6 195.33 119.4 196.63 119.2C203.43 118.3 210.23 117.6 217.03 117.1C222.83 116.6 228.73 116.4 234.53 115.9C236.33 115.8 238.03 115.2 239.73 114.9C241.13 114.6 242.43 114.6 242.83 116.4C243.13 118 241.93 119.3 240.13 119.5C239.33 119.6 238.53 119.7 237.63 119.7C237.73 119.7 237.73 119.6 237.73 119.6Z" fill="black"/>
<path d="M396.83 134.1C394.63 134.6 392.63 133.6 390.73 132.7C386.23 130.6 381.93 128.2 377.53 125.9C372.729 123.4 367.73 121.6 362.33 120.6C359.73 120.1 357.13 119.6 354.43 119.9C353.03 120.1 352.03 119.3 351.83 118.1C351.63 116.6 352.83 115.7 354.23 115.7C356.53 115.7 358.93 115.8 361.23 116.2C364.83 116.9 368.43 117.9 372.03 119C377.03 120.5 381.33 123.5 385.63 126.3C386.33 126.8 387.23 127.2 387.93 127.7C390.93 129.6 393.93 131.6 397.03 133.5C397.03 133.8 396.93 134 396.83 134.1Z" fill="black"/>
<path d="M319.529 4.29999C319.829 4.19999 320.529 3.99999 321.329 3.79999C322.729 5.39999 322.729 7.19999 322.529 9.09999C322.029 14 320.329 18.6 318.329 23C315.929 28.1 313.729 33.2 311.329 38.2C310.529 39.9 309.329 41.5 308.329 43.2C307.729 44.2 306.729 44.1 306.029 43.6C305.629 43.3 305.429 42.2 305.729 41.7C307.429 38.2 309.429 34.8 311.029 31.2C313.429 26 315.729 20.8 317.629 15.4C318.629 11.9 318.829 8.19999 319.529 4.29999Z" fill="black"/>
</g>
<g clip-path="url(#clip1)">
<path d="M0.629395 654.586C7.08721 643.759 13.3551 633.313 19.623 623.056C24.7512 614.699 30.0695 606.342 35.3877 597.985C43.9348 584.689 52.6718 571.774 60.8391 558.478C64.4478 552.78 66.917 546.322 70.1459 540.434C75.0843 531.317 80.0226 522.2 85.1509 513.273C89.3294 505.676 93.508 498.269 97.6866 490.861C103.385 480.604 109.083 470.158 114.211 459.712C117.44 453.064 119.719 446.226 122.568 439.388C123.328 437.489 123.708 435.21 124.847 433.69C127.127 430.461 129.216 431.031 131.495 434.07C133.964 437.109 137.003 439.768 140.232 442.048C144.601 445.276 149.919 447.366 153.148 452.304C153.908 453.444 154.288 454.583 154.857 455.913C157.326 461.801 160.555 467.119 165.114 471.488C173.471 479.465 182.398 487.442 190.565 496.179C197.023 503.017 202.341 510.994 208.609 518.212C214.497 525.049 220.575 531.507 226.843 537.965C231.212 542.524 235.96 546.892 240.518 551.451C245.077 556.009 249.635 560.757 254.384 565.316C255.523 566.455 257.043 567.595 258.372 568.545C266.73 558.858 275.467 549.171 283.824 539.105C289.332 532.457 294.46 525.239 299.778 518.402C304.527 512.324 309.465 506.436 314.024 500.168C318.962 493.33 323.71 486.113 328.459 479.085C330.928 475.666 333.587 472.247 336.056 468.828C337.766 466.549 339.665 464.27 341.374 461.991C343.843 458.762 347.262 459.142 348.402 462.94C350.111 468.069 352.011 473.387 355.809 477.376C358.089 479.655 360.558 481.744 363.027 484.023C367.965 488.772 372.714 493.71 377.652 498.269C381.071 501.497 384.87 504.536 388.478 507.765C392.847 501.307 396.836 494.85 401.394 488.582C406.712 481.364 412.22 474.147 418.108 467.309C429.125 454.773 439.571 441.668 448.308 427.422C454.196 417.546 460.654 408.049 467.302 398.552C472.81 390.955 479.268 383.927 485.156 376.52C486.485 374.81 488.195 374.81 489.714 375.57C491.993 376.71 493.893 378.229 495.982 379.559C496.552 379.938 497.312 380.508 497.881 380.888C507.188 386.776 516.875 392.094 525.802 398.552C533.969 404.44 540.997 411.658 548.784 418.306C555.242 423.814 561.89 429.322 568.538 434.64C579.364 443.187 590.76 451.354 601.396 460.281C607.854 465.789 613.173 472.817 619.44 478.515C624.759 483.643 630.647 488.202 636.535 492.76C644.702 498.838 653.249 504.916 661.606 510.614C671.293 517.262 681.36 523.34 691.046 529.988C696.744 533.976 702.442 538.155 707.761 542.714C711.179 545.563 714.029 548.981 717.447 552.59C716.878 553.35 716.308 555.059 715.168 555.439C713.269 556.389 711.559 555.439 710.04 553.73C702.822 545.373 694.655 538.155 685.348 532.077C676.421 526.189 667.304 520.491 658.567 514.413C652.299 510.045 646.411 505.296 640.333 500.738C635.205 496.939 629.507 493.9 624.759 489.721C616.591 482.504 608.424 474.716 601.017 466.739C594.749 460.091 587.911 454.393 580.314 449.265C574.426 445.276 568.348 441.098 563.029 436.539C551.253 426.473 539.857 416.026 527.891 406.15C521.434 400.831 514.216 396.653 507.378 392.094C502.44 388.865 497.502 385.826 492.753 382.598C490.284 380.888 488.385 380.318 486.295 383.167C478.508 393.234 470.341 403.111 462.743 413.367C458.375 419.445 455.336 426.473 451.157 432.551C443.75 442.807 435.962 452.874 428.175 462.94C420.578 472.817 412.79 482.504 405.383 492.381C400.824 498.458 396.836 504.916 392.657 511.184C399.495 517.832 405.953 524.1 412.41 530.368C416.399 534.166 420.768 537.775 424.946 541.574C428.745 544.993 432.733 548.412 436.532 552.02C441.66 556.579 446.789 561.137 451.917 565.696C457.235 570.254 462.553 574.623 467.682 579.371C473.76 584.879 479.838 590.577 485.916 596.275C492.753 602.733 499.781 609.001 506.429 615.649C510.987 620.207 515.166 625.336 519.534 630.274C522.003 632.933 524.472 635.592 526.562 638.631C527.132 639.581 526.752 641.48 526.182 642.81C525.232 645.469 522.953 643.759 521.244 643.759C520.674 643.759 519.914 641.86 519.344 640.91C518.774 639.771 518.584 638.441 517.825 637.491C509.088 628.375 500.541 619.068 491.614 610.141C483.066 601.594 474.14 593.236 465.213 584.879C459.135 579.181 452.677 574.053 446.599 568.545C434.443 557.908 422.287 547.272 410.321 536.446C401.014 527.899 391.707 519.161 382.59 510.424C376.323 504.346 370.245 498.269 363.977 492.191C361.128 489.531 357.709 487.252 355.05 484.403C350.871 479.845 347.072 474.906 342.704 469.588C339.095 475.096 335.106 481.174 331.118 487.062C326.939 493.14 322.571 499.218 318.202 505.106C310.985 514.793 303.767 524.29 296.17 533.597C287.812 543.853 279.075 553.73 270.528 563.796C267.869 566.835 265.59 570.064 262.931 573.673C267.869 578.991 272.618 584.309 277.556 589.628C282.494 594.946 287.622 600.264 292.561 605.582C294.08 607.292 293.7 608.811 291.991 610.331C290.092 611.85 287.053 611.66 285.913 610.141C281.924 605.202 277.936 600.074 273.947 595.326C269.389 590.008 264.45 584.689 259.702 579.371C258.942 578.421 257.423 578.042 256.093 577.662C252.864 576.902 252.104 575.762 253.434 572.913C248.876 568.355 244.507 563.796 240.139 559.238C229.692 548.791 219.056 538.725 208.989 528.088C204.431 523.15 200.822 517.262 196.833 511.754C190.755 503.207 183.158 496.179 175.56 488.962C167.583 481.364 159.226 474.147 153.148 465.03C151.438 462.561 150.299 459.332 149.159 456.483C147.26 452.114 144.031 449.265 140.042 446.986C135.484 445.086 131.685 442.427 127.886 439.958C126.557 443.377 125.417 446.986 123.708 450.405C121.239 455.913 118.58 461.421 115.92 466.739C112.692 473.197 109.273 479.845 105.664 486.113C102.055 492.57 98.0665 498.648 94.4577 505.106C90.2791 512.324 86.4804 519.541 82.4917 526.759C78.693 533.787 74.8943 541.004 71.0956 548.032C66.5371 556.389 62.1686 564.746 57.2303 572.723C53.0517 579.561 48.1134 585.829 43.7448 592.667C37.8568 601.973 31.9688 611.47 26.2707 620.777C23.4217 625.526 20.5727 630.274 17.7236 634.832C14.1148 640.72 10.3161 646.608 6.51741 652.496C4.99792 654.776 3.2885 655.725 0.629395 654.586Z" fill="black"/>
<path d="M283.255 627.994C285.914 630.274 288.953 631.983 291.042 634.642C295.791 640.72 300.159 646.988 304.718 653.256C305.097 653.636 304.718 654.585 304.718 656.295C302.628 655.155 301.109 654.395 299.779 653.446C298.26 652.306 297.12 650.977 295.791 649.647C295.601 649.837 295.221 650.027 295.031 650.217C296.93 653.256 299.02 656.105 301.109 659.334C297.69 661.803 299.969 663.892 301.299 665.981C302.059 666.931 302.628 668.071 303.578 668.831C306.237 671.11 305.667 672.819 302.438 674.149C303.198 675.288 304.338 676.238 304.528 677.378C304.908 678.897 305.667 680.986 305.097 681.746C303.008 684.215 304.718 685.545 305.667 687.444C306.237 688.394 306.237 689.723 306.427 690.863C305.287 690.863 303.578 691.243 303.008 690.673C299.209 687.254 295.791 683.456 291.422 679.087C292.182 681.746 292.372 684.215 293.511 685.545C296.74 689.344 300.349 692.762 303.768 696.181C304.718 697.131 305.857 697.701 306.427 698.65C307.187 699.79 307.377 701.12 307.757 702.449C306.617 702.449 305.097 703.209 304.528 702.639C301.299 700.36 298.45 697.891 295.411 695.422C295.031 695.042 294.651 694.662 294.271 694.282C294.271 694.282 294.081 694.282 293.321 694.282C293.511 698.65 293.511 703.209 294.081 707.577C295.031 716.125 296.36 724.672 297.31 733.219C297.5 734.738 297.12 736.448 296.36 737.967C296.17 738.537 294.081 738.727 293.321 738.157C292.182 737.397 290.852 736.068 290.662 734.928C289.903 729.8 289.523 724.672 289.143 719.543C288.573 710.806 288.003 702.069 287.433 692.952C286.864 693.902 286.104 694.662 285.724 695.611C284.964 697.321 284.584 699.03 283.825 700.74C282.685 703.399 280.596 704.349 277.557 703.209C279.076 698.081 280.596 692.952 282.305 686.874C279.646 688.964 277.747 690.293 275.847 691.813C274.898 691.053 274.138 690.483 273.188 689.913C275.088 685.735 276.797 681.746 278.506 677.757C278.127 677.568 277.747 677.188 277.367 676.998C274.898 681.746 271.859 685.735 265.401 686.874C269.959 678.327 274.328 670.35 278.506 662.373C278.317 662.183 278.127 661.803 277.937 661.613C277.177 662.183 276.227 662.563 275.847 663.322C274.708 665.032 273.948 666.931 272.618 668.451C271.669 669.59 270.339 670.54 269.2 670.92C268.25 671.11 266.92 670.35 265.971 669.97C266.351 669.02 266.73 668.071 267.11 667.311C269.39 663.512 271.669 659.524 273.948 655.725C274.898 654.016 275.847 652.306 277.367 651.166C278.506 650.217 280.406 650.217 282.495 649.457C281.925 644.519 281.545 638.821 280.786 633.123C280.596 630.084 280.596 628.564 283.255 627.994ZM284.394 665.792C284.015 665.792 283.635 665.792 283.065 665.792C282.685 667.311 282.305 669.02 281.735 671.3C283.065 670.73 284.394 670.54 284.584 670.16C284.774 668.831 284.584 667.311 284.394 665.792Z" fill="black"/>
<path d="M620.771 611.47C617.542 614.889 615.263 617.738 612.794 620.207C610.135 622.676 606.906 621.727 605.196 617.928C610.704 617.358 611.654 612.23 614.503 609.001C614.313 608.811 614.123 608.431 613.933 608.241C613.174 609.001 612.414 609.571 611.844 610.33C610.135 612.04 608.615 613.939 606.526 615.269C605.766 615.839 603.867 615.079 602.727 615.079C603.107 613.939 603.107 612.42 603.677 611.47C604.247 610.71 605.576 610.33 606.716 609.951C606.336 609.381 605.766 608.811 605.386 608.431C604.436 608.811 603.297 609.571 602.347 609.571C601.208 609.571 600.068 609.191 598.928 608.811C599.308 608.051 599.498 607.102 600.068 606.342C601.018 605.012 602.347 603.683 603.107 601.973C602.537 602.163 601.967 602.353 601.397 602.353C600.448 602.543 599.498 602.353 598.548 602.543C598.548 601.593 598.359 600.264 598.738 599.504C600.828 596.085 603.297 592.856 605.956 589.058C603.297 589.817 601.208 590.577 598.928 591.147C598.738 590.197 598.359 589.438 598.738 589.248C603.677 582.03 608.615 574.623 613.933 567.595C615.263 565.885 617.352 565.126 618.682 563.036C620.011 560.757 624.38 562.467 625.899 564.936C629.888 571.394 633.877 577.851 637.865 584.309C638.625 585.449 638.815 586.968 639.005 588.488C639.005 588.868 638.245 589.817 637.865 590.007C637.295 590.007 636.346 589.627 635.966 589.248C632.737 585.259 629.508 581.27 626.279 577.092C625.139 575.572 624.19 573.863 623.05 571.963C621.341 574.623 621.911 577.092 624 578.611C625.899 580.131 627.609 582.22 629.318 584.119C632.167 587.348 635.016 590.387 637.675 593.806C639.195 595.705 640.524 597.605 641.664 599.694C642.044 600.644 641.854 602.163 641.284 603.113C640.904 603.683 639.195 604.063 638.435 603.683C636.916 602.923 635.396 601.783 634.066 600.644C631.028 597.985 628.178 595.326 624.95 592.477C623.62 594.566 623.81 595.895 625.709 597.035C627.039 597.795 628.368 598.744 629.698 599.884C635.206 604.632 640.524 609.571 645.843 614.509C644.513 616.408 643.943 617.358 643.183 618.308C635.966 616.219 632.167 609.761 626.279 605.582C626.279 608.431 626.089 611.09 626.279 613.749C627.419 624.576 628.558 635.402 629.698 646.228C629.888 647.558 629.888 649.267 629.318 650.597C628.748 651.737 627.229 652.496 626.279 653.446C625.329 652.116 622.29 652.306 623.62 649.267C624.19 648.128 624.19 646.608 624 645.279C623.05 637.491 622.101 629.704 621.341 621.727C620.581 618.498 620.771 615.269 620.771 611.47Z" fill="black"/>
<path d="M173.661 669.021C171.951 670.54 170.242 671.87 168.532 673.389C166.443 675.099 164.544 676.998 162.264 678.328C160.175 679.657 158.276 679.467 156.946 676.808C164.924 669.401 173.281 662.183 178.789 652.496C178.599 652.306 178.219 651.926 178.029 651.737C176.51 653.446 174.99 655.345 173.281 657.055C170.242 660.094 167.963 664.462 162.834 664.842C161.885 664.842 160.935 664.272 159.985 663.892C160.365 663.133 160.745 662.183 161.315 661.423C166.443 655.725 171.951 650.217 176.7 644.139C178.029 642.43 177.649 639.011 177.839 636.542C177.459 636.352 177.079 636.352 176.89 636.162C175.75 637.681 174.61 639.201 173.281 640.72C170.432 643.949 167.773 647.178 164.734 650.217C163.974 650.977 162.264 651.357 160.935 651.357C157.896 651.167 157.516 649.837 159.415 647.368C161.885 644.139 164.734 641.1 167.203 637.681C169.292 634.832 171.381 631.793 173.281 628.754C175.18 625.525 178.219 625.335 180.688 628.185C181.638 629.324 182.967 630.464 184.107 631.413C189.615 636.542 195.313 641.67 200.632 646.988C201.391 647.748 200.632 649.837 200.632 651.167C199.302 650.977 197.593 651.167 196.643 650.407C192.654 646.798 188.856 643 185.057 639.201C184.867 639.011 184.677 639.011 184.487 639.011C183.537 642.05 184.867 645.659 187.146 647.368C190.755 650.027 194.174 652.876 197.403 655.915C198.162 656.675 197.782 658.574 197.972 659.904C197.593 660.284 197.023 660.474 196.643 660.853C193.034 658.954 189.425 657.055 185.627 654.965C185.627 656.295 185.817 658.004 186.006 659.334C191.135 662.183 197.403 662.563 201.011 668.261C195.503 672.06 192.084 666.362 187.336 666.172C187.716 669.97 187.906 673.959 188.476 677.758C189.045 681.746 189.615 685.735 190.185 689.724C190.945 695.232 191.515 700.74 192.084 706.248C192.274 708.527 193.414 711.376 189.995 711.946C188.856 712.136 186.196 711.186 186.006 710.237C184.867 705.678 184.297 700.93 183.727 696.182C182.968 688.584 182.398 680.987 181.638 673.389C181.638 673.009 181.068 672.819 180.498 672.06C179.549 673.579 178.599 674.909 177.649 676.238C175.18 679.467 171.951 681.556 167.963 682.126C167.203 682.126 166.253 681.556 165.303 681.177C165.873 680.417 166.443 679.657 167.013 678.897C168.722 676.808 170.622 674.909 172.331 672.819C173.281 671.68 174.041 670.54 174.8 669.401C174.23 669.591 174.041 669.401 173.661 669.021ZM180.688 667.121C180.498 665.602 180.498 664.272 180.498 662.943C180.308 662.943 179.929 662.753 179.739 662.753C178.789 663.892 177.839 665.222 176.51 666.931C178.219 666.931 179.169 666.931 180.688 667.121Z" fill="black"/>
<path d="M482.497 683.455C484.586 686.874 486.676 690.673 489.145 694.282C490.854 696.751 492.944 699.03 494.843 701.309C495.413 702.069 496.552 702.639 496.742 703.589C497.122 704.728 496.932 706.058 496.932 707.387C495.793 707.387 494.653 707.387 493.513 707.387C493.133 707.387 492.564 707.007 492.184 706.818C491.994 707.007 491.804 707.387 491.614 707.577C492.944 708.717 494.273 710.046 495.793 710.616C500.161 712.706 500.351 713.465 496.362 717.454C496.932 717.644 497.692 717.834 497.882 718.214C498.262 719.543 499.211 721.443 498.642 722.202C497.312 723.912 495.223 723.722 493.323 722.202C491.614 720.873 489.715 719.543 487.056 717.644C487.056 719.733 487.056 720.873 487.056 722.012C487.435 727.141 487.815 732.459 488.005 737.587C488.385 743.855 488.575 749.933 488.955 756.201C488.955 757.91 489.715 760 487.245 760.19C484.966 760.379 483.637 758.86 483.637 756.391C483.257 746.514 483.067 736.827 482.497 726.951C482.307 724.672 481.927 722.582 481.547 719.353C480.218 720.873 479.268 721.633 478.508 722.582C475.849 726.001 473.19 729.61 470.531 733.029C469.012 734.928 467.302 734.168 465.783 733.219C463.503 731.889 463.693 730.749 465.783 729.23C467.302 728.09 468.632 726.761 470.151 725.431C469.961 725.051 469.771 724.861 469.581 724.482C467.872 725.431 465.973 726.191 464.263 727.141C461.984 728.66 460.844 726.951 459.895 725.431C458.945 723.532 460.654 723.342 461.984 722.582C463.883 721.633 465.213 719.733 467.302 717.644C464.263 717.644 462.364 717.644 459.895 717.644C460.654 716.314 461.034 715.365 461.414 714.605C461.984 713.085 463.314 711.566 460.654 710.426C460.275 710.236 459.895 707.957 460.464 707.387C465.213 702.449 468.632 696.561 471.101 690.293C473 684.785 476.799 682.506 482.497 683.455ZM477.939 689.723C476.609 692.192 475.469 694.282 474.33 696.371C477.749 695.611 479.458 693.712 477.939 689.723Z" fill="black"/>
<path d="M380.502 664.652C380.122 665.222 379.742 665.602 379.742 665.982C380.692 671.3 382.022 676.808 382.781 682.126C383.161 684.025 382.781 685.925 382.592 687.824C382.592 688.204 380.122 688.584 379.932 688.394C378.793 686.495 377.273 684.405 376.893 682.316C375.944 676.808 375.374 671.3 374.614 665.792C374.614 665.602 374.234 665.412 373.854 665.032C372.525 666.551 371.005 667.691 370.056 669.4C368.726 671.87 366.637 672.819 364.358 673.009C363.218 673.199 361.888 672.249 360.939 671.3C360.749 671.11 361.509 669.21 362.268 668.451C363.598 667.121 364.927 665.982 366.637 664.652C364.358 664.082 360.559 660.663 359.229 658.764C357.9 656.675 358.28 655.345 360.179 653.826C361.509 652.686 362.648 651.356 363.408 649.267C362.458 649.647 361.319 650.217 360.179 650.787C358.09 648.697 357.52 646.988 360.369 644.519C363.788 641.48 366.827 638.251 369.486 634.642C370.626 633.123 370.246 630.463 370.815 628.374C371.195 627.235 372.145 626.095 372.715 625.145C373.854 626.095 375.374 626.665 375.944 627.804C377.843 631.223 379.173 634.832 381.072 638.251C382.971 641.48 385.251 644.709 387.53 647.938C386.96 648.697 386.2 649.647 385.441 650.597C387.72 652.116 389.999 653.826 388.29 657.244C388.1 657.434 389.619 658.384 390.189 659.334C390.949 660.473 391.518 661.993 392.468 663.512C389.619 664.652 389.049 666.171 391.329 668.451C391.898 669.02 391.708 670.54 392.088 671.49C390.949 671.49 389.429 672.059 388.669 671.49C386.39 669.78 384.301 667.691 382.212 665.602C381.262 665.602 381.072 665.222 380.502 664.652Z" fill="black"/>
<path d="M125.038 496.179C128.647 499.788 127.887 502.827 126.367 506.436C122.759 514.793 119.53 523.34 116.111 531.697C114.212 536.256 112.312 541.004 110.223 545.562C109.653 546.702 108.134 547.842 106.994 548.032C106.234 548.221 104.145 546.512 104.335 545.942C105.095 543.093 106.234 540.434 107.184 537.775C107.944 535.876 108.513 533.786 109.273 531.887C112.882 522.77 116.491 513.653 120.1 504.346C120.479 503.207 120.29 501.687 121.049 500.738C122.189 499.218 123.708 497.699 125.038 496.179Z" fill="black"/>
<path d="M147.259 560.567C146.5 564.746 145.36 569.874 144.41 575.002C143.461 580.13 142.511 585.069 141.182 590.197C140.802 592.096 139.852 594.186 138.712 595.895C138.332 596.465 136.433 596.655 135.673 596.275C134.914 595.895 134.534 594.186 134.724 593.426C136.243 585.638 137.953 577.661 139.472 569.874C140.422 565.315 140.802 560.757 141.751 556.198C141.941 555.059 143.271 554.299 144.031 553.349C144.98 554.299 146.31 555.059 146.88 556.388C147.449 557.148 147.259 558.478 147.259 560.567Z" fill="black"/>
<path d="M481.927 511.563C481.357 504.916 484.396 499.218 486.295 493.33C487.625 489.151 488.005 484.593 488.955 480.224C489.524 477.375 490.284 474.526 493.323 473.576C494.273 473.196 495.982 473.766 496.742 474.526C497.312 475.286 497.502 476.995 497.122 478.135C495.792 482.313 494.463 486.492 492.943 490.481C491.804 493.709 490.474 496.938 489.334 500.357C488.385 503.586 487.625 507.005 486.675 510.234C486.295 511.184 485.916 512.323 485.156 513.083C484.776 513.463 483.636 513.843 483.067 513.653C482.497 513.273 482.307 512.323 481.927 511.563Z" fill="black"/>
<path d="M184.867 563.226C179.549 555.819 174.42 548.411 169.292 541.194C168.342 539.864 166.823 539.104 166.063 537.775C165.303 536.825 164.734 535.306 164.924 534.356C165.113 533.596 166.823 533.026 167.963 533.026C171.761 532.836 173.281 536.445 174.99 538.724C179.359 544.612 183.157 551.07 187.146 557.338C188.476 559.617 188.476 561.897 184.867 563.226Z" fill="black"/>
<path d="M608.424 507.765C609.943 509.284 611.463 510.614 612.792 511.943C617.351 516.882 622.099 521.63 626.658 526.569C628.177 528.278 630.077 529.607 631.596 531.317C632.166 532.077 631.976 533.216 632.166 534.356C631.216 534.356 629.887 534.926 629.317 534.546C619.82 529.228 612.413 521.63 605.385 513.463C604.815 512.893 604.815 511.184 605.385 510.234C605.575 509.094 606.904 508.715 608.424 507.765Z" fill="black"/>
<path d="M517.445 517.452C518.965 518.211 521.244 518.401 520.104 521.63C518.775 525.239 518.205 529.228 517.445 533.026C516.685 536.635 515.926 540.244 515.166 543.853C514.786 545.372 514.406 546.892 513.836 548.221C513.456 548.791 512.317 549.361 511.557 549.171C510.987 548.981 510.038 547.841 510.038 547.272C510.417 542.713 510.987 538.155 511.747 533.596C512.317 529.798 512.887 525.809 513.266 522.01C513.646 518.591 514.976 517.072 517.445 517.452Z" fill="black"/>
<path d="M341.754 535.496C341.185 536.635 340.615 537.775 340.045 538.724C336.056 545.752 331.878 552.59 327.889 559.617C326.749 561.517 325.04 562.276 323.521 560.947C321.811 559.617 322.951 558.288 323.9 556.578C327.319 550.69 330.358 544.612 333.397 538.534C334.157 537.015 334.727 535.306 335.676 533.976C336.436 533.026 337.956 532.267 339.095 532.457C340.235 532.646 341.375 533.786 342.514 534.546C342.134 534.736 341.944 535.116 341.754 535.496Z" fill="black"/>
<path d="M276.416 630.843C279.645 633.313 280.595 637.681 278.315 641.67C274.707 647.938 271.858 655.345 263.69 657.055C263.311 656.675 262.741 656.485 262.361 656.105C267.109 647.748 271.858 639.391 276.416 630.843Z" fill="black"/>
<path d="M342.894 587.538C344.603 579.371 346.313 571.393 348.022 563.226C348.402 561.517 349.542 559.807 351.821 560.567C353.91 561.327 354.48 563.036 353.91 564.936C352.011 572.533 350.302 579.941 348.212 587.348C348.022 588.108 345.553 588.298 344.224 588.678C343.654 588.298 343.274 587.918 342.894 587.538Z" fill="black"/>
<path d="M390.378 588.298C392.847 585.259 395.316 584.499 397.595 586.778C402.724 591.907 407.662 597.225 412.411 602.543C412.98 603.113 412.6 604.632 412.79 605.772C411.841 605.582 410.511 605.582 409.751 605.012C403.294 599.504 396.836 593.996 390.378 588.298Z" fill="black"/>
<path d="M543.086 465.029C546.125 464.27 548.024 464.65 549.164 467.878C551.063 473.007 553.912 477.945 557.521 482.314C558.471 483.453 558.471 485.353 559.04 487.252C551.443 486.302 542.136 472.437 543.086 465.029Z" fill="black"/>
<path d="M384.68 558.858C382.781 557.528 380.692 556.198 379.362 554.489C376.133 550.69 373.284 546.702 370.435 542.713C369.106 541.004 368.916 538.914 370.625 537.965C371.765 537.395 374.234 538.344 375.184 539.484C378.792 544.232 381.831 549.171 385.06 554.109C385.63 555.059 385.63 556.578 385.82 557.908C385.44 558.098 385.06 558.478 384.68 558.858Z" fill="black"/>
<path d="M582.212 548.791C580.313 550.88 578.604 550.69 577.274 548.791C574.045 543.663 571.006 538.534 568.347 533.216C567.967 532.456 568.917 530.367 569.867 529.797C570.436 529.417 572.146 530.177 573.285 530.557C573.855 530.747 574.045 531.697 574.425 532.267C576.894 537.585 579.553 543.093 582.212 548.791Z" fill="black"/>
</g>
<defs>
<clipPath id="clip0">
<rect width="240.2" height="218.4" fill="white" transform="translate(192.629)"/>
</clipPath>
<clipPath id="clip1">
<rect width="716.628" height="385" fill="white" transform="translate(0.629395 375)"/>
</clipPath>
</defs>
</svg>
