<svg width="497" height="187" viewBox="0 0 497 187" fill="none" xmlns="http://www.w3.org/2000/svg">
<path d="M396.7 63.8977C398.6 64.4977 400.5 65.1977 402.4 65.7977C405.7 66.9977 408.9 68.1977 412.2 69.2977C415.6 70.4977 419 71.6977 422.5 72.7977C425.4 73.7977 428.4 74.6977 431.3 75.6977C433.5 76.3977 435.7 77.1977 437.9 77.8977C442.5 79.4977 447.1 80.8977 451.7 82.5977C458.3 84.9977 464.8 87.4977 471.4 89.8977C475.6 91.3977 479.8 92.8977 483.9 94.4977C486.6 95.4977 489.3 96.6977 492 97.7977C492.6 97.9977 493.1 98.2977 493.7 98.3977C495.2 98.7977 495.8 99.8977 496.3 101.098C496.4 101.398 496.1 101.998 495.9 102.198C494.7 103.298 493.9 103.098 492.4 102.398C490.1 101.198 487.8 100.298 485.4 99.3977C480.5 97.4977 475.5 95.7977 470.5 93.8977C465.5 91.9977 460.6 89.8977 455.6 88.0977C451.8 86.6977 447.9 85.3977 444 84.0977C436.5 81.5977 429.1 79.0977 421.6 76.5977C418 75.3977 414.3 74.2977 410.7 73.0977C405.9 71.3977 401.2 69.5977 396.5 67.8977C394 66.9977 391.5 66.0977 389.1 65.0977C386.8 64.1977 384.4 63.1977 382.1 62.1977C378.4 60.5977 374.7 58.8977 371 57.3977C364.3 54.5977 357.7 51.7977 350.9 49.1977C347.9 47.9977 344.6 47.4977 341.5 46.5977C338.5 45.6977 335.5 44.7977 332.5 43.8977C327.6 42.3977 322.7 40.9977 317.8 39.3977C314 38.0977 310.2 36.5977 306.4 35.3977C301 33.5977 296.1 30.6977 291.1 28.1977C289.1 27.1977 286.9 26.5977 284.9 25.7977C282.7 24.8977 280.5 23.9977 278.5 22.8977C275.4 21.0977 272.6 21.8977 269.9 23.4977C267.1 25.0977 264.5 27.1977 261.8 28.9977C254.6 33.8977 247.4 38.7977 240.2 43.7977C236.1 46.5977 232.1 49.5977 228.1 52.4977C225.5 54.3977 222.9 56.3977 220.3 58.2977C220 58.5977 219.6 58.7977 219 59.1977C221.5 60.4977 223.6 61.4977 225.6 62.5977C229.4 64.5977 233.3 66.4977 237.2 68.4977C242.1 70.9977 247 73.3977 251.9 75.8977C256 77.9977 259.9 80.2977 264 82.2977C267.1 83.7977 270.4 85.0977 273.7 86.3977C278.6 88.3977 283.4 90.2977 288.3 92.2977C292.1 93.7977 296 95.2977 299.7 96.7977C302.9 98.0977 306.1 99.4977 309.2 100.898C312.9 102.498 316.5 104.298 320.1 105.898C321.2 106.398 322.3 106.798 323.4 107.298C323.7 107.398 324.1 107.598 324.4 107.798C325.4 108.498 326.2 110.198 325.8 110.798C324.9 112.198 323.2 112.498 321.8 111.698C318.3 109.898 314.9 108.098 311.4 106.398C308.7 105.098 306 103.798 303.3 102.698C299.6 101.098 295.8 99.6977 292.1 98.1977C289.3 96.9977 286.5 95.7977 283.6 94.5977C279.9 93.0977 276.1 91.7977 272.4 90.2977C268.8 88.8977 265.2 87.3977 261.7 85.7977C257.6 83.7977 253.6 81.5977 249.6 79.4977C247.8 78.5977 246.1 77.4977 244.3 76.5977C241.6 75.1977 238.7 73.9977 236 72.5977C230.4 69.7977 224.8 66.7977 219.2 64.0977C216.1 62.5977 212.8 61.3977 209.6 59.8977C205.7 58.0977 201.8 56.2977 198 54.4977C192.9 52.0977 187.8 49.5977 182.8 47.0977C177.9 44.5977 172.9 42.2977 168.1 39.4977C162.7 36.3977 156.9 34.0977 151.1 31.6977C146.7 29.7977 142.6 27.4977 138.3 25.3977C135.2 23.8977 132.1 22.3977 128.7 21.6977C121 20.1977 113.6 17.3977 106.6 13.7977C103.1 11.9977 102.9 11.9977 100.1 14.8977C96.5 18.4977 93 21.9977 89.6 25.6977C86.2 29.2977 83.1 33.0977 79.7 36.6977C76.3 40.2977 72.7 43.6977 69.2 47.1977C66.5 49.8977 63.9 52.5977 61.1 55.2977C58.3 57.9977 55.4 60.6977 52.6 63.3977C49.8 65.9977 47.1 68.6977 44.2 71.2977C41.3 73.8977 38.2 76.2977 35.2 78.8977C32.8 80.9977 30.5 83.1977 28.2 85.3977C25.3 88.1977 22.4 90.9977 19.4 93.5977C14.4 97.9977 9.4 102.298 4.3 106.598C3 107.698 1.5 108.598 0 109.398C0.1 107.798 1 106.698 2 105.798C5.1 102.698 8.3 99.5977 11.5 96.5977C13.8 94.2977 16.3 92.1977 18.6 89.8977C20.5 88.0977 22.2 86.0977 24.1 84.2977C27 81.5977 30 78.9977 32.9 76.3977C37.4 72.3977 42 68.4977 46.4 64.3977C51.5 59.6977 56.5 54.7977 61.6 49.9977C64.6 47.0977 67.6 44.2977 70.6 41.2977C73.6 38.1977 76.5 35.0977 79.4 31.8977C82.1 28.9977 84.6 25.9977 87.2 23.0977C90.5 19.4977 93.9 15.9977 97.3 12.4977C98.1 11.5977 98.9 10.6977 99.6 9.79773C100.8 8.39773 102.3 7.89772 104.1 8.49772C106.5 9.39772 109.1 10.1977 111.4 11.3977C116.4 13.9977 121.7 15.9977 127.3 16.9977C132.4 17.9977 137.1 20.0977 141.8 22.3977C144.6 23.7977 147.2 25.3977 150.1 26.5977C153.8 28.1977 157.7 29.5977 161.5 31.1977C163.3 31.9977 165.1 32.9977 166.9 33.8977C170.3 35.6977 173.8 37.3977 177.2 39.1977C178.2 39.6977 178.7 39.4977 179.3 38.6977C182.4 34.8977 185.4 31.0977 188.6 27.3977C192.6 22.7977 196.6 18.2977 200.7 13.7977C202.7 11.5977 204.9 9.79772 206.8 7.49772C208.4 5.59772 209.6 3.29772 210.9 1.19772C211.7 -0.102275 214.2 -0.502275 215.3 0.797725C216.9 2.69773 219 3.49773 221.1 4.39773C224.1 5.69773 226.8 7.39773 229 9.79773C231.8 12.7977 234.6 15.8977 237.2 19.0977C239.1 21.3977 240.7 24.0977 242.5 26.4977C244.2 28.7977 246.1 30.8977 247.9 33.0977C248.5 33.7977 249.2 33.7977 249.9 33.1977C252.9 30.9977 255.9 28.7977 258.9 26.6977C262.1 24.4977 265.1 21.9977 268.4 20.0977C271.8 18.1977 275.3 16.8977 279.3 18.8977C284 21.1977 289 22.9977 293.9 25.0977C297.9 26.7977 301.6 28.9977 305.7 30.5977C310.7 32.5977 315.9 34.1977 321 35.9977C324.9 37.2977 328.8 38.5977 332.7 39.7977C336.6 40.9977 340.6 42.1977 344.6 43.0977C351 44.6977 357.2 46.8977 363.2 49.6977C367.9 51.7977 372.7 53.6977 377.5 55.7977C383.7 58.3977 389.9 60.9977 396 63.5977C395.9 63.5977 396.3 63.7977 396.7 63.8977C396.6 63.9977 396.4 63.9977 396.6 63.9977C396.3 64.0977 396.5 63.9977 396.7 63.8977ZM181.5 41.3977C182 41.7977 182.5 42.2977 183 42.4977C186.8 44.3977 190.6 46.2977 194.5 48.1977C200.4 50.9977 206.3 53.7977 212.2 56.4977C213.5 57.0977 214.8 57.3977 216.2 56.1977C218.7 54.0977 221.4 52.1977 224 50.2977C228.5 46.9977 233.1 43.7977 237.7 40.6977C239.8 39.1977 242 37.7977 244.2 36.2977C243.2 35.1977 242.3 34.1977 241.5 33.1977C238.9 29.4977 236.3 25.7977 233.7 22.1977C232.7 20.8977 231.7 19.5977 230.6 18.2977C229.5 17.0977 228.2 15.9977 227.1 14.7977C226.3 13.9977 225.8 13.0977 225 12.2977C221.8 9.19773 217.7 7.69772 213.9 5.59772C213 5.09772 212.4 4.89772 211.7 5.99772C209.7 8.99772 207.5 11.7977 204.9 14.2977C203.1 15.9977 201.1 17.3977 199.7 19.2977C195.9 24.1977 191.1 28.2977 187.7 33.5977C185.9 36.3977 183.7 38.7977 181.5 41.3977ZM426.4 75.3977C426.2 75.2977 426.1 75.1977 426 75.2977C425.8 75.3977 425.7 75.5977 425.6 75.7977C425.6 75.8977 425.8 75.9977 425.9 76.0977C426 75.7977 426.2 75.6977 426.4 75.3977ZM449.2 84.2977C449.4 84.0977 449.5 83.9977 449.5 83.7977C449.5 83.6977 449.3 83.4977 449.2 83.4977C449.1 83.5977 448.9 83.6977 448.8 83.7977C448.9 83.9977 449.1 84.0977 449.2 84.2977ZM255.4 30.2977C255.3 30.1977 255.2 30.0977 255.2 29.9977C255 30.1977 254.8 30.3977 254.5 30.4977C254.5 30.5977 254.6 30.5977 254.6 30.6977C254.8 30.5977 255.1 30.4977 255.4 30.2977ZM265.8 22.7977C265.9 22.6977 266 22.5977 266 22.3977L265.8 22.1977C265.7 22.2977 265.6 22.3977 265.5 22.4977C265.6 22.5977 265.7 22.6977 265.8 22.7977ZM430.1 76.9977C430 76.8977 429.8 76.6977 429.8 76.7977C429.7 76.8977 429.6 76.9977 429.5 77.0977C429.6 77.1977 429.7 77.2977 429.7 77.2977C429.9 77.1977 430 77.0977 430.1 76.9977ZM437.3 79.7977C437.2 79.9977 437.1 80.0977 437 80.1977C437 80.2977 437.1 80.4977 437.2 80.3977C437.3 80.3977 437.5 80.2977 437.5 80.1977C437.5 80.0977 437.4 79.9977 437.3 79.7977ZM471.8 92.1977C471.7 92.2977 471.6 92.3977 471.6 92.4977C471.6 92.5977 471.7 92.6977 471.8 92.7977C471.9 92.6977 472 92.5977 472 92.4977C471.9 92.2977 471.8 92.1977 471.8 92.1977ZM467.5 91.3977C467.6 91.4977 467.7 91.5977 467.7 91.5977C467.8 91.5977 467.9 91.4977 467.9 91.3977C467.8 91.2977 467.7 91.1977 467.7 91.1977C467.7 91.1977 467.6 91.2977 467.5 91.3977ZM461.9 89.5977C461.9 89.4977 462 89.4977 462 89.3977L461.9 89.2977C461.8 89.2977 461.8 89.3977 461.7 89.4977C461.7 89.4977 461.8 89.5977 461.9 89.5977ZM412.9 71.1977C412.9 71.1977 412.9 71.0977 412.8 71.0977C412.7 71.1977 412.6 71.1977 412.6 71.2977C412.6 71.2977 412.6 71.3977 412.7 71.3977C412.7 71.3977 412.8 71.2977 412.9 71.1977ZM191.9 24.6977C191.9 24.5977 191.8 24.4977 191.8 24.3977H191.7C191.7 24.4977 191.7 24.5977 191.7 24.6977C191.7 24.6977 191.8 24.6977 191.9 24.6977ZM457.7 85.7977C457.7 85.7977 457.6 85.7977 457.6 85.8977C457.6 85.9977 457.7 85.9977 457.7 86.0977L457.8 85.9977C457.8 85.8977 457.7 85.7977 457.7 85.7977ZM432.3 78.6977V78.5977C432.2 78.5977 432.1 78.6977 432.1 78.6977L432.2 78.7977C432.2 78.6977 432.3 78.6977 432.3 78.6977ZM374.8 56.8977C374.8 56.9977 374.7 57.1977 374.7 57.2977C374.7 57.2977 374.9 57.3977 375 57.3977C375.1 57.2977 375.1 57.1977 375.2 57.0977C375.1 56.9977 375 56.9977 374.8 56.8977ZM296.5 97.4977L296.6 97.3977C296.5 97.2977 296.5 97.2977 296.4 97.1977L296.3 97.2977C296.4 97.3977 296.5 97.3977 296.5 97.4977ZM452.2 85.4977C452.1 85.5977 452.1 85.6977 452 85.7977L452.1 85.8977C452.2 85.8977 452.3 85.7977 452.4 85.7977C452.3 85.6977 452.2 85.5977 452.2 85.4977ZM453.8 85.9977V85.8977C453.8 85.8977 453.7 85.8977 453.7 85.7977C453.7 85.8977 453.7 85.8977 453.7 85.9977H453.8ZM447.5 82.0977V81.9977H447.4V82.0977H447.5ZM435.9 79.9977H436C436 79.8977 435.9 79.8977 435.9 79.7977C435.9 79.7977 435.8 79.7977 435.8 79.8977C435.9 79.8977 435.9 79.8977 435.9 79.9977ZM407.1 69.9977L407 69.8977L406.9 69.9977H407.1ZM427.4 77.6977L427.3 77.5977V77.6977H427.4ZM470.7 91.9977C470.7 91.8977 470.7 91.8977 470.8 91.7977C470.7 91.7977 470.6 91.7977 470.5 91.7977V91.8977C470.6 91.9977 470.7 91.9977 470.7 91.9977ZM425 76.9977L424.9 76.8977C424.9 76.8977 424.8 76.8977 424.8 76.9977L424.9 77.0977C424.9 77.0977 424.9 76.9977 425 76.9977ZM282.4 91.6977H282.3L282.4 91.7977V91.6977ZM420.1 75.0977C420.1 75.0977 420.1 74.9977 420 74.9977H419.9C420 75.0977 420 75.1977 420.1 75.0977C420.1 75.1977 420.1 75.1977 420.1 75.0977ZM415 73.0977C414.9 73.0977 414.9 73.1977 414.8 73.1977C414.8 73.1977 414.9 73.2977 414.9 73.1977C414.9 73.1977 414.9 73.1977 415 73.0977ZM418.1 72.6977C418.1 72.5977 418.1 72.5977 418.1 72.4977H418C418 72.5977 418 72.6977 418.1 72.6977ZM415.2 72.0977C415.1 71.9977 415.1 71.8977 415 71.8977C414.9 71.8977 414.8 71.9977 414.7 71.9977C414.8 72.0977 414.9 72.1977 414.9 72.2977C415 72.1977 415.1 72.0977 415.2 72.0977ZM393.7 64.2977C393.7 64.1977 393.7 64.1977 393.8 64.0977H393.7C393.7 64.1977 393.7 64.1977 393.7 64.2977ZM288.3 95.6977L288.4 95.7977V95.6977H288.3Z" fill="black"/>
<path d="M172.2 134.298C170.6 134.298 170.5 135.898 169.6 136.598C169.2 136.998 169.1 137.698 168.6 138.098C168.3 138.398 167.7 138.398 167.2 138.498C167.1 138.098 166.9 137.698 167.1 137.398C168 135.298 168.8 133.098 169.8 131.098C171.9 126.598 174.1 122.198 176.2 117.798C176.7 116.698 177.3 115.698 177.7 114.598C177.9 114.098 178 113.598 178.1 113.098C177.9 112.998 177.8 112.998 177.6 112.898C176.8 114.398 176.1 115.998 175.2 117.498C172.9 121.698 170.7 125.998 168.3 130.198C167.7 131.298 166.6 132.198 165.7 133.198C165.2 133.798 164.6 134.098 163.8 133.498C163.1 132.998 163.6 132.498 163.9 131.998C166 127.398 168.2 122.798 170.3 118.098C171.7 114.898 172.9 111.498 174.2 108.298C174.2 108.198 174.2 108.198 174.3 108.098C175.2 106.598 176.1 104.898 177.2 103.498C178.1 102.298 179.3 102.298 180.7 103.098C183.1 104.398 184.5 106.698 186 108.798C189.1 112.998 191.9 117.398 195 121.598C196.3 123.498 197.8 125.198 199.2 127.098C199.6 127.598 200.4 128.198 199.4 128.798C198.6 129.398 197.7 130.498 196.6 129.398C195 127.898 193.3 126.298 191.9 124.498C189.3 121.098 186.8 117.498 184.3 113.998C183.9 113.398 183.4 112.898 182.8 112.198C183 114.298 183.1 116.198 183.3 117.998C183.4 118.698 183.6 119.598 184 120.098C186.5 123.098 189 126.098 191.7 128.998C193.5 130.998 195.4 132.798 197.3 134.798C198.4 135.898 198.4 137.698 197.4 138.498C196.6 139.098 195.7 139.498 194.8 138.598C192.1 135.798 189.3 132.998 186.6 130.198C186.2 129.798 185.8 129.298 185.4 128.898C184.3 130.898 185.2 133.698 187.3 135.198C190.2 137.298 193 139.498 195.8 141.798C196.3 142.198 196.6 142.698 196.9 143.198C197.5 143.998 197.8 144.798 196.9 145.598C196 146.298 195 146.398 194 145.698C191.3 143.698 188.7 141.698 185.7 139.898C185.9 140.498 186 141.198 186.4 141.698C187.4 142.998 188.4 144.198 189.6 145.298C191.2 146.798 193 148.198 194.8 149.598C195.6 150.198 196.7 150.798 196 151.798C195.5 152.498 194.2 152.998 193.4 152.798C192.1 152.598 190.9 151.898 189.7 151.298C188.7 150.798 187.9 149.998 186.5 149.098C186.7 150.798 187 151.998 187.1 153.298C187.5 157.898 187.9 162.498 188.2 166.998C188.5 170.898 188.8 174.698 189.1 178.598C189.3 180.498 189.5 182.498 189.6 184.398C189.7 185.498 188.3 186.698 186.7 186.698C185.6 186.698 185.1 185.898 185 184.798C184.9 181.298 184.8 177.898 184.6 174.398C184.2 168.998 183.7 163.598 183.3 158.198C183.1 155.598 182.9 152.998 182.7 150.398C182.5 148.498 182.4 146.598 182.1 144.698C182 144.298 181.7 143.898 181.4 143.598C180.2 142.198 180.1 141.198 180.8 139.598C181.2 138.798 181.2 137.798 181.4 136.898C181.2 136.898 181.1 136.798 180.9 136.798C180 138.098 179.1 139.498 178.2 140.798C176.5 143.398 174.8 145.998 173.1 148.498C172.2 149.898 170.7 150.198 169.5 149.398C168.6 148.898 167.9 148.298 169 147.198C169.2 146.998 169.3 146.698 169.4 146.498C169.3 146.298 169.2 146.198 169.2 146.098C166.7 145.698 166.3 145.198 167.4 142.798C168.8 139.798 170.5 137.098 172.2 134.298C172.2 134.098 172.2 133.898 172.2 133.798C172.2 133.698 172.1 133.498 172.1 133.398C172 133.398 171.9 133.398 171.9 133.398C171.9 133.598 171.9 133.698 171.9 133.898C171.9 133.998 172.1 134.198 172.2 134.298ZM176.7 133.498C177.2 133.198 177.8 132.898 178.1 132.398C178.9 131.098 180.1 129.998 180.2 128.398C180.1 128.298 179.9 128.198 179.8 128.198C178.7 129.998 177.7 131.798 176.7 133.498C176.7 133.698 176.6 133.798 176.6 133.998C176.5 134.298 176.5 134.498 176.4 134.798C176.6 134.798 176.8 134.898 176.9 134.798C177 134.598 177.2 134.298 177.2 134.098C177.1 133.898 176.8 133.698 176.7 133.498ZM172 143.198C171.9 143.198 171.8 143.298 171.8 143.298C171.9 143.398 172 143.498 172 143.498C172.1 143.498 172.2 143.398 172.3 143.298C172.2 143.298 172.1 143.298 172 143.198ZM177.3 119.898C177.4 119.798 177.6 119.598 177.6 119.498C177.6 119.398 177.4 119.198 177.3 119.198C177.1 119.298 177 119.398 176.9 119.498C177 119.698 177.1 119.798 177.3 119.898ZM186.6 161.498V161.398C186.5 161.398 186.4 161.398 186.4 161.498V161.598C186.4 161.498 186.5 161.498 186.6 161.498ZM169.1 135.298C169 135.298 168.9 135.198 168.9 135.198C168.8 135.198 168.8 135.298 168.7 135.398C168.8 135.398 168.9 135.498 168.9 135.498C169 135.498 169.1 135.398 169.1 135.298ZM173.3 146.398C173.3 146.398 173.4 146.398 173.4 146.298C173.3 146.298 173.3 146.198 173.2 146.198C173.3 146.198 173.2 146.198 173.3 146.398C173.2 146.298 173.3 146.298 173.3 146.398ZM187.5 170.998C187.5 171.098 187.4 171.198 187.4 171.198C187.5 171.198 187.5 171.198 187.6 171.198C187.5 171.098 187.5 170.998 187.5 170.998ZM185.5 171.798C185.4 171.898 185.4 171.898 185.3 171.998L185.4 172.098C185.5 172.098 185.5 172.098 185.6 172.098C185.6 171.998 185.6 171.898 185.5 171.798Z" fill="black"/>
<path d="M87.3997 120.698C86.5997 121.198 85.8997 121.698 84.9997 122.198C84.7997 122.298 84.4997 122.198 84.1997 122.198C84.1997 121.898 84.1997 121.598 84.2997 121.398C85.0997 120.098 85.8997 118.798 86.7997 117.598C90.5997 112.598 94.4997 107.598 98.3997 102.698C98.5997 102.398 98.6997 101.998 98.5997 101.498C97.4997 102.698 96.2997 103.898 95.1997 105.098C92.6997 107.798 90.2997 110.498 87.7997 113.198C86.9997 113.998 86.1997 114.798 85.3997 115.598C85.1997 115.798 84.8997 116.098 84.6997 116.098C84.0997 116.198 83.4997 116.098 82.7997 116.098C82.8997 115.598 82.8997 114.898 83.2997 114.498C84.8997 112.298 86.5997 110.098 88.2997 107.998C90.9997 104.598 93.7997 101.298 96.5997 97.8976C96.7997 97.5976 96.7997 97.0976 96.8997 96.6976C96.5997 96.8976 96.1997 97.0976 95.8997 97.3976C92.7997 101.198 89.3997 104.798 85.4997 107.798C85.1997 107.998 84.6997 107.998 84.2997 107.998C84.1997 107.798 84.0997 107.698 83.8997 107.498C86.8997 103.298 89.8997 99.1976 92.7997 94.9976C93.0997 94.4976 93.2997 93.8976 93.4997 93.3976C93.2997 93.2976 93.1997 93.1976 92.9997 93.0976C91.5997 94.6976 90.3997 96.3976 88.8997 97.8976C87.3997 99.4976 85.7997 101.098 84.1997 102.498C83.7997 102.898 82.5997 102.998 82.2997 102.698C81.6997 102.198 81.9997 101.398 82.5997 100.698C84.9997 97.5976 87.2997 94.3976 89.6997 91.1976C90.5997 89.9976 91.3997 88.8976 90.9997 87.2976C90.6997 86.0976 91.7997 85.6976 92.6997 85.3976C93.7997 85.0976 95.9997 82.5976 95.7997 81.4976C95.6997 80.7976 95.0997 80.1976 94.5997 79.5976C94.0997 78.9976 93.3997 78.5976 92.8997 77.9976C91.9997 76.8976 91.8997 75.3976 92.9997 74.8976C93.8997 74.4976 95.2997 74.3976 96.0997 74.7976C97.9997 75.8976 99.7997 77.3976 101.5 78.8976C102.6 79.8976 103.2 81.2976 104.1 82.3976C108.2 87.1976 112.3 91.9976 116.3 96.7976C117.7 98.4976 118.9 100.298 120.2 102.098C118.3 103.098 117.1 102.098 116.2 101.198C113.4 98.4976 110.7 95.7976 108 92.9976C106.4 91.2976 104.9 89.5976 103.2 87.6976C102.3 91.8976 103.4 94.2976 106.8 96.8976C110.5 99.6976 114.1 102.798 117.8 105.798C118.2 106.098 118.5 106.598 118.8 106.998C119 107.398 119.1 107.998 118.9 108.398C118.6 109.098 117.9 109.198 117.2 108.798C116.9 108.598 116.5 108.398 116 108.398C116.5 109.098 117 109.698 117.6 110.498C112.3 110.898 109.4 107.098 105.8 104.498C105.4 104.298 105.1 103.998 104.8 103.698C104.6 103.798 104.5 103.798 104.3 103.898C105.1 108.898 105.9 113.798 106.6 118.798C107 121.998 107.3 125.198 107.7 128.398C108.1 131.998 108.5 135.598 109.1 139.198C109.8 143.098 110.7 146.898 111.5 150.798C111.7 151.998 111.8 153.198 111.6 154.398C111.5 155.298 111.4 156.298 110.2 156.798C108.8 157.398 107.9 156.998 107.8 155.398C107.7 153.398 107.7 151.398 107.4 149.498C106.7 145.798 105.7 142.098 105 138.298C104.6 136.398 104.5 134.498 104.3 132.598C104 129.598 103.8 126.698 103.4 123.698C102.7 119.198 101.8 114.698 101 110.098C100.9 109.298 100.9 108.398 100.9 107.598C100.9 107.398 100.7 106.998 100.4 106.898C100.3 106.798 99.8997 107.098 99.6997 107.298C97.0997 110.298 94.5997 113.298 91.9997 116.198C90.5997 117.898 88.8997 119.298 87.3997 120.698C85.9997 120.098 85.9997 120.098 85.6997 121.298C86.1997 121.098 86.7997 120.898 87.3997 120.698ZM98.6997 86.4976C98.3997 86.3976 98.1997 86.3976 97.8997 86.2976C97.7997 86.8976 97.5997 87.4976 97.5997 88.0976C97.5997 88.1976 98.0997 88.2976 98.2997 88.3976C98.3997 87.7976 98.4997 87.0976 98.6997 86.4976ZM111.8 108.198C111.9 108.298 111.9 108.398 112 108.498C112 108.498 112.2 108.498 112.2 108.398C112.1 108.298 112.1 108.198 112 108.098C112 108.098 111.9 108.098 111.8 108.198ZM116.6 100.398C116.5 100.398 116.4 100.398 116.3 100.298C116.3 100.398 116.3 100.398 116.3 100.498C116.4 100.498 116.5 100.498 116.6 100.598C116.7 100.498 116.6 100.398 116.6 100.398ZM117.5 100.098C117.5 99.9976 117.4 99.9976 117.4 99.8976V99.9976L117.5 100.098ZM114.4 109.298V109.198V109.298ZM87.9997 111.598C87.8997 111.598 87.8997 111.698 87.7997 111.698H87.8997C87.9997 111.698 87.9997 111.698 87.9997 111.598Z" fill="black"/>
<path d="M238.7 119.198C238.2 119.498 237.6 119.598 237.3 119.998C236.3 121.298 235.5 122.598 234.5 123.898C234.1 124.398 233.6 124.898 233 124.998C231.9 125.298 231.1 124.498 231.5 123.398C232.1 121.698 232.8 119.898 233.6 118.298C235.6 114.498 237.6 110.698 239.6 106.898C239.9 106.398 239.9 105.698 240 105.098C239.8 104.998 239.7 104.998 239.5 104.898C238.3 106.598 237.1 108.298 235.8 109.998C234.6 111.598 233.5 113.298 232.3 114.898C231.5 115.898 229.7 115.998 228.9 115.098C228.7 114.898 228.7 114.198 228.9 113.898C230.2 111.598 231.6 109.398 232.9 107.198C234.7 103.998 236.4 100.698 238.1 97.4978C238.4 96.7978 238.4 95.8978 238.4 94.9978C238.3 93.8978 239 93.2978 239.8 92.8978C241.7 91.8978 244.1 92.4978 245.3 94.3978C247.8 98.5978 251.4 101.798 254.8 105.198C256.7 107.198 258.3 109.398 259.3 111.998C259.9 113.598 259.4 114.998 258.2 115.198C257.6 115.298 256.6 114.998 256.4 114.598C253.9 109.898 249.8 106.698 246.3 102.898C245.5 102.098 244.7 101.298 243.6 100.698C243.9 101.998 244.2 103.398 244.5 104.698C244.6 105.098 244.9 105.498 245.2 105.698C248.5 107.698 250.8 110.798 253.4 113.498C254.3 114.498 255.4 115.398 256.3 116.298C258 118.198 257.6 119.698 255 120.498C255.7 120.998 256.1 121.598 256.8 121.898C257.7 122.398 257.6 122.998 257.3 123.698C257 124.498 256.6 125.098 255.4 124.898C253.1 124.498 251.2 123.298 249.5 121.798C249 121.398 248.4 120.998 247.9 120.598C247.8 120.798 247.6 120.898 247.5 121.098C248.6 122.098 249.7 123.098 250.8 123.998C253.2 125.998 255.6 127.898 257.9 129.898C258.7 130.498 258.8 131.398 258.5 132.298C258.1 133.098 257.6 133.698 256.6 133.098C254.3 131.598 251.9 130.098 249.6 128.598C249 128.198 248.4 127.898 247.6 127.298C247.6 128.198 247.5 128.798 247.6 129.398C248.2 132.598 248.9 135.798 249.6 138.998C249.7 139.398 250 139.798 250.2 140.298C250.7 141.598 250.3 142.698 249.1 143.198C248.1 143.598 246.8 142.998 246.4 141.798C245.7 139.698 245 137.598 244.6 135.498C243.9 131.998 243.5 128.498 243 124.898C242.9 124.498 242.8 124.098 242.6 123.698C242.5 123.498 242.2 123.198 242 123.198C241.8 123.198 241.6 123.498 241.4 123.698C240.4 125.298 239.4 126.898 238.4 128.498C237.7 129.698 236.5 129.898 235.3 129.698C234 129.598 233.7 129.098 234.3 127.798C235.7 124.998 237.2 122.098 238.7 119.198C238.7 118.898 238.7 118.598 238.7 118.398H238.6C238.6 118.698 238.7 118.898 238.7 119.198ZM250.5 117.198C250.6 117.098 250.6 117.098 250.7 116.998C249.8 116.098 249 115.198 248.1 114.298C248.1 114.298 248.1 114.298 248 114.398C248.9 115.298 249.7 116.298 250.5 117.198Z" fill="black"/>
<path d="M372 111.098C371.6 111.698 371.3 111.898 371.2 112.198C370.4 114.798 368.7 116.898 367.1 118.998C366.8 119.298 366.4 119.698 366 119.798C365.4 119.898 364.8 119.698 364.1 119.698C364.1 119.098 364 118.398 364.3 117.898C365.7 114.798 367.3 111.798 368.7 108.798C369.2 107.798 369.5 106.798 369.7 105.798C369.8 105.498 369.6 105.098 369.5 104.698C369.2 104.898 368.8 105.098 368.7 105.398C367.8 107.198 367.1 109.098 366.1 110.898C365.7 111.598 365 112.298 364.3 112.798C364 112.998 362.9 112.698 362.7 112.398C362.4 111.698 362.2 110.698 362.4 109.998C363.8 106.098 365.3 102.198 366.9 98.2977C367.6 96.6977 368.6 95.1977 369.5 93.6977C370.4 92.2977 370.4 91.4977 369.2 90.0977C367.9 88.3977 368 87.3977 369.6 86.2977C370.9 85.3977 372.4 85.7977 373.3 87.3977C376.1 91.5977 378.8 95.8977 381.6 99.9977C383.4 102.698 385.2 105.398 387.3 107.998C387.9 108.798 387.9 109.298 387.4 109.798C386.6 110.398 386.9 110.798 387.4 111.298C388 111.898 388.8 112.298 388.2 113.498C387.6 114.698 386.6 114.698 385.8 114.398C384.2 113.898 382.7 113.098 381.1 112.398C380.9 112.298 380.6 112.298 380.3 112.298C380.4 112.498 380.4 112.898 380.6 112.998C382 114.098 383.4 115.098 384.7 116.098C385.3 116.598 386 117.098 386.4 117.698C386.7 118.198 387.1 119.198 386.8 119.598C386.5 120.098 385.5 120.498 385 120.298C383.6 119.898 382.2 119.298 381 118.498C379.7 117.798 378.6 116.798 377 115.698C377 117.398 376.9 118.798 377 120.198C377.6 125.098 378.2 129.998 378.9 134.898C379 135.498 379.3 136.198 379.4 136.798C379.4 137.698 379.4 138.698 379.2 139.598C379.1 139.998 378.6 140.398 378.2 140.498C377.8 140.498 377.2 140.098 377.1 139.798C376.4 137.898 375.6 135.898 375.2 133.898C374.5 130.298 374.1 126.698 373.6 123.098C373.5 122.298 373.2 121.598 372.9 120.398C371.7 122.898 370.6 124.998 369.6 127.098C368.9 128.598 367.6 129.298 366.2 128.898C365.3 128.698 365 127.998 365.4 127.298C366.5 124.798 367.8 122.298 368.9 119.698C370 117.298 371.1 114.898 372.1 112.498C372.2 112.298 372.1 111.898 372 111.098ZM381.9 108.098C382 107.998 382.1 107.898 382.2 107.798C380.8 105.998 379.5 104.198 378.1 102.298C378 102.098 377.6 101.998 377.5 101.998C377 102.498 376.5 102.998 376.2 103.698C376.1 103.998 376.5 104.698 376.9 104.898C378.5 106.098 380.2 107.098 381.9 108.098ZM377.3 136.998C377.2 136.898 377.1 136.798 377.1 136.698C377 136.798 376.9 136.898 376.9 137.098C376.9 137.198 377 137.298 377 137.398C377.1 137.198 377.2 137.098 377.3 136.998ZM376.4 126.898C376.5 126.798 376.5 126.698 376.6 126.598C376.5 126.498 376.4 126.498 376.2 126.398C376.2 126.498 376.1 126.598 376.1 126.698C376.2 126.798 376.3 126.798 376.4 126.898Z" fill="black"/>
<path d="M331.5 66.0976C329.5 65.0976 327.5 64.1976 325.7 62.9976C321.6 60.3976 317.6 57.6976 313.6 55.0976C312.7 54.4976 311.8 53.9976 311 53.2976C310.3 52.6976 309.4 51.9976 310.1 50.8976C310.7 49.8976 311.9 49.2976 313.1 49.6976C314.4 50.0976 315.6 50.6976 316.7 51.3976C320.4 54.0976 324 56.8976 327.7 59.5976C329.3 60.7976 331 61.9976 332.5 63.2976C332.9 63.6976 333.1 64.4976 333.1 65.1976C333 65.3976 332.2 65.6976 331.5 66.0976ZM327.9 61.2976C328 61.1976 328.1 61.1976 328.1 61.0976C328.1 60.9976 328 60.8976 327.9 60.7976C327.8 60.8976 327.7 60.8976 327.7 60.9976C327.7 61.0976 327.9 61.1976 327.9 61.2976Z" fill="black"/>
<path d="M295.2 61.2979C296.3 61.7979 297.5 62.1979 298.4 62.8979C301.7 65.5978 304.8 68.2979 308 71.1979C309.2 72.2979 310.4 73.4979 311.5 74.7979C311.7 75.0979 311.7 75.6979 311.6 76.0979C311.5 76.2979 310.9 76.4979 310.6 76.3979C309.9 76.2978 309.1 76.0979 308.4 75.7979C303.1 72.9979 298.4 69.3979 293.8 65.6979C292.7 64.7979 292.9 63.8979 293.1 62.8979C293.3 61.7979 294 61.2979 295.2 61.6979C295.1 61.5979 295.1 61.4979 295.2 61.2979Z" fill="black"/>
<path d="M130.5 49.9979C130.5 48.1979 131.2 47.5979 132.8 47.8979C135 48.2979 135.6 50.2979 136.5 51.8979C137.6 53.8979 138.7 55.8979 139.7 57.9979C140.3 59.0979 140.7 60.2979 141.3 61.2979C141.8 62.2979 141.2 62.9979 140.7 63.4979C140.4 63.6979 139.2 63.3979 138.9 62.8979C137.1 60.6979 135.5 58.3979 133.9 56.0979C132.9 54.5979 132 52.9979 131.1 51.3979C130.7 50.8979 130.6 50.2979 130.5 49.9979Z" fill="black"/>
<path d="M80 58.4978C81.7 55.9978 83.3 53.4978 85.1 51.0978C86.8 48.7978 88.5 46.5978 90.4 44.4978C91.3 43.4978 92.6 42.6978 93.8 41.9978C94.2 41.7978 95.3 41.8978 95.3 41.9978C95.6 42.6978 95.9 43.7978 95.5 44.1978C94.1 46.1978 92.5 48.0978 90.8 49.7978C87.9 52.6978 84.9 55.4978 81.9 58.1978C81.5 58.5978 80.8 58.5978 80.3 58.8978C80.2 58.7978 80.1 58.5978 80 58.4978Z" fill="black"/>
<path d="M421.1 104.998C421.1 106.998 420.1 107.498 418.7 106.698C416.5 105.398 414.4 103.898 412.3 102.498C411 101.698 409.7 100.798 408.4 100.098C406.9 99.2977 406.6 98.5977 407 97.2977C407.3 96.3977 409 95.4977 409.9 95.8977C411.2 96.3977 412.6 96.9977 413.6 97.8977C415.8 99.6977 417.8 101.598 419.8 103.498C420.5 103.898 420.9 104.698 421.1 104.998ZM418.7 105.598V105.498C418.6 105.498 418.6 105.498 418.5 105.598L418.6 105.698C418.6 105.698 418.6 105.598 418.7 105.598Z" fill="black"/>
<path d="M169.2 64.4977C169.1 64.8977 169.1 65.2977 169 65.6977C168.8 66.4977 168.3 66.6977 167.7 65.9977C166.9 65.0977 166.1 64.0977 165.4 63.0977C163.8 60.5977 162.2 58.0977 160.7 55.5977C160.2 54.8977 159.7 54.0977 159.5 53.2977C159.4 52.7977 159.8 51.8977 160.2 51.4977C160.6 51.0977 161.5 50.7977 162 50.9977C163.2 51.4977 164.3 52.1977 164.9 53.4977C166.2 56.6977 167.6 59.7977 168.9 62.9977C169.1 63.3977 169.1 63.8977 169.2 64.4977Z" fill="black"/>
<path d="M61.3 91.3977C60.6 92.6977 59.9 94.0977 59 95.2977C56.8 98.2977 54.5 101.198 51.4 103.498C50.7 103.998 49.8 104.198 49 104.598C49.2 103.698 49.3 102.798 49.7 101.998C52 97.8977 54.7 94.0977 58.1 90.8977C58.4 90.5977 58.7 90.3977 59.1 90.1977C59.5 89.9977 60.2 89.5977 60.5 89.7977C60.8 90.0977 60.9 90.6977 61 91.1977C61.1 91.2977 61.2 91.3977 61.3 91.3977Z" fill="black"/>
<path d="M426.4 75.3978C426.2 75.6978 426.1 75.8978 426 76.0978C425.9 75.9978 425.7 75.7978 425.7 75.7978C425.8 75.5978 425.9 75.3978 426.1 75.2978C426 75.1978 426.2 75.2978 426.4 75.3978Z" fill="white"/>
<path d="M449.2 84.2977C449.1 84.0977 448.9 83.9977 448.9 83.8977C449 83.7977 449.1 83.5977 449.3 83.5977C449.4 83.5977 449.6 83.7977 449.6 83.8977C449.5 83.9977 449.4 84.0977 449.2 84.2977Z" fill="white"/>
<path d="M255.4 30.2976C255.1 30.3976 254.9 30.5976 254.6 30.6976C254.6 30.5976 254.5 30.5976 254.5 30.4976C254.7 30.2976 254.9 30.0976 255.2 29.9976C255.2 30.0976 255.3 30.1976 255.4 30.2976Z" fill="white"/>
<path d="M265.8 22.7979C265.7 22.6979 265.6 22.6979 265.5 22.5979C265.6 22.4979 265.7 22.3979 265.8 22.2979C265.8 22.2979 266 22.3979 266 22.4979C266 22.4979 265.9 22.6979 265.8 22.7979Z" fill="white"/>
<path d="M430.1 76.9978C430 77.0978 429.8 77.1978 429.7 77.1978C429.6 77.1978 429.5 77.0978 429.5 76.9978C429.6 76.8978 429.7 76.7978 429.8 76.6978C429.9 76.6978 430 76.8978 430.1 76.9978Z" fill="white"/>
<path d="M437.3 79.7979C437.4 79.9979 437.6 80.0979 437.6 80.2979C437.6 80.3979 437.4 80.4979 437.3 80.4979L437.1 80.2979C437 80.0979 437.2 79.9979 437.3 79.7979Z" fill="white"/>
<path d="M471.8 92.1978C471.9 92.2978 472 92.2978 472.1 92.3978C472 92.4978 471.9 92.5978 471.9 92.6978C471.8 92.5978 471.7 92.4978 471.7 92.3978C471.6 92.2978 471.7 92.2978 471.8 92.1978Z" fill="white"/>
<path d="M467.5 91.3978C467.6 91.2978 467.7 91.1978 467.7 91.1978C467.8 91.1978 467.9 91.2978 467.9 91.3978C467.8 91.4978 467.7 91.5978 467.7 91.5978C467.7 91.4978 467.6 91.3978 467.5 91.3978Z" fill="white"/>
<path d="M461.9 89.5979C461.8 89.5979 461.7 89.4979 461.7 89.4979C461.8 89.3979 461.8 89.3979 461.9 89.2979L462 89.3979C461.9 89.4979 461.9 89.5979 461.9 89.5979Z" fill="white"/>
<path d="M412.9 71.1977C412.8 71.2977 412.8 71.2977 412.7 71.3977L412.6 71.2977C412.7 71.1977 412.7 71.1977 412.8 71.0977C412.8 71.1977 412.9 71.1977 412.9 71.1977Z" fill="white"/>
<path d="M191.9 24.6976C191.8 24.6976 191.7 24.6976 191.6 24.7976C191.6 24.6976 191.6 24.5976 191.6 24.4976C191.6 24.4976 191.7 24.3976 191.7 24.4976C191.8 24.4976 191.9 24.5976 191.9 24.6976Z" fill="white"/>
<path d="M457.7 85.7979L457.8 85.8979L457.7 85.9979C457.7 85.8979 457.6 85.8979 457.6 85.7979C457.6 85.7979 457.7 85.7979 457.7 85.7979Z" fill="white"/>
<path d="M432.3 78.6977L432.2 78.7977L432.1 78.6977C432.2 78.6977 432.3 78.5977 432.3 78.5977C432.3 78.5977 432.3 78.5977 432.3 78.6977Z" fill="white"/>
<path d="M374.8 56.8977C375 56.9977 375 56.9977 375.1 56.9977C375 57.0977 375 57.2977 374.9 57.2977L374.6 57.1977C374.7 57.1977 374.8 57.0977 374.8 56.8977Z" fill="white"/>
<path d="M296.5 97.4978C296.5 97.3978 296.4 97.3978 296.4 97.2978L296.5 97.1978C296.6 97.2978 296.6 97.2978 296.7 97.3978C296.6 97.3978 296.6 97.4978 296.5 97.4978Z" fill="white"/>
<path d="M452.2 85.4976C452.3 85.5976 452.3 85.5976 452.4 85.6976C452.3 85.7976 452.2 85.7976 452.1 85.7976L452 85.6976C452 85.6976 452.1 85.5976 452.2 85.4976Z" fill="white"/>
<path d="M453.8 85.9979H453.7C453.7 85.8979 453.7 85.8979 453.7 85.7979C453.7 85.7979 453.8 85.7979 453.8 85.8979C453.9 85.8979 453.8 85.9979 453.8 85.9979Z" fill="white"/>
<path d="M447.5 82.0976H447.4V81.9976H447.5C447.5 82.0976 447.5 82.0976 447.5 82.0976Z" fill="white"/>
<path d="M435.9 79.9979L435.8 79.8979L435.9 79.7979C435.9 79.8979 436 79.8979 436 79.9979C436 79.9979 436 79.9979 435.9 79.9979Z" fill="white"/>
<path d="M407.1 69.9977H407V69.8977L407.1 69.9977Z" fill="white"/>
<path d="M427.4 77.6978L427.3 77.7978V77.6978H427.4Z" fill="white"/>
<path d="M470.7 91.9977C470.6 91.9977 470.5 91.9977 470.4 91.9977C470.4 91.8977 470.4 91.8977 470.4 91.8977C470.5 91.8977 470.6 91.8977 470.7 91.8977C470.8 91.8977 470.8 91.8977 470.7 91.9977Z" fill="white"/>
<path d="M425 76.9977L424.9 77.0977L424.8 76.9977L424.9 76.8977C424.9 76.8977 424.9 76.9977 425 76.9977Z" fill="white"/>
<path d="M282.4 91.6977V91.7977L282.3 91.5977L282.4 91.6977Z" fill="white"/>
<path d="M420.1 75.0976C420.1 75.1976 420.1 75.1976 420.1 75.0976C420 75.0976 419.9 75.0976 419.9 74.9976H420C420.1 74.9976 420.1 75.0976 420.1 75.0976Z" fill="white"/>
<path d="M396.7 63.8977C396.5 63.9977 396.4 64.0977 396.6 63.9977C396.3 64.0977 396.5 63.9977 396.7 63.8977C396.7 63.9977 396.7 63.8977 396.7 63.8977Z" fill="white"/>
<path d="M415 73.0977C415 73.1977 415 73.1977 414.9 73.1977H414.8C414.8 73.1977 414.9 73.1977 415 73.0977Z" fill="white"/>
<path d="M418.1 72.6976C418.1 72.5976 418 72.5976 418 72.4976H418.1C418.1 72.5976 418.1 72.6976 418.1 72.6976Z" fill="white"/>
<path d="M415.2 72.0977C415.1 72.1977 415.1 72.1977 415 72.2977C414.9 72.1977 414.8 72.0977 414.8 71.9977C414.9 71.9977 415 71.8977 415.1 71.8977C415.1 71.8977 415.1 71.9977 415.2 72.0977Z" fill="white"/>
<path d="M393.7 64.2977C393.7 64.1977 393.7 64.1977 393.6 64.0977H393.7C393.8 64.0977 393.8 64.1977 393.7 64.2977Z" fill="white"/>
<path d="M288.3 95.6978H288.4V95.7978L288.3 95.6978Z" fill="white"/>
<path d="M176.7 133.598C177.7 131.798 178.7 129.998 179.7 128.298C179.8 128.398 180 128.498 180.1 128.498C180 130.098 178.9 131.298 178 132.498C177.8 132.898 177.2 133.198 176.7 133.598C176.7 133.498 176.7 133.598 176.7 133.598Z" fill="white"/>
<path d="M176.7 133.498C176.8 133.698 177.1 133.898 177.1 134.098C177.1 134.298 177 134.598 176.8 134.798C176.8 134.898 176.5 134.798 176.3 134.798C176.4 134.498 176.4 134.298 176.5 133.998C176.6 133.898 176.7 133.698 176.7 133.498Z" fill="white"/>
<path d="M172 143.198C172.1 143.198 172.2 143.298 172.3 143.298C172.2 143.398 172.1 143.498 172 143.498C171.9 143.498 171.8 143.398 171.8 143.298C171.8 143.298 171.9 143.298 172 143.198Z" fill="white"/>
<path d="M177.3 119.898C177.1 119.798 177 119.698 176.9 119.598C177 119.498 177.2 119.298 177.3 119.298C177.4 119.298 177.6 119.498 177.6 119.598C177.6 119.698 177.4 119.798 177.3 119.898Z" fill="white"/>
<path d="M186.6 161.498C186.5 161.498 186.4 161.598 186.4 161.598V161.498C186.5 161.498 186.6 161.398 186.6 161.398C186.6 161.398 186.6 161.398 186.6 161.498Z" fill="white"/>
<path d="M169.1 135.298C169 135.398 169 135.498 168.9 135.498C168.8 135.498 168.7 135.398 168.7 135.398C168.8 135.298 168.8 135.198 168.9 135.198C169 135.098 169.1 135.198 169.1 135.298Z" fill="white"/>
<path d="M172.2 134.298C172.1 134.098 172 133.998 171.9 133.798C171.9 133.698 171.9 133.498 171.9 133.298C171.9 133.298 172 133.298 172.1 133.298C172.1 133.398 172.2 133.598 172.2 133.698C172.2 133.898 172.1 134.098 172.2 134.298Z" fill="white"/>
<path d="M173.3 146.398C173.3 146.298 173.2 146.298 173.3 146.398C173.2 146.298 173.2 146.198 173.3 146.198C173.4 146.198 173.4 146.298 173.5 146.298C173.4 146.298 173.4 146.298 173.3 146.398Z" fill="white"/>
<path d="M187.5 170.998C187.5 171.098 187.6 171.098 187.6 171.198C187.5 171.198 187.5 171.198 187.4 171.198C187.4 171.098 187.5 171.098 187.5 170.998Z" fill="white"/>
<path d="M185.5 171.798C185.5 171.898 185.6 171.998 185.6 172.098C185.5 172.098 185.5 172.198 185.4 172.098C185.3 172.098 185.3 171.998 185.3 171.998C185.4 171.998 185.5 171.898 185.5 171.798Z" fill="white"/>
<path d="M98.7001 86.4977C98.6001 87.1977 98.5001 87.7977 98.3001 88.4977C98.1001 88.3977 97.6001 88.2977 97.6001 88.1977C97.7001 87.5977 97.8001 86.9977 97.9001 86.3977C98.1001 86.3977 98.4001 86.3977 98.7001 86.4977Z" fill="white"/>
<path d="M87.4002 120.698C86.8002 120.898 86.2002 121.098 85.7002 121.298C86.0002 120.098 86.0002 120.098 87.4002 120.698Z" fill="white"/>
<path d="M111.8 108.198C111.9 108.198 112 108.098 112 108.098C112.1 108.198 112.1 108.298 112.2 108.398C112.1 108.398 112 108.498 112 108.498C111.9 108.398 111.9 108.298 111.8 108.198Z" fill="white"/>
<path d="M116.6 100.398C116.6 100.498 116.6 100.498 116.6 100.598C116.5 100.598 116.4 100.598 116.3 100.498C116.3 100.498 116.3 100.398 116.3 100.298C116.4 100.298 116.5 100.398 116.6 100.398Z" fill="white"/>
<path d="M117.5 100.098C117.4 100.098 117.4 100.098 117.4 99.9977V99.8977C117.5 99.8977 117.5 99.9977 117.5 100.098Z" fill="white"/>
<path d="M114.4 109.298L114.3 109.198L114.4 109.098V109.298Z" fill="white"/>
<path d="M87.9998 111.598C87.9998 111.698 87.9998 111.698 87.8998 111.698H87.7998C87.8998 111.698 87.9998 111.698 87.9998 111.598Z" fill="white"/>
<path d="M250.5 117.198C249.7 116.198 248.9 115.298 248 114.298C248 114.298 248 114.298 248.1 114.198C249 115.098 249.8 115.998 250.7 116.898C250.7 117.098 250.6 117.098 250.5 117.198Z" fill="white"/>
<path d="M238.7 119.198C238.7 118.898 238.6 118.698 238.6 118.398H238.7C238.7 118.598 238.7 118.898 238.7 119.198Z" fill="white"/>
<path d="M381.9 108.098C380.2 107.098 378.5 105.998 376.9 104.898C376.5 104.698 376.1 103.998 376.2 103.698C376.4 103.098 377 102.598 377.5 101.998C377.5 101.898 378 102.098 378.1 102.298C379.5 104.098 380.9 105.898 382.2 107.798C382.1 107.898 382 107.998 381.9 108.098Z" fill="white"/>
<path d="M377.3 136.998C377.2 137.098 377.1 137.198 377 137.298C377 137.198 376.9 137.098 376.9 136.998C376.9 136.898 377 136.798 377.1 136.598C377.1 136.798 377.2 136.898 377.3 136.998Z" fill="white"/>
<path d="M376.4 126.898C376.3 126.898 376.2 126.798 376.1 126.798C376.1 126.698 376.2 126.598 376.2 126.498C376.3 126.598 376.4 126.598 376.6 126.698C376.5 126.698 376.5 126.798 376.4 126.898Z" fill="white"/>
<path d="M327.9 61.2979C327.8 61.1979 327.7 61.0979 327.7 60.9979C327.7 60.8979 327.9 60.8979 327.9 60.7979C328 60.8979 328.1 60.9979 328.1 61.0979C328.2 61.1979 328 61.1979 327.9 61.2979Z" fill="white"/>
<path d="M418.7 105.598H418.6L418.5 105.498C418.6 105.498 418.6 105.498 418.7 105.398C418.7 105.498 418.7 105.598 418.7 105.598Z" fill="white"/>
</svg>
