<svg width="142" height="231" viewBox="0 0 142 231" fill="none" xmlns="http://www.w3.org/2000/svg">
<path d="M107.951 224.981C107.774 218.34 107.508 211.699 107.331 205.058C107.154 199.568 107.066 193.989 106.977 188.499C106.977 187.171 106.977 186.197 105.118 186.463C104.144 186.551 102.993 186.108 102.107 185.577C99.8933 184.337 97.414 183.275 95.643 181.592C92.5438 178.67 89.6217 175.483 87.1424 172.029C84.5745 168.399 82.715 164.237 80.5013 160.341C79.2616 158.216 78.0219 156.09 76.9593 153.877C75.8968 151.752 75.0113 149.449 74.1258 147.236C73.1518 144.668 72.0892 142.1 71.3808 139.443C70.5839 136.433 69.8755 133.245 69.6098 130.146C69.0785 124.833 68.3702 119.52 68.6358 114.207C68.9014 108.806 70.3182 103.404 71.2922 98.0914C71.735 95.6121 72.4434 93.1327 73.2403 90.6534C73.9487 88.6168 74.7456 86.6687 75.8082 84.8092C77.4906 81.71 79.173 78.6994 81.1211 75.7773C83.8661 71.6155 87.2309 68.3392 92.2782 66.7454C98.8308 64.7087 105.383 63.9118 112.024 65.1515C116.54 66.037 120.525 68.5163 124.067 71.527C128.494 75.246 132.036 79.7619 135.136 84.6321C137.881 88.9709 139.386 93.7526 140.006 98.7113C140.714 103.847 140.891 108.983 141.245 114.119C141.6 118.812 140.448 123.239 139.74 127.844C138.855 133.511 136.995 138.912 135.313 144.402C133.896 149.184 131.859 153.788 129.38 158.216C126.812 162.82 123.89 167.248 120.259 171.055C117.072 174.42 114.769 178.228 112.29 182.035C111.316 183.54 111.405 185.046 111.493 186.728C111.67 189.65 111.493 192.572 111.582 195.494C111.67 200.542 111.759 205.589 111.936 210.636C112.024 216.48 112.202 222.325 112.29 228.257C112.29 229.763 111.316 230.471 109.545 230.648C107.863 230.825 107.863 229.586 107.686 228.523C107.597 227.992 107.774 227.372 107.774 226.752C107.774 226.221 107.774 225.689 107.774 225.158C107.863 224.981 107.951 224.981 107.951 224.981ZM111.227 175.394C113.53 172.738 115.832 170.17 117.957 167.425C120.525 164.148 123.27 160.872 125.395 157.242C127.52 153.434 129.026 149.184 130.62 145.022C131.505 142.808 132.036 140.506 132.656 138.204C133.542 134.839 134.339 131.474 135.136 128.021C135.844 124.744 136.818 121.468 136.906 118.103C136.995 113.056 136.729 107.92 136.11 102.962C135.578 98.8883 134.958 94.638 133.365 90.919C130.265 83.8352 125.661 77.7253 119.285 73.1208C116.275 70.9071 113.087 69.1362 109.368 68.9591C106.534 68.782 103.612 68.8705 100.779 69.1361C95.9972 69.5789 91.3927 70.5529 87.9393 74.2719C86.5225 75.6887 85.1943 77.2826 84.2203 78.965C82.0066 82.7726 79.8814 86.6687 78.0219 90.7419C76.7822 93.3984 76.0739 96.2319 75.1884 99.0654C74.1258 102.607 73.0632 106.149 73.1518 109.868C73.1518 113.853 72.9747 117.926 73.1518 121.911C73.4174 126.25 74.0372 130.5 74.6571 134.75C75.0113 136.787 75.8968 138.735 76.428 140.683C76.9593 142.631 77.1364 144.668 77.9334 146.439C80.6784 152.283 83.5119 158.039 86.434 163.794C87.4966 165.919 89.0019 167.779 90.4187 169.638C93.1637 173.092 95.8201 176.634 98.9193 179.733C100.867 181.681 103.347 183.54 106.712 182.655C106.712 182.212 106.8 181.858 106.8 181.504C106.623 173.534 106.446 165.654 106.18 157.684C106.18 156.533 106.357 155.294 104.586 155.294C104.498 155.294 104.321 155.116 104.232 155.028C102.196 153.257 100.159 151.486 98.1224 149.715C96.0857 147.944 94.0491 146.085 92.0125 144.314C90.6843 143.162 90.153 141.657 90.7729 140.949C91.7469 139.709 93.9606 139.178 95.2003 140.24C96.8827 141.746 98.4765 143.428 100.07 145.111C101.841 146.97 103.524 148.918 105.295 150.778C105.472 150.689 105.56 150.601 105.738 150.601C105.295 147.856 104.941 145.022 104.498 142.277C104.498 142.011 104.055 141.834 103.878 141.569C101.753 139.355 99.4506 137.23 97.414 134.839C94.2262 131.031 91.3927 126.87 87.9393 123.328C85.9913 121.38 87.0538 119.254 86.0798 117.395C86.0798 117.306 86.1684 117.218 86.1684 117.129C87.3195 114.738 90.2416 114.384 91.924 116.421C92.898 117.572 93.7835 118.812 94.7575 120.051C96.8827 122.796 99.0078 125.453 101.133 128.198C101.487 128.641 102.018 128.995 102.55 129.437C102.461 125.541 102.284 121.822 102.196 118.103C102.196 116.509 102.638 116.067 104.498 115.978C105.826 115.89 106.8 116.864 106.8 118.192C106.8 118.635 106.889 119.077 106.889 119.52C108.837 116.775 110.696 114.03 112.644 111.462C114.327 109.337 115.921 107.035 118.488 105.884C119.462 105.441 120.614 104.998 121.145 106.238C121.411 106.858 121.056 108.009 120.614 108.629C119.02 110.842 117.072 112.79 115.566 115.004C113.884 117.395 111.936 119.786 111.316 122.885C110.785 125.541 109.545 126.25 106.446 125.984C107.154 131.031 107.863 135.99 108.571 140.949C108.748 141.037 108.925 141.126 109.102 141.214C109.191 140.949 109.368 140.683 109.457 140.417C110.873 137.85 112.202 135.193 113.795 132.802C115.921 129.349 118.223 126.073 120.614 122.796C120.968 122.265 121.942 122.265 122.65 121.999C122.827 122.708 123.27 123.593 123.093 124.213C122.65 125.718 121.942 127.224 121.233 128.729C119.108 132.891 116.983 137.053 114.858 141.214C114.415 142.011 114.061 142.808 113.53 143.517C113.176 143.959 112.556 144.491 112.113 144.402C111.139 144.314 110.165 143.959 108.925 143.694C111.139 153.965 110.696 164.768 111.227 175.394Z" fill="black"/>
<path d="M33.5712 123.859C30.9147 124.656 29.3208 122.974 27.727 121.734C25.7789 120.229 23.9194 118.546 22.237 116.775C20.466 114.916 18.9607 112.968 17.3668 110.931C15.0646 108.097 12.6738 105.352 10.7257 102.342C9.13186 99.8625 7.80364 97.206 6.74106 94.461C5.05864 90.2993 3.55332 86.049 2.4022 81.7101C1.51671 78.3453 1.16253 74.7148 0.808332 71.1729C0.365591 67.5424 -0.0771513 63.9119 0.0113969 60.2814C0.0999452 56.9166 0.719779 53.6403 1.16252 50.2755C1.78236 45.4053 3.37623 40.7123 5.32429 36.1963C6.91816 32.3887 8.15783 28.4041 10.0173 24.7736C11.7883 21.2317 14.002 17.7783 17.0126 15.0333C20.466 11.9341 23.8309 8.65782 27.5499 5.82428C31.6231 2.72509 36.3162 0.599937 41.3634 0.0686478C44.3741 -0.285545 47.2961 0.777033 50.0411 2.1938C55.8853 5.11589 59.073 9.98604 61.1097 15.9188C62.8806 21.1431 63.8547 26.5446 64.7401 32.0345C65.8027 38.2329 65.7142 44.4313 65.0943 50.6297C64.6516 54.88 63.8547 59.0417 63.0577 63.2035C62.1722 67.808 61.1097 72.5011 59.9585 77.017C59.0731 80.3819 58.1876 83.7467 56.9479 86.9344C55.9739 89.5023 54.38 91.8046 52.9632 94.1954C49.6869 99.6854 46.3221 105.087 43.0458 110.577C41.1863 113.676 39.3268 116.864 37.7329 120.051C37.2016 121.114 37.2902 122.531 37.3787 123.77C37.6444 129.792 37.9986 135.813 38.4413 141.834C38.707 145.642 39.4154 149.361 39.7695 153.08C39.9466 154.585 39.7695 156.002 39.8581 157.507C39.9466 159.367 38.4413 160.252 37.3787 161.138C36.5818 161.758 36.0505 160.961 36.0505 159.898C36.0505 156.887 36.0505 153.877 35.8734 150.866C35.5192 147.059 34.8108 143.34 34.5452 139.532C34.191 134.75 34.0139 130.057 33.7483 125.276C33.5712 125.01 33.5712 124.567 33.5712 123.859ZM50.0411 63.9119C49.9526 64.8859 50.0411 65.9485 49.6869 66.5684C48.5358 68.4279 47.2961 70.1103 45.9679 71.7927C42.8687 75.7774 39.681 79.762 36.5818 83.7467C36.1391 84.278 35.8734 85.0749 35.8734 85.7833C35.8734 93.3099 35.8734 100.837 36.0505 108.363C36.0505 109.957 36.4047 111.551 36.5818 113.499C37.0245 112.879 37.2016 112.613 37.3787 112.259C39.2383 108.894 41.0092 105.53 42.9573 102.253C45.2595 98.2686 47.8274 94.461 50.2182 90.4764C51.3694 88.6169 52.5205 86.6688 53.2289 84.6322C54.2914 81.7101 54.9998 78.6109 55.7968 75.5117C56.5937 72.5011 57.3021 69.4019 58.0105 66.3027C58.5418 64.0005 58.8959 61.6096 59.3387 59.3074C60.0471 54.9685 60.9326 50.5411 61.2868 46.2023C61.7295 41.5092 61.5524 36.8162 60.4013 32.2116C59.2502 27.43 58.6303 22.4713 57.3021 17.6897C56.3281 14.2364 54.9113 10.783 52.1663 8.03799C48.1816 4.14187 43.4886 2.72509 38.2642 4.31896C33.5712 5.73573 29.5865 8.56927 25.8675 11.757C23.211 14.0593 20.466 16.5386 18.2523 19.2836C16.1272 21.9401 14.4448 24.9507 12.7623 27.8728C11.6112 29.9094 10.8143 32.0345 10.0173 34.2483C8.24638 38.9413 6.20977 43.6344 5.05864 48.416C3.99606 52.9319 3.64187 57.625 3.46478 62.2295C3.37623 65.7714 3.90752 69.4019 4.35026 72.9438C4.88155 76.5743 5.50138 80.2048 6.38687 83.7467C7.0067 86.4031 7.89219 88.971 8.95476 91.5389C10.1944 94.3725 11.4341 97.2946 13.2051 99.7739C15.8615 103.581 18.8722 107.123 21.7943 110.665C23.8309 113.056 25.8675 115.447 28.1697 117.661C29.2323 118.635 30.7376 119.166 32.1544 119.697C32.3315 119.786 33.1284 119.166 33.1284 118.9C33.0399 116.332 32.8628 113.765 32.6857 111.108C32.42 107.123 32.0658 103.139 31.8887 99.1541C31.8002 96.232 31.9773 93.2214 32.0659 90.2993C32.0659 89.4138 31.8888 88.8825 30.7376 88.7054C28.6125 88.5283 28.0812 86.9344 29.3209 85.0749C29.5865 84.6322 29.5865 83.7467 29.3209 83.3925C26.8415 80.0277 24.2736 76.7514 21.8828 73.3866C20.0233 70.7301 18.518 67.8966 15.5959 66.1256C15.1531 65.86 14.5333 65.3287 14.5333 64.7974C14.4448 64.089 14.5333 63.0264 15.0646 62.5837C16.0386 61.5211 18.6065 61.8753 19.492 63.115C22.6797 67.3653 25.7789 71.6156 28.8781 75.7774C29.8521 77.1056 30.8262 78.3453 31.8887 79.8506C32.0658 79.4078 32.2429 79.3193 32.2429 79.1422C32.42 76.5743 32.5971 74.0064 32.5971 71.3499C32.5971 70.9958 32.1544 70.553 31.8002 70.2874C30.9147 69.6675 29.7636 69.3133 29.1438 68.5164C26.2217 64.6203 23.3881 60.6356 20.5546 56.7395C19.6691 55.4998 18.518 54.4372 17.6325 53.2861C16.8356 52.3121 16.747 51.3381 17.9867 50.5411C19.8462 49.3014 20.6431 49.2129 21.9713 51.0724C24.0965 53.9945 25.956 57.0051 27.9041 60.0158C29.4094 62.318 31.0033 64.7088 32.5086 67.0111C32.6857 67.0111 32.8628 66.9225 33.0399 66.9225C33.1284 66.4798 33.217 66.0371 33.217 65.6829C33.3055 62.9379 33.3055 60.2814 33.3941 57.5364C33.3941 55.854 34.1025 55.3227 35.6963 55.4998C37.6444 55.6769 38.1757 56.4739 37.8215 58.3334C37.4673 60.1043 37.3787 61.9638 37.2016 63.8233C37.3787 63.8233 37.5558 63.9119 37.7329 63.9119C38.5299 63.2035 39.5039 62.6722 40.0352 61.8753C42.9573 57.8906 45.7023 53.7289 48.5358 49.7442C49.9526 47.7076 51.8121 46.1137 54.2029 45.0511C55.1769 47.4419 53.8487 48.9473 52.7861 50.4526C51.4579 52.3121 50.0411 54.1716 48.7129 56.1197C46.4107 59.4845 44.2855 62.9379 41.9832 66.3027C40.8321 67.8966 39.3268 68.9591 36.8475 67.808C36.4933 70.8187 36.1391 73.6522 35.8734 76.4857C36.0505 76.4857 36.2276 76.5743 36.3162 76.5743C36.5818 76.3086 36.936 76.043 37.2016 75.7774C39.4153 73.1209 41.5405 70.4645 43.8428 67.808C45.5252 66.3027 46.9419 64.2661 50.0411 63.9119Z" fill="black"/>
</svg>
