<svg width="647" height="717" viewBox="0 0 647 717" fill="none" xmlns="http://www.w3.org/2000/svg">
<path d="M519.075 534.744C519.075 538.657 519.27 542.569 519.075 546.286C519.075 547.655 517.901 549.025 517.901 550.199C518.097 551.568 519.466 552.742 519.662 554.111C519.857 556.067 519.662 558.024 519.466 559.98C519.466 560.371 518.879 560.763 518.684 560.763C518.488 560.763 517.901 560.371 517.705 559.98C517.314 559.002 516.727 558.024 516.532 557.046C515.945 553.133 515.162 549.22 514.967 545.308C514.575 536.505 514.38 527.701 514.38 518.898C514.38 514.203 515.162 509.508 515.749 505.009C516.727 499.336 517.51 493.662 519.075 488.185C521.031 480.36 523.77 472.73 525.922 465.101C526.313 464.123 526.313 462.949 526.509 461.775C525.922 462.558 525.335 463.34 524.748 464.123C521.031 469.209 517.118 474.491 513.206 479.577C512.228 480.751 510.858 481.925 509.489 482.707C506.75 484.272 503.816 482.512 503.425 479.382C503.033 474.686 505.185 470.578 506.75 466.274C506.75 466.079 506.946 466.079 506.946 466.079C507.337 464.905 507.728 463.731 508.12 462.558C507.533 463.536 506.946 464.514 506.163 465.296C502.642 469.013 499.121 472.535 495.404 476.056C494.621 476.838 493.448 477.23 492.274 477.425C488.361 478.012 486.405 476.056 487.383 472.339C488.166 469.405 489.731 466.666 490.904 463.927C491.1 463.536 490.904 462.949 490.904 462.558C490.513 462.753 490.122 463.144 489.926 463.34C488.361 465.296 486.992 467.253 485.622 469.209C483.275 472.339 480.341 474.882 476.037 474.686C475.45 474.686 474.863 475.273 474.276 475.665C473.298 476.251 472.515 477.23 471.537 477.816C467.82 479.968 464.69 479.186 462.93 475.273C462.147 473.317 461.756 473.904 460.778 474.882C459.017 476.838 457.648 479.186 454.713 479.968C452.953 480.36 451.583 480.555 450.214 478.99C449.04 477.621 448.845 476.056 449.823 474.491C453.148 468.622 456.278 462.558 460.191 457.08C465.668 449.255 471.537 441.625 477.602 434.387C484.84 425.78 491.296 416.39 500.49 409.347C500.881 409.151 501.077 408.564 501.273 408.369C500.881 408.173 500.49 407.978 500.099 407.978C499.121 407.782 497.947 407.782 496.969 407.586C495.599 407.391 494.034 406.804 495.208 409.347C495.404 409.934 494.426 411.108 493.839 411.89C489.144 416.585 484.253 421.085 479.949 426.171C472.907 434.387 466.255 442.604 459.604 451.211C456.67 455.124 454.322 459.428 451.779 463.536C451.583 463.731 452.17 464.709 452.17 464.709C454.518 463.927 453.735 465.101 453.148 466.274C452.757 466.861 451.975 467.448 451.583 468.035C450.214 469.6 448.649 469.6 446.888 468.818C444.932 467.84 445.323 466.274 445.519 464.905C445.91 463.144 446.301 462.166 443.758 461.971C441.019 461.775 440.237 459.036 441.606 455.906C442.976 453.167 444.345 450.233 446.106 447.69C452.953 438.495 459.995 429.301 467.038 420.106C470.364 415.803 474.08 411.694 477.602 407.586C477.993 407.195 478.189 406.608 478.384 406.021C477.797 405.826 477.211 405.434 476.624 405.239C474.08 404.847 471.537 404.848 468.994 404.456C466.06 403.869 464.495 406.021 462.93 407.782C462.147 408.564 461.56 409.738 460.778 410.716C461.56 409.934 462.538 409.347 463.321 408.564C464.495 407.782 465.473 406.608 466.647 406.021C468.212 405.239 469.972 405.826 470.364 407.391C470.755 408.369 470.364 410.325 469.777 410.716C463.517 415.02 459.604 421.28 455.105 426.953C450.214 433.213 445.715 440.06 441.019 446.516C440.237 447.494 440.041 448.668 440.041 450.233C439.846 452.189 438.085 454.341 436.52 455.906C435.933 456.493 433.977 456.297 432.999 455.906C432.216 455.515 431.238 453.754 431.629 453.167C432.412 451.211 431.238 450.624 430.064 449.842C427.912 448.668 427.521 447.299 428.499 445.147C429.869 442.604 431.042 439.865 432.607 437.517C438.672 428.91 445.128 420.302 451.388 411.694C451.583 411.303 451.779 410.716 451.975 410.325C451.583 410.521 451.192 410.912 450.801 411.108C441.019 419.324 432.412 428.323 426.739 439.865C426.347 440.647 425.369 441.234 424.587 441.821C423.804 440.843 422.435 440.06 422.239 439.082C422.044 437.713 422.435 436.148 423.022 434.778C426.934 426.562 432.803 420.106 439.259 413.651C439.846 413.064 440.237 412.673 440.824 412.086C441.019 411.89 441.019 411.499 441.215 411.303C441.019 411.499 440.628 411.499 440.433 411.694C433.781 416.389 427.13 420.889 420.87 425.78C415.588 429.692 410.502 433.8 405.611 438.104C396.416 446.125 386.831 453.754 378.419 462.753C372.354 469.6 366.29 476.447 360.812 483.685C359.834 484.859 359.052 486.228 358.465 487.402C358.269 487.793 358.073 488.38 357.878 488.967C358.465 488.772 359.052 488.772 359.443 488.576C363.551 486.62 367.659 484.663 371.767 482.707C382.331 477.816 392.895 472.73 403.459 468.035C408.154 465.883 413.24 463.927 418.131 462.362C420.674 461.579 423.413 461.775 426.152 461.971C429.282 462.362 429.869 464.905 427.912 467.448C419.892 476.643 410.306 484.272 401.111 491.902C392.113 499.531 382.722 506.574 373.332 513.616C365.116 519.681 356.704 525.354 348.488 531.223C342.032 535.722 335.381 540.222 328.925 544.721C321.491 549.612 314.057 554.502 306.819 559.589C300.559 563.893 294.299 568.392 288.234 573.283C279.823 579.934 271.411 586.977 263.194 594.019C255.173 600.866 247.153 607.909 239.523 615.147C228.959 625.124 219.961 636.47 212.331 648.795C208.223 655.446 205.875 663.271 202.55 670.509C201.572 672.661 200.398 674.618 199.42 676.77C197.659 680.682 195.507 684.595 194.725 688.703C194.333 691.246 195.898 694.18 197.072 696.919C199.42 702.201 202.158 707.092 204.702 712.178C204.897 712.765 205.288 713.352 205.093 713.939C204.897 714.721 204.702 715.699 204.115 716.286C203.723 716.678 202.55 716.286 201.963 715.895C197.855 713.352 196.29 708.852 194.333 704.94C192.768 701.81 192.573 697.897 189.247 695.745C188.856 695.55 189.247 694.18 189.247 693.202C189.247 692.811 189.247 692.42 189.051 692.028C188.66 692.42 188.269 692.615 188.073 693.007C187.095 694.963 186.117 696.528 187.291 699.071C188.465 701.419 188.465 704.353 188.856 707.092C188.856 707.679 188.465 708.461 188.073 709.244C187.486 708.852 186.704 708.461 186.313 707.874C185.726 707.092 185.53 706.309 184.943 705.527C183.574 703.179 183.574 703.375 182.009 705.527C181.618 706.114 180.835 706.114 180.248 706.505C179.857 705.722 179.466 705.135 179.27 704.353C179.27 703.962 179.661 703.57 179.857 703.179C180.639 700.44 180.835 698.093 179.074 695.354C170.858 682.638 162.642 669.727 155.012 656.62C150.122 648.208 145.427 639.405 141.71 630.406C136.623 618.081 133.298 605.366 131.537 592.063C130.754 585.216 129.189 578.369 128.211 571.326C126.451 557.632 124.299 543.939 125.081 530.049C125.277 524.767 125.081 519.485 125.081 514.203C125.081 512.443 124.886 512.443 123.125 512.834C117.256 514.399 113.735 518.507 110.018 522.615C105.714 527.31 101.215 532.005 96.9109 536.896C94.9547 539.048 93.194 541.395 91.4334 543.743C90.2596 545.308 88.8902 547.069 86.5427 546.286C84.1952 545.504 83.217 543.743 83.4126 541.395C84.1952 535.918 84.782 530.44 86.3471 525.158C88.1077 518.507 90.064 511.66 92.8028 505.4C95.1503 499.727 98.8672 494.64 101.997 489.163C105.323 483.294 109.04 477.621 112.365 471.556C114.713 467.644 116.669 463.536 118.821 459.428C119.017 459.036 119.212 458.449 119.408 457.863C119.017 458.254 118.626 458.645 118.43 459.036C115.496 464.318 112.561 469.6 109.431 474.686C107.475 478.208 105.323 481.533 103.171 484.859C102.975 485.25 101.997 485.25 101.41 485.642C101.215 485.055 100.628 484.272 100.823 483.881C101.606 481.729 102.388 479.773 103.367 477.816C107.475 469.405 111.779 460.993 115.887 452.581C116.082 451.994 116.278 451.602 116.474 451.016C116.082 451.211 115.496 451.407 115.104 451.602C112.17 453.754 109.235 456.102 106.105 458.449C105.127 459.232 104.736 459.623 105.91 460.797C106.497 461.384 106.497 463.144 106.105 464.123C104.932 467.057 103.562 469.796 102.193 472.73C99.8453 477.425 97.3022 482.12 94.759 486.815C92.2159 491.51 89.6727 496.01 87.1296 500.705C85.7602 503.052 85.3689 505.009 85.5645 507.943C85.7602 511.073 83.4126 514.594 82.0433 517.92C81.8476 518.311 80.4782 518.703 79.8914 518.507C77.1526 516.746 76.3701 518.898 75.7832 520.659C74.6094 524.18 72.4575 527.115 69.7187 529.462C67.7625 531.223 64.0455 529.853 63.6543 527.115C63.4586 525.745 63.4587 524.18 63.8499 523.006C66.1974 516.746 68.3493 510.291 71.0881 504.031C75.7832 493.858 80.6739 483.881 85.5645 473.904C85.7602 473.317 85.7602 472.535 85.9558 471.948C85.3689 472.143 84.782 472.143 84.3908 472.339C83.217 473.317 81.652 474.295 80.8695 475.469C72.8488 488.772 66.9799 503.052 60.9155 517.529C58.1767 524.18 55.4379 530.636 52.8948 537.287C52.3079 539.048 52.1123 541.2 51.9166 542.96C53.0904 541.395 54.4598 540.026 55.6336 538.461C56.0248 538.07 56.0248 537.287 56.4161 536.896C57.1986 536.505 58.1767 536.309 59.1549 535.918C58.9592 536.7 58.9592 537.483 58.7636 538.07C57.7855 540.809 56.6117 543.352 55.6336 546.09C54.8511 548.242 53.286 550.003 50.9385 549.807C48.3954 549.612 46.0478 546.09 46.2435 543.352C46.2435 542.96 46.4391 542.374 46.6347 541.982C46.6347 541.787 46.4391 541.395 46.2435 541.2C46.0478 541.395 45.6566 541.591 45.6566 541.982C44.4828 544.721 43.5047 547.655 42.1353 550.394C41.5484 551.764 40.7659 553.133 39.5921 554.111C38.0271 555.481 36.2665 557.241 33.7233 555.676C31.1801 554.111 30.202 552.742 30.5933 549.612C30.9845 547.264 31.767 545.112 32.3539 542.765C32.5495 542.178 32.3539 541.591 32.5495 541.004C32.1583 541.395 31.9627 541.787 31.5714 542.178C30.9845 542.96 30.3976 543.939 29.6151 544.721C28.637 545.895 27.2676 546.482 25.8982 545.699C24.5288 544.917 22.9638 544.525 22.7682 542.373C22.3769 538.265 23.7463 534.548 24.7244 530.831C27.6588 521.246 31.5714 512.051 35.8752 502.857C37.049 500.509 38.0271 497.966 39.2009 495.423C39.3965 495.227 39.2009 494.836 39.3965 494.445C39.0052 494.64 38.8096 494.64 38.4184 494.836C33.5277 496.988 31.5714 501.292 29.8108 505.791C28.2457 509.508 26.6807 513.421 25.3113 517.138C21.79 527.31 18.4644 537.483 15.3343 547.655C14.7474 549.416 15.3343 551.372 15.1387 553.133C14.7474 556.459 13.7693 557.241 10.8349 555.676C9.26988 554.894 9.26988 555.676 8.09611 556.654C4.37919 559.98 6.13984 563.893 6.13984 567.609C5.94421 573.478 6.92235 578.956 10.0524 584.042C10.8349 585.216 10.6393 586.977 10.8349 588.542C10.8349 588.542 9.46551 588.933 9.26988 588.737C7.3136 586.39 4.77045 584.238 3.40106 581.499C1.24916 577 0.27102 572.305 0.0753923 567.218C-0.315862 557.437 0.857902 547.851 2.61855 538.265C4.18357 529.658 6.53109 521.441 10.0524 513.616C12.0087 509.508 14.5518 505.791 17.2906 502.074C20.0294 498.357 23.9419 496.792 27.4632 494.445C32.3539 491.315 37.4402 488.576 42.3309 485.25C44.0915 484.077 45.2653 482.12 46.6347 480.36C48.1997 478.208 48.7866 478.012 50.156 480.164C50.9385 481.533 51.721 481.729 52.8948 481.142C54.8511 480.36 57.1986 480.164 58.3723 477.621C58.568 477.034 59.9374 476.447 60.3286 476.643C62.2849 477.621 63.6543 476.251 65.2193 475.469C72.4575 471.752 79.8914 468.035 86.7383 463.927C92.4115 460.601 97.4978 456.493 102.78 452.776C108.649 448.472 114.713 444.56 120.386 440.06C126.646 435.17 132.711 430.083 138.58 424.801C140.145 423.432 140.731 420.693 141.514 418.541C142.492 415.998 143.079 415.216 145.427 416.194C146.992 416.781 147.578 416.194 148.361 415.411C151.687 411.694 155.208 407.978 158.142 404.065C159.12 402.891 158.925 400.739 158.925 398.979C158.729 395.849 159.316 394.871 162.25 395.262C164.011 395.457 164.794 395.066 165.576 393.501C167.924 389.002 170.858 384.893 172.423 380.198C173.792 376.286 174.184 371.786 174.575 367.483C175.358 360.44 176.336 353.397 176.531 346.159C176.727 338.139 178.488 329.922 176.336 321.706C175.553 318.967 175.749 316.033 175.749 313.294C176.14 305.078 174.184 297.252 172.814 289.427C172.423 287.471 171.641 286.689 169.489 286.689C165.576 286.884 162.642 284.732 160.49 281.602C155.599 273.973 151.491 265.756 149.339 256.758C148.361 252.649 146.796 248.737 146.013 244.629C145.035 239.934 144.057 235.043 143.861 230.152C143.47 223.305 143.666 216.263 143.861 209.416C144.057 204.916 144.644 200.613 145.231 196.113C145.622 193.179 147.97 191.222 151.1 191.222C152.86 191.222 152.665 190.831 152.273 189.657C150.122 183.593 147.578 177.724 146.013 171.464C143.861 163.248 142.492 154.836 140.927 146.424C139.753 139.772 139.949 132.925 141.514 126.274C142.883 120.797 145.035 115.71 148.361 111.015C149.535 109.45 149.535 107.885 149.535 105.929C149.73 102.408 150.904 98.8863 152.469 95.7563C153.643 93.4087 154.23 91.0612 154.23 88.5181C154.23 78.5411 154.621 68.5641 157.751 58.9783C162.055 45.48 169.097 33.7424 180.444 24.9392C181.031 24.3523 181.813 23.5698 181.813 22.7873C182.4 15.7447 186.313 10.6584 191.986 7.3327C196.877 4.39829 202.158 1.85514 207.636 0.681374C216.439 -1.2749 224.851 1.07263 232.089 6.55019C235.806 9.4846 238.936 13.2015 242.262 16.5272C247.935 22.396 254.587 26.5042 262.607 28.4605C264.955 29.0473 267.498 29.243 269.846 29.0473C274.149 28.4605 278.257 28.8517 282.366 30.0255C284.909 30.808 287.061 30.0255 289.408 29.243C296.451 26.5042 303.689 23.7654 311.319 23.7654C322.665 23.5698 333.033 27.0911 342.619 32.7643C350.053 37.0681 357.487 40.9806 365.312 44.3063C369.029 45.8713 372.354 48.6101 375.093 51.5445C379.788 56.8264 383.114 62.8909 385.07 69.9335C385.461 71.1072 386.048 72.281 386.635 73.4548C387.222 75.2154 388.591 77.1717 386.831 78.9323C386.635 79.128 386.635 79.7148 386.635 79.9105C387.222 82.4536 387.418 85.1924 388.591 87.1487C389.961 89.3006 392.113 91.0612 394.265 92.8219C397.199 95.1694 400.329 97.5169 403.655 99.6688C410.697 104.56 412.849 111.993 414.219 119.818C415.392 127.839 416.175 136.056 419.5 143.685C420.283 145.837 419.109 146.424 417.74 146.619C415.784 146.815 414.219 146.033 413.24 144.076C411.675 141.142 410.11 138.403 408.154 135.86C406.393 133.708 405.22 134.099 404.046 136.642C403.655 137.621 403.263 138.794 402.872 139.968C401.698 143.294 402.285 145.25 405.415 147.011C406.589 147.598 407.958 147.989 409.328 148.38C412.262 149.163 413.632 150.923 413.632 154.053C413.632 155.031 413.436 156.009 413.436 156.792C413.045 160.313 412.654 164.03 412.262 167.551C411.871 172.247 411.48 176.942 411.088 181.441C410.697 184.571 410.697 184.767 413.827 185.549C416.566 186.136 417.935 188.679 419.305 190.636C424 196.896 424.391 203.938 422.63 210.981C420.674 218.806 418.522 226.631 415.392 234.26C412.458 241.499 410.306 248.932 408.154 256.366C405.611 264.778 403.459 273.19 401.111 281.407C400.72 282.972 398.764 284.341 401.894 285.319C402.285 285.515 402.481 286.689 402.676 287.471C403.263 299.6 403.655 311.729 404.046 323.858C404.046 326.792 403.459 329.531 403.263 332.465C403.068 334.03 401.894 333.639 401.307 333.248C400.72 332.857 399.155 334.226 399.155 332.074C398.96 325.814 398.764 319.554 398.373 313.294C398.373 312.903 397.786 312.511 397.59 311.924C397.199 312.316 396.808 312.903 396.612 313.294C396.416 316.815 396.221 320.532 395.83 324.053C395.634 325.227 394.656 326.988 393.873 327.183C391.917 327.77 391.917 328.944 391.721 330.509C390.939 335.791 390.156 340.877 389.178 345.964C388.983 346.746 388.396 347.92 388.004 347.92C384.483 348.116 386.048 350.463 386.439 351.832C387.613 354.962 388.787 358.288 390.548 361.027C395.438 369.243 400.525 377.264 407.567 384.111C413.827 390.175 421.457 393.697 429.673 395.653C435.346 397.022 441.215 397.609 446.888 398.587C448.845 398.783 450.605 398.783 451.388 396.436C451.975 394.479 453.735 394.87 455.3 395.066C457.648 395.653 460.191 396.044 462.538 396.631C464.299 397.022 465.864 397.609 467.429 396.24C467.82 395.849 468.994 396.044 469.385 396.24C472.907 398.783 477.211 398.001 481.123 398.587C494.034 400.348 506.946 401.717 519.662 403.674C538.833 406.608 556.048 414.629 571.503 426.562C580.111 433.213 586.957 441.821 592.826 451.211C599.869 462.558 606.129 474.295 612.976 485.642C616.693 491.706 621.192 497.379 624.909 503.444C627.844 508.139 629.995 513.029 632.343 517.92C632.734 518.703 632.734 519.876 632.343 520.659C631.756 522.028 630.974 523.006 630.191 524.18C629.409 523.006 628.43 522.028 628.039 520.854C625.692 513.812 621.975 507.356 617.475 501.487C609.063 490.141 602.412 477.816 595.565 465.688C589.696 455.319 583.045 445.342 575.024 436.539C572.09 433.409 568.568 430.866 565.243 427.932C563.873 426.758 562.504 427.149 561.135 427.932C558.005 430.083 555.266 432.431 553.31 435.757C548.223 444.755 543.137 453.559 538.051 462.362C536.877 464.318 535.312 465.688 534.138 467.448C531.791 471.165 529.443 474.686 528.66 479.186C526.704 487.989 524.357 496.792 522.987 505.791C521.618 514.79 521.618 523.985 520.835 532.983C518.879 534.548 518.879 534.744 519.075 534.744ZM350.053 406.413C349.27 406.608 348.488 406.999 347.705 407.195C344.575 407.978 343.988 407.782 343.401 404.261C343.01 402.696 343.01 400.935 342.815 399.37C342.423 397.609 341.836 396.044 341.445 394.284C341.445 396.044 341.054 398.001 341.445 399.761C341.836 401.326 342.032 403.282 340.663 403.869C338.902 404.456 336.946 406.413 334.794 404.652C333.424 403.478 333.62 404.456 333.424 405.434C333.424 407.195 333.424 408.956 333.424 410.716C333.229 413.651 330.686 412.673 329.121 413.259C327.164 413.846 327.36 411.89 327.36 411.108C326.969 408.173 326.773 405.239 326.382 402.5C326.382 402.109 326.186 401.913 326.186 401.522C325.991 401.717 325.991 402.109 325.795 402.304C325.795 402.696 325.599 403.282 325.599 403.674C325.795 406.021 326.186 408.564 326.186 410.912C326.186 412.281 326.577 414.042 324.621 414.238C322.861 414.238 322.274 413.259 322.469 411.303C322.665 409.347 322.078 407.391 321.882 405.434C321.687 403.478 320.709 403.087 318.948 403.087C315.427 403.283 315.231 403.087 315.035 399.566C315.035 398.979 315.035 398.392 314.84 397.805C314.644 398.392 314.057 398.979 314.057 399.761C313.47 403.674 313.079 407.391 312.492 411.303C312.101 414.042 310.34 415.411 307.797 415.216C305.058 414.824 305.841 412.673 305.841 411.108C306.037 395.262 306.232 379.416 306.428 363.57C306.428 361.418 306.232 359.071 306.623 356.919C306.819 355.745 307.406 353.984 308.384 353.397C309.167 352.811 310.927 353.593 312.101 353.006C312.884 352.615 313.275 351.05 313.862 350.072C314.057 349.876 314.253 349.876 314.449 349.681C317.383 348.311 319.535 349.681 319.535 353.006C319.73 357.506 319.926 361.809 320.317 366.309C320.513 369.439 323.056 367.483 324.426 367.678C326.186 368.07 325.404 366.309 325.404 365.526C325.404 362.592 325.404 359.462 325.599 356.528C325.795 355.158 326.577 354.376 328.338 354.18C331.077 353.984 331.664 353.397 331.859 350.854C331.859 348.702 332.055 346.746 332.055 344.594C331.859 341.855 333.033 340.29 335.772 340.29C337.337 340.29 337.728 339.508 337.728 338.139C337.728 337.356 337.533 336.182 337.924 335.791C338.902 334.813 340.076 333.835 341.445 333.444C342.815 333.052 343.793 334.226 343.988 335.791C344.38 340.29 344.966 344.79 345.162 349.485C345.358 354.18 344.771 359.071 344.966 363.766C345.358 371.004 346.14 378.242 346.727 385.48C346.727 386.459 346.923 387.241 347.118 388.219C347.314 387.241 347.705 386.459 347.705 385.48C347.901 382.742 348.488 380.198 348.292 377.46C348.096 368.461 348.096 359.462 347.51 350.463C347.118 341.66 346.336 332.661 345.553 323.858C345.358 321.902 345.749 320.532 347.705 320.336C349.661 320.141 349.27 319.163 348.683 317.989C347.314 315.446 345.553 313.098 344.38 310.359C343.401 308.403 342.423 307.229 340.076 308.794C339.489 309.186 338.511 308.794 337.728 308.794C337.337 308.794 336.75 308.794 336.359 308.99C333.62 311.924 333.424 311.924 330.49 308.99C330.294 308.794 329.903 308.599 329.707 308.403C329.707 308.794 329.903 308.99 329.707 309.381C329.512 311.533 328.142 312.707 325.991 311.924C325.012 311.533 324.034 310.751 323.056 309.968C322.078 308.99 321.687 308.794 321.1 310.359C320.513 311.924 318.752 312.316 317.187 311.142C316.014 310.164 314.84 309.186 313.862 308.012C313.079 307.034 312.492 306.643 310.927 307.229C309.753 307.621 307.602 307.425 306.819 306.643C304.863 304.491 303.298 304.099 301.146 306.251C300.755 306.643 299.972 306.643 299.385 306.447C298.211 306.056 298.016 306.643 297.429 307.425C296.842 308.403 295.081 309.186 294.103 309.186C293.125 308.99 292.147 307.621 291.365 306.643C290.973 306.056 290.778 305.078 290.778 304.295C290.582 302.534 290.191 302.143 288.821 303.513C286.865 305.469 285.104 307.621 282.953 309.577C280.409 311.729 277.279 310.751 276.692 307.425C276.497 306.838 276.692 306.056 276.692 305.273C276.692 304.686 276.497 304.295 276.301 303.708C276.106 304.099 275.714 304.491 275.519 304.882C274.149 307.621 272.78 310.359 271.411 312.903C270.041 315.446 267.694 315.837 266.324 313.49C265.737 312.511 265.542 310.751 265.933 309.577C267.498 305.469 269.454 301.556 271.215 297.448C271.606 296.47 272.193 295.492 272.193 294.514C272.193 293.927 271.411 293.144 270.824 292.753C270.237 292.557 269.454 292.753 268.867 292.753C268.867 293.34 268.867 294.122 269.259 294.709C270.041 296.079 269.65 296.861 268.672 297.839C267.889 298.426 266.911 299.209 266.324 299.991C264.955 302.339 262.999 304.295 262.999 307.621C262.999 310.555 260.26 313.294 258.499 316.033C258.108 316.62 256.738 316.62 255.956 316.424C253.608 316.033 252.63 313.49 253.608 310.751C253.804 310.359 253.804 309.968 253.804 309.577C253.413 309.773 253.022 309.968 252.826 310.359C250.87 312.903 248.913 315.641 246.957 318.185C246.175 319.358 245.001 319.945 243.631 318.967C242.262 317.989 241.284 317.011 242.653 315.25C243.24 314.663 243.631 313.881 244.023 313.098C244.61 312.12 245.001 311.142 245.588 310.164C244.61 310.751 243.436 311.142 242.458 311.729C242.066 311.924 241.871 312.12 241.675 312.511C237.763 316.033 233.654 319.358 229.742 322.88C228.568 323.858 227.59 324.64 226.025 323.466C224.46 322.293 224.851 321.315 226.025 320.141C226.416 319.75 226.807 318.967 226.612 318.576C225.438 316.815 226.807 315.641 227.786 314.663C230.72 311.729 233.459 308.599 236.784 306.251C242.849 301.948 249.305 298.231 255.76 294.122C259.477 291.775 262.999 289.427 266.715 287.275C267.889 286.689 268.085 286.102 266.911 285.319C263.194 282.776 262.999 279.255 264.172 275.342C264.759 273.19 266.52 270.843 267.694 271.038C269.259 271.234 270.432 273.973 270.041 276.32C270.041 276.712 269.846 276.907 269.846 277.298C268.867 281.798 270.041 282.776 274.345 281.407C274.541 281.407 274.736 281.211 274.932 281.211C276.692 280.624 277.671 281.211 277.279 283.167C276.888 285.515 275.323 286.884 272.976 287.08C272.389 287.275 271.802 287.471 271.019 287.667C271.606 288.254 271.997 289.036 272.584 289.232C273.562 289.427 274.541 289.427 275.519 289.427C276.692 289.427 277.866 289.232 278.844 289.623C280.214 290.405 281.192 290.797 282.561 289.623C283.148 289.036 285.3 289.232 285.691 289.819C287.256 292.557 289.213 291.775 291.365 291.188C292.147 290.992 293.321 290.992 294.103 291.384C295.864 291.775 297.429 292.557 298.603 290.405C298.798 290.014 300.363 290.21 301.146 290.014C301.928 290.014 302.907 290.405 303.493 290.014C305.058 289.036 306.428 289.232 307.993 290.21C308.384 290.405 308.775 290.405 309.167 290.405C309.167 290.014 309.362 289.623 309.362 289.427C309.167 289.036 308.775 288.645 308.58 288.645C307.797 288.449 307.015 288.645 306.037 288.645C301.342 288.449 296.451 289.232 291.951 286.884C289.799 285.906 287.648 285.515 285.104 286.102C284.126 286.297 282.366 285.124 281.388 284.145C280.801 283.363 280.214 281.211 280.801 280.82C281.779 280.037 283.539 279.255 284.713 279.45C287.452 279.842 290.191 280.82 292.734 281.798C298.407 284.145 303.885 283.754 309.558 282.58C310.927 282.385 312.884 281.015 312.884 280.037C313.079 276.907 315.622 276.125 317.579 274.755C321.491 272.212 321.491 272.212 318.361 269.082C317.579 268.3 316.992 267.517 316.209 266.735C309.167 259.496 304.08 251.084 302.124 241.107C300.755 234.065 299.972 227.218 301.928 220.371C302.515 218.415 303.298 218.023 304.863 218.806C306.428 219.588 307.406 220.762 307.21 222.718C306.037 228.979 306.232 235.239 307.797 241.499C309.167 247.563 311.123 253.236 315.231 257.931C319.144 262.431 323.447 266.539 327.36 270.843C328.338 271.821 328.925 273.386 328.925 274.755C328.925 275.342 327.164 276.32 326.186 276.712C323.447 277.885 320.904 279.059 319.535 281.993C318.557 283.754 317.187 285.515 315.622 286.884C313.275 288.84 313.275 288.645 315.231 290.797L315.427 290.992C316.209 291.775 320.317 291.971 321.1 291.384C322.078 290.601 323.056 289.232 323.839 289.232C325.012 289.232 326.186 290.405 327.556 290.992C328.142 291.384 329.121 291.97 329.512 291.775C332.055 290.797 333.62 292.166 335.185 293.536C336.554 294.709 337.728 296.079 339.098 297.252C344.966 302.143 349.075 308.012 351.422 315.25C352.205 317.793 353.77 321.119 352.792 323.271C351.226 327.379 351.813 331.096 352.009 335.009C352.596 342.638 353.574 350.072 354.552 357.506C354.552 357.897 354.748 358.288 354.748 358.679C354.943 358.288 355.139 357.897 355.139 357.31C355.335 355.354 355.53 353.397 355.53 351.441C355.53 340.095 355.53 328.748 355.53 317.206C355.53 316.033 354.943 314.663 356.704 313.881C359.638 312.707 361.203 313.685 361.399 317.206C361.986 325.032 362.573 332.857 362.964 340.682C362.964 341.073 363.16 341.464 363.355 342.051C363.551 341.66 363.747 341.269 363.747 340.877C363.747 328.553 364.138 316.033 362.182 303.708C361.79 300.774 362.182 300.187 364.529 299.991C367.659 299.796 368.05 300.382 368.246 303.513C368.637 308.99 369.224 314.468 369.615 319.945C369.615 320.336 370.007 320.728 370.007 321.119C370.202 320.728 370.594 320.336 370.398 319.945C370.007 316.033 369.615 312.316 369.42 308.403C368.833 300.187 368.246 291.775 367.855 283.559C367.659 280.233 368.833 279.646 372.159 280.428C372.55 280.624 373.332 280.233 373.528 280.037C374.311 277.69 376.267 277.885 377.832 278.277C379.592 278.472 380.571 279.646 380.766 281.602C380.962 286.689 381.549 291.579 382.136 296.666C382.136 297.252 382.527 297.839 382.527 298.231C382.723 297.644 382.918 297.252 382.918 296.666C383.309 285.906 383.896 275.147 384.288 264.387C384.483 261.844 385.07 261.257 387.613 261.453C389.765 261.648 390.939 262.822 390.743 265.17C390.743 265.561 390.939 266.148 390.939 266.539C391.33 266.148 391.721 265.561 391.721 265.17C391.721 259.301 391.526 253.432 391.33 247.563C391.33 245.998 390.939 245.998 389.765 247.172C388.396 248.541 387.418 247.954 387.418 245.998C387.418 243.455 387.809 240.912 388.2 238.369C388.787 235.043 389.961 231.913 388.787 228.392C386.635 221.153 386.048 213.72 385.853 206.286C385.853 200.613 385.461 195.135 385.07 189.462C384.483 183.202 383.309 176.942 383.309 170.682C383.505 157.77 379.788 145.837 374.702 134.099C374.311 133.121 373.332 131.36 372.746 131.556C371.18 131.556 371.572 130.969 371.18 129.991C370.202 127.839 369.029 125.687 367.855 123.535C367.659 123.34 367.268 123.144 367.072 122.948C366.877 123.34 366.681 123.731 366.681 124.122C367.268 130.969 367.659 137.621 371.376 143.685C373.332 147.011 375.484 150.141 377.441 153.466C377.832 154.249 377.832 155.227 378.027 156.01C377.245 155.814 376.267 155.814 375.484 155.423C374.702 155.031 373.919 154.444 373.332 153.858C371.572 151.706 369.615 149.749 368.05 147.402C364.725 142.316 362.182 136.838 362.182 130.382C361.986 123.927 361.008 117.471 357.291 111.993C353.183 105.733 348.683 100.06 339.684 101.234C337.337 101.625 335.772 102.994 334.011 103.973C327.36 107.494 320.709 110.82 313.862 113.95C312.492 114.536 310.34 114.928 309.167 114.341C307.602 113.363 306.428 113.95 305.254 114.341C301.146 115.123 297.038 115.71 292.93 116.493C290.191 116.884 287.648 117.275 284.909 117.862C277.475 119.232 270.041 120.014 262.607 119.232C258.695 118.84 254.978 118.253 251.065 117.862C240.501 117.275 230.133 115.515 220.939 109.841C219.374 108.863 217.613 108.081 218.396 105.538C218.591 104.951 218.004 103.973 217.417 103.581C209.397 97.5169 212.527 96.1475 203.528 102.016C202.158 102.994 200.593 103.777 199.028 102.603C197.855 101.625 197.072 102.212 196.29 102.994C194.529 104.755 192.768 106.516 191.008 108.081C189.247 109.646 189.638 112.58 187.291 113.558C187.095 113.558 187.095 113.95 187.095 114.145C186.313 119.232 185.335 124.513 184.552 129.6C183.378 136.838 182.4 144.076 180.639 151.119C179.074 157.379 176.727 163.248 174.184 169.312C171.054 177.137 169.88 185.354 170.467 193.766C170.662 195.135 170.662 196.309 170.662 197.678C170.271 203.938 169.88 210.003 169.684 216.263C169.489 222.327 169.293 228.587 169.684 234.652C170.076 241.107 171.249 247.563 172.227 254.019C172.423 254.997 172.227 256.171 173.988 255.584C176.531 254.997 179.661 257.344 180.248 259.888C180.835 262.626 181.422 265.365 182.009 268.104C182.204 269.669 182.791 270.647 184.356 271.234C185.921 271.821 186.704 272.995 186.508 274.755C186.508 276.32 185.921 278.668 186.704 279.45C187.486 280.233 189.834 279.646 191.399 279.646C192.768 279.646 193.551 279.646 193.16 281.602C192.377 284.732 191.595 288.058 191.595 291.188C191.203 299.796 191.008 308.208 190.812 316.815C190.812 317.402 191.008 317.989 191.008 318.576C191.203 317.989 191.399 317.598 191.595 317.011C192.964 309.773 193.942 302.534 195.507 295.296C196.485 290.014 198.05 284.928 199.42 279.646C199.615 278.668 200.593 278.081 201.18 277.103C201.767 278.081 202.55 279.255 202.55 280.233C202.55 282.58 202.354 284.928 202.158 287.275C200.202 298.622 198.246 309.968 196.485 321.51C195.507 327.77 194.92 334.226 194.529 340.682C194.333 342.834 195.311 344.986 195.311 347.137C195.311 349.094 195.311 351.832 194.138 352.419C192.377 353.593 192.768 354.571 192.964 355.745C193.16 356.919 193.355 358.093 193.746 359.071C195.311 362.983 197.072 366.7 198.637 370.613C199.028 371.591 200.007 373.156 199.615 373.938C199.224 374.721 197.659 375.308 196.681 375.503C195.116 375.699 193.551 375.308 192.964 373.547C191.399 368.852 190.03 364.157 188.465 359.658C186.313 353.593 184.161 347.529 182.204 341.66C182.009 341.269 181.813 340.877 181.422 340.486C181.226 340.877 181.031 341.269 181.031 341.66C180.835 343.812 180.444 345.768 180.248 347.92C179.661 354.376 178.879 360.636 178.292 367.091C178.096 369.83 176.923 372.96 177.901 375.308C179.074 378.047 178.292 380.003 177.509 382.155C174.575 389.589 173.597 397.022 179.074 403.869C181.031 406.413 182.791 408.956 184.748 411.303C189.051 416.194 193.16 421.476 198.442 425.388C209.005 433.605 220.156 440.843 232.676 446.125C239.719 449.255 246.761 452.385 254.782 451.798C262.216 451.211 269.454 451.211 276.888 451.016C277.671 451.016 278.453 450.82 279.431 450.82C291.365 448.668 303.298 445.538 314.253 440.06C324.817 434.974 333.62 427.54 341.641 419.128C344.966 414.238 348.292 410.912 350.053 406.413C350.835 405.239 351.813 404.261 352.596 403.282C355.139 400.152 358.073 397.414 360.03 394.088C362.573 390.371 364.334 386.067 366.29 381.959C369.029 376.677 369.029 370.417 373.332 365.722C374.115 364.94 373.528 362.983 373.724 361.614C371.572 361.614 371.572 363.57 371.18 364.744C369.615 368.852 368.246 372.765 366.877 376.873C366.29 378.633 363.942 380.394 362.964 379.807C361.986 379.22 361.595 376.09 362.182 374.917C362.573 374.33 362.964 373.938 363.16 373.547C363.16 372.96 362.964 371.982 362.768 371.982C360.617 371.591 361.008 369.83 360.812 368.265C360.617 367.091 360.617 365.918 360.421 364.744C360.421 364.157 360.03 363.374 359.834 362.788C359.638 363.374 359.052 363.961 359.052 364.548C358.66 368.07 358.465 371.591 358.269 375.112C358.073 377.068 357.878 379.22 355.53 379.416C352.987 379.612 352.205 381.372 352.009 383.328C351.618 388.024 351.813 392.914 351.227 397.609C351.422 400.739 350.64 403.478 350.053 406.413ZM148.361 221.545C147.97 230.739 148.752 239.738 151.687 248.541C152.469 251.084 154.034 253.628 154.425 256.366C155.404 263.8 159.12 270.256 162.446 276.712C163.424 278.668 164.794 280.428 166.359 281.993C166.75 282.58 168.119 282.776 168.902 282.58C169.489 282.385 169.684 281.015 169.684 280.233C169.293 275.538 168.902 270.647 168.315 265.952C167.532 259.496 166.359 253.041 165.772 246.585C164.989 237.782 164.011 229.174 163.815 220.371C163.62 211.959 164.402 203.547 164.794 195.135C164.989 190.44 164.794 185.745 164.989 181.05C165.185 178.311 165.185 175.572 165.967 173.029C167.337 168.725 169.097 164.813 170.662 160.509C171.054 159.531 171.249 158.161 171.054 157.183C170.467 154.64 169.489 152.293 168.902 149.749C167.728 145.25 166.163 140.751 165.772 136.251C164.794 127.057 164.402 117.862 165.576 108.668C165.772 107.103 166.163 105.733 167.728 105.538C168.706 105.342 170.271 105.538 170.467 106.32C171.054 107.298 171.249 108.863 171.249 110.037C171.054 112.189 170.271 114.341 170.271 116.493C170.076 121.579 170.076 126.861 170.271 131.947C170.467 136.642 171.445 141.142 172.032 145.837C172.227 147.598 172.814 149.554 173.206 151.314C173.206 151.706 173.597 152.097 173.988 152.488C174.184 152.097 174.575 151.706 174.771 151.314C175.357 149.554 175.944 147.793 176.336 145.837C177.509 140.946 178.683 135.86 179.661 130.774C180.835 124.122 182.009 117.275 182.987 110.428C183.574 106.907 183.965 103.386 188.073 102.212C188.66 102.016 188.856 101.429 189.443 101.038C192.768 98.1038 196.094 95.1694 200.202 93.4087C201.767 92.8219 203.137 92.0393 204.506 91.0612C204.897 90.67 204.702 89.6918 204.897 88.9093C204.897 88.9093 204.115 88.5181 203.919 88.7137C201.767 89.4962 200.398 89.1049 199.811 86.953C198.637 82.258 197.463 77.5629 196.877 72.8679C196.485 67.3903 196.681 61.9127 196.877 56.2395C196.877 55.2614 197.072 54.0876 197.463 53.1095C197.855 52.5226 198.833 52.1314 199.615 51.5445C200.202 52.327 200.985 53.1095 201.18 53.892C202.354 61.7171 203.332 69.5422 204.702 77.3673C205.288 80.4973 206.658 83.4317 207.636 86.3662C207.832 86.7574 208.223 86.953 208.614 87.3443C208.81 86.953 209.201 86.5618 209.201 86.1705C209.201 84.8011 209.201 83.6274 209.005 82.258C207.636 76.1935 206.267 69.9335 204.897 63.869C204.506 62.1084 205.288 61.1302 206.658 60.5433C208.223 60.1521 208.81 61.1302 209.201 62.6952C210.57 69.9335 211.94 77.3673 213.309 84.6055C213.7 86.3662 214.287 86.953 216.048 87.1487C219.374 87.5399 220.743 90.4743 219.374 93.4087C218.982 93.9956 218.787 95.365 218.982 95.5606C222.308 97.9082 225.438 100.647 228.959 102.408C233.654 104.755 239.132 106.125 243.827 108.472C245.783 109.45 247.74 110.624 249.892 110.82C255.956 111.602 262.216 112.189 268.28 112.776C269.259 112.776 270.824 112.58 271.215 111.993C272.389 109.45 274.736 109.646 276.888 109.45C282.757 109.255 288.626 107.103 294.495 109.255C294.886 109.45 295.277 109.255 295.473 109.255C298.994 108.668 302.32 108.081 305.841 107.103C312.492 105.342 318.948 103.973 325.012 100.256C327.36 98.8863 327.556 98.8863 325.208 97.3213C322.274 95.365 319.339 93.6044 316.405 91.6481C305.45 84.2143 296.646 74.6285 289.408 63.4778C288.626 62.304 288.039 60.9346 287.843 59.7608C287.648 58.9783 288.43 58.0002 288.821 57.0221C289.604 57.4133 290.778 57.8046 291.169 58.5871C297.625 70.1291 306.428 79.7148 317.187 87.7355C321.1 90.67 325.012 93.6044 328.729 96.93C329.707 97.9082 330.099 97.9082 331.077 97.3213C332.838 96.3432 334.403 94.7781 336.163 94.5825C342.619 93.6044 349.075 93.4087 354.552 97.9082C354.943 98.2994 355.53 98.2994 355.922 98.2994C355.922 97.9082 355.726 97.5169 355.726 96.93C354.748 92.235 353.965 87.5399 352.792 82.8449C351.422 76.9761 349.075 71.3029 345.553 66.2165C345.162 65.6297 344.184 64.4559 343.793 64.6515C340.858 65.8253 340.076 63.2821 338.902 61.7171C338.315 60.739 337.728 58.7827 338.315 58.0002C338.902 57.2177 340.858 57.2177 342.032 57.0221C342.815 57.0221 343.401 57.6089 344.184 58.1958C349.466 61.9127 352.205 67.5859 354.357 73.2591C356.9 80.1061 359.052 87.1487 358.856 94.5825C358.856 96.7344 358.856 99.2776 359.834 101.234C362.573 106.516 367.072 110.233 370.985 114.536C371.18 114.928 371.767 114.928 372.159 115.319C372.354 114.928 372.55 114.536 372.55 114.145C372.354 112.385 371.963 110.624 371.963 108.863C371.767 101.821 370.202 95.365 367.659 88.9093C366.681 86.1705 366.29 83.0405 366.094 80.1061C366.094 79.1279 367.659 78.1498 368.637 77.1717C369.42 77.9542 370.398 78.3454 370.789 79.3236C371.376 80.693 371.572 82.258 371.963 83.6274C373.137 89.4962 374.702 95.365 375.484 101.429C376.267 107.298 376.071 113.167 376.267 119.036C376.267 120.21 376.462 121.383 377.049 122.362C378.419 124.905 380.179 127.252 381.744 129.795C381.94 130.187 382.331 130.382 382.723 130.578C382.723 130.187 382.918 129.795 382.918 129.404C382.527 123.731 381.94 118.058 381.353 112.385C381.157 111.015 382.331 108.668 383.701 108.668C385.461 108.472 386.635 109.255 386.831 111.211C386.831 111.798 386.831 112.385 386.831 112.971C386.831 119.623 386.831 126.079 386.635 132.73C386.635 134.099 386.831 134.686 388.396 134.686C390.939 134.686 392.113 136.251 392.113 138.794C392.113 142.902 392.113 147.011 392.113 151.119C392.113 154.053 392.308 156.988 391.721 159.922C390.548 165.204 390.743 170.29 391.33 175.572C391.526 177.724 391.917 179.68 392.113 181.832C392.504 192.396 392.504 202.96 392.895 213.524C392.895 214.698 393.286 215.871 393.482 217.241C393.678 216.067 394.069 214.893 394.069 213.524C394.069 207.459 395.047 201.786 398.764 196.504C401.111 193.179 402.872 189.462 404.241 185.549C405.22 182.615 405.22 179.289 405.415 176.159C406.002 169.899 406.393 163.835 406.785 157.575C406.785 156.401 406.98 155.227 406.785 154.053C406.393 152.097 403.655 150.532 402.481 151.314C399.155 153.858 396.612 152.684 396.025 148.576C395.83 147.793 395.83 146.815 395.438 146.228C394.851 144.859 394.851 143.881 395.83 142.707C396.416 141.924 396.612 140.555 397.003 139.381C397.981 136.447 398.96 133.708 400.133 130.969C401.503 128.23 402.872 127.839 405.611 129.209C406.98 129.795 408.154 130.774 409.523 131.556C409.719 131.752 410.11 131.752 410.502 131.947C410.502 131.556 410.697 131.165 410.697 130.774C410.11 126.47 409.719 122.166 408.937 117.862C407.763 111.798 405.807 105.929 400.329 102.016C397.786 100.256 395.047 98.6907 392.504 96.7344C389.961 94.7781 387.222 93.0175 385.266 90.67C381.353 85.9749 379.984 80.1061 380.179 74.0416C380.179 70.1291 379.397 66.6078 377.832 63.2821C374.311 55.8483 369.615 49.7838 361.399 47.0451C356.313 45.2844 351.813 42.35 346.923 39.8068C341.249 36.8724 335.576 33.7424 329.707 31.3949C323.447 28.8517 316.796 27.4823 310.145 28.6561C304.08 29.6342 298.016 30.808 292.538 33.7424C288.43 35.8943 283.931 37.4593 280.996 41.3719C280.018 42.5456 278.844 42.7413 277.671 41.7631C276.692 40.785 276.106 39.6112 275.127 38.6331C274.541 38.0462 273.954 37.0681 273.367 37.0681C270.432 36.6768 267.498 36.2856 264.564 36.2856C252.435 36.8724 240.501 37.4593 228.568 38.0462C225.047 38.2418 221.33 39.0243 217.809 39.0243C214.483 39.0243 211.157 38.2418 209.005 35.3074C208.419 34.5249 208.223 33.1555 207.636 32.1774C208.81 31.7861 209.984 31.0036 211.157 31.0036C212.527 30.808 213.896 31.1992 215.265 31.1992C218.591 31.5905 222.112 32.5686 225.242 32.1774C233.263 31.5905 241.284 30.4167 249.305 29.4386C249.892 29.4386 250.283 28.8517 250.674 28.6561C250.283 28.2648 249.892 27.8736 249.5 27.4823C245.001 24.7435 241.48 21.2222 237.763 17.5053C234.437 13.984 230.72 10.4627 226.612 8.11521C218.2 3.61578 209.397 3.61578 200.789 8.31084C195.898 11.0496 191.203 13.7884 188.856 19.0703C188.66 19.6572 188.465 20.2441 188.269 20.6354C188.856 20.6354 189.443 20.6354 189.834 20.6354C192.964 20.2441 196.094 19.6572 199.224 19.4616C200.789 19.266 202.55 19.4616 203.919 20.2441C204.897 20.6354 205.875 22.0048 205.875 23.1785C205.875 23.7654 204.506 24.9392 203.528 25.1348C199.42 25.9173 195.116 26.6998 191.008 26.6998C186.508 26.6998 182.791 28.4605 179.857 31.7861C177.314 34.5249 175.162 37.6549 172.814 40.5894C167.728 47.4363 163.62 54.8701 162.055 63.2821C160.685 70.9116 160.099 78.5411 159.512 86.1705C159.12 90.4743 159.512 94.7781 159.316 99.2776C159.316 100.451 159.12 101.625 158.534 102.603C157.164 105.146 155.599 107.494 154.034 110.037C151.491 114.145 148.948 118.253 147.383 122.948C144.644 130.969 144.644 138.99 145.622 147.206C146.209 152.684 147.97 157.966 148.557 163.248C149.339 169.508 151.295 175.377 153.447 181.05C155.599 186.723 157.555 192.787 162.25 197.091C162.837 197.678 163.229 198.656 163.62 199.439C164.598 201.199 163.62 201.982 162.25 202.569C159.707 203.351 157.947 202.178 157.164 198.852C156.773 197.287 154.034 195.135 152.469 195.331C150.122 195.526 151.295 197.678 150.513 198.852C150.317 199.048 150.513 199.634 150.513 199.83C149.339 208.046 148.752 214.893 148.361 221.545ZM169.88 559.002C169.684 559.002 169.684 559.002 169.489 559.002C170.076 563.893 170.662 568.783 171.054 573.674C171.445 577.978 171.445 582.281 171.836 586.585C172.814 595.78 173.792 605.17 175.162 614.364C176.923 625.711 178.488 636.862 180.835 648.208C182.596 657.011 185.139 665.619 187.486 674.226C187.682 675.009 188.269 675.596 188.465 676.183C188.856 675.596 189.247 675.009 189.638 674.422C194.138 666.988 198.442 659.359 202.941 651.925C205.093 648.208 208.027 644.882 209.984 640.97C216.635 627.667 223.091 614.364 229.155 600.866C236.002 585.803 244.218 571.326 252.826 557.241C260.847 543.939 269.454 530.832 278.062 517.724C285.496 506.574 293.125 495.423 300.559 484.272C307.406 473.904 314.253 463.34 321.1 452.972C321.687 452.189 322.274 451.211 322.665 450.233C321.491 450.624 320.122 450.624 319.144 451.211C311.123 455.124 302.515 456.884 293.908 457.863C286.474 458.645 279.431 460.014 272.389 461.971C260.847 465.101 249.305 464.709 237.567 462.558C233.263 461.775 228.959 460.406 224.656 459.232C218.982 457.863 213.309 456.884 207.636 455.319C196.485 452.189 187.486 446.32 181.813 435.952C180.444 433.409 178.096 431.257 175.944 429.105C175.162 428.323 174.379 428.518 174.184 429.888C173.792 434.778 173.206 439.669 172.814 444.56C172.032 453.167 171.249 461.775 170.662 470.383C169.88 483.881 169.097 497.184 168.511 510.682C168.315 514.203 168.511 517.92 168.315 521.441C168.119 525.354 167.728 529.071 167.924 532.983C168.511 541.591 169.293 550.394 169.88 559.002ZM351.227 499.336C347.705 499.336 346.336 496.792 347.705 493.662C351.813 485.055 357.682 477.621 363.747 470.383C372.746 459.623 382.527 449.842 393.482 441.039C401.698 434.387 409.523 427.54 417.935 421.085C424.587 415.803 431.825 411.108 438.672 406.021C439.259 405.63 439.65 405.043 440.237 404.652C439.65 404.456 439.063 403.869 438.476 403.869C434.368 403.087 430.064 402.5 426.152 401.522C416.762 399.174 408.154 394.871 401.307 387.828C392.895 379.416 386.635 369.439 381.157 358.875C380.962 358.484 380.766 358.093 380.571 357.897C380.375 358.288 379.984 358.679 379.984 359.071C378.614 364.548 377.245 369.83 375.876 375.308C374.897 379.416 373.919 383.72 372.941 387.828C372.941 388.219 372.55 388.806 372.159 388.806C370.007 389.197 369.615 391.154 369.029 392.719C366.29 398.587 362.964 404.065 358.269 408.564C352.4 414.629 345.945 420.498 342.815 428.518C342.423 429.497 342.032 430.475 341.836 431.648C342.815 431.257 343.793 430.866 344.966 430.279C345.553 430.083 345.945 429.497 346.531 429.301C346.336 429.888 346.531 430.67 346.14 431.062C343.988 433.605 341.836 435.952 339.684 438.3C337.533 440.452 334.989 442.212 333.424 444.755C328.925 451.407 325.012 458.449 320.513 465.101C313.47 475.665 306.037 486.228 298.798 496.792C292.93 505.596 287.061 514.399 281.192 523.398C276.106 531.027 271.019 538.852 266.129 546.482C260.651 555.089 254.978 563.697 250.283 572.696C242.262 587.955 235.024 603.409 227.59 618.864C227.394 619.255 227.394 619.842 227.199 620.429C227.59 620.038 228.177 619.842 228.568 619.451C235.415 612.995 241.871 606.344 248.913 600.084C259.673 590.498 270.432 580.716 281.974 571.913C295.081 561.741 308.971 552.546 322.665 542.96C332.055 536.309 341.836 530.245 351.227 523.593C361.79 515.964 372.354 508.334 382.723 500.314C392.504 492.684 402.09 484.468 411.48 476.251C414.023 474.1 416.175 471.752 418.327 469.405C418.522 469.209 418.522 468.622 418.718 468.231C418.327 468.231 417.935 468.231 417.74 468.231C417.349 468.426 416.957 468.622 416.37 468.818C405.415 472.143 395.438 477.816 385.07 482.707C374.311 487.793 363.747 493.467 353.183 498.749C352.205 499.14 351.422 499.336 351.227 499.336ZM130.95 534.94C130.559 534.94 130.168 534.94 129.776 534.94C130.363 542.569 130.95 550.199 131.733 557.828C132.319 563.893 133.298 569.957 134.08 576.021C134.667 580.521 135.058 585.02 135.841 589.52C137.21 597.149 138.188 604.779 140.34 612.212C142.883 620.233 146.6 627.863 149.73 635.688C154.23 646.839 160.685 657.011 166.946 667.184C168.119 669.14 169.489 671.096 170.858 673.053C174.184 678.53 177.705 684.203 181.031 689.681C181.226 690.072 182.009 690.268 182.4 690.072C183.965 688.898 185.139 683.225 184.356 681.269C182.596 675.987 180.639 670.705 179.27 665.423C177.314 657.598 175.553 649.577 173.792 641.557C173.01 638.231 172.619 634.71 172.032 631.188C170.858 623.168 169.489 615.343 168.315 607.322C167.532 602.431 166.946 597.345 166.359 592.454C165.576 585.216 165.185 577.978 164.598 570.739C163.815 563.501 162.837 556.067 162.25 548.829C161.664 541.2 161.468 533.57 161.468 526.136C161.468 517.138 161.859 508.139 162.055 499.14C162.055 496.792 162.055 494.445 162.25 492.097C162.837 484.272 163.62 476.251 164.207 468.426C164.794 462.362 165.185 456.297 165.576 450.233C165.967 446.32 165.967 442.212 166.359 438.3C166.946 433.213 167.728 428.127 168.119 423.041C168.315 422.063 167.728 420.889 167.337 420.106C165.576 417.172 163.62 414.238 161.664 411.303C160.881 410.129 160.49 409.934 159.512 411.108C155.99 415.02 152.273 418.737 148.752 422.65C146.405 425.388 143.861 427.932 141.905 430.866C140.145 433.409 138.58 436.148 137.015 438.887C132.711 445.929 128.016 452.581 124.494 459.819C118.43 472.143 111.583 484.077 104.149 495.619C96.7153 507.161 92.6071 519.681 89.6727 532.788C89.4771 533.375 89.6727 533.766 89.6727 534.353C90.064 534.157 90.6509 533.962 91.0421 533.57C96.9109 527.506 102.975 521.637 108.453 515.377C112.757 510.486 118.821 507.943 122.734 502.857C124.103 501.096 126.451 501.096 128.603 501.879C130.754 502.661 130.559 504.422 130.559 506.182C130.95 516.159 130.95 525.55 130.95 534.94ZM509.293 420.498C509.489 420.302 509.489 420.106 509.685 419.715C510.858 420.302 512.619 420.693 513.206 421.867C513.597 422.65 513.01 424.606 512.423 425.584C509.098 430.279 505.772 434.779 502.446 439.278C498.925 444.169 495.208 448.864 491.491 453.559C488.948 456.884 486.014 460.21 483.471 463.536C483.275 463.731 483.275 464.318 483.079 464.709C483.275 464.514 483.666 464.318 483.862 464.123C485.818 461.971 487.774 459.819 489.731 457.667C497.36 448.864 505.381 440.647 511.445 430.67C513.206 427.736 515.553 424.997 517.705 422.258C519.27 420.498 520.835 421.476 522.4 422.454C523.77 423.432 523.77 424.41 522.596 425.78C515.945 433.213 510.467 441.625 505.381 450.037C501.468 456.493 498.143 462.949 494.426 469.6C494.23 469.991 494.23 470.578 494.034 471.165C494.621 470.97 495.404 470.97 495.795 470.578C497.751 468.622 499.903 466.47 501.664 464.318C504.403 460.993 507.142 457.667 509.685 454.341C513.597 449.451 517.705 444.56 521.227 439.474C524.748 434.583 527.487 429.301 530.812 424.41C531.986 422.65 533.356 420.889 534.725 419.52C536.29 417.955 537.855 418.933 539.029 420.106C540.594 421.28 539.811 422.454 538.833 423.628C536.094 427.149 533.16 430.67 530.812 434.583C524.552 445.342 518.292 456.102 512.423 467.057C510.858 469.991 510.076 473.708 509.098 477.034C508.902 477.425 509.098 478.012 509.098 478.599C509.489 478.208 510.076 478.012 510.467 477.621C510.663 477.425 511.054 477.23 511.25 476.838C518.488 468.426 526.313 460.406 531.791 450.624C537.268 441.039 544.898 432.822 553.505 425.584C554.875 424.41 554.679 424.019 553.114 423.041C543.724 417.563 533.747 413.651 523.183 411.499C520.64 410.912 517.901 410.325 515.358 409.934C514.771 409.934 513.402 410.521 513.206 410.912C512.619 414.433 510.076 416.389 507.924 418.933C507.728 419.324 507.533 419.715 507.337 420.106C508.315 420.302 508.707 420.498 509.293 420.498ZM396.612 268.691C396.808 268.691 397.003 268.691 397.199 268.691C397.199 268.886 397.199 269.082 397.199 269.473C397.199 270.06 397.395 270.647 397.395 271.038C397.59 270.452 397.786 270.06 397.981 269.473C399.351 263.996 400.525 258.518 402.09 253.236C403.85 246.781 405.611 240.129 408.154 233.869C411.48 225.653 413.827 217.241 415.784 208.829C416.957 204.134 416.762 199.439 414.023 195.135C413.436 194.157 411.48 192.592 411.48 192.787C409.719 194.352 406.98 193.766 405.807 196.309C404.828 198.461 403.068 200.417 401.894 202.569C400.916 204.329 399.938 206.09 399.742 208.046C398.96 213.328 398.764 218.806 398.177 224.088C397.981 225.066 397.786 226.631 397.003 227.022C395.438 228 395.438 229.174 395.634 230.739C396.025 235.434 396.808 240.325 396.808 245.02C396.808 252.845 396.612 260.67 396.612 268.691ZM255.173 456.493C261.825 456.102 270.237 455.515 278.453 454.928C279.431 454.928 280.605 454.732 281.583 454.537C282.17 454.341 282.561 453.95 283.148 453.754C282.561 453.754 282.17 453.559 281.583 453.559C272.78 453.95 263.977 454.537 255.369 454.928C247.153 455.319 239.523 452.972 231.894 449.842C221.917 445.538 212.527 439.865 203.528 433.8C195.116 428.323 187.878 421.671 181.422 414.042C180.639 413.064 179.857 412.086 179.074 410.912C178.488 411.89 178.096 413.064 177.314 413.846C175.944 415.411 176.14 416.976 177.118 418.541C179.27 421.671 181.226 425.193 183.378 428.127C184.552 429.692 186.508 430.866 188.269 432.04C191.79 434.192 195.311 436.344 198.833 438.3C204.897 441.625 209.788 446.712 216.244 449.451C221.526 451.798 226.416 455.124 232.676 455.319C239.523 455.711 246.566 456.102 255.173 456.493ZM70.8925 480.555C70.5012 480.36 70.11 480.164 69.7187 480.164C64.2412 482.707 58.7636 485.055 56.4161 491.51C51.9166 503.444 46.8303 514.986 42.3309 526.919C39.9834 533.179 38.0271 539.635 36.0708 546.09C35.6796 547.264 35.6796 548.634 35.6796 550.003C36.6577 549.025 37.8315 548.047 38.8096 546.873C41.5484 543.939 42.1353 539.048 46.2435 537.092C46.6347 536.896 46.6347 536.309 46.8303 535.918C49.3735 529.462 51.721 523.006 54.4598 516.746C58.1767 507.943 62.2849 499.14 66.1974 490.337C67.7625 487.207 69.3275 484.077 70.8925 480.555ZM28.0501 537.483C28.8326 536.309 29.4195 535.722 29.8108 535.135C31.3758 532.201 32.3539 528.288 34.8971 526.528C38.4184 523.985 38.614 520.268 40.179 516.942C40.3746 516.551 40.3746 516.159 40.5703 515.573C44.0915 507.747 47.4172 499.727 50.9385 491.902C51.5254 490.728 51.721 489.359 51.9166 488.185C50.156 488.967 48.1997 489.554 46.6347 490.728C45.6566 491.315 45.0697 492.88 44.6784 494.054C40.9615 502.857 37.2446 511.856 33.7233 520.659C31.767 525.55 30.0064 530.636 28.2457 535.722C28.0501 535.918 28.2457 536.309 28.0501 537.483ZM498.73 418.737C498.73 418.541 498.534 418.346 498.534 418.346C498.143 418.541 497.556 418.737 497.36 419.128C494.426 422.454 491.491 425.584 488.753 428.91C480.732 439.082 472.515 449.451 464.69 459.819C461.56 463.927 459.017 468.622 456.278 472.926C456.083 473.317 456.083 473.708 456.083 474.1C456.474 473.904 457.061 473.904 457.257 473.708C460.387 470.383 463.712 467.253 466.255 463.536C471.929 455.515 477.015 447.299 482.492 439.278C486.992 432.822 492.078 426.758 496.969 420.302C497.751 419.911 498.338 419.324 498.73 418.737ZM449.431 453.363C450.801 451.994 452.561 451.016 453.735 449.451C458.43 443.582 462.734 437.322 467.625 431.453C474.276 423.628 481.123 416.194 487.97 408.76C488.361 408.369 488.753 407.782 489.144 407.195C488.361 407.195 487.383 406.804 486.992 407.195C484.644 408.956 482.101 410.521 480.341 412.673C472.907 421.476 465.864 430.279 458.822 439.278C455.692 443.386 452.757 447.494 449.823 451.798C449.627 452.189 449.431 452.581 449.236 452.972C448.845 453.167 449.236 453.363 449.431 453.363ZM301.928 452.385C304.667 451.798 307.406 451.407 309.949 450.624C318.948 447.69 327.947 444.755 332.642 435.17C333.033 434.583 333.229 433.996 333.424 433.213C332.642 433.409 331.859 433.605 331.272 433.996C321.882 440.647 312.101 446.32 301.537 451.016C301.146 451.211 300.95 451.602 300.559 451.994C301.146 451.994 301.537 452.189 301.928 452.385ZM181.618 326.597C182.4 328.748 183.574 331.292 184.748 333.835C184.943 334.03 185.335 334.226 185.53 334.422C185.726 334.03 185.921 333.835 185.921 333.444C185.921 330.9 185.921 328.357 186.117 325.814C186.313 319.554 186.313 313.294 186.508 306.838C186.704 299.404 186.9 291.971 187.095 284.537C187.095 284.145 186.9 283.95 186.704 283.559C186.508 283.754 186.117 283.95 186.117 284.341C185.921 286.297 185.53 288.254 185.335 290.21C184.943 295.687 184.943 301.165 184.552 306.643C184.356 309.577 183.965 312.511 183.574 315.25C182.987 318.967 182.4 322.488 181.618 326.597ZM71.0881 517.92C71.2838 517.724 71.675 517.333 71.8706 517.138C73.24 514.79 74.805 512.443 75.9788 509.899C80.6739 500.118 85.1733 490.141 89.8683 480.164C92.2159 475.273 94.5634 470.578 97.1066 465.688C97.3022 465.296 97.3022 464.905 97.3022 464.514C96.9109 464.709 96.3241 464.709 96.1284 464.905C95.7372 465.101 95.5415 465.688 95.3459 466.079C90.6509 475.469 85.7602 484.663 81.2607 494.054C77.5438 501.683 74.4138 509.312 70.8925 516.942C70.8925 517.138 70.6969 517.333 70.6969 517.529C70.6969 517.724 70.8925 517.724 71.0881 517.92ZM173.206 263.409H173.401C173.597 266.93 173.792 270.647 174.184 274.168C174.379 275.929 174.379 277.69 174.966 279.255C175.162 280.037 176.336 281.211 177.118 281.211C178.488 281.211 179.857 280.624 179.466 278.668C178.488 274.56 177.705 270.452 176.727 266.539C176.336 265.17 175.749 263.996 175.162 262.626C174.966 262.04 174.184 261.844 173.792 261.257C173.597 262.04 173.401 262.626 173.206 263.409ZM8.09611 542.569C8.29174 543.352 8.29174 543.939 8.48737 544.525C8.683 544.134 9.07425 543.547 9.26988 543.156C9.66113 542.178 10.0524 541.2 10.4436 540.222C13.7693 531.418 16.8993 522.42 20.225 513.616C21.0075 511.464 21.79 509.313 22.5725 506.965C22.5725 506.769 22.5725 506.378 22.5725 505.987C22.3769 506.182 21.9857 506.378 21.79 506.574C21.3988 507.161 21.0075 507.747 20.8119 508.334C17.4862 516.746 13.9649 525.158 10.8349 533.57C9.66113 536.7 8.87862 539.83 8.09611 542.569ZM339.88 379.025C339.098 370.808 338.511 363.374 337.924 355.941C337.924 355.354 337.728 354.767 337.728 354.376C337.728 354.963 337.533 355.354 337.533 355.941C337.533 365.918 337.533 375.699 337.728 385.676C337.728 386.067 337.728 386.654 337.728 387.045C337.924 387.437 338.119 387.632 338.315 388.024C338.511 387.632 338.706 387.437 338.706 387.045C339.098 384.111 339.489 381.177 339.88 379.025ZM484.84 447.494C484.644 447.299 484.449 447.103 484.253 447.103C484.057 447.299 483.862 447.494 483.666 447.885C481.71 450.82 479.558 453.559 477.797 456.493C474.863 461.188 472.124 466.079 469.385 470.97C468.994 471.752 468.799 472.73 468.603 473.513C469.385 472.926 470.364 472.535 470.95 471.948C471.342 471.556 471.733 470.774 471.929 470.187C472.711 468.426 472.907 466.47 473.885 464.709C477.015 459.232 480.341 453.95 483.666 448.668C484.253 448.081 484.644 447.69 484.84 447.494ZM208.614 450.233C207.44 449.451 206.658 449.059 206.071 448.668C201.18 445.342 196.485 442.017 191.595 438.887C191.203 438.691 190.812 438.495 190.421 438.3C190.616 438.691 190.616 439.082 190.812 439.474C195.116 444.755 200.789 448.277 207.245 450.233C207.44 450.429 207.832 450.233 208.614 450.233ZM180.053 287.471C180.248 287.471 180.639 287.275 180.835 287.275C180.444 286.689 179.857 285.319 179.466 285.319C178.292 285.319 176.727 285.515 176.727 287.275C176.727 287.862 176.727 288.449 176.727 289.036C177.314 292.753 178.096 296.47 178.879 300.383C178.879 300.774 179.27 301.165 179.466 301.556C179.661 301.165 179.857 300.774 179.857 300.383C180.053 296.079 180.053 291.775 180.053 287.471Z" fill="black"/>
<path d="M428.304 556.459C429.869 547.069 431.042 538.265 432.608 529.658C433.977 522.419 435.542 514.986 437.303 507.747C437.889 505.204 439.454 502.661 440.824 500.314C441.411 499.335 442.78 498.357 443.954 498.357C445.128 498.162 446.693 498.944 447.475 499.727C448.649 501.096 447.084 501.487 446.301 502.27C445.519 503.052 444.736 504.031 444.15 505.009C441.215 510.682 439.846 516.942 438.672 523.398C437.498 529.658 435.933 535.918 434.564 541.982C433.39 546.873 432.412 551.568 431.042 556.459C430.847 557.241 430.064 557.632 429.477 558.415C429.086 557.632 428.499 556.85 428.304 556.459Z" fill="black"/>
<path d="M248.522 380.394C248.522 373.352 248.522 366.309 248.522 359.266C248.522 358.093 248.718 356.723 249.109 355.549C249.696 353.593 251.261 353.006 252.826 353.398C254.195 353.789 254.978 354.767 254.782 356.528C254.391 366.896 254 377.068 253.804 387.437C253.804 394.088 254 400.739 254.195 407.391C254.195 409.738 254.195 412.086 256.151 413.846C257.912 412.086 257.13 409.738 257.13 407.782C256.934 399.174 256.934 390.762 256.738 382.155C256.738 377.264 256.543 372.373 256.738 367.483C256.934 362.201 257.521 356.723 258.108 351.441C258.303 350.463 258.695 349.289 259.477 348.702C260.455 347.92 261.825 346.551 263.194 347.92C263.977 348.702 264.172 350.268 263.977 351.246C263.585 355.354 262.998 359.266 262.607 363.375C262.216 367.483 261.629 371.787 261.629 375.895C261.629 380.003 262.216 384.307 262.216 388.415C262.412 395.653 262.412 403.087 262.607 410.325C262.607 411.108 262.607 411.694 262.607 412.477C262.607 412.673 262.803 413.064 262.998 413.26C263.194 413.064 263.585 412.868 263.585 412.477C263.781 408.369 264.172 404.065 264.172 399.957C264.172 389.589 263.781 379.025 263.585 368.656C263.585 364.548 265.346 363.375 269.063 364.353C269.454 364.548 270.041 364.744 270.432 364.548C274.736 364.353 275.127 364.744 275.127 369.048C275.127 370.026 275.127 371.004 275.127 371.787C275.127 372.96 274.932 373.938 276.888 373.352C279.822 372.569 280.605 373.743 280.801 376.677C280.801 378.438 281.192 380.394 281.387 382.155C281.583 380.394 281.779 378.438 281.779 376.677C282.366 369.635 282.757 362.592 283.148 355.745C283.344 353.593 285.104 352.811 286.474 353.006C287.452 353.006 288.821 354.767 288.821 355.745C289.212 358.679 289.017 361.614 289.017 364.548C289.017 368.07 289.017 371.591 289.212 375.112C289.212 375.699 289.604 376.482 289.604 377.068C289.799 376.482 289.995 375.895 290.191 375.308C290.778 367.483 291.169 359.658 291.56 351.833C291.56 349.289 293.125 348.898 294.886 348.702C296.842 348.507 297.624 349.876 297.624 351.833C298.016 364.94 298.407 378.047 298.994 391.154C299.385 401.718 299.972 412.086 300.363 422.65C300.363 424.215 300.755 425.975 300.95 427.54C301.146 429.497 299.972 430.279 298.407 430.475C296.646 430.67 296.059 429.301 296.059 427.932C295.473 423.432 294.886 418.933 294.494 414.433C294.299 410.325 294.494 406.217 294.494 402.109C294.494 401.326 294.494 400.739 294.299 399.957C294.299 399.761 293.712 399.566 293.321 399.37C293.125 399.566 292.734 399.957 292.734 400.152C292.343 406.999 291.951 413.846 291.756 420.693C291.756 422.845 291.169 424.215 289.017 424.997C285.496 426.171 284.909 425.78 284.322 422.063C284.322 421.476 284.126 420.889 283.931 420.302C283.735 419.128 283.344 417.759 282.952 416.585C282.757 418.737 279.04 418.346 279.431 421.28C279.627 422.454 279.236 423.823 278.844 424.997C278.257 428.323 274.932 429.692 271.997 427.932C271.606 427.736 271.215 427.149 270.824 427.149C267.889 428.127 265.15 425.78 262.02 426.953C260.064 427.736 258.89 426.953 258.499 424.802C258.303 423.628 257.717 422.454 257.325 421.085C257.13 420.693 257.13 420.302 256.934 419.911C256.934 420.302 256.738 420.693 256.738 420.889C256.738 421.867 256.543 422.845 256.738 423.628C257.13 426.562 256.738 427.345 254 427.932C251.456 428.518 250.674 427.736 250.087 424.802C247.348 411.499 247.153 397.805 247.348 384.307C248.522 383.133 248.522 381.764 248.522 380.394Z" fill="black"/>
<path d="M237.959 364.744C237.959 360.44 237.959 356.332 237.959 352.028C237.959 349.681 239.328 348.703 241.872 348.703C243.828 348.898 244.415 349.876 244.219 352.419C244.023 355.354 244.023 358.484 244.023 361.418C244.023 371.2 244.023 380.981 244.023 390.762C244.023 392.327 244.415 393.697 244.61 395.262C244.806 396.24 244.806 397.022 244.806 398.001C245.393 397.022 245.98 396.24 246.567 395.262C246.958 394.675 247.349 394.088 247.545 393.501C247.74 394.088 247.936 394.675 247.936 395.262C248.132 399.566 248.327 403.869 248.523 408.173C248.719 410.325 247.545 411.695 244.806 412.477C242.654 413.064 241.48 412.477 240.893 410.325C240.893 409.934 240.698 409.738 240.502 409.347C240.111 408.564 239.72 407.782 239.524 406.999C239.328 407.782 238.937 408.369 238.742 409.151C237.763 411.695 235.416 411.303 233.46 411.303C231.308 411.303 231.503 409.543 231.308 408.369C230.916 406.021 230.721 403.478 230.33 401.131C230.33 400.739 230.134 400.544 229.938 400.153C229.743 400.348 229.547 400.544 229.156 400.739C228.178 401.326 227.2 401.913 226.221 402.304C224.461 403.087 222.309 401.913 220.548 404.065C219.179 405.826 216.244 404.456 215.658 402.109C215.071 399.174 214.875 396.044 214.484 393.11C214.288 391.741 214.288 390.762 212.723 390.176C211.549 389.784 210.767 388.024 210.376 386.654C209.789 384.307 209.789 381.764 209.593 379.416C209.593 379.025 209.202 378.633 209.006 378.242C208.811 378.633 208.224 378.829 208.224 379.22C207.832 380.981 207.246 381.959 205.094 382.155C202.746 382.35 201.768 381.568 201.768 379.416C201.572 375.308 201.377 371.2 201.181 367.091C200.79 359.853 200.007 352.615 200.007 345.377C200.203 334.813 200.79 324.053 201.377 313.49C201.572 309.186 201.572 305.078 201.964 300.774C201.964 299.209 202.355 297.448 202.746 295.883C203.137 294.318 204.311 293.536 205.876 293.927C207.637 294.318 208.224 295.296 208.028 297.057C207.637 299.6 207.246 302.143 207.05 304.686C206.463 313.294 205.681 321.902 205.094 330.509C205.094 331.487 204.898 332.661 205.289 333.248C207.246 335.204 206.659 337.552 206.463 339.899C206.267 346.942 206.267 353.984 206.072 361.027C206.072 361.418 206.072 361.81 206.267 362.005C206.463 361.614 206.854 361.418 206.854 361.027C207.246 358.68 207.832 356.136 208.028 353.789C208.419 348.507 208.419 343.029 208.811 337.747C209.006 334.03 209.593 330.314 209.984 326.597C210.18 325.227 209.984 325.227 208.615 324.053C208.224 323.662 208.224 322.684 208.224 321.902C209.202 317.207 210.18 312.511 210.962 307.816C211.158 306.643 211.158 305.469 211.354 304.295C211.549 302.534 213.31 300.969 214.875 301.165C217.027 301.361 217.418 302.926 217.223 304.686C216.831 308.795 216.244 313.098 215.853 317.206C215.658 318.185 215.853 319.358 215.853 320.337C215.853 321.706 216.244 321.902 217.614 321.315C220.353 320.532 221.722 321.315 221.526 324.249C221.331 327.184 222.504 327.77 225.243 327.77C228.178 327.575 228.178 328.357 227.982 331.292C227.2 340.682 226.417 349.876 225.83 359.266C225.439 364.353 225.243 369.439 225.243 374.721C225.243 379.22 225.635 383.915 225.83 388.415C225.83 388.806 226.026 389.197 226.221 389.393C226.417 389.197 226.613 388.806 226.613 388.61C228.373 379.612 229.547 370.417 229.547 361.223C229.547 356.528 229.547 351.833 229.743 347.137C229.743 345.572 229.938 343.812 230.721 342.834C231.503 341.856 233.264 340.877 234.438 341.073C236.003 341.269 236.981 342.442 236.394 344.594C234.242 355.158 234.829 365.722 234.829 376.286C234.829 381.568 234.829 386.85 234.829 392.132C234.829 392.523 234.829 393.11 235.025 393.501C235.22 393.11 235.611 392.523 235.611 392.132C236.003 389.393 236.59 386.654 236.785 383.72C237.177 377.264 237.568 370.808 237.763 364.353C238.155 364.744 237.959 364.744 237.959 364.744Z" fill="black"/>
<path d="M199.028 200.808C196.876 200.808 193.355 198.265 192.573 196.504C191.986 194.744 193.551 192.396 195.507 192.592C200.985 193.374 204.702 189.853 208.81 187.506C215.07 184.18 221.134 180.267 227.981 178.115C233.85 176.355 239.132 177.137 243.24 182.028C245.979 185.354 248.522 189.071 251.261 192.592C251.848 193.374 253.022 193.961 253.413 194.744C254 195.722 254 196.896 254.195 197.874C253.217 198.069 252.043 198.656 251.261 198.265C243.045 194.939 234.437 196.113 226.025 196.896C220.743 197.483 215.461 197.874 210.375 198.461C206.853 198.852 203.528 199.634 200.202 200.417C199.615 200.613 199.224 200.613 199.028 200.808ZM235.806 191.027C235.806 191.222 235.806 191.222 235.806 191.418C238.545 191.418 241.284 191.418 243.827 191.418C244.218 191.418 244.805 190.636 244.805 190.636C242.849 185.549 235.415 181.441 230.133 183.202C225.634 184.767 221.33 187.114 217.026 189.071C216.048 189.462 215.265 190.636 214.483 191.418C214.287 191.614 214.092 192.005 213.896 192.201C214.287 192.396 214.679 192.592 215.07 192.592C215.852 192.592 216.635 192.592 217.613 192.592C223.677 192.201 229.742 191.614 235.806 191.027Z" fill="black"/>
<path d="M338.902 231.913C334.794 231.522 331.077 230.348 327.556 228.196C325.795 227.218 325.208 225.653 326.186 224.088C327.36 222.327 328.925 222.914 330.49 223.892C331.86 224.675 333.229 225.262 334.403 226.044C333.62 224.87 333.033 223.697 332.251 222.523C330.881 220.175 330.49 217.828 331.077 215.089C331.273 213.915 331.077 212.742 331.077 211.568C329.512 211.763 327.751 211.568 326.382 212.35C324.23 213.72 322.469 215.676 320.513 217.241C319.535 218.023 318.361 218.61 317.187 218.415C314.253 218.023 313.666 216.263 315.622 214.111C318.557 211.177 321.687 208.438 325.013 205.699C325.599 205.112 326.969 205.112 327.947 205.112C331.86 205.503 335.772 206.286 339.685 206.481C343.402 206.677 346.532 208.046 349.662 209.416C353.379 210.981 357.291 212.35 361.008 213.915C361.595 214.111 362.573 214.307 362.964 214.893C363.747 215.872 364.138 217.045 364.725 218.023C363.551 218.415 362.182 219.197 361.399 218.806C356.313 217.241 351.422 215.285 346.532 213.524C345.749 213.328 344.967 213.133 344.184 212.937C344.38 213.72 344.184 214.698 344.575 215.48C345.945 218.415 345.945 220.958 344.38 223.892C343.597 225.262 343.988 226.24 345.749 225.849C347.51 225.457 349.075 224.87 350.835 224.675C351.422 224.479 352.596 224.87 352.987 225.262C353.183 225.849 352.987 227.022 352.596 227.414C351.227 228.587 349.857 229.761 348.097 230.152C345.358 230.935 342.228 231.326 338.902 231.913ZM340.858 218.023C340.271 216.263 339.685 214.502 339.098 212.937C339.098 212.742 338.12 212.742 337.924 212.937C336.163 215.089 335.968 224.284 337.924 226.24C338.511 226.827 339.685 226.631 340.663 226.631C340.271 226.24 339.489 226.044 339.489 225.653C339.293 224.675 339.098 223.697 339.293 222.914C339.685 221.154 340.271 219.588 340.858 218.023Z" fill="black"/>
<path d="M355.921 199.243C350.444 198.265 344.966 197.287 339.489 196.309C338.51 196.113 337.728 195.917 336.75 195.917C329.316 195.917 321.882 196.113 314.644 195.917C313.47 195.917 312.101 195.722 311.123 194.939C308.971 193.374 308.971 192.005 310.731 190.049C314.253 186.527 317.578 183.006 321.1 179.68C322.078 178.702 323.838 177.92 325.208 178.115C331.859 179.094 338.706 179.68 344.966 182.615C350.444 185.158 356.117 186.723 362.181 187.114C363.551 187.114 365.311 187.31 364.92 188.875C364.724 189.853 363.159 191.222 362.181 191.418C359.247 191.418 356.312 191.418 353.574 190.636C349.466 189.462 345.749 187.31 341.836 186.136C337.337 184.767 332.837 183.984 328.142 183.202C325.208 182.615 322.86 183.593 321.1 186.136C319.926 187.505 318.752 188.875 317.383 190.244C319.143 190.244 320.904 190.049 322.86 190.049C331.077 190.244 339.097 190.44 347.118 192.201C351.031 193.179 355.139 192.592 359.247 192.787C360.225 192.787 361.399 192.592 362.377 192.787C363.551 193.179 364.529 193.766 365.703 194.352C364.724 195.526 364.138 197.091 362.964 197.482C361.008 198.265 358.66 198.265 356.508 198.461C355.921 198.852 355.921 199.048 355.921 199.243Z" fill="black"/>
<path d="M236.589 234.065C233.85 233.674 231.307 233.478 228.569 233.087C227.395 232.891 226.221 232.304 225.438 231.522C224.852 230.935 224.656 229.565 224.656 228.783C224.656 228.392 226.221 228 227.003 228C228.96 228 230.72 228.196 232.677 228.392C232.09 226.631 231.699 224.87 231.112 223.11C230.72 221.545 230.329 219.98 229.742 218.415C228.177 219.197 226.808 219.784 225.243 220.567C220.157 223.305 214.483 224.283 208.615 224.675C208.028 224.675 207.245 224.87 206.854 224.675C206.071 224.283 205.289 223.501 204.506 222.914C205.289 222.327 205.68 221.349 206.658 220.958C207.832 220.371 209.201 219.784 210.571 219.784C216.244 219.588 221.135 217.045 226.221 214.893C230.525 212.937 235.22 211.763 239.719 210.394C241.089 210.003 242.654 210.198 244.219 210.59C248.914 211.763 253.413 213.328 257.326 216.263C258.108 216.85 258.891 217.437 259.282 218.219C259.673 218.806 259.673 219.98 259.282 220.371C258.891 220.762 257.717 221.153 257.13 220.958C255.956 220.567 254.978 219.784 253.804 219.002C252.826 218.415 252.239 217.632 251.261 217.241C247.74 215.871 247.153 216.067 247.349 219.98C247.349 222.914 246.371 225.262 243.827 226.435C242.849 227.022 241.089 226.631 240.111 226.044C239.524 225.653 239.719 223.697 239.915 222.718C240.306 221.349 241.284 220.175 241.48 219.002C241.871 216.654 240.111 215.089 237.763 215.872C237.372 216.067 236.785 216.458 236.785 216.654C236.98 219.784 235.024 222.914 236.785 226.24C237.959 228.392 239.328 229.174 241.48 228.783C243.827 228.392 246.175 227.805 248.718 227.218C250.283 226.827 252.239 226.044 253.413 228C254.196 229.174 252.435 231.326 249.892 231.913C245.588 233.087 241.089 233.869 236.589 234.652C236.785 234.456 236.589 234.26 236.589 234.065Z" fill="black"/>
<path d="M288.626 336.769C280.801 336.965 275.715 333.444 270.628 329.922C270.042 329.531 269.846 327.575 270.237 326.597C270.629 325.032 271.998 325.423 273.172 326.01C273.759 326.205 274.541 326.597 274.932 326.988C279.823 331.683 285.496 331.879 291.561 330.705C299.19 329.14 306.037 326.205 311.906 321.119C313.471 319.75 316.014 319.945 317.188 321.51C318.362 323.075 317.97 324.64 316.014 326.205C307.602 332.857 297.625 335.4 288.626 336.769Z" fill="black"/>
<path d="M284.517 242.281C282.952 248.932 281.583 256.171 279.822 263.213C279.431 264.974 277.866 266.735 276.692 268.104C276.301 268.495 274.736 268.495 274.54 268.104C274.149 267.517 273.953 266.343 274.149 265.561C274.736 262.235 275.714 258.909 276.105 255.584C276.888 250.302 279.04 245.02 278.453 239.542C278.453 238.955 279.627 237.782 280.213 237.586C281.974 237.195 283.539 237.782 284.126 239.542C284.322 240.325 284.322 241.107 284.517 242.281Z" fill="black"/>
<path d="M231.698 270.647C230.72 270.06 229.742 269.278 228.959 268.691C229.546 267.908 229.938 267.126 230.72 266.539C233.85 264.387 236.98 262.626 240.11 260.475C241.48 259.496 242.653 258.127 244.218 257.149C245.197 256.562 246.957 255.975 247.935 256.366C248.913 256.758 249.892 258.323 250.283 259.496C250.87 260.866 249.696 261.648 248.327 262.235C244.805 263.996 241.48 266.343 237.958 268.104C236.002 269.278 234.046 269.669 231.698 270.647Z" fill="black"/>
<path d="M347.9 263.604C342.423 263.213 338.119 261.257 334.989 257.344C334.207 256.562 333.815 254.41 334.402 253.627C335.576 251.867 337.141 253.041 338.315 253.823C339.097 254.214 339.684 254.801 340.271 255.388C343.01 258.127 346.335 258.518 350.052 257.931C351.422 257.736 352.987 256.758 353.769 258.518C354.356 260.474 352.987 261.844 351.422 262.822C350.052 263.409 348.683 263.409 347.9 263.604Z" fill="black"/>
<path d="M290.973 326.597C288.039 325.618 285.3 325.032 282.561 323.858C281.388 323.271 280.214 322.097 281.192 320.337C282.17 318.772 283.735 318.185 285.105 319.163C288.821 321.902 292.538 320.923 296.451 319.554C296.647 319.554 296.647 319.554 296.842 319.554C298.016 319.554 299.19 319.358 300.559 319.358C299.777 320.923 299.581 323.075 298.212 323.858C296.06 325.032 293.517 325.618 290.973 326.597Z" fill="black"/>
<path d="M251.653 61.5215C252.044 61.9127 253.022 62.4996 253.218 63.2821C256.152 72.281 262.608 79.1279 268.085 86.3662C271.802 91.2568 275.91 95.7563 280.019 100.451C280.214 100.647 280.606 100.843 280.801 101.234C280.997 102.016 281.192 102.603 281.388 103.386C280.606 103.19 279.627 103.19 279.041 102.799C274.932 98.8863 270.629 94.9738 266.912 90.67C262.217 85.1924 257.913 79.3236 253.805 73.4548C251.848 70.716 250.479 67.5859 249.11 64.4559C248.327 62.8909 249.305 61.5215 251.653 61.5215Z" fill="black"/>
<path d="M231.307 63.0864C232.481 64.4558 233.459 65.0427 233.85 66.0208C237.567 75.411 243.827 83.4317 250.283 91.0611C252.043 93.0174 253.804 94.9737 255.565 97.1256C256.152 97.9081 256.347 98.8862 256.739 99.8644C255.76 99.6687 254.587 99.8644 254 99.2775C251.065 96.7343 247.935 93.9955 245.588 91.0611C241.675 86.3661 238.35 81.2798 234.633 76.5847C233.85 75.6066 232.872 74.6284 232.09 73.8459C229.742 71.694 229.742 68.7596 229.155 66.0208C228.764 65.434 230.133 64.4558 231.307 63.0864Z" fill="black"/>
<path d="M153.839 227.022C153.252 224.479 152.469 221.936 152.274 219.197C152.078 216.458 152.469 213.719 152.861 210.981C153.252 209.416 158.534 210.394 159.121 212.154C159.708 213.915 159.512 216.067 160.099 218.023C160.686 220.371 160.099 221.74 158.143 223.11C157.36 223.696 157.36 225.457 156.969 226.631C156.382 228.587 155.991 230.543 155.404 232.5C155.208 233.087 154.426 233.282 153.839 233.673C153.643 233.282 153.252 232.695 153.252 232.304C153.252 230.739 153.252 228.978 153.252 227.413C153.447 227.218 153.643 227.218 153.839 227.022Z" fill="black"/>
<path d="M406.198 219.002C405.22 223.11 404.633 227.414 403.264 231.522C402.481 233.674 400.72 235.63 399.351 237.586C398.96 237.977 398.177 237.977 397.59 238.173C397.395 237.586 397.199 237.195 397.199 236.608C397.395 234.652 397.395 232.696 397.786 230.739C398.373 227.609 399.351 224.479 399.742 221.154C399.938 219.393 399.351 217.437 399.351 215.48C399.351 214.502 399.351 213.133 399.742 212.742C400.329 212.155 401.699 211.959 402.677 212.155C404.633 212.546 405.807 214.502 405.807 216.654C405.807 217.437 405.611 218.219 405.611 219.002C406.002 218.806 406.198 218.806 406.198 219.002Z" fill="black"/>
<path d="M611.735 235.544C611.735 237.049 611.735 238.466 611.735 239.972C611.735 241.123 611.203 242.097 610.052 242.008C608.016 241.831 607.484 241.034 607.573 239.529C607.75 235.721 607.927 231.914 608.016 228.106C608.104 225.007 608.104 221.819 608.193 218.72C608.458 213.053 608.813 207.297 609.255 201.63C609.344 200.479 608.99 199.948 608.016 199.239C605.182 197.291 602.526 195.078 599.692 193.218C597.567 191.89 595.619 190.385 594.202 188.259C591.811 184.629 589.155 180.998 587.295 177.102C585.347 173.118 584.108 168.867 582.691 164.617C582.071 162.846 581.894 160.898 581.451 159.127C580.831 156.471 579.946 153.814 579.415 151.069C578.795 147.881 578.883 144.694 579.592 141.506C580.743 135.927 581.54 130.26 582.602 124.682C582.956 122.557 583.576 120.52 584.196 118.483C584.727 116.801 585.259 115.207 585.879 113.613C586.853 111.134 587.827 108.566 588.978 106.175C590.394 103.253 591.9 100.331 593.494 97.4975C597.213 91.0335 602.703 86.7832 609.964 85.3664C613.24 84.7466 616.693 85.1008 620.058 85.1008C621.918 85.1008 623.777 85.1893 625.548 85.1008C628.559 84.9237 631.127 85.8977 633.429 87.6686C637.768 91.0335 640.601 95.638 642.726 100.597C644.409 104.493 644.675 108.743 645.029 112.993C645.206 115.65 644.852 118.395 646.268 120.874C646.534 121.317 646.445 122.025 646.445 122.557C646.445 126.187 646.623 129.818 646.357 133.36C646.091 136.193 645.383 138.938 644.763 141.683C644.32 143.808 643.878 145.933 643.169 147.97C642.018 151.246 640.867 154.523 639.362 157.622C637.856 160.809 636.085 163.909 634.137 166.919C629.976 173.206 625.46 179.316 620.324 184.806C619.173 185.957 618.199 187.285 617.313 188.614C616.782 189.499 616.428 190.65 616.339 191.713C615.896 196.583 615.542 201.542 615.365 206.412C615.188 211.016 615.188 215.621 615.099 220.225C615.099 223.679 615.188 227.044 615.011 230.497C614.922 232.002 614.303 233.419 613.771 234.836C613.594 235.279 612.709 235.456 612.177 235.721C612.089 235.633 611.912 235.633 611.735 235.544ZM617.047 179.936C617.225 180.024 617.313 180.113 617.49 180.202C618.464 178.253 619.527 176.394 620.501 174.446C622.095 171.258 623.777 168.159 625.282 164.971C627.142 161.164 628.824 157.268 630.595 153.371C632.366 149.564 634.403 145.845 635.731 141.949C637.148 137.875 637.945 133.537 638.83 129.286C639.273 127.338 639.273 125.302 639.627 123.354C640.159 120.254 640.513 117.244 639.539 114.145C637.945 108.743 636.174 103.43 633.252 98.6486C631.481 95.7265 629.533 93.0701 626.434 91.5648C624.751 90.7678 622.715 89.5282 621.032 89.7938C615.631 90.5022 610.495 92.0961 606.687 96.4349C602.791 100.774 598.807 105.024 595.176 109.54C593.228 112.019 591.9 115.03 590.306 117.864C587.561 122.734 586.233 128.047 585.347 133.448C584.55 138.407 584.816 143.454 584.639 148.501C584.462 153.283 585.436 157.799 587.207 162.226C589.509 168.07 591.811 173.915 593.936 179.847C595.973 185.514 599.692 189.765 604.474 193.13C604.828 193.395 605.359 193.661 605.713 193.661C607.219 193.395 609.964 189.853 610.052 188.259C610.318 183.478 610.583 178.785 610.849 174.003C610.938 173.206 611.115 172.321 611.115 171.524C611.115 171.081 610.761 170.55 610.406 170.196C608.635 168.425 606.51 166.919 605.005 164.971C602.968 162.403 601.374 159.57 599.692 156.825C598.541 154.877 597.478 152.84 596.416 150.892C595.796 149.741 595.707 148.767 597.213 148.236C597.478 148.147 597.744 147.262 597.567 146.996C596.859 145.668 595.973 144.517 595.176 143.277C594.291 141.949 594.468 141.329 595.884 140.532C597.921 139.469 598.541 139.558 600.223 141.24C600.932 141.949 602.171 142.923 601.994 143.454C601.552 145.491 602.88 146.73 603.677 148.147C605.802 152.309 608.281 156.294 610.672 160.367C611.026 160.987 611.469 161.518 612.089 162.492C612.266 161.429 612.532 160.898 612.443 160.278C612.177 158.242 613.417 156.116 611.646 154.168C611.38 153.814 611.558 152.663 611.912 152.132C612.974 150.626 612.532 149.033 612.443 147.527C612.443 147.262 611.823 146.907 611.558 146.819C609.609 146.553 608.724 145.314 607.838 143.72C606.156 140.443 604.385 137.167 602.614 133.891C601.109 131.057 599.515 128.135 597.921 125.39C596.947 123.796 597.478 122.999 598.895 122.202C599.249 122.025 599.515 121.848 599.692 121.76C599.692 121.14 599.603 120.52 599.781 120.166C600.666 118.749 603.942 118.838 604.651 120.343C605.625 122.291 606.422 124.416 607.307 126.364C609.432 130.88 611.558 135.308 613.683 139.735C613.771 139.912 614.125 139.912 614.125 139.912C614.48 138.761 614.48 137.079 615.188 136.636C616.516 135.839 618.022 136.636 619.173 138.053C620.855 134.599 622.36 131.234 624.043 127.958C625.46 125.036 626.965 122.114 628.559 119.28C629.002 118.395 629.976 117.775 630.861 117.244C631.835 116.624 632.986 117.067 633.517 117.864C633.96 118.483 633.96 119.635 633.783 120.431C633.517 121.406 632.809 122.202 632.366 123.088C631.215 125.567 630.064 128.047 628.824 130.437C627.762 132.651 626.434 134.776 625.371 136.99C623.423 140.975 621.563 144.959 619.704 148.944C619.261 149.918 618.996 150.804 619.704 151.866C620.589 153.017 620.501 154.257 619.704 155.674C618.996 155.408 618.376 155.142 617.49 154.877C617.579 163.2 617.313 171.524 617.047 179.936ZM605.89 91.2991C603.323 91.6533 596.504 98.8257 596.593 101.039C599.781 97.7631 602.88 94.4869 605.89 91.2991Z" fill="black"/>
</svg>
