<svg width="47" height="46" viewBox="0 0 47 46" fill="none" xmlns="http://www.w3.org/2000/svg">
<path fill-rule="evenodd" clip-rule="evenodd" d="M3.63188 0.000488281C2.0141 0.000488281 0.702637 1.31196 0.702637 2.92974V42.9628C0.702637 44.5805 2.01411 45.892 3.63188 45.892H43.6649C45.2827 45.892 46.5941 44.5805 46.5941 42.9627V2.92973C46.5941 1.31196 45.2827 0.000488281 43.6649 0.000488281H3.63188ZM38.002 13.0346C38.3747 13.9931 38.6349 15.0993 38.7059 16.7082C38.7768 18.3232 38.7828 18.8378 38.7828 22.9491C38.7828 27.0603 38.765 27.5749 38.6941 29.1899C38.6231 30.7989 38.3627 31.8992 37.9902 32.8635C37.2034 34.8983 35.5945 36.5073 33.5594 37.2941C32.6011 37.6668 31.495 37.927 29.886 37.998C28.271 38.0691 27.7564 38.0867 23.6452 38.0867C19.5339 38.0867 19.0191 38.0691 17.4044 37.998C15.7952 37.927 14.695 37.6668 13.7307 37.2941C12.7251 36.9156 11.8082 36.3181 11.051 35.549C10.282 34.7918 9.68464 33.8809 9.30014 32.8635C8.92742 31.905 8.667 30.7989 8.59606 29.1899C8.52512 27.5749 8.50732 27.0603 8.50732 22.9491C8.50732 18.8378 8.52512 18.3232 8.60206 16.7022C8.673 15.0933 8.93319 13.9931 9.30591 13.0288C9.68464 12.0232 10.282 11.1063 11.051 10.3491C11.8082 9.57406 12.7191 8.98251 13.7368 8.598C14.695 8.22551 15.8012 7.96509 17.4101 7.89415C19.0251 7.82321 19.5397 7.80542 23.651 7.80542C27.7622 7.80542 28.2768 7.82321 29.8978 7.90016C31.5068 7.9711 32.6071 8.23129 33.5712 8.60401C34.5768 8.98251 35.4937 9.58006 36.2509 10.3491C37.026 11.1063 37.6175 12.0172 38.002 13.0346ZM35.4584 31.8814C35.6654 31.349 35.9138 30.5505 35.979 29.0716C36.0499 27.4744 36.0677 27.0012 36.0677 22.9608C36.0677 18.9205 36.0499 18.4415 35.979 16.8443C35.9138 15.3712 35.6654 14.5669 35.4584 14.0345C35.2157 13.3778 34.8312 12.7862 34.3284 12.2952C33.8434 11.7924 33.2458 11.4079 32.5894 11.1655C32.057 10.9584 31.2584 10.71 29.7795 10.6449C28.1881 10.5739 27.7091 10.5561 23.6627 10.5561C19.6227 10.5561 19.1434 10.5739 17.5462 10.6449C16.0734 10.71 15.2688 10.9584 14.7364 11.1655C14.0797 11.4079 13.4881 11.7924 12.9973 12.2952C12.4885 12.7804 12.104 13.3778 11.8614 14.0345C11.6543 14.5669 11.4059 15.3655 11.341 16.8443C11.2698 18.4355 11.2522 18.9205 11.2522 22.9608C11.2522 27.0012 11.2698 27.4804 11.341 29.0776C11.4059 30.5505 11.6543 31.3551 11.8614 31.8874C12.104 32.5439 12.4885 33.1355 12.9913 33.6265C13.4763 34.1293 14.0739 34.5138 14.7304 34.7565C15.2628 34.9635 16.0614 35.2119 17.5402 35.2768C19.1316 35.348 19.6166 35.3656 23.657 35.3656C27.6973 35.3656 28.1763 35.348 29.7735 35.2768C31.2466 35.2119 32.051 34.9635 32.5833 34.7565C33.9025 34.2476 34.9495 33.2006 35.4584 31.8814ZM15.8726 22.949C15.8726 18.6543 19.3569 15.1702 23.6514 15.1702C27.9462 15.1702 31.4303 18.6543 31.4303 22.949C31.4303 27.2437 27.9462 30.7278 23.6514 30.7278C19.3569 30.7278 15.8726 27.2437 15.8726 22.949ZM18.6055 22.949C18.6055 25.7352 20.8654 27.9949 23.6514 27.9949C26.4377 27.9949 28.6974 25.7352 28.6974 22.949C28.6974 20.1627 26.4377 17.9031 23.6514 17.9031C20.8654 17.9031 18.6055 20.1627 18.6055 22.949ZM33.5539 14.8626C33.5539 15.8655 32.7407 16.6786 31.7376 16.6786C30.7348 16.6786 29.9216 15.8655 29.9216 14.8626C29.9216 13.8595 30.7348 13.0466 31.7376 13.0466C32.7407 13.0466 33.5539 13.8595 33.5539 14.8626Z" fill="#F7D23A"/>
</svg>
