<svg width="47" height="46" viewBox="0 0 47 46" fill="none" xmlns="http://www.w3.org/2000/svg">
<path fill-rule="evenodd" clip-rule="evenodd" d="M3.63188 0.000610352C2.0141 0.000610352 0.702637 1.31208 0.702637 2.92986V42.9629C0.702637 44.5807 2.01411 45.8921 3.63188 45.8921H43.6649C45.2827 45.8921 46.5941 44.5807 46.5941 42.9629V2.92986C46.5941 1.31208 45.2827 0.000610352 43.6649 0.000610352H3.63188ZM38.0021 13.0348C38.3748 13.9933 38.635 15.0995 38.7059 16.7084C38.7769 18.3234 38.7829 18.838 38.7829 22.9493C38.7829 27.0605 38.7651 27.5751 38.6941 29.1901C38.6232 30.7991 38.3628 31.8994 37.9903 32.8637C37.2035 34.8985 35.5945 36.5075 33.5595 37.2943C32.6012 37.667 31.495 37.9272 29.8861 37.9982C28.2711 38.0693 27.7565 38.0869 23.6452 38.0869C19.534 38.0869 19.0192 38.0693 17.4044 37.9982C15.7952 37.9272 14.6951 37.667 13.7308 37.2943C12.7252 36.9158 11.8083 36.3183 11.051 35.5492C10.282 34.792 9.6847 33.8811 9.3002 32.8637C8.92747 31.9052 8.66705 30.7991 8.59612 29.1901C8.52518 27.5751 8.50738 27.0605 8.50738 22.9493C8.50738 18.838 8.52518 18.3234 8.60212 16.7024C8.67306 15.0935 8.93325 13.9933 9.30597 13.029C9.6847 12.0234 10.282 11.1065 11.051 10.3493C11.8083 9.57426 12.7192 8.98272 13.7368 8.59821C14.6951 8.22572 15.8012 7.9653 17.4102 7.89436C19.0252 7.82342 19.5398 7.80563 23.651 7.80563C27.7623 7.80563 28.2769 7.82342 29.8979 7.90037C31.5068 7.97131 32.6072 8.2315 33.5712 8.60422C34.5769 8.98272 35.4938 9.58027 36.251 10.3493C37.026 11.1065 37.6176 12.0174 38.0021 13.0348ZM35.4584 31.8817C35.6655 31.3493 35.9139 30.5507 35.979 29.0718C36.05 27.4746 36.0678 27.0014 36.0678 22.9611C36.0678 18.9207 36.05 18.4417 35.979 16.8445C35.9139 15.3714 35.6655 14.5671 35.4584 14.0347C35.2158 13.378 34.8313 12.7864 34.3285 12.2954C33.8434 11.7926 33.2459 11.4081 32.5894 11.1657C32.057 10.9586 31.2584 10.7102 29.7796 10.6451C28.1882 10.5741 27.7091 10.5563 23.6628 10.5563C19.6227 10.5563 19.1435 10.5741 17.5463 10.6451C16.0734 10.7102 15.2688 10.9586 14.7364 11.1657C14.0797 11.4081 13.4882 11.7926 12.9974 12.2954C12.4886 12.7806 12.104 13.378 11.8614 14.0347C11.6544 14.5671 11.406 15.3657 11.341 16.8445C11.2699 18.4357 11.2523 18.9207 11.2523 22.9611C11.2523 27.0014 11.2699 27.4806 11.341 29.0778C11.406 30.5507 11.6544 31.3553 11.8614 31.8877C12.104 32.5441 12.4886 33.1357 12.9914 33.6267C13.4764 34.1295 14.0739 34.514 14.7304 34.7567C15.2628 34.9637 16.0614 35.2121 17.5403 35.277C19.1317 35.3482 19.6167 35.3658 23.657 35.3658C27.6974 35.3658 28.1764 35.3482 29.7735 35.277C31.2466 35.2121 32.051 34.9637 32.5834 34.7567C33.9026 34.2478 34.9496 33.2008 35.4584 31.8817ZM15.8707 22.9491C15.8707 18.6544 19.355 15.1703 23.6495 15.1703C27.9443 15.1703 31.4284 18.6544 31.4284 22.9491C31.4284 27.2438 27.9443 30.728 23.6495 30.728C19.355 30.728 15.8707 27.2438 15.8707 22.9491ZM18.6036 22.9491C18.6036 25.7354 20.8635 27.9951 23.6495 27.9951C26.4358 27.9951 28.6955 25.7354 28.6955 22.9491C28.6955 20.1628 26.4358 17.9032 23.6495 17.9032C20.8635 17.9032 18.6036 20.1628 18.6036 22.9491ZM33.5539 14.863C33.5539 15.8658 32.7408 16.679 31.7377 16.679C30.7348 16.679 29.9217 15.8658 29.9217 14.863C29.9217 13.8599 30.7348 13.0469 31.7377 13.0469C32.7408 13.0469 33.5539 13.8599 33.5539 14.863Z" fill="black"/>
</svg>
