<svg width="818" height="308" viewBox="0 0 818 308" fill="none" xmlns="http://www.w3.org/2000/svg">
<path d="M653.804 105.31C656.935 106.299 660.067 107.453 663.198 108.442C668.637 110.419 673.911 112.397 679.35 114.21C684.953 116.188 690.557 118.166 696.325 119.978C701.105 121.627 706.049 123.11 710.829 124.758C714.454 125.912 718.08 127.23 721.706 128.384C729.287 131.021 736.869 133.328 744.45 136.13C755.327 140.085 766.04 144.206 776.918 148.161C783.84 150.633 790.762 153.105 797.519 155.742C801.969 157.39 806.419 159.368 810.869 161.181C811.858 161.511 812.682 162.005 813.67 162.17C816.143 162.829 817.131 164.642 817.956 166.62C818.12 167.114 817.626 168.103 817.296 168.433C815.318 170.246 814 169.916 811.528 168.762C807.737 166.785 803.947 165.301 799.991 163.818C791.915 160.687 783.675 157.885 775.434 154.753C767.194 151.622 759.118 148.161 750.878 145.194C744.615 142.887 738.187 140.745 731.76 138.602C719.399 134.482 707.203 130.362 694.842 126.241C688.909 124.264 682.811 122.451 676.878 120.473C668.967 117.671 661.221 114.704 653.474 111.903C649.354 110.419 645.234 108.936 641.278 107.288C637.488 105.805 633.532 104.157 629.742 102.508C623.644 99.8715 617.546 97.0697 611.448 94.5976C600.405 89.9829 589.528 85.3682 578.321 81.0831C573.376 79.1054 567.938 78.2813 562.828 76.798C557.884 75.3147 552.94 73.8314 547.996 72.3481C539.92 69.876 531.844 67.5686 523.768 64.9317C517.506 62.7891 511.243 60.317 504.98 58.3392C496.08 55.3726 488.004 50.5931 479.764 46.4729C476.468 44.8248 472.842 43.8359 469.546 42.5174C465.92 41.0341 462.294 39.5508 458.998 37.7379C453.889 34.7713 449.274 36.0898 444.824 38.7268C440.209 41.3637 435.924 44.8248 431.474 47.7914C419.608 55.8671 407.742 63.9428 395.875 72.1833C389.118 76.798 382.526 81.7424 375.933 86.5219C371.648 89.6533 367.363 92.9495 363.078 96.0809C362.584 96.5753 361.924 96.9049 360.935 97.5642C365.056 99.7067 368.517 101.355 371.813 103.168C378.076 106.464 384.503 109.595 390.931 112.892C399.007 117.012 407.082 120.967 415.158 125.088C421.915 128.549 428.343 132.339 435.1 135.635C440.209 138.108 445.648 140.25 451.087 142.393C459.163 145.689 467.074 148.82 475.149 152.117C481.412 154.589 487.84 157.061 493.938 159.533C499.212 161.676 504.486 163.983 509.595 166.29C515.693 168.927 521.626 171.894 527.559 174.531C529.372 175.355 531.185 176.014 532.998 176.838C533.492 177.003 534.151 177.333 534.646 177.662C536.294 178.816 537.612 181.618 536.953 182.607C535.47 184.914 532.668 185.408 530.361 184.09C524.592 181.123 518.989 178.157 513.22 175.355C508.771 173.212 504.321 171.07 499.871 169.257C493.773 166.62 487.51 164.313 481.412 161.84C476.797 159.863 472.183 157.885 467.403 155.907C461.305 153.435 455.042 151.292 448.944 148.82C443.011 146.513 437.078 144.041 431.31 141.404C424.552 138.108 417.96 134.482 411.367 131.021C408.401 129.537 405.599 127.725 402.633 126.241C398.183 123.934 393.403 121.956 388.953 119.649C379.724 115.034 370.494 110.09 361.265 105.64C356.156 103.168 350.717 101.19 345.443 98.7178C339.016 95.7513 332.588 92.7847 326.325 89.8181C317.92 85.8626 309.514 81.7424 301.274 77.6221C293.198 73.5018 284.958 69.7112 277.047 65.0965C268.147 59.9873 258.588 56.1967 249.029 52.2412C241.777 49.1098 235.02 45.3192 227.933 41.8582C222.824 39.386 217.715 36.9138 212.111 35.7602C199.421 33.288 187.225 28.6733 175.688 22.7401C169.92 19.7735 169.59 19.7735 164.975 24.553C159.042 30.4862 153.274 36.2546 147.67 42.3526C142.067 48.2858 136.958 54.5486 131.354 60.4818C125.751 66.415 119.817 72.0185 114.049 77.7869C109.599 82.2368 105.314 86.6867 100.699 91.1366C96.0846 95.5864 91.3051 100.036 86.6904 104.486C82.0757 108.771 77.6258 113.221 72.8463 117.506C68.0668 121.791 62.9577 125.747 58.0134 130.032C54.0579 133.493 50.2673 137.119 46.4766 140.745C41.6971 145.359 36.9176 149.974 31.9733 154.259C23.7327 161.511 15.4922 168.598 7.08685 175.684C4.94431 177.497 2.47216 178.981 0 180.299C0.164811 177.662 1.64811 175.849 3.29621 174.366C8.40534 169.257 13.6793 164.148 18.9532 159.203C22.7439 155.413 26.8641 151.952 30.6548 148.161C33.7862 145.194 36.588 141.898 39.7194 138.932C44.4989 134.482 49.4432 130.197 54.2227 125.912C61.6392 119.319 69.2205 112.892 76.4722 106.134C84.8775 98.3882 93.118 90.3125 101.523 82.4016C106.468 77.6221 111.412 73.0074 116.356 68.0631C121.301 62.9539 126.08 57.8448 130.86 52.5709C135.31 47.7914 139.43 42.847 143.715 38.0675C149.154 32.1343 154.757 26.366 160.361 20.5976C161.679 19.1143 162.998 17.631 164.151 16.1477C166.129 13.8404 168.601 13.0163 171.568 14.0052C175.523 15.4885 179.808 16.8069 183.599 18.7847C191.84 23.0697 200.575 26.366 209.804 28.0141C218.209 29.6622 225.955 33.1232 233.702 36.9138C238.316 39.2212 242.601 41.8582 247.381 43.8359C253.479 46.4729 259.906 48.7802 266.169 51.4172C269.136 52.7357 272.102 54.3838 275.069 55.8671C280.673 58.8337 286.441 61.6354 292.045 64.602C293.693 65.4261 294.517 65.0965 295.506 63.778C300.615 57.5152 305.559 51.2524 310.833 45.1544C317.425 37.5731 324.018 30.1566 330.775 22.7401C334.071 19.1143 337.697 16.1477 340.829 12.3571C343.466 9.22565 345.443 5.435 347.586 1.97398C348.904 -0.16856 353.025 -0.827802 354.837 1.31474C357.474 4.44614 360.935 5.76463 364.396 7.24792C369.341 9.39046 373.791 12.1922 377.416 16.1477C382.031 21.092 386.646 26.2012 390.931 31.4751C394.062 35.2657 396.699 39.7156 399.666 43.6711C402.468 47.4617 405.599 50.9228 408.566 54.5486C409.555 55.7023 410.708 55.7023 411.862 54.7134C416.806 51.0876 421.751 47.4617 426.695 44.0007C431.969 40.3749 436.913 36.2546 442.352 33.1232C447.955 29.9918 453.724 27.8493 460.316 31.1455C468.062 34.9361 476.303 37.9027 484.379 41.3637C490.971 44.1655 497.069 47.7914 503.826 50.4283C512.067 53.7245 520.637 56.3615 529.042 59.3281C535.47 61.4706 541.898 63.6132 548.325 65.5909C554.753 67.5686 561.345 69.5464 567.938 71.0297C578.486 73.6666 588.704 77.2925 598.592 81.9072C606.339 85.3682 614.249 88.4996 622.16 91.9606C632.379 96.2457 642.597 100.531 652.65 104.816C652.486 104.816 653.145 105.145 653.804 105.31C653.639 105.475 653.31 105.475 653.639 105.475C653.145 105.64 653.474 105.475 653.804 105.31ZM299.131 68.2279C299.955 68.8871 300.78 69.7112 301.604 70.0408C307.866 73.1722 314.129 76.3036 320.557 79.435C330.281 84.0497 340.004 88.6644 349.728 93.1143C351.871 94.1032 354.013 94.5976 356.321 92.6199C360.441 89.1588 364.891 86.0274 369.176 82.896C376.592 77.4573 384.174 72.1833 391.755 67.0742C395.216 64.602 398.842 62.2947 402.468 59.8225C400.82 58.0096 399.336 56.3615 398.018 54.7134C393.733 48.6154 389.448 42.5174 385.163 36.5842C383.514 34.4417 381.866 32.2991 380.053 30.1566C378.241 28.1789 376.098 26.366 374.285 24.3882C372.967 23.0697 372.143 21.5865 370.824 20.268C365.55 15.1588 358.793 12.6867 352.53 9.22565C351.047 8.4016 350.058 8.07197 348.904 9.88489C345.608 14.8292 341.982 19.4439 337.697 23.5642C334.73 26.366 331.434 28.6733 329.127 31.8047C322.864 39.8804 314.953 46.6377 309.35 55.3726C306.383 59.9873 302.757 63.9428 299.131 68.2279ZM702.753 124.264C702.423 124.099 702.258 123.934 702.094 124.099C701.764 124.264 701.599 124.593 701.434 124.923C701.434 125.088 701.764 125.252 701.929 125.417C702.094 124.923 702.423 124.758 702.753 124.264ZM740.33 138.932C740.659 138.602 740.824 138.437 740.824 138.108C740.824 137.943 740.494 137.613 740.33 137.613C740.165 137.778 739.835 137.943 739.67 138.108C739.835 138.437 740.165 138.602 740.33 138.932ZM420.927 49.9339C420.762 49.7691 420.597 49.6043 420.597 49.4395C420.267 49.7691 419.938 50.0987 419.443 50.2635C419.443 50.4283 419.608 50.4283 419.608 50.5931C419.938 50.4283 420.432 50.2635 420.927 49.9339ZM438.067 37.5731C438.232 37.4083 438.396 37.2435 438.396 36.9138L438.067 36.5842C437.902 36.749 437.737 36.9138 437.572 37.0787C437.737 37.2435 437.902 37.4083 438.067 37.5731ZM708.851 126.9C708.686 126.736 708.356 126.406 708.356 126.571C708.192 126.736 708.027 126.9 707.862 127.065C708.027 127.23 708.192 127.395 708.192 127.395C708.521 127.23 708.686 127.065 708.851 126.9ZM720.717 131.515C720.552 131.845 720.388 132.01 720.223 132.174C720.223 132.339 720.388 132.669 720.552 132.504C720.717 132.504 721.047 132.339 721.047 132.174C721.047 132.01 720.882 131.845 720.717 131.515ZM777.577 151.952C777.412 152.117 777.247 152.281 777.247 152.446C777.247 152.611 777.412 152.776 777.577 152.941C777.742 152.776 777.906 152.611 777.906 152.446C777.742 152.117 777.577 151.952 777.577 151.952ZM770.49 150.633C770.655 150.798 770.82 150.963 770.82 150.963C770.984 150.963 771.149 150.798 771.149 150.633C770.984 150.468 770.82 150.304 770.82 150.304C770.82 150.304 770.655 150.468 770.49 150.633ZM761.261 147.667C761.261 147.502 761.425 147.502 761.425 147.337L761.261 147.172C761.096 147.172 761.096 147.337 760.931 147.502C760.931 147.502 761.096 147.667 761.261 147.667ZM680.503 117.341C680.503 117.341 680.503 117.177 680.339 117.177C680.174 117.341 680.009 117.341 680.009 117.506C680.009 117.506 680.009 117.671 680.174 117.671C680.174 117.671 680.339 117.506 680.503 117.341ZM316.272 40.7045C316.272 40.5397 316.107 40.3749 316.107 40.2101H315.942C315.942 40.3749 315.942 40.5397 315.942 40.7045C315.942 40.7045 316.107 40.7045 316.272 40.7045ZM754.339 141.404C754.339 141.404 754.174 141.404 754.174 141.569C754.174 141.733 754.339 141.733 754.339 141.898L754.503 141.733C754.503 141.569 754.339 141.404 754.339 141.404ZM712.477 129.702V129.537C712.312 129.537 712.147 129.702 712.147 129.702L712.312 129.867C712.312 129.702 712.477 129.702 712.477 129.702ZM617.711 93.7735C617.711 93.9383 617.546 94.268 617.546 94.4328C617.546 94.4328 617.875 94.5976 618.04 94.5976C618.205 94.4328 618.205 94.268 618.37 94.1032C618.205 93.9383 618.04 93.9383 617.711 93.7735ZM488.664 160.687L488.829 160.522C488.664 160.357 488.664 160.357 488.499 160.192L488.334 160.357C488.499 160.522 488.664 160.522 488.664 160.687ZM745.274 140.909C745.109 141.074 745.109 141.239 744.944 141.404L745.109 141.569C745.274 141.569 745.439 141.404 745.604 141.404C745.439 141.239 745.274 141.074 745.274 140.909ZM747.911 141.733V141.569C747.911 141.569 747.746 141.569 747.746 141.404C747.746 141.569 747.746 141.569 747.746 141.733H747.911ZM737.528 135.306V135.141H737.363V135.306H737.528ZM718.41 131.845H718.575C718.575 131.68 718.41 131.68 718.41 131.515C718.41 131.515 718.245 131.515 718.245 131.68C718.41 131.68 718.41 131.68 718.41 131.845ZM670.944 115.364L670.78 115.199L670.615 115.364H670.944ZM704.401 128.054L704.236 127.889V128.054H704.401ZM775.764 151.622C775.764 151.457 775.764 151.457 775.929 151.292C775.764 151.292 775.599 151.292 775.434 151.292V151.457C775.599 151.622 775.764 151.622 775.764 151.622ZM700.445 126.9L700.281 126.736C700.281 126.736 700.116 126.736 700.116 126.9L700.281 127.065C700.281 127.065 700.281 126.9 700.445 126.9ZM465.425 151.128H465.261L465.425 151.292V151.128ZM692.37 123.769C692.37 123.769 692.37 123.604 692.205 123.604H692.04C692.205 123.769 692.205 123.934 692.37 123.769C692.37 123.934 692.37 123.934 692.37 123.769ZM683.964 120.473C683.8 120.473 683.8 120.638 683.635 120.638C683.635 120.638 683.8 120.802 683.8 120.638C683.8 120.638 683.8 120.638 683.964 120.473ZM689.074 119.814C689.074 119.649 689.074 119.649 689.074 119.484H688.909C688.909 119.649 688.909 119.814 689.074 119.814ZM684.294 118.825C684.129 118.66 684.129 118.495 683.964 118.495C683.8 118.495 683.635 118.66 683.47 118.66C683.635 118.825 683.8 118.99 683.8 119.154C683.964 118.99 684.129 118.825 684.294 118.825ZM648.86 105.97C648.86 105.805 648.86 105.805 649.025 105.64H648.86C648.86 105.805 648.86 105.805 648.86 105.97ZM475.149 157.72L475.314 157.885V157.72H475.149Z" fill="black"/>
<path d="M283.804 221.337C281.167 221.337 281.002 223.974 279.519 225.128C278.86 225.787 278.695 226.94 277.871 227.6C277.376 228.094 276.387 228.094 275.563 228.259C275.399 227.6 275.069 226.94 275.398 226.446C276.882 222.985 278.2 219.359 279.848 216.063C283.309 208.646 286.935 201.395 290.396 194.143C291.22 192.33 292.209 190.682 292.868 188.869C293.198 188.045 293.363 187.221 293.528 186.397C293.198 186.232 293.033 186.232 292.704 186.067C291.385 188.54 290.231 191.177 288.748 193.649C284.958 200.571 281.332 207.658 277.376 214.58C276.387 216.393 274.574 217.876 273.091 219.524C272.267 220.513 271.278 221.007 269.96 220.018C268.806 219.194 269.63 218.37 270.125 217.546C273.586 209.965 277.211 202.384 280.672 194.638C282.98 189.364 284.958 183.76 287.1 178.486C287.1 178.321 287.1 178.321 287.265 178.157C288.748 175.684 290.231 172.883 292.044 170.575C293.528 168.597 295.505 168.597 297.813 169.916C301.768 172.059 304.076 175.849 306.548 179.31C311.657 186.232 316.272 193.484 321.381 200.406C323.523 203.537 325.995 206.339 328.303 209.471C328.962 210.295 330.28 211.283 328.632 212.272C327.314 213.261 325.831 215.074 324.018 213.261C321.381 210.789 318.579 208.152 316.272 205.185C311.986 199.582 307.866 193.649 303.746 187.88C303.087 186.891 302.263 186.067 301.274 184.914C301.603 188.375 301.768 191.506 302.098 194.473C302.263 195.626 302.592 197.11 303.251 197.934C307.372 202.878 311.492 207.822 315.942 212.602C318.909 215.898 322.04 218.865 325.171 222.161C326.984 223.974 326.984 226.94 325.336 228.259C324.018 229.248 322.534 229.907 321.051 228.424C316.601 223.809 311.986 219.194 307.537 214.58C306.877 213.92 306.218 213.096 305.559 212.437C303.746 215.733 305.229 220.348 308.69 222.82C313.47 226.281 318.084 229.907 322.699 233.698C323.523 234.357 324.018 235.181 324.512 236.005C325.501 237.324 325.995 238.642 324.512 239.961C323.029 241.114 321.381 241.279 319.733 240.125C315.283 236.829 310.998 233.533 306.053 230.566C306.383 231.555 306.548 232.709 307.207 233.533C308.855 235.675 310.503 237.653 312.481 239.466C315.118 241.938 318.084 244.246 321.051 246.553C322.37 247.542 324.182 248.531 323.029 250.179C322.205 251.332 320.062 252.157 318.744 251.827C316.601 251.497 314.623 250.344 312.646 249.355C310.998 248.531 309.679 247.212 307.372 245.729C307.701 248.531 308.196 250.508 308.361 252.651C309.02 260.232 309.679 267.814 310.174 275.23C310.668 281.658 311.162 287.92 311.657 294.348C311.986 297.479 312.316 300.776 312.481 303.907C312.646 305.72 310.338 307.698 307.701 307.698C305.888 307.698 305.064 306.379 304.9 304.566C304.735 298.798 304.57 293.194 304.24 287.426C303.581 278.526 302.757 269.626 302.098 260.727C301.768 256.442 301.439 252.157 301.109 247.871C300.779 244.74 300.615 241.609 300.12 238.477C299.955 237.818 299.461 237.159 298.966 236.664C296.989 234.357 296.824 232.709 297.978 230.072C298.637 228.753 298.637 227.105 298.966 225.622C298.637 225.622 298.472 225.457 298.142 225.457C296.659 227.6 295.176 229.907 293.692 232.05C290.891 236.335 288.089 240.62 285.287 244.74C283.804 247.047 281.332 247.542 279.354 246.223C277.871 245.399 276.717 244.41 278.53 242.597C278.86 242.268 279.024 241.773 279.189 241.444C279.024 241.114 278.86 240.949 278.86 240.785C274.739 240.125 274.08 239.301 275.893 235.346C278.2 230.402 281.002 225.952 283.804 221.337C283.804 221.007 283.804 220.678 283.804 220.513C283.804 220.348 283.639 220.018 283.639 219.854C283.474 219.854 283.309 219.854 283.309 219.854C283.309 220.183 283.309 220.348 283.309 220.678C283.309 220.842 283.639 221.172 283.804 221.337ZM291.22 220.018C292.044 219.524 293.033 219.03 293.528 218.205C294.846 216.063 296.824 214.25 296.989 211.613C296.824 211.448 296.494 211.283 296.329 211.283C294.517 214.25 292.868 217.217 291.22 220.018C291.22 220.348 291.056 220.513 291.056 220.842C290.891 221.337 290.891 221.667 290.726 222.161C291.056 222.161 291.385 222.326 291.55 222.161C291.715 221.831 292.044 221.337 292.044 221.007C291.88 220.678 291.385 220.348 291.22 220.018ZM283.474 236.005C283.309 236.005 283.145 236.17 283.145 236.17C283.309 236.335 283.474 236.499 283.474 236.499C283.639 236.499 283.804 236.335 283.969 236.17C283.804 236.17 283.639 236.17 283.474 236.005ZM292.209 197.604C292.374 197.439 292.704 197.11 292.704 196.945C292.704 196.78 292.374 196.45 292.209 196.45C291.88 196.615 291.715 196.78 291.55 196.945C291.715 197.275 291.88 197.439 292.209 197.604ZM307.537 266.165V266.001C307.372 266.001 307.207 266.001 307.207 266.165V266.33C307.207 266.165 307.372 266.165 307.537 266.165ZM278.695 222.985C278.53 222.985 278.365 222.82 278.365 222.82C278.2 222.82 278.2 222.985 278.035 223.15C278.2 223.15 278.365 223.315 278.365 223.315C278.53 223.315 278.695 223.15 278.695 222.985ZM285.617 241.279C285.617 241.279 285.782 241.279 285.782 241.114C285.617 241.114 285.617 240.949 285.452 240.949C285.617 240.949 285.452 240.949 285.617 241.279C285.452 241.114 285.617 241.114 285.617 241.279ZM309.02 281.822C309.02 281.987 308.855 282.152 308.855 282.152C309.02 282.152 309.02 282.152 309.185 282.152C309.02 281.987 309.02 281.822 309.02 281.822ZM305.724 283.141C305.559 283.306 305.559 283.306 305.394 283.471L305.559 283.635C305.724 283.635 305.724 283.635 305.888 283.635C305.888 283.471 305.888 283.306 305.724 283.141Z" fill="black"/>
<path d="M144.044 198.923C142.726 199.747 141.572 200.571 140.089 201.395C139.759 201.559 139.265 201.395 138.771 201.395C138.771 200.9 138.771 200.406 138.935 200.076C140.254 197.934 141.572 195.791 143.056 193.813C149.318 185.573 155.746 177.332 162.174 169.257C162.503 168.762 162.668 168.103 162.503 167.279C160.69 169.257 158.713 171.234 156.9 173.212C152.779 177.662 148.824 182.112 144.704 186.562C143.385 187.88 142.067 189.199 140.748 190.517C140.419 190.847 139.924 191.341 139.595 191.341C138.606 191.506 137.617 191.341 136.463 191.341C136.628 190.517 136.628 189.364 137.287 188.704C139.924 185.078 142.726 181.453 145.528 177.992C149.978 172.388 154.592 166.949 159.207 161.346C159.537 160.851 159.537 160.027 159.701 159.368C159.207 159.698 158.548 160.027 158.053 160.522C152.944 166.784 147.341 172.718 140.913 177.662C140.419 177.992 139.595 177.992 138.935 177.992C138.771 177.662 138.606 177.497 138.276 177.168C143.22 170.245 148.165 163.488 152.944 156.566C153.439 155.742 153.768 154.753 154.098 153.929C153.768 153.764 153.603 153.6 153.274 153.435C150.967 156.072 148.989 158.874 146.517 161.346C144.044 163.983 141.408 166.62 138.771 168.927C138.111 169.586 136.134 169.751 135.639 169.257C134.65 168.433 135.145 167.114 136.134 165.96C140.089 160.851 143.88 155.577 147.835 150.303C149.318 148.326 150.637 146.513 149.978 143.876C149.483 141.898 151.296 141.239 152.779 140.744C154.592 140.25 158.218 136.13 157.889 134.317C157.724 133.163 156.735 132.174 155.911 131.185C155.087 130.196 153.933 129.537 153.109 128.548C151.626 126.735 151.461 124.263 153.274 123.439C154.757 122.78 157.065 122.615 158.383 123.274C161.514 125.087 164.481 127.559 167.283 130.032C169.096 131.68 170.085 133.987 171.568 135.8C178.325 143.711 185.082 151.622 191.675 159.533C193.982 162.335 195.96 165.301 198.102 168.268C194.971 169.916 192.993 168.268 191.51 166.784C186.895 162.335 182.445 157.885 177.995 153.27C175.358 150.468 172.886 147.666 170.085 144.535C168.601 151.457 170.414 155.412 176.018 159.698C182.116 164.312 188.049 169.421 194.147 174.366C194.806 174.86 195.301 175.684 195.795 176.343C196.125 177.003 196.289 177.992 195.96 178.651C195.465 179.804 194.312 179.969 193.158 179.31C192.664 178.98 192.004 178.651 191.18 178.651C192.004 179.804 192.828 180.793 193.817 182.112C185.082 182.771 180.303 176.508 174.37 172.223C173.71 171.894 173.216 171.399 172.722 170.905C172.392 171.07 172.227 171.07 171.897 171.234C173.216 179.475 174.534 187.551 175.688 195.791C176.347 201.065 176.842 206.339 177.501 211.613C178.16 217.546 178.82 223.479 179.808 229.413C180.962 235.84 182.445 242.103 183.764 248.531C184.093 250.508 184.258 252.486 183.929 254.464C183.764 255.947 183.599 257.595 181.621 258.419C179.314 259.408 177.831 258.749 177.666 256.112C177.501 252.816 177.501 249.519 177.007 246.388C175.853 240.29 174.205 234.192 173.051 227.929C172.392 224.798 172.227 221.666 171.897 218.535C171.403 213.591 171.073 208.811 170.414 203.867C169.261 196.45 167.777 189.034 166.459 181.453C166.294 180.134 166.294 178.651 166.294 177.332C166.294 177.003 165.964 176.343 165.47 176.179C165.305 176.014 164.646 176.508 164.316 176.838C160.031 181.782 155.911 186.727 151.626 191.506C149.318 194.308 146.517 196.615 144.044 198.923C141.737 197.934 141.737 197.934 141.243 199.911C142.067 199.582 143.056 199.252 144.044 198.923ZM162.668 142.557C162.174 142.392 161.844 142.392 161.35 142.228C161.185 143.217 160.855 144.205 160.855 145.194C160.855 145.359 161.679 145.524 162.009 145.689C162.174 144.7 162.338 143.546 162.668 142.557ZM184.258 178.321C184.423 178.486 184.423 178.651 184.588 178.816C184.588 178.816 184.918 178.816 184.918 178.651C184.753 178.486 184.753 178.321 184.588 178.156C184.588 178.156 184.423 178.156 184.258 178.321ZM192.169 165.466C192.004 165.466 191.84 165.466 191.675 165.301C191.675 165.466 191.675 165.466 191.675 165.631C191.84 165.631 192.004 165.631 192.169 165.796C192.334 165.631 192.169 165.466 192.169 165.466ZM193.652 164.972C193.652 164.807 193.488 164.807 193.488 164.642V164.807L193.652 164.972ZM188.543 180.134V179.969V180.134ZM145.033 183.925C144.869 183.925 144.869 184.09 144.704 184.09H144.869C145.033 184.09 145.033 184.09 145.033 183.925Z" fill="black"/>
<path d="M393.403 196.451C392.579 196.945 391.59 197.11 391.096 197.769C389.448 199.912 388.129 202.054 386.481 204.197C385.822 205.021 384.998 205.845 384.009 206.01C382.196 206.504 380.877 205.186 381.537 203.373C382.526 200.571 383.679 197.604 384.998 194.967C388.294 188.705 391.59 182.442 394.886 176.179C395.381 175.355 395.381 174.201 395.546 173.212C395.216 173.048 395.051 173.048 394.722 172.883C392.744 175.685 390.766 178.486 388.624 181.288C386.646 183.925 384.833 186.727 382.855 189.364C381.537 191.012 378.57 191.177 377.252 189.693C376.922 189.364 376.922 188.21 377.252 187.716C379.394 183.925 381.701 180.299 383.844 176.673C386.811 171.399 389.612 165.961 392.414 160.687C392.909 159.533 392.909 158.05 392.909 156.567C392.744 154.754 393.898 153.765 395.216 153.105C398.347 151.457 402.303 152.446 404.281 155.578C408.401 162.5 414.334 167.774 419.938 173.377C423.069 176.673 425.706 180.299 427.354 184.584C428.343 187.221 427.519 189.529 425.541 189.858C424.552 190.023 422.904 189.529 422.575 188.869C418.454 181.123 411.697 175.849 405.929 169.587C404.61 168.268 403.292 166.95 401.479 165.961C401.973 168.103 402.468 170.411 402.962 172.553C403.127 173.212 403.621 173.872 404.116 174.201C409.555 177.497 413.345 182.607 417.63 187.056C419.114 188.705 420.926 190.188 422.41 191.671C425.212 194.803 424.552 197.275 420.267 198.593C421.421 199.417 422.08 200.406 423.234 200.901C424.717 201.725 424.552 202.714 424.058 203.867C423.563 205.186 422.904 206.175 420.926 205.845C417.136 205.186 414.004 203.208 411.203 200.736C410.379 200.077 409.39 199.417 408.566 198.758C408.401 199.088 408.071 199.252 407.906 199.582C409.719 201.23 411.532 202.878 413.345 204.362C417.301 207.658 421.256 210.789 425.047 214.085C426.365 215.074 426.53 216.558 426.036 218.041C425.376 219.359 424.552 220.348 422.904 219.359C419.114 216.887 415.158 214.415 411.367 211.943C410.379 211.284 409.39 210.789 408.071 209.8C408.071 211.284 407.906 212.273 408.071 213.261C409.06 218.535 410.214 223.809 411.367 229.083C411.532 229.742 412.027 230.402 412.356 231.226C413.18 233.368 412.521 235.181 410.543 236.005C408.895 236.665 406.753 235.676 406.093 233.698C404.94 230.237 403.786 226.776 403.127 223.315C401.973 217.546 401.314 211.778 400.49 205.845C400.325 205.186 400.16 204.526 399.831 203.867C399.666 203.538 399.171 203.043 398.842 203.043C398.512 203.043 398.183 203.538 397.853 203.867C396.205 206.504 394.557 209.141 392.909 211.778C391.755 213.756 389.777 214.085 387.8 213.756C385.657 213.591 385.163 212.767 386.151 210.624C388.459 206.01 390.931 201.23 393.403 196.451C393.403 195.956 393.403 195.462 393.403 195.132H393.238C393.238 195.627 393.403 195.956 393.403 196.451ZM412.851 193.154C413.016 192.99 413.016 192.99 413.18 192.825C411.697 191.342 410.379 189.858 408.895 188.375C408.895 188.375 408.895 188.375 408.73 188.54C410.214 190.023 411.532 191.671 412.851 193.154Z" fill="black"/>
<path d="M613.096 183.101C612.436 184.09 611.942 184.419 611.777 184.914C610.459 189.199 607.657 192.66 605.02 196.121C604.525 196.615 603.866 197.275 603.207 197.439C602.218 197.604 601.229 197.275 600.076 197.275C600.076 196.286 599.911 195.132 600.405 194.308C602.713 189.199 605.35 184.255 607.657 179.31C608.481 177.662 608.975 176.014 609.305 174.366C609.47 173.871 609.14 173.212 608.975 172.553C608.481 172.883 607.822 173.212 607.657 173.707C606.174 176.673 605.02 179.805 603.372 182.771C602.713 183.925 601.559 185.079 600.405 185.903C599.911 186.232 598.098 185.738 597.768 185.243C597.274 184.09 596.944 182.442 597.274 181.288C599.581 174.86 602.053 168.433 604.69 162.005C605.844 159.368 607.492 156.896 608.975 154.424C610.459 152.116 610.459 150.798 608.481 148.491C606.338 145.689 606.503 144.041 609.14 142.228C611.283 140.745 613.755 141.404 615.238 144.041C619.853 150.963 624.303 158.05 628.917 164.807C631.884 169.257 634.851 173.707 638.312 177.992C639.301 179.31 639.301 180.134 638.476 180.958C637.158 181.947 637.652 182.606 638.476 183.431C639.465 184.419 640.784 185.079 639.795 187.056C638.806 189.034 637.158 189.034 635.84 188.54C633.203 187.716 630.73 186.397 628.093 185.243C627.764 185.079 627.269 185.079 626.775 185.079C626.94 185.408 626.94 186.067 627.269 186.232C629.577 188.045 631.884 189.693 634.027 191.341C635.015 192.165 636.169 192.99 636.828 193.978C637.323 194.802 637.982 196.451 637.488 197.11C636.993 197.934 635.345 198.593 634.521 198.263C632.214 197.604 629.906 196.615 627.929 195.297C625.786 194.143 623.973 192.495 621.336 190.682C621.336 193.484 621.171 195.791 621.336 198.099C622.325 206.174 623.314 214.25 624.468 222.326C624.632 223.315 625.127 224.468 625.292 225.457C625.292 226.941 625.292 228.589 624.962 230.072C624.797 230.731 623.973 231.39 623.314 231.555C622.655 231.555 621.666 230.896 621.501 230.402C620.347 227.27 619.029 223.974 618.37 220.678C617.216 214.745 616.557 208.811 615.733 202.878C615.568 201.56 615.073 200.406 614.579 198.428C612.601 202.549 610.788 206.01 609.14 209.471C607.987 211.943 605.844 213.096 603.537 212.437C602.053 212.108 601.559 210.954 602.218 209.8C604.031 205.68 606.174 201.56 607.986 197.275C609.799 193.319 611.612 189.364 613.26 185.408C613.425 185.079 613.26 184.419 613.096 183.101ZM629.412 178.157C629.577 177.992 629.742 177.827 629.906 177.662C627.599 174.696 625.456 171.729 623.149 168.598C622.984 168.268 622.325 168.103 622.16 168.103C621.336 168.927 620.512 169.751 620.018 170.905C619.853 171.399 620.512 172.553 621.171 172.883C623.808 174.86 626.61 176.508 629.412 178.157ZM621.831 225.787C621.666 225.622 621.501 225.457 621.501 225.292C621.336 225.457 621.171 225.622 621.171 225.952C621.171 226.116 621.336 226.281 621.336 226.446C621.501 226.116 621.666 225.952 621.831 225.787ZM620.347 209.141C620.512 208.976 620.512 208.811 620.677 208.647C620.512 208.482 620.347 208.482 620.018 208.317C620.018 208.482 619.853 208.647 619.853 208.811C620.018 208.976 620.182 208.976 620.347 209.141Z" fill="black"/>
<path d="M546.347 108.936C543.051 107.288 539.755 105.804 536.788 103.827C530.031 99.5417 523.439 95.0918 516.846 90.8067C515.363 89.8179 513.88 88.9938 512.561 87.8401C511.407 86.8513 509.924 85.6976 511.078 83.8847C512.067 82.2366 514.044 81.2477 516.022 81.9069C518.165 82.5662 520.142 83.555 521.955 84.7087C528.053 89.1586 533.986 93.7733 540.084 98.2232C542.721 100.201 545.523 102.179 547.995 104.321C548.655 104.98 548.984 106.299 548.984 107.453C548.819 107.782 547.501 108.277 546.347 108.936ZM540.414 101.025C540.579 100.86 540.744 100.86 540.744 100.695C540.744 100.531 540.579 100.366 540.414 100.201C540.249 100.366 540.084 100.366 540.084 100.531C540.084 100.695 540.414 100.86 540.414 101.025Z" fill="black"/>
<path d="M486.521 101.025C488.334 101.849 490.312 102.509 491.795 103.662C497.234 108.112 502.343 112.562 507.617 117.342C509.595 119.155 511.572 121.132 513.385 123.275C513.715 123.769 513.715 124.758 513.55 125.417C513.385 125.747 512.396 126.077 511.902 125.912C510.748 125.747 509.43 125.417 508.276 124.923C499.541 120.308 491.795 114.375 484.214 108.277C482.401 106.794 482.73 105.31 483.06 103.662C483.39 101.849 484.543 101.025 486.521 101.685C486.356 101.52 486.356 101.355 486.521 101.025Z" fill="black"/>
<path d="M215.078 82.4018C215.078 79.4352 216.232 78.4463 218.869 78.9407C222.494 79.6 223.483 82.8962 224.967 85.5332C226.779 88.8294 228.592 92.1256 230.24 95.5866C231.229 97.3996 231.889 99.3773 232.877 101.025C233.701 102.673 232.713 103.827 231.889 104.651C231.394 104.981 229.416 104.486 228.922 103.662C225.955 100.037 223.318 96.2459 220.681 92.4552C219.033 89.9831 217.55 87.3461 216.067 84.7091C215.408 83.8851 215.243 82.8962 215.078 82.4018Z" fill="black"/>
<path d="M131.849 96.4107C134.65 92.2904 137.287 88.1702 140.254 84.2147C143.056 80.424 145.858 76.7982 148.989 73.3372C150.472 71.6891 152.615 70.3706 154.593 69.2169C155.252 68.8873 157.065 69.0521 157.065 69.2169C157.559 70.3706 158.054 72.1835 157.394 72.8428C155.087 76.139 152.45 79.2704 149.648 82.0722C144.869 86.8517 139.924 91.4664 134.98 95.9163C134.321 96.5755 133.167 96.5755 132.343 97.0699C132.178 96.9051 132.013 96.5755 131.849 96.4107Z" fill="black"/>
<path d="M694.018 173.047C694.018 176.344 692.37 177.168 690.063 175.849C686.437 173.707 682.976 171.235 679.515 168.927C677.372 167.609 675.23 166.125 673.087 164.972C670.615 163.653 670.12 162.5 670.78 160.357C671.274 158.874 674.076 157.39 675.559 158.05C677.702 158.874 680.009 159.863 681.657 161.346C685.283 164.312 688.579 167.444 691.875 170.575C693.029 171.235 693.688 172.553 694.018 173.047ZM690.063 174.036V173.872C689.898 173.872 689.898 173.872 689.733 174.036L689.898 174.201C689.898 174.201 689.898 174.036 690.063 174.036Z" fill="black"/>
<path d="M278.859 106.299C278.695 106.958 278.695 107.618 278.53 108.277C278.2 109.595 277.376 109.925 276.387 108.771C275.069 107.288 273.75 105.64 272.597 103.992C269.96 99.8716 267.323 95.7513 264.851 91.631C264.026 90.4774 263.202 89.1589 262.873 87.8404C262.708 87.0163 263.367 85.533 264.026 84.8738C264.686 84.2146 266.169 83.7201 266.993 84.0497C268.971 84.8738 270.784 86.0275 271.773 88.17C273.915 93.444 276.222 98.5531 278.365 103.827C278.695 104.486 278.695 105.31 278.859 106.299Z" fill="black"/>
<path d="M101.029 150.633C99.8754 152.776 98.7217 155.083 97.2384 157.061C93.6125 162.005 89.8219 166.785 84.7128 170.575C83.5591 171.399 82.0758 171.729 80.7573 172.388C81.0869 170.905 81.2518 169.421 81.911 168.103C85.7016 161.346 90.1515 155.083 95.7551 149.809C96.2495 149.315 96.744 148.985 97.4032 148.655C98.0624 148.326 99.2161 147.666 99.7105 147.996C100.205 148.491 100.37 149.479 100.535 150.303C100.699 150.468 100.864 150.633 101.029 150.633Z" fill="black"/>
<path d="M702.753 124.264C702.423 124.758 702.258 125.088 702.094 125.417C701.929 125.252 701.599 124.923 701.599 124.923C701.764 124.593 701.929 124.264 702.258 124.099C702.094 123.934 702.423 124.099 702.753 124.264Z" fill="white"/>
<path d="M740.329 138.932C740.165 138.602 739.835 138.437 739.835 138.272C740 138.107 740.165 137.778 740.494 137.778C740.659 137.778 740.989 138.107 740.989 138.272C740.824 138.437 740.659 138.602 740.329 138.932Z" fill="white"/>
<path d="M708.851 126.9C708.686 127.065 708.356 127.23 708.191 127.23C708.027 127.23 707.862 127.065 707.862 126.9C708.027 126.736 708.191 126.571 708.356 126.406C708.521 126.406 708.686 126.736 708.851 126.9Z" fill="white"/>
<path d="M720.717 131.515C720.882 131.845 721.212 132.01 721.212 132.339C721.212 132.504 720.882 132.669 720.717 132.669L720.388 132.339C720.223 132.01 720.553 131.845 720.717 131.515Z" fill="white"/>
<path d="M777.577 151.952C777.742 152.116 777.907 152.116 778.072 152.281C777.907 152.446 777.742 152.611 777.742 152.776C777.577 152.611 777.412 152.446 777.412 152.281C777.247 152.116 777.412 152.116 777.577 151.952Z" fill="white"/>
<path d="M770.49 150.633C770.655 150.469 770.82 150.304 770.82 150.304C770.984 150.304 771.149 150.469 771.149 150.633C770.984 150.798 770.82 150.963 770.82 150.963C770.82 150.798 770.655 150.633 770.49 150.633Z" fill="white"/>
<path d="M761.261 147.667C761.096 147.667 760.931 147.502 760.931 147.502C761.096 147.337 761.096 147.337 761.261 147.172L761.425 147.337C761.261 147.502 761.261 147.667 761.261 147.667Z" fill="white"/>
<path d="M680.503 117.341C680.339 117.506 680.339 117.506 680.174 117.671L680.009 117.506C680.174 117.341 680.174 117.341 680.339 117.177C680.339 117.341 680.503 117.341 680.503 117.341Z" fill="white"/>
<path d="M754.339 141.404L754.503 141.569L754.339 141.734C754.339 141.569 754.174 141.569 754.174 141.404C754.174 141.404 754.339 141.404 754.339 141.404Z" fill="white"/>
<path d="M712.477 129.702L712.312 129.867L712.147 129.702C712.312 129.702 712.477 129.537 712.477 129.537C712.477 129.537 712.477 129.537 712.477 129.702Z" fill="white"/>
<path d="M617.711 93.7734C618.04 93.9382 618.04 93.9383 618.205 93.9383C618.04 94.1031 618.04 94.4327 617.876 94.4327L617.381 94.2679C617.546 94.2679 617.711 94.1031 617.711 93.7734Z" fill="white"/>
<path d="M488.664 160.687C488.664 160.522 488.499 160.522 488.499 160.357L488.664 160.192C488.828 160.357 488.828 160.357 488.993 160.522C488.828 160.522 488.828 160.687 488.664 160.687Z" fill="white"/>
<path d="M745.274 140.909C745.439 141.074 745.439 141.074 745.604 141.239C745.439 141.404 745.274 141.404 745.109 141.404L744.944 141.239C744.944 141.239 745.109 141.074 745.274 140.909Z" fill="white"/>
<path d="M747.911 141.734H747.746C747.746 141.569 747.746 141.569 747.746 141.404C747.746 141.404 747.911 141.404 747.911 141.569C748.076 141.569 747.911 141.734 747.911 141.734Z" fill="white"/>
<path d="M737.527 135.305H737.363V135.141H737.527C737.527 135.305 737.527 135.305 737.527 135.305Z" fill="white"/>
<path d="M718.41 131.845L718.245 131.68L718.41 131.515C718.41 131.68 718.575 131.68 718.575 131.845C718.575 131.845 718.575 131.845 718.41 131.845Z" fill="white"/>
<path d="M670.944 115.363H670.78V115.199L670.944 115.363Z" fill="white"/>
<path d="M704.4 128.054L704.236 128.218V128.054H704.4Z" fill="white"/>
<path d="M775.764 151.622C775.599 151.622 775.434 151.622 775.269 151.622C775.269 151.457 775.269 151.457 775.269 151.457C775.434 151.457 775.599 151.457 775.764 151.457C775.929 151.457 775.929 151.457 775.764 151.622Z" fill="white"/>
<path d="M700.446 126.9L700.281 127.065L700.116 126.9L700.281 126.736C700.281 126.736 700.281 126.9 700.446 126.9Z" fill="white"/>
<path d="M465.426 151.127V151.292L465.261 150.963L465.426 151.127Z" fill="white"/>
<path d="M692.37 123.769C692.37 123.934 692.37 123.934 692.37 123.769C692.205 123.769 692.04 123.769 692.04 123.604H692.205C692.37 123.604 692.37 123.769 692.37 123.769Z" fill="white"/>
<path d="M653.804 105.31C653.475 105.475 653.31 105.64 653.639 105.475C653.145 105.64 653.475 105.475 653.804 105.31C653.804 105.475 653.804 105.31 653.804 105.31Z" fill="white"/>
<path d="M683.964 120.473C683.964 120.637 683.964 120.637 683.8 120.637H683.635C683.635 120.637 683.8 120.637 683.964 120.473Z" fill="white"/>
<path d="M689.074 119.813C689.074 119.648 688.909 119.648 688.909 119.484H689.074C689.074 119.648 689.074 119.813 689.074 119.813Z" fill="white"/>
<path d="M684.294 118.825C684.129 118.99 684.129 118.99 683.964 119.154C683.8 118.99 683.635 118.825 683.635 118.66C683.8 118.66 683.964 118.495 684.129 118.495C684.129 118.495 684.129 118.66 684.294 118.825Z" fill="white"/>
<path d="M648.86 105.97C648.86 105.805 648.86 105.805 648.695 105.64H648.86C649.025 105.64 649.025 105.805 648.86 105.97Z" fill="white"/>
<path d="M475.149 157.72H475.314V157.884L475.149 157.72Z" fill="white"/>
<path d="M291.22 220.183C292.869 217.217 294.517 214.25 296.165 211.448C296.33 211.613 296.659 211.778 296.824 211.778C296.659 214.415 294.846 216.393 293.363 218.371C293.033 219.03 292.045 219.524 291.22 220.183C291.22 220.019 291.22 220.183 291.22 220.183Z" fill="white"/>
<path d="M291.221 220.018C291.385 220.348 291.88 220.678 291.88 221.007C291.88 221.337 291.715 221.831 291.385 222.161C291.385 222.326 290.891 222.161 290.561 222.161C290.726 221.666 290.726 221.337 290.891 220.842C291.056 220.678 291.221 220.348 291.221 220.018Z" fill="white"/>
<path d="M283.474 236.005C283.639 236.005 283.804 236.17 283.969 236.17C283.804 236.335 283.639 236.5 283.474 236.5C283.31 236.5 283.145 236.335 283.145 236.17C283.145 236.17 283.31 236.17 283.474 236.005Z" fill="white"/>
<path d="M292.209 197.605C291.88 197.44 291.715 197.275 291.55 197.11C291.715 196.945 292.044 196.616 292.209 196.616C292.374 196.616 292.704 196.945 292.704 197.11C292.704 197.275 292.374 197.44 292.209 197.605Z" fill="white"/>
<path d="M307.537 266.166C307.372 266.166 307.207 266.33 307.207 266.33V266.166C307.372 266.166 307.537 266.001 307.537 266.001C307.537 266.001 307.537 266.001 307.537 266.166Z" fill="white"/>
<path d="M278.695 222.985C278.53 223.15 278.53 223.315 278.365 223.315C278.2 223.315 278.036 223.15 278.036 223.15C278.2 222.985 278.2 222.82 278.365 222.82C278.53 222.655 278.695 222.82 278.695 222.985Z" fill="white"/>
<path d="M283.804 221.337C283.639 221.008 283.474 220.843 283.309 220.513C283.309 220.348 283.309 220.019 283.309 219.689C283.309 219.689 283.474 219.689 283.639 219.689C283.639 219.854 283.804 220.184 283.804 220.348C283.804 220.678 283.639 221.008 283.804 221.337Z" fill="white"/>
<path d="M285.617 241.279C285.617 241.114 285.452 241.114 285.617 241.279C285.452 241.114 285.452 240.949 285.617 240.949C285.782 240.949 285.782 241.114 285.947 241.114C285.782 241.114 285.782 241.114 285.617 241.279Z" fill="white"/>
<path d="M309.02 281.822C309.02 281.987 309.185 281.987 309.185 282.152C309.02 282.152 309.02 282.152 308.855 282.152C308.855 281.987 309.02 281.987 309.02 281.822Z" fill="white"/>
<path d="M305.724 283.141C305.724 283.306 305.889 283.471 305.889 283.636C305.724 283.636 305.724 283.8 305.559 283.636C305.394 283.636 305.394 283.471 305.394 283.471C305.559 283.471 305.724 283.306 305.724 283.141Z" fill="white"/>
<path d="M162.668 142.557C162.504 143.711 162.339 144.7 162.009 145.854C161.68 145.689 160.855 145.524 160.855 145.359C161.02 144.37 161.185 143.381 161.35 142.393C161.68 142.393 162.174 142.393 162.668 142.557Z" fill="white"/>
<path d="M144.044 198.923C143.056 199.253 142.067 199.582 141.243 199.912C141.737 197.934 141.737 197.934 144.044 198.923Z" fill="white"/>
<path d="M184.259 178.321C184.423 178.321 184.588 178.156 184.588 178.156C184.753 178.321 184.753 178.486 184.918 178.651C184.753 178.651 184.588 178.816 184.588 178.816C184.423 178.651 184.423 178.486 184.259 178.321Z" fill="white"/>
<path d="M192.169 165.466C192.169 165.631 192.169 165.631 192.169 165.796C192.004 165.796 191.84 165.796 191.675 165.631C191.675 165.631 191.675 165.466 191.675 165.302C191.84 165.302 192.004 165.466 192.169 165.466Z" fill="white"/>
<path d="M193.652 164.972C193.488 164.972 193.488 164.972 193.488 164.807V164.642C193.652 164.642 193.652 164.807 193.652 164.972Z" fill="white"/>
<path d="M188.543 180.134L188.379 179.97L188.543 179.805V180.134Z" fill="white"/>
<path d="M145.033 183.925C145.033 184.09 145.033 184.09 144.869 184.09H144.704C144.869 184.09 145.033 184.09 145.033 183.925Z" fill="white"/>
<path d="M412.851 193.155C411.532 191.506 410.214 190.023 408.73 188.375C408.73 188.375 408.73 188.375 408.895 188.21C410.379 189.694 411.697 191.177 413.18 192.66C413.18 192.99 413.016 192.99 412.851 193.155Z" fill="white"/>
<path d="M393.403 196.451C393.403 195.956 393.239 195.627 393.239 195.132H393.403C393.403 195.462 393.403 195.956 393.403 196.451Z" fill="white"/>
<path d="M629.412 178.157C626.61 176.509 623.809 174.696 621.172 172.883C620.512 172.553 619.853 171.399 620.018 170.905C620.348 169.916 621.337 169.092 622.161 168.103C622.161 167.938 622.985 168.268 623.149 168.598C625.457 171.564 627.764 174.531 629.907 177.662C629.742 177.827 629.577 177.992 629.412 178.157Z" fill="white"/>
<path d="M621.831 225.787C621.666 225.952 621.501 226.116 621.336 226.281C621.336 226.116 621.171 225.952 621.171 225.787C621.171 225.622 621.336 225.457 621.501 225.127C621.501 225.457 621.666 225.622 621.831 225.787Z" fill="white"/>
<path d="M620.347 209.141C620.183 209.141 620.018 208.976 619.853 208.976C619.853 208.811 620.018 208.646 620.018 208.481C620.183 208.646 620.347 208.646 620.677 208.811C620.512 208.811 620.512 208.976 620.347 209.141Z" fill="white"/>
<path d="M540.414 101.025C540.249 100.861 540.084 100.696 540.084 100.531C540.084 100.366 540.414 100.366 540.414 100.201C540.579 100.366 540.744 100.531 540.744 100.696C540.909 100.861 540.579 100.861 540.414 101.025Z" fill="white"/>
<path d="M690.062 174.036H689.897L689.733 173.872C689.897 173.872 689.897 173.872 690.062 173.707C690.062 173.872 690.062 174.036 690.062 174.036Z" fill="white"/>
</svg>
