<svg width="276" height="45" viewBox="0 0 276 45" fill="none" xmlns="http://www.w3.org/2000/svg">
<path d="M6.95876 44.3041H13.8015C15.8892 41.4626 16.991 37.8673 16.991 33.75C16.991 27.6611 13.6276 24.8196 9.62629 20.5863C7.36469 18.2088 5.39304 16.4111 5.39304 11.6559C5.39304 8.23454 8.06057 4.75516 12.3518 4.75516C16.4691 4.75516 18.9046 7.48067 19.0786 11.6559H24.2977C24.4137 4.52319 19.1946 0 12.3518 0C5.50902 0 0 4.98711 0 11.6559C0 18.2088 3.3634 21.5722 5.625 24.0077C8.64046 27.5451 11.424 29.4588 11.424 34.5039C11.424 37.9253 10.0322 41.3466 6.95876 44.3041Z" fill="#F7D23A"/>
<path d="M38.6411 45C51.2828 45 60.9091 34.9678 60.9091 22.5C60.9091 10.0322 51.2828 0 38.6411 0C25.9993 0 16.373 10.0322 16.373 22.5C16.373 34.9678 25.9993 45 38.6411 45ZM38.6411 39.8969C29.0728 39.8969 21.882 32.3582 21.882 22.5C21.882 12.6997 29.0728 5.10309 38.6411 5.10309C48.2094 5.10309 55.4001 12.6997 55.4001 22.5C55.4001 32.3003 48.2094 39.8969 38.6411 39.8969Z" fill="#F7D23A"/>
<path d="M61.7975 44.3041H66.9006V9.27835H67.0166L91.1403 44.3041H96.4754V0.695877H91.3723V35.1997H91.2563L67.4805 0.695877H61.7975V44.3041Z" fill="#F7D23A"/>
<path d="M119.623 45C132.265 45 141.891 34.9678 141.891 22.5C141.891 10.0322 132.265 0 119.623 0C106.981 0 97.3547 10.0322 97.3547 22.5C97.3547 34.9678 106.981 45 119.623 45ZM119.623 39.8969C110.054 39.8969 102.864 32.3582 102.864 22.5C102.864 12.6997 110.054 5.10309 119.623 5.10309C129.191 5.10309 136.382 12.6997 136.382 22.5C136.382 32.3003 129.191 39.8969 119.623 39.8969Z" fill="#F7D23A"/>
<path d="M152.927 28.7629C160.176 26.0954 163.424 21.9781 163.424 15.5412C163.424 6.14691 156.407 0.695877 143.127 0.695877H142.779V44.3041H147.882V28.299C149.68 36.4755 155.885 42.2745 165.279 44.3041V39.201C159.596 37.8673 155.247 34.2719 152.927 28.7629ZM147.882 5.625C154.609 5.91495 158.494 9.80026 158.494 15.5412C158.494 21.2242 153.971 24.8196 147.882 25.7474V5.625Z" fill="#F7D23A"/>
<path d="M164.915 44.3041H170.134C170.192 39.8389 170.482 35.4317 171.352 31.2564H186.139V44.3041H191.474V0.695877C172.048 10.2642 164.915 24.1237 164.915 44.3041ZM172.686 26.5013C174.947 20.5283 178.775 14.7874 186.139 9.91624V26.5013H172.686Z" fill="#F7D23A"/>
<path d="M205.147 44.3041H210.25V0.695877H205.147V44.3041Z" fill="#F7D23A"/>
<path d="M211.642 44.3041H216.745V9.27835H216.861L240.985 44.3041H246.32V0.695877H241.217V35.1997H241.101L217.325 0.695877H211.642V44.3041Z" fill="#F7D23A"/>
<path d="M241.203 44.3041H246.306V9.27835H246.422L270.546 44.3041H275.881V0.695877H270.778V35.1997H270.662L246.886 0.695877H241.203V44.3041Z" fill="#F7D23A"/>
</svg>
