<svg width="235" height="30" viewBox="0 0 235 30" fill="none" xmlns="http://www.w3.org/2000/svg">
<path fill-rule="evenodd" clip-rule="evenodd" d="M8.9402 29.0077C10.2925 27.1726 11.0062 24.8507 11.0062 22.1916C11.0062 18.6424 9.23135 16.8016 6.97975 14.4664C6.73671 14.2144 6.48812 13.9566 6.2356 13.6902C6.15897 13.6099 6.08286 13.5306 6.00741 13.452C4.64049 12.028 3.49344 10.8331 3.49344 7.92271C3.49344 5.71309 5.22137 3.46602 8.0011 3.46602C10.6681 3.46602 12.2458 5.22622 12.3585 7.92271H15.7393C15.8144 3.31621 12.4336 0.39502 8.0011 0.39502C3.56857 0.39502 0 3.61582 0 7.92271C0 12.0021 2.02443 14.1676 3.48259 15.7273L3.64369 15.8998C3.99875 16.3151 4.34885 16.6957 4.68405 17.0601L4.68422 17.0603L4.68426 17.0603L4.68436 17.0604L4.68454 17.0606L4.68456 17.0607C6.1932 18.7008 7.40008 20.0128 7.40008 22.6785C7.40008 24.8881 6.49855 27.0977 4.50766 29.0077H8.9402ZM30.3515 29.4574C38.5405 29.4574 44.7761 22.9783 44.7761 14.9263C44.7761 6.87432 38.5405 0.395258 30.3515 0.395258C22.1626 0.395258 15.927 6.87432 15.927 14.9263C15.927 22.9783 22.1626 29.4574 30.3515 29.4574ZM19.4958 14.9262C19.4958 21.2929 24.1538 26.1616 30.3518 26.1616C36.5498 26.1616 41.2077 21.2555 41.2077 14.9262C41.2077 8.59697 36.5498 3.69087 30.3518 3.69087C24.1538 3.69087 19.4958 8.59697 19.4958 14.9262ZM78.5281 29.4574C86.717 29.4574 92.9526 22.9783 92.9526 14.9263C92.9526 6.87432 86.717 0.395258 78.5281 0.395258C70.3392 0.395258 64.1036 6.87432 64.1036 14.9263C64.1036 22.9783 70.3392 29.4574 78.5281 29.4574ZM67.6724 14.9262C67.6724 21.2929 72.3303 26.1616 78.5283 26.1616C84.7264 26.1616 89.3843 21.2555 89.3843 14.9262C89.3843 8.59697 84.7264 3.69087 78.5283 3.69087C72.3303 3.69087 67.6724 8.59697 67.6724 14.9262ZM97.122 29.0078V18.6713C98.2865 23.9519 102.306 27.697 108.391 29.0078V25.7121C104.71 24.8507 101.893 22.5287 100.39 18.9709C105.086 17.2481 107.189 14.5891 107.189 10.432C107.189 4.36491 102.644 0.844494 94.0417 0.844494H93.8164V29.0078H97.122ZM97.122 4.02786V17.0234C101.066 16.4242 103.996 14.1022 103.996 10.432C103.996 6.72435 101.479 4.21512 97.122 4.02786ZM112.793 29.0078C112.83 26.1241 113.018 23.2778 113.582 20.5813H123.16V29.0078H126.616V0.844494C114.032 7.02394 109.412 15.9748 109.412 29.0078H112.793ZM114.145 17.5104H122.86V6.79932C118.089 9.94522 115.61 13.6529 114.145 17.5104ZM190.051 14.9266C190.051 22.9786 183.816 29.4577 175.627 29.4577C167.438 29.4577 161.202 22.9786 161.202 14.9266C161.202 6.87459 167.438 0.395536 175.627 0.395536C183.816 0.395536 190.051 6.87459 190.051 14.9266ZM145.831 16.2747V29.0081H142.526V0.844773H145.831V13.1288H156.455V0.844773H159.761V29.0081H156.455V16.2747H145.831ZM175.626 26.1619C169.428 26.1619 164.77 21.2932 164.77 14.9265C164.77 8.59725 169.428 3.69115 175.626 3.69115C181.824 3.69115 186.482 8.59725 186.482 14.9265C186.482 21.2558 181.824 26.1619 175.626 26.1619ZM198.052 3.99067V29.0081H194.747V3.99067H187.609V0.844773H204.851V3.99067H198.052ZM216.759 29.4202C219.802 29.4202 222.469 28.6712 224.647 27.1731V22.8663C222.732 24.9635 219.839 26.1245 216.834 26.1245C211.275 26.1245 207.03 22.3045 206.429 16.3498H224.309V13.054H206.429C207.293 7.24911 211.425 3.69124 216.834 3.69124C219.839 3.69124 222.732 4.88968 224.647 6.98695V2.64261C222.469 1.14456 219.802 0.395536 216.759 0.395536C208.495 0.395536 202.41 6.76224 202.41 14.9266C202.41 23.0161 208.42 29.4202 216.759 29.4202ZM235 25.8996V29.0081H225.496V0.844773H228.802V25.8996H235ZM45.692 1.44468V29.608H49.1479V7.54923C56.3977 12.7924 59.2526 19.1217 59.5155 29.608H59.6218H62.8963H62.9274V1.44468H59.6218V14.0531C56.9425 8.91779 52.4737 4.7951 45.692 1.44468Z" fill="#FDF5E6"/>
</svg>
