<svg width="653" height="289" viewBox="0 0 653 289" fill="none" xmlns="http://www.w3.org/2000/svg">
<path fill-rule="evenodd" clip-rule="evenodd" d="M242.969 30.5909C243.204 25.8784 244.382 20.9303 245.796 16.2179C248.388 8.20673 254.043 3.25865 262.525 1.60929C269.123 0.195556 275.72 0.195556 282.318 2.08054C291.978 4.90801 296.455 12.2123 298.34 21.166C299.282 25.8784 299.989 30.8265 299.989 35.7746C300.225 57.6875 300.225 79.836 299.989 101.749C299.989 107.639 298.811 113.766 297.397 119.421C295.041 128.846 288.679 134.736 278.783 136.385C272.893 137.328 267.002 137.328 261.111 135.914C250.98 133.322 245.796 126.254 243.911 116.593C242.733 110.231 242.262 103.634 242.026 97.2721C242.118 93.5968 242.21 84.5829 242.316 74.1984L242.316 74.1952C242.481 57.9502 242.681 38.3524 242.969 30.5909ZM280.904 68.7617V31.769C280.904 28.9415 280.197 26.114 279.254 23.5222C278.076 19.9879 275.013 18.3385 271.243 18.3385C267.473 18.3385 264.41 20.2235 263.468 23.7578C262.761 26.3497 262.054 29.1771 262.054 32.0046V105.283C262.054 108.111 262.761 110.938 263.468 113.53C264.646 117.064 267.238 118.714 271.008 118.949C275.249 118.949 278.076 117.536 279.254 114.001C280.197 111.409 280.668 108.582 280.668 105.755C281.021 96.5771 280.977 87.3996 280.933 78.1231V78.1222V78.1213V78.1203V78.1152V78.1101V78.1049C280.919 75.0028 280.904 71.8897 280.904 68.7617ZM230.95 130.731V68.9974V68.9954C230.95 48.0257 230.95 26.8203 230.479 5.37933C230.479 1.84499 229.772 0.902497 226.002 0.902497H216.341C212.1 0.902497 211.393 1.60937 211.393 5.85057V34.1253V53.2107C211.393 55.3313 210.686 56.0382 208.566 56.0382H196.313C192.308 56.0382 192.308 56.0382 192.308 52.0326V5.61495C192.308 2.31623 191.365 1.37374 188.067 1.37374H178.642C173.694 1.37374 172.987 2.08061 172.987 7.02869V130.966V133.794C173.222 135.914 174.165 136.857 176.286 136.857H185.946C192.308 136.857 192.308 136.621 192.308 130.495V77.9511C192.308 74.6524 192.543 74.4168 195.842 74.4168H206.445C211.629 74.4168 211.629 74.4168 211.629 79.8361V130.495C211.629 130.786 211.615 131.091 211.6 131.4L211.6 131.4V131.4C211.556 132.343 211.51 133.32 211.865 134.029C212.336 134.972 213.514 136.386 214.456 136.386C218.933 136.621 223.646 136.621 228.122 136.386C229.065 136.386 230.243 134.972 230.714 134.029C231.066 133.325 231.024 132.49 230.98 131.622V131.621V131.621V131.621C230.965 131.327 230.95 131.029 230.95 130.731ZM544.564 256.317V221.209C544.564 209.428 544.564 197.411 544.328 186.101C544.328 183.038 544.799 179.975 545.742 176.912C546.92 172.906 549.983 171.257 553.988 171.257C558.937 171.257 561.764 173.849 562.471 178.326C563.178 183.981 563.413 189.4 563.413 195.055C563.413 198.589 564.827 200.239 568.361 200.003H578.258C581.321 200.003 582.97 198.589 582.734 195.526C582.496 193.063 582.311 190.573 582.126 188.075L582.126 188.072C581.761 183.162 581.395 178.218 580.614 173.378C579.436 166.545 575.901 160.418 569.54 156.884C551.161 146.517 528.07 156.177 526.656 176.912C524.771 206.365 525.242 236.053 526.656 265.742C527.363 282.707 539.144 290.246 556.58 288.833C557.169 288.715 557.817 288.656 558.465 288.597L558.466 288.597C559.114 288.538 559.762 288.479 560.35 288.361C569.54 287.183 576.844 282.707 579.2 273.753C581.556 264.564 582.734 256.552 582.734 247.128C582.734 244.536 581.556 242.179 578.964 242.179H569.54C565.063 242.179 563.413 243.593 563.413 248.07C563.413 253.725 563.178 259.38 562.235 264.799C561.528 269.04 558.23 271.161 553.988 271.161C549.747 271.161 546.92 269.04 545.742 265.035C545.035 262.207 544.564 259.144 544.564 256.317ZM507.707 288.114H507.707C505.334 288.14 503.971 288.154 503.089 287.511C501.9 286.645 501.58 284.585 500.83 279.753L500.74 279.173C499.326 271.161 499.326 271.161 491.079 271.161H479.298C475.528 271.161 475.057 272.339 473.879 276.581C473.439 278.193 472.635 280.716 471.92 282.96L471.919 282.961L471.913 282.982L471.91 282.991L471.906 283.004C471.476 284.351 471.08 285.595 470.816 286.477C470.58 287.419 469.638 288.126 468.459 288.126C467.419 288.126 465.644 288.08 463.661 288.029C461.153 287.964 458.313 287.891 456.207 287.891C454.558 287.891 453.615 286.477 453.851 284.827C455.5 275.167 461.155 244.3 463.983 229.221L463.991 229.178L463.991 229.176L463.991 229.174L463.992 229.172L463.992 229.17L463.993 229.168L463.993 229.166L463.993 229.164L463.994 229.163L463.994 229.161C468.467 205.854 472.94 182.547 477.413 159.005C478.12 154.764 479.769 153.35 484.246 153.35C486.4 153.423 488.159 153.423 489.602 153.422C492.812 153.421 494.467 153.421 495.464 154.23C496.524 155.092 496.838 156.872 497.487 160.544C497.724 161.884 498.005 163.476 498.384 165.367C505.923 204.245 513.228 242.887 520.532 281.764C521.71 287.419 521.239 287.891 515.348 287.891C513.699 288.126 512.521 288.126 511.343 288.126C509.92 288.091 508.722 288.103 507.709 288.114H507.708H507.707ZM495.792 250.898C492.964 234.404 490.372 218.618 487.781 202.831C487.781 202.595 487.545 202.595 487.545 202.595H486.602C486.367 202.595 486.367 202.831 486.367 202.831L486.365 202.84C483.774 218.624 481.183 234.407 478.356 250.662C478.12 251.605 479.062 252.547 480.005 252.547H494.614C495.32 252.547 496.027 251.605 495.792 250.898ZM622.085 233.462C622.085 233.226 622.32 232.99 622.791 232.99C623.027 232.99 623.498 233.226 623.734 233.697C624.441 237.939 629.389 262.915 631.981 275.874C632.398 278.028 632.687 279.808 632.925 281.279C633.488 284.748 633.771 286.492 634.796 287.356C635.834 288.229 637.63 288.201 641.245 288.145H641.246H641.247H641.248H641.249H641.25H641.251H641.253H641.255H641.257C642.823 288.12 644.729 288.09 647.061 288.126C652.48 288.126 652.951 287.184 652.009 282C651.356 278.669 650.703 275.334 650.049 271.996L650.019 271.841L650.015 271.821C645.963 251.127 641.886 230.308 637.636 209.664C636.693 204.716 636.929 200.239 638.578 195.526C642.819 183.274 646.825 171.022 650.831 158.769C651.773 155.942 650.124 153.586 647.061 153.586C646.118 153.586 645.176 153.612 644.233 153.638C642.348 153.69 640.463 153.743 638.578 153.586C634.337 153.114 632.216 154.764 630.803 159.005C627.404 170.146 623.551 181.438 619.729 192.639C618.782 195.415 617.837 198.185 616.901 200.946C616.665 201.888 615.958 203.538 615.487 204.48C615.252 204.951 614.78 204.951 614.545 204.951C614.309 204.951 614.073 204.48 614.073 204.244V166.074C614.049 164.58 614.045 163.263 614.041 162.102V162.097C614.029 157.739 614.022 155.572 612.936 154.51C611.862 153.46 609.732 153.491 605.496 153.551L605.493 153.551H605.493C604.35 153.567 603.055 153.586 601.585 153.586C594.517 153.586 594.517 153.821 594.517 160.89V280.822V284.121C594.517 287.184 596.166 287.891 600.407 287.891H607.712C612.424 287.891 614.073 287.184 614.073 283.649C614.073 280.862 613.968 276.335 613.857 271.564C613.733 266.251 613.602 260.637 613.602 256.788C613.602 251.715 618.449 241.31 620.919 236.01C621.431 234.909 621.842 234.029 622.085 233.462ZM235.898 288.126H222.232C218.933 288.126 217.284 286.712 217.52 283.413V277.287V160.183C217.52 153.821 217.755 153.585 224.117 153.585H246.972C262.523 153.821 272.184 162.068 274.305 177.383C275.954 190.343 275.954 205.187 266.293 215.083C265.351 216.025 265.115 217.203 265.115 218.382C265.351 219.324 265.587 220.031 266.293 220.738C277.132 229.691 276.896 254.667 272.184 271.397C269.121 282 261.11 287.419 249.329 287.89C244.852 288.126 240.375 288.126 235.898 288.126ZM236.841 248.541V266.684C236.841 267.862 237.076 269.747 238.019 270.454C242.496 273.989 253.57 270.69 254.512 260.322C254.695 258.086 254.877 256.08 255.044 254.244L255.045 254.234L255.046 254.23L255.046 254.229V254.229C255.741 246.592 256.168 241.893 255.219 235.818C254.512 230.87 250.978 226.628 246.501 226.628H240.375C237.547 226.393 236.605 227.807 236.605 230.634C236.958 234.868 236.914 239.367 236.87 243.932C236.855 245.463 236.841 247.002 236.841 248.541ZM236.841 190.107V205.422C236.841 206.6 237.547 208.485 238.49 208.957C244.616 212.255 254.041 208.014 254.984 201.181C255.926 195.762 255.926 190.107 255.69 184.452C255.455 172.906 252.156 170.315 240.611 170.786C237.547 171.021 236.605 172.2 236.605 175.027C236.957 178.727 236.914 182.428 236.87 186.227V186.229V186.23L236.87 186.232C236.856 187.511 236.841 188.802 236.841 190.107ZM166.154 234.64C166.389 234.64 166.861 234.404 166.861 234.169C167.018 233.54 167.299 232.402 167.673 230.888L167.679 230.864L167.68 230.862C169.553 223.279 173.736 206.355 176.285 196.94C177.817 190.58 179.407 184.279 180.997 177.978L180.998 177.973L180.999 177.968C182.589 171.667 184.179 165.365 185.71 159.005C186.653 155.471 188.067 153.821 192.072 153.821C193.899 153.851 195.467 153.843 196.812 153.836H196.812H196.813H196.813H196.814H196.814H196.814H196.814H196.815H196.815H196.815H196.816H196.816C200.79 153.816 202.822 153.805 203.847 154.815C204.918 155.872 204.889 158.045 204.83 162.491L204.83 162.493C204.814 163.676 204.796 165.019 204.796 166.545V280.822C204.796 288.362 204.796 288.362 197.256 288.362C195.915 288.362 194.729 288.382 193.681 288.401C190.021 288.464 188.039 288.498 186.966 287.527C185.698 286.379 185.701 283.826 185.709 278.254L185.71 277.632C185.71 277.367 185.71 277.095 185.71 276.816C185.71 271.439 185.327 261.462 185.031 253.753L185.031 253.749L185.031 253.747L185.031 253.746C184.925 250.988 184.83 248.519 184.768 246.657C184.768 246.185 183.825 245.95 183.825 246.657C181.94 254.432 177.464 273.518 175.579 282.707C174.636 286.948 172.987 288.833 168.274 288.598C166.778 288.528 165.523 288.51 164.463 288.494H164.463C161.912 288.457 160.487 288.437 159.532 287.756C158.323 286.894 157.869 284.974 156.838 280.623L156.697 280.027C156.631 279.752 156.564 279.467 156.493 279.173C156.129 277.675 155.709 275.935 155.253 274.042L155.252 274.041L155.252 274.04C153.052 264.916 150.003 252.275 148.246 246.421C148.011 245.714 147.068 245.95 147.068 246.657C146.833 254.432 146.833 273.518 146.833 283.414C146.833 286.477 144.476 288.833 141.413 288.833C139.733 288.833 137.748 288.772 135.799 288.712C133.921 288.654 132.078 288.598 130.575 288.598C128.69 288.598 127.04 286.948 127.04 285.063V158.063C127.04 155.706 128.925 153.821 131.282 153.821H134.816C136.201 153.821 137.399 153.803 138.439 153.788H138.44H138.44H138.441H138.441H138.442H138.442H138.443H138.443H138.444H138.444H138.444H138.444C142.013 153.734 143.72 153.708 144.721 154.536C145.639 155.295 145.964 156.772 146.586 159.603C146.837 160.742 147.135 162.099 147.54 163.718C151.189 177.68 157.51 202.328 161.681 218.593L161.681 218.596L161.682 218.599C163.704 226.485 165.221 232.399 165.682 234.169C165.447 234.404 165.918 234.64 166.154 234.64ZM345.699 220.974V159.947C345.699 154.292 346.17 153.821 351.825 153.821C354.72 153.889 357.615 153.917 360.509 153.946C367.746 154.018 374.983 154.091 382.22 154.764C391.409 155.471 397.536 161.126 400.128 169.608C405.311 187.044 403.662 221.445 396.122 229.22C392.352 233.226 393.53 238.41 394.473 242.18C394.88 244.184 395.278 246.135 395.668 248.048L395.669 248.052C397.985 259.404 400.03 269.431 402.248 281.529C403.426 287.655 402.719 288.362 396.593 288.126C394.223 288.087 392.327 288.132 390.799 288.168C387.712 288.24 386.13 288.277 385.181 287.52C384.183 286.725 383.885 285.052 383.272 281.619L383.272 281.618L383.272 281.615C383.007 280.132 382.684 278.32 382.22 276.109C379.864 264.799 377.508 253.254 375.623 241.708C374.893 237.51 372.607 237.696 370.3 237.883C369.628 237.937 368.956 237.992 368.318 237.939C364.784 237.703 364.784 240.059 364.784 242.651V281.764C364.784 287.419 364.313 287.891 358.658 287.891C356.454 287.856 354.618 287.882 353.088 287.904H353.087C349.351 287.956 347.441 287.983 346.469 287.042C345.453 286.058 345.461 284.015 345.479 279.837C345.485 278.45 345.492 276.828 345.463 274.931C345.699 257.026 345.699 238.886 345.699 220.981V220.974ZM365.02 195.762C365.02 199.296 365.079 201.888 365.138 204.48C365.196 207.072 365.255 209.664 365.255 213.198C365.255 218.617 366.198 221.209 373.267 221.209C381.749 221.209 384.105 216.732 384.341 207.779C384.576 200.003 384.576 192.228 384.341 184.452C384.105 173.142 380.806 170.315 369.497 170.786C366.198 171.022 365.255 172.2 365.255 175.263C365.02 182.096 365.02 188.929 365.02 195.762ZM115.785 222.187V222.186V222.185V222.184V222.183V222.182V222.181V222.181V222.18V222.179V222.178C115.758 217.364 115.732 212.558 115.732 207.779V207.777C115.732 193.876 115.732 179.739 115.497 165.602C115.497 164.134 115.516 162.842 115.533 161.706C115.593 157.584 115.624 155.514 114.604 154.489C113.575 153.456 111.477 153.487 107.262 153.549L107.26 153.549C106.091 153.566 104.76 153.586 103.244 153.586C96.6469 153.586 96.4113 153.821 96.4113 160.419V255.139C96.4113 257.731 95.9401 260.558 95.4688 263.386C94.5263 267.627 92.1701 270.454 87.222 270.69C82.5096 270.926 79.4465 268.569 78.2684 263.621C77.5615 260.794 77.3259 257.731 77.3259 254.903V166.309C77.3259 164.636 77.3506 163.182 77.3721 161.919C77.4435 157.721 77.4791 155.631 76.4518 154.596C75.4331 153.569 73.3694 153.58 69.2593 153.6C67.8738 153.607 66.2557 153.616 64.3666 153.586C58.7117 153.586 58.2405 154.057 58.2405 159.712V159.713C58.2405 190.579 58.2405 221.21 58.4761 252.076C58.4761 258.673 58.9473 287.891 85.8083 287.891C115.732 287.891 115.732 257.024 115.732 251.133C115.89 241.543 115.837 231.847 115.785 222.187ZM286.086 220.738V160.183C286.086 154.292 286.558 153.821 292.448 153.821H328.97C332.975 153.821 334.625 155.471 334.389 159.241C334.364 160.734 334.36 162.052 334.357 163.214V163.218C334.344 167.581 334.338 169.752 333.249 170.837C332.17 171.911 330.027 171.918 325.759 171.932C324.629 171.936 323.349 171.94 321.901 171.964H308.706C306.114 171.964 305.172 173.142 305.172 175.734V204.716C305.172 208.014 306.821 208.721 309.649 208.721H329.205C332.74 208.721 334.389 210.135 334.153 213.669C334.123 215.523 334.132 217.114 334.139 218.48V218.48C334.162 222.493 334.173 224.556 333.147 225.607C332.061 226.719 329.813 226.697 325.185 226.651C324.138 226.64 322.97 226.629 321.665 226.629H308.942C306.35 226.629 304.936 227.335 304.936 230.399V266.684C304.936 269.748 306.586 270.219 308.942 270.219H328.499C332.268 270.219 333.918 271.633 333.918 275.403C333.896 276.78 333.888 278.012 333.881 279.113V279.118C333.851 283.993 333.837 286.303 332.676 287.393C331.63 288.375 329.652 288.365 325.892 288.346H325.891C324.619 288.34 323.143 288.332 321.43 288.362C318.14 288.362 314.824 288.336 311.499 288.31C304.823 288.257 298.112 288.204 291.506 288.362C287.029 288.597 285.38 286.712 285.615 282.471C286.086 261.736 286.086 241.237 286.086 220.738ZM1.21772 160.184V220.739C1.21772 224.838 1.22714 228.938 1.23657 233.038C1.27427 249.437 1.31197 265.837 0.746474 282.236C0.510851 286.713 2.16021 288.127 6.63704 288.127C11.4673 288.009 16.2976 288.068 21.1278 288.127C25.9581 288.186 30.7884 288.244 35.6186 288.127C37.9792 288.09 39.924 288.134 41.5264 288.17C45.0162 288.249 46.8814 288.291 47.8783 287.381C49.0229 286.337 49.0229 284.038 49.0229 279.1C49.0229 277.698 49.0229 276.084 49.0491 274.225C49.0491 269.984 47.3998 268.57 43.3942 268.806C39.7897 268.962 36.0811 268.911 32.3375 268.858C30.4525 268.832 28.5588 268.806 26.665 268.806C23.4841 268.806 21.8936 268.806 21.0984 268.01C20.3032 267.215 20.3032 265.625 20.3032 262.444V166.31C20.3032 164.81 20.3211 163.487 20.337 162.32C20.3966 157.929 20.4261 155.755 19.3542 154.698C18.303 153.661 16.1924 153.699 12.012 153.773H12.0117H12.0114H12.011H12.0106H12.0102C10.7353 153.796 9.26797 153.822 7.57953 153.822C1.45334 153.822 1.21772 154.293 1.21772 160.184ZM445.836 261.501C445.365 275.167 438.768 283.649 427.929 286.477C425.214 287.155 423.232 287.345 420.838 287.575H420.838C419.909 287.664 418.918 287.759 417.797 287.89C414.734 288.126 411.2 286.948 411.436 283.649V276.58C411.228 271.601 411.386 271.554 417.22 269.844C418.01 269.612 418.905 269.35 419.918 269.04C423.688 267.862 426.28 265.271 426.751 261.501C427.458 257.259 427.694 252.783 427.694 248.541V160.418C427.694 153.821 427.929 153.585 434.527 153.585C436.257 153.616 437.749 153.607 439.035 153.599C442.777 153.577 444.776 153.566 445.839 154.557C447.059 155.695 447.047 158.153 447.023 163.43C447.019 164.242 447.015 165.122 447.015 166.073C446.939 170.532 446.863 180.082 446.772 191.596C446.579 215.981 446.317 249.177 445.836 261.501ZM371.853 6.55692V68.7613H372.56V111.645V131.908C372.56 134.971 373.267 135.914 376.095 135.914H417.329C419.92 135.914 420.863 134.971 420.863 132.144V122.483C420.863 118.713 419.92 117.771 415.915 117.771H395.18C391.881 117.771 391.646 117.535 391.646 114.472V77.2437C391.646 74.8875 392.353 73.945 394.944 73.945H416.622C419.685 73.945 420.627 73.0025 420.627 69.9394V60.2789C420.627 56.7445 419.685 55.8021 416.15 55.8021H395.18C391.646 55.8021 391.41 55.5664 391.41 52.0321V22.8149C391.41 19.5162 391.881 19.0449 395.18 19.0449H416.622C419.685 19.0449 420.627 18.3381 420.627 15.275V5.85006C420.627 1.84447 419.685 1.1376 415.679 1.1376H377.273C372.56 1.1376 371.853 1.84447 371.853 6.55692ZM324.728 77.0081V23.7574C324.728 19.2805 324.728 19.2805 320.251 19.2805H308.942C306.585 19.2805 305.407 18.3381 305.407 15.7462V5.37881C305.407 2.08009 306.114 1.1376 309.648 1.1376H358.658C362.428 1.1376 363.37 2.08009 363.37 5.85005V15.5106C363.37 18.3381 362.428 19.2805 359.6 19.2805H347.584C344.521 19.2805 344.049 19.7518 344.049 22.8149V84.548V131.437C344.049 135.914 343.578 136.385 338.866 136.385H328.027C325.671 136.385 324.728 135.207 324.493 133.086V130.023C324.728 112.587 324.728 94.6798 324.728 77.0081ZM432.172 6.32153V68.7615C432.172 89.9676 432.172 111.174 432.407 132.38C432.407 135.678 433.114 136.621 436.177 136.621H476.94C480.003 136.621 480.946 135.678 480.946 132.615V121.305C480.946 118.242 480.003 117.3 476.704 117.3H457.383C454.556 117.3 453.142 117.3 452.435 116.593C451.728 115.886 451.728 114.472 451.728 111.645V8.20651V5.14341C451.493 2.08032 450.786 1.37345 447.723 1.37345H437.355C432.879 1.37345 432.172 1.8447 432.172 6.32153Z" fill="#FDF5E6"/>
</svg>
