<svg width="504" height="64" viewBox="0 0 504 64" fill="none" xmlns="http://www.w3.org/2000/svg">
<path d="M449.589 44.176C447.635 45.7765 443.19 49.6353 441.358 51.3551C439.648 49.8715 436.113 47.1651 433.916 45.6255V45.3624C434.551 45.1529 434.97 44.5828 434.97 43.187V26.7242C433.199 25.4793 430.344 23.628 428.449 22.4441L426.539 24.354V43.9787L429.504 46.1517C429.504 46.1517 425.343 49.6353 423.511 51.3551C421.865 49.8131 419.453 48.0152 417.255 46.4148V46.2175C417.891 46.0104 418.308 45.3746 418.308 43.9787V26.7242C416.539 25.4793 413.75 23.7595 411.855 22.5756L409.553 24.354V43.9787L412.515 46.1517C412.515 46.1517 408.471 49.4063 406.522 51.2894C404.69 49.6889 402.707 48.2296 400.266 46.4148V46.2833C400.953 46.0129 401.385 45.1871 401.385 44.2419V24.4197L399.148 22.5098L396.71 24.7486L395.592 23.6279C397.421 22.1468 401.329 18.7486 403.955 16.3174L409.553 21.1919V22.5756L417.124 16.3174C419.504 17.9788 426.539 22.3125 426.539 22.3125L433.784 16.3174C436.106 18.0957 441.392 21.3089 444.32 22.9703V23.2333C443.343 23.4867 443.268 24.6876 443.268 25.3405V43.187L446.164 45.2284L448.469 43.187L449.589 44.176ZM395.723 9.86436C393.77 12.5318 392.179 13.7498 389.007 13.7498C386.868 13.7498 385.711 13.1311 384.001 11.1164L381.631 13.2895L380.576 12.0372L388.807 4.8583C390.946 9.06779 393.516 9.65966 395.592 9.60119L395.723 9.86436Z" fill="black"/>
<path d="M398.357 44.0449C396.221 45.8232 392.009 49.4724 390.06 51.3554C388.228 49.755 385.125 47.4383 382.686 45.6259V45.426C383.371 45.1556 383.739 44.3323 383.739 43.3871V24.42L381.566 22.5759L378.998 24.8146L377.943 23.7599C379.775 22.2788 383.746 18.7489 386.374 16.3178L393.025 22.0473V22.3129C392.231 22.5467 391.97 23.0436 391.97 24.8146V43.1873L394.867 45.0973L397.237 42.99L398.357 44.0449ZM264.616 44.0449C262.477 45.8232 258.199 49.4724 256.25 51.3554C254.419 49.755 251.315 47.4383 248.876 45.6259V45.426C249.561 45.1556 249.929 44.3323 249.929 43.3871V12.6296L247.69 10.7198L245.254 12.8293L244.199 11.7746C246.031 10.2934 249.544 7.02665 252.168 4.59547L259.215 10.325V10.5882C258.421 10.8245 258.094 11.3215 258.094 13.0925V43.1873L261.125 45.163L263.561 42.99L264.616 44.0449ZM188.95 44.1764C186.998 45.7768 182.484 49.6356 180.655 51.3554C178.945 49.8719 175.476 47.1655 173.279 45.6259V45.3627C173.914 45.1532 174.399 44.5832 174.399 43.1873V26.7245C172.628 25.4797 169.771 23.6941 167.878 22.5102C167.493 22.7879 165.97 23.8744 165.573 24.2227V43.979L168.604 46.1521C168.604 46.1521 164.56 49.4067 162.611 51.2897C160.779 49.6892 158.731 48.23 156.29 46.4151V46.2837C156.974 46.0133 157.408 45.1874 157.408 44.2422V24.42L155.103 22.5102L152.799 24.42L151.812 23.3653C153.642 21.8841 157.417 18.7489 160.044 16.3178L165.573 21.1922V22.5759L173.147 16.3178C175.466 18.0961 180.752 21.3093 183.683 22.9707V23.2337C182.706 23.487 182.565 24.688 182.565 25.3408V43.1873L185.461 45.163L187.832 43.1216L188.95 44.1764ZM492.525 46.481V36.9315C491.363 36.3981 490.05 35.6576 488.903 35.0876L479.682 44.5711L480.014 44.6368C481.446 43.8792 482.021 42.9243 484.952 42.9243C487.943 42.9243 490.961 45.029 492.394 46.5467L492.525 46.481ZM501.941 17.1752C501.941 20.3762 498.199 24.6173 493.249 24.6173C489.989 24.6173 488.058 23.0023 486.53 20.9292L486.401 20.9949V28.9632L490.878 31.0704L492.92 29.0291C495.032 30.3275 499.41 32.6028 501.743 33.5723V33.7696C501.285 33.9572 500.757 34.4688 500.757 35.4165V41.0144C500.757 41.8183 501.317 42.3518 501.743 42.5297V42.7927C496.983 44.8097 490.14 48.4492 486.796 51.3554C485.086 49.755 482.784 48.2592 479.814 48.2592C477.032 48.2592 475.799 49.2507 475.799 50.1691C475.799 50.7416 476.983 50.6636 476.983 51.487C476.983 51.8646 476.647 52.2762 476.126 52.2762C475.475 52.2762 474.284 51.3749 474.284 50.2348C474.284 48.1008 475.807 46.2471 479.288 42.727L485.412 36.5369C482.893 35.2848 479.227 33.7112 477.181 32.8488V32.5856C477.775 32.42 478.17 31.8184 478.17 31.1363V26.0643C478.17 25.5065 477.914 24.6563 477.181 24.42V24.1545C482.308 22.3786 488.801 18.8001 492.525 16.2544C493.358 17.1533 495.573 19.0851 497.924 19.0851C499.904 19.0851 500.362 18.1108 500.362 17.4384C500.362 17.0559 499.636 16.8464 499.636 16.2544C499.636 15.7453 499.902 15.5285 500.296 15.5285C500.878 15.5285 501.941 16.0961 501.941 17.1752Z" fill="black"/>
<path d="M466.447 30.0834C464.737 27.7716 461.689 23.9836 459.796 21.2577L459.599 21.3234V34.2977L466.447 30.0834ZM474.086 27.1188L459.599 35.8763V41.8691C461.431 42.6413 465.219 44.3148 467.17 45.5572L470.266 42.4634C471.124 41.6034 471.043 40.0932 472.571 40.0932C473 40.0932 473.428 40.7387 473.428 41.2113C473.428 41.7155 473.019 41.9567 472.768 42.2003L463.35 51.355C460.115 49.3379 453.548 46.4026 450.313 45.0969V44.8337C450.836 44.6437 451.431 44.2953 451.431 42.9896V26.3271C451.431 24.9653 450.907 24.5268 450.313 24.4196V24.154C455.197 22.6145 462.644 18.7485 466.184 16.3173C468.627 19.8739 471.765 24.2735 474.086 27.1188ZM370.303 44.768V14.5414C369.938 14.5658 369.297 14.6048 368.922 14.6048C366.822 14.6048 363.136 13.8082 360.756 13.1578C353.675 14.4002 345.477 20.2223 345.477 31.1358C345.477 40.4951 352.325 46.4805 362.072 46.4805C365.368 46.4805 368.279 45.9373 370.303 44.768ZM378.734 6.50487C378.734 11.2795 375.467 13.6961 371.621 14.4075V44.0445C376.566 41.377 377.285 38.6437 377.285 37.26C377.285 36.9604 376.627 36.5511 376.627 36.0103C376.627 35.5889 377.165 35.2185 377.548 35.2185C378.106 35.2185 378.337 35.7132 378.337 36.6024C378.337 43.5378 371.531 52.8702 357.002 52.8702C346.101 52.8702 336.851 44.5584 336.851 33.8349C336.851 18.5438 350.018 13.2284 359.175 12.6949C355.818 11.9836 350.471 10.8508 346.006 10.8508C340.817 10.8508 336.522 13.8495 336.522 16.517C336.522 17.5231 337.38 17.7131 337.38 18.4245C337.38 18.8167 337.212 19.2819 336.654 19.2819C335.799 19.2819 335.073 18.4147 335.073 17.7667C335.073 11.9567 339.36 3.67421 348.376 3.67421C357.516 3.67421 364.308 6.89948 371.424 6.89948C376.128 6.89948 377.468 5.28692 377.285 2.61944L378.337 2.94833C378.52 3.3649 378.734 4.72412 378.734 6.50487ZM308.074 46.4805V36.9311C306.915 36.3976 305.602 35.6571 304.452 35.0871L295.234 44.5707L295.563 44.6364C296.995 43.8788 297.572 42.9238 300.503 42.9238C303.494 42.9238 306.513 45.0286 307.943 46.5462L308.074 46.4805ZM317.492 17.1748C317.492 20.3757 313.75 24.6169 308.8 24.6169C305.541 24.6169 303.609 23.0018 302.082 20.9288L301.95 20.9945V28.9628L306.43 31.07L308.469 29.0287C310.583 30.3271 314.961 32.6023 317.295 33.5719V33.7692C316.837 33.9567 316.306 34.4684 316.306 35.416V41.014C316.306 41.8179 316.866 42.3514 317.295 42.5292V42.7922C312.532 44.8093 305.689 48.4488 302.345 51.355C300.637 49.7545 298.335 48.2588 295.365 48.2588C292.581 48.2588 291.348 49.2502 291.348 50.1686C291.348 50.7411 292.535 50.6632 292.535 51.4866C292.535 51.8642 292.199 52.2758 291.677 52.2758C291.027 52.2758 289.833 51.3744 289.833 50.2344C289.833 48.1004 291.356 46.2466 294.839 42.7265L300.963 36.5365C298.442 35.2844 294.776 33.7107 292.732 32.8484V32.5852C293.326 32.4195 293.719 31.8179 293.719 31.1358V26.0639C293.719 25.506 293.463 24.6559 292.732 24.4196V24.154C297.86 22.3782 304.352 18.7996 308.074 16.254C308.91 17.1529 311.122 19.0846 313.475 19.0846C315.455 19.0846 315.911 18.1103 315.911 17.438C315.911 17.0555 315.188 16.8459 315.188 16.254C315.188 15.7448 315.453 15.5281 315.845 15.5281C316.43 15.5281 317.492 16.0956 317.492 17.1748Z" fill="black"/>
<path d="M282.197 30.0836C280.486 27.7718 277.436 23.9838 275.546 21.2579L275.346 21.3236V34.298L282.197 30.0836ZM289.834 27.119L275.346 35.8765V41.8693C277.178 42.6415 280.966 44.315 282.92 45.5574L286.016 42.4636C286.876 41.6036 286.796 40.0934 288.321 40.0934C288.747 40.0934 289.176 40.7389 289.176 41.2115C289.176 41.7158 288.769 41.9569 288.518 42.2005L279.1 51.3552C275.865 49.3382 269.298 46.4028 266.063 45.0971V44.8339C266.584 44.6439 267.181 44.2955 267.181 42.9898V26.3273C267.181 24.9655 266.657 24.527 266.063 24.4198V24.1542C270.947 22.6147 278.391 18.7487 281.933 16.3175C284.374 19.8742 287.514 24.2737 289.834 27.119ZM239.195 30.0836C237.485 27.7718 234.435 23.9838 232.545 21.2579L232.348 21.3236V34.298L239.195 30.0836ZM246.835 27.119L232.348 35.8765V41.8693C234.18 42.6415 237.965 44.315 239.919 45.5574L243.013 42.4636C243.873 41.6036 243.792 40.0934 245.32 40.0934C245.746 40.0934 246.175 40.7389 246.175 41.2115C246.175 41.7158 245.768 41.9569 245.517 42.2005L236.099 51.3552C232.864 49.3382 226.297 46.4028 223.062 45.0971V44.8339C223.585 44.6439 224.182 44.2955 224.182 42.9898V26.3273C224.182 24.9655 223.656 24.527 223.062 24.4198V24.1542C227.946 22.6147 235.39 18.7487 238.932 16.3175C241.373 19.8742 244.513 24.2737 246.835 27.119ZM208.64 45.6256V26.9874C206.26 25.6841 202.309 23.0555 199.685 20.8631L199.554 20.929V41.7401C201.934 42.8046 205.882 45.0434 207.653 46.3491L208.64 45.6256ZM220.099 48.7195C219.902 56.2469 216.012 61.4307 208.772 61.4307C203.108 61.4307 198.969 58.6 193.824 58.6C190.828 58.6 189.205 59.4941 188.358 60.5075L187.963 60.3102C188.267 54.8583 192.233 51.8157 197.315 51.8157C202.913 51.8157 206.993 55.3065 212.92 55.3065C216.706 55.3065 218.679 53.3746 219.044 51.4209L218.979 51.2895C218.185 51.7621 217.147 52.3419 215.622 52.3419C212.567 52.3419 209.256 50.2931 208.706 46.678C207.249 47.6646 204.016 50.1347 202.582 51.3552C199.005 49.1092 193.205 46.3102 190.399 45.0971V44.8339C190.984 44.6488 191.388 43.9448 191.388 43.2529V26.2614C191.388 25.2529 191.049 24.5465 190.333 24.4198V24.1542C195.522 22.3175 202.141 18.9119 205.744 16.1859C208.864 18.5854 214.584 21.9666 217.926 23.8254V24.1542C217.193 24.4514 216.806 24.9265 216.806 26.5246V44.8339C216.806 47.1847 217.03 48.7852 218.781 48.7852C219.059 48.7852 219.393 48.5538 219.636 48.259L220.099 48.7195ZM136.401 31.8595L130.146 13.158L123.232 31.8595H136.401ZM155.037 43.8474L146.74 51.3552C144.421 49.7547 142.426 48.4563 139.498 46.678V46.3491C140.16 46.1153 140.477 45.4672 140.484 44.7023C140.487 44.3661 140.401 44.0031 140.287 43.6499L137.917 36.4051H121.52L119.347 42.4636C122.738 42.4636 124.477 42.8412 126.129 43.516L127.775 40.6196L129.093 41.2772L123.43 51.4209C121.208 50.1931 118.696 49.2455 115.856 49.2455C112.509 49.2455 109.983 50.0933 108.745 51.2236C108.497 51.4502 108.138 51.3892 108.285 50.8947C109.627 46.3296 112.648 42.8486 117.831 42.5294L129.291 11.7084C128.104 8.61223 126.957 7.36255 124.087 7.36255C121.4 7.36255 118.755 8.57335 118.755 11.7743C118.755 13.2554 120.268 13.1288 120.268 14.2104C120.268 14.5904 119.931 15.0021 119.412 15.0021C118.436 15.0021 117.437 13.7378 117.437 11.2481C117.437 5.61597 122.163 2.29076 126.986 2.29076C131.381 2.29076 133.149 3.93755 134.492 5.71586C134.92 4.05691 136.548 2.95572 137.851 2.75109L138.246 3.40887C137.432 4.3906 136.993 5.26026 136.993 6.50508C136.993 7.15307 137.271 8.4905 137.456 9.00938L149.771 43.6499L151.878 44.8996L154.116 42.8583L155.037 43.8474ZM86.0264 46.4807V36.9313C84.8668 36.3978 83.5514 35.6574 82.404 35.0873L73.186 44.5709L73.5149 44.6366C74.9473 43.879 75.5222 42.924 78.4528 42.924C81.4442 42.924 84.4625 45.0288 85.8949 46.5464L86.0264 46.4807ZM95.4418 17.175C95.4418 20.376 91.7 24.6171 86.7499 24.6171C83.4929 24.6171 81.5587 23.0021 80.0337 20.929L79.9022 20.9947V28.963L84.3796 31.0702L86.4211 29.0289C88.5331 30.3273 92.9107 32.6025 95.2445 33.5721V33.7694C94.7889 33.957 94.2578 34.4686 94.2578 35.4162V41.0142C94.2578 41.8181 94.8182 42.3516 95.2445 42.5294V42.7925C90.4844 44.8095 83.6415 48.449 80.2968 51.3552C78.5867 49.7547 76.2871 48.259 73.3176 48.259C70.5332 48.259 69.3005 49.2505 69.3005 50.1688C69.3005 50.7413 70.4845 50.6634 70.4845 51.4868C70.4845 51.8644 70.1483 52.276 69.6294 52.276C68.9765 52.276 67.7853 51.3746 67.7853 50.2346C67.7853 48.1006 69.3078 46.2468 72.7889 42.7267L78.9132 36.5367C76.3943 35.2846 72.7281 33.7109 70.6818 32.8486V32.5854C71.2762 32.4198 71.6708 31.8181 71.6708 31.136V26.0641C71.6708 25.5062 71.415 24.6561 70.6818 24.4198V24.1542C75.8097 22.3784 82.3017 18.7999 86.0264 16.2542C86.8595 17.1531 89.0739 19.0848 91.4247 19.0848C93.4052 19.0848 93.8607 18.1105 93.8607 17.4382C93.8607 17.0557 93.1372 16.8461 93.1372 16.2542C93.1372 15.745 93.4053 15.5283 93.795 15.5283C94.3797 15.5283 95.4418 16.0958 95.4418 17.175ZM57.2494 46.5464V26.9874C54.4406 25.5063 50.3115 22.5221 48.3578 20.8631L48.2262 20.929V40.8826C50.9132 42.3053 54.9206 44.7754 57.1179 46.6122L57.2494 46.5464ZM66.5332 42.7925C62.4504 44.4124 54.5429 48.449 51.1251 51.3552C47.5222 48.8047 42.2847 45.443 38.9424 43.5818V43.3869C39.7975 43.0897 39.9948 42.4832 39.9948 41.4747V26.5246C39.9948 25.1506 39.6757 24.6561 38.9424 24.4198V24.1542C44.5575 22.1396 49.834 19.2749 54.3505 16.2542C57.4638 18.5051 62.9327 21.8181 66.5332 23.8912V24.1542C65.8828 24.41 65.415 25.058 65.415 26.0641V40.8826C65.415 41.9496 65.8633 42.3516 66.5332 42.5294V42.7925ZM22.94 40.751V13.0264C18.9352 12.6001 17.174 10.0204 15.8293 8.4808L11.9438 11.5111C11.9633 15.7279 13.1545 19.1458 14.6429 22.5099C16.0022 25.5842 17.5418 29.5647 17.5418 32.3199C17.5418 36.8631 14.9474 39.7303 8.78177 45.3625L8.97907 45.5574C12.6429 42.8924 18.0192 40.8314 22.94 40.751ZM38.0192 40.6853L32.029 51.5525C28.8913 49.4283 23.8536 48.1274 19.5807 48.1274C11.1569 48.1274 5.38589 49.5817 2.39443 51.4209L1.99982 51.0263C4.67216 48.7535 9.17883 45.1068 9.17883 36.7999C9.17883 33.2993 7.72698 29.3333 6.67461 26.7243C5.45902 23.7036 4.50166 22.1153 4.50166 17.8985C4.50166 10.5562 8.58685 6.41014 14.9717 3.27981L15.4346 3.87173C13.23 5.65004 12.2044 7.94239 11.878 10.2591L22.085 1.96187C24.6989 5.52581 27.1618 6.89969 30.3822 6.89969C33.0229 6.89969 33.8049 5.76217 33.8049 4.8584C33.8049 4.20554 32.884 4.11536 32.884 3.47712C32.884 2.87054 33.3103 2.68537 33.6733 2.68537C34.4845 2.68537 35.2543 3.70116 35.2543 4.46364C35.2543 9.46241 30.6137 13.158 26.0363 13.158C25.2422 13.158 24.6964 13.2432 24.1922 13.158V40.751C28.1605 40.751 31.934 41.8376 34.9254 43.3212L36.7695 40.1591L38.0192 40.6853ZM367.604 17.175C367.604 17.5891 367.122 17.8985 366.815 17.8985C366.289 17.8985 365.843 16.912 364.379 16.912C362.223 16.912 360.425 18.7024 360.425 20.7974C360.425 26.3102 366.026 28.5391 366.026 34.8241C366.026 40.0958 360.715 43.1507 355.224 43.8474L354.17 43.1213C357.178 42.7413 358.65 41.7353 358.65 38.1835C358.65 33.3821 353.512 29.4745 353.512 23.8254C353.512 19.2578 357.938 15.7256 363.982 15.7256C365.159 15.7256 366.308 16.0763 366.944 16.3832C367.312 16.5611 367.604 16.8193 367.604 17.175Z" fill="black"/>
</svg>
