<svg width="240" height="240" viewBox="0 0 240 240" fill="none" xmlns="http://www.w3.org/2000/svg">
<rect width="240" height="240" rx="40" fill="#274D44"/>
<path d="M140.612 119.709C140.612 94.6939 140.612 69.6786 140.612 44.9541C140.612 37.6822 140.905 37.1005 148.511 37.1005C166.357 37.1005 164.309 34.7735 164.309 52.5169C164.309 92.076 164.309 131.635 164.309 171.194C164.309 179.048 164.309 179.048 172.208 179.048C179.229 179.048 186.25 179.339 192.979 179.048C197.952 178.757 200 180.502 200 185.738C199.707 206.39 202.048 202.609 183.325 202.9C171.33 203.191 159.335 202.609 147.341 202.9C141.782 202.9 139.735 201.154 140.027 195.628C140.905 170.322 140.612 145.015 140.612 119.709Z" fill="#FDF5E6"/>
<path d="M112.927 120.146C112.927 145.477 112.927 171.099 112.927 196.43C112.927 197.886 113.219 199.341 112.635 200.506C112.05 201.671 110.588 203.418 109.418 203.418C103.863 203.709 98.0152 203.709 92.4599 203.418C91.2904 203.418 89.8284 201.671 89.2437 200.506C88.6589 199.341 88.9513 197.594 88.9513 196.139C88.9513 175.175 88.9513 154.503 88.9513 133.539C88.9513 126.842 88.9513 126.842 82.5188 126.842C78.133 126.842 73.7472 126.842 69.3614 126.842C65.268 126.842 64.9756 127.133 64.9756 131.21C64.9756 152.756 64.9756 174.302 64.9756 196.139C64.9756 203.709 64.9756 204 57.0812 204C52.9878 204 48.8944 204 45.0934 204C42.4619 204 41.2924 202.835 41 200.215C41 199.05 41 197.886 41 196.721C41 145.768 41 94.5234 41 43.5702C41 37.4558 41.8772 36.5823 48.0173 36.5823C51.8183 36.5823 55.9117 36.5823 59.7127 36.5823C63.8061 36.5823 64.9756 37.747 64.9756 41.8232C64.9756 61.0399 64.9756 79.9653 64.9756 99.182C64.9756 104.132 64.9756 104.132 69.9462 104.132C74.9168 104.132 80.1797 104.132 85.1503 104.132C87.7817 104.132 88.6589 103.258 88.6589 100.638C88.6589 92.7764 88.6589 84.9151 88.6589 77.0537C88.6589 65.4073 88.6589 53.7608 88.6589 42.1144C88.6589 36.8735 89.536 36 94.799 36C98.8924 36 102.986 36 106.787 36C111.465 36 112.342 37.1646 112.342 41.5321C112.927 68.0277 112.927 94.2322 112.927 120.146Z" fill="#FDF5E6"/>
</svg>
