<svg width="213" height="94" viewBox="0 0 213 94" fill="none" xmlns="http://www.w3.org/2000/svg">
<g clip-path="url(#clip0)">
<path d="M146.829 6.82948L148.519 6.44579C148.596 7.36666 149.287 7.90383 150.286 7.90383C150.978 7.90383 151.593 7.59687 151.593 6.90622C151.593 6.13883 150.67 5.90862 149.672 5.60166C148.442 5.21797 147.213 4.83427 147.213 3.45297C147.213 1.99493 148.442 1.22754 150.133 1.22754C151.516 1.22754 153.052 1.76471 153.283 3.29949L151.669 3.68319C151.516 2.83906 150.978 2.45536 150.133 2.45536C149.441 2.45536 148.826 2.76232 148.826 3.37623C148.826 3.99014 149.595 4.22036 150.594 4.45058C151.823 4.83427 153.283 5.21797 153.283 6.75275C153.283 8.36426 151.823 9.05491 150.209 9.05491C148.442 9.13165 147.059 8.28752 146.829 6.82948Z" fill="#FDF5E6"/>
<path d="M157.739 5.21813C157.739 2.76248 159.276 1.30444 161.504 1.30444C163.732 1.30444 165.269 2.83922 165.269 5.21813C165.269 7.67378 163.732 9.20856 161.504 9.20856C159.199 9.13182 157.739 7.59704 157.739 5.21813ZM163.578 5.21813C163.578 3.52987 162.733 2.60901 161.427 2.60901C160.121 2.60901 159.352 3.52987 159.352 5.21813C159.352 6.90639 160.198 7.82726 161.427 7.82726C162.733 7.82726 163.578 6.90639 163.578 5.21813Z" fill="#FDF5E6"/>
<path d="M177.409 1.30444V9.05508H174.796L171.8 2.68574V9.05508H170.186V1.30444H172.722L175.718 7.67378V1.30444H177.409Z" fill="#FDF5E6"/>
<path d="M182.326 5.21813C182.326 2.76248 183.862 1.30444 186.091 1.30444C188.319 1.30444 189.856 2.83922 189.856 5.21813C189.856 7.67378 188.319 9.20856 186.091 9.20856C183.862 9.13182 182.326 7.59704 182.326 5.21813ZM188.165 5.21813C188.165 3.52987 187.32 2.60901 186.014 2.60901C184.708 2.60901 183.939 3.52987 183.939 5.21813C183.939 6.90639 184.784 7.82726 186.014 7.82726C187.32 7.82726 188.165 6.90639 188.165 5.21813Z" fill="#FDF5E6"/>
<path d="M197.078 5.83221H196.463V9.05525H194.85V1.38135H197.846C199.767 1.38135 200.536 2.37895 200.536 3.60678C200.536 4.75786 199.844 5.52525 198.768 5.75547L201.304 9.05525H199.383L197.078 5.83221ZM196.463 4.60438H197.616C198.615 4.60438 198.999 4.22069 198.999 3.60678C198.999 2.91613 198.615 2.60917 197.616 2.60917H196.463V4.60438Z" fill="#FDF5E6"/>
<path d="M210.217 7.36682H207.297L206.836 8.97834H205.068L207.681 1.30444H209.832L212.445 8.97834H210.754L210.217 7.36682ZM209.832 6.139L208.757 2.53227L207.681 6.139H209.832Z" fill="#FDF5E6"/>
<path d="M113.944 20.1813C113.944 17.7256 115.557 16.2676 117.709 16.2676C119.399 16.2676 120.782 17.1884 121.243 18.6465L119.707 19.1837C119.399 18.1093 118.631 17.5721 117.709 17.5721C116.479 17.5721 115.634 18.493 115.634 20.1813C115.634 21.8695 116.556 22.7904 117.709 22.7904C118.631 22.7904 119.476 22.2532 119.707 21.1789L121.243 21.716C120.706 23.2508 119.399 24.095 117.709 24.095C115.481 24.095 113.944 22.5602 113.944 20.1813Z" fill="#FDF5E6"/>
<path d="M130.31 22.4069H127.39L126.929 24.0184H125.162L127.774 16.3445H129.926L132.538 24.0184H130.848L130.31 22.4069ZM129.926 21.1023L128.85 17.4956L127.774 21.1023H129.926Z" fill="#FDF5E6"/>
<path d="M141.528 22.7138V24.0184H137.225V16.3445H138.838V22.7138H141.528Z" fill="#FDF5E6"/>
<path d="M147.827 16.3445H146.214V24.0184H147.827V16.3445Z" fill="#FDF5E6"/>
<path d="M155.05 17.649V19.4908H157.816V20.7953H155.05V24.0184H153.36V16.3445H158.277V17.649H155.05Z" fill="#FDF5E6"/>
<path d="M162.58 20.1813C162.58 17.7256 164.116 16.2676 166.345 16.2676C168.573 16.2676 170.11 17.8024 170.11 20.1813C170.11 22.6369 168.573 24.1717 166.345 24.1717C164.116 24.095 162.58 22.5602 162.58 20.1813ZM168.419 20.1813C168.419 18.493 167.574 17.5721 166.268 17.5721C164.962 17.5721 164.193 18.493 164.193 20.1813C164.193 21.8695 165.038 22.7904 166.268 22.7904C167.574 22.7904 168.419 21.8695 168.419 20.1813Z" fill="#FDF5E6"/>
<path d="M177.332 20.7953H176.717V24.0184H175.104V16.3445H178.1C180.021 16.3445 180.79 17.3421 180.79 18.5699C180.79 19.721 180.098 20.4884 179.022 20.7186L181.558 24.0184H179.637L177.332 20.7953ZM176.64 19.5675H177.793C178.792 19.5675 179.176 19.1838 179.176 18.5699C179.176 17.8793 178.792 17.5723 177.793 17.5723H176.64V19.5675Z" fill="#FDF5E6"/>
<path d="M193.314 16.3445V24.0184H190.778L187.704 17.649V24.0184H186.091V16.3445H188.703L191.7 22.6371V16.3445H193.314Z" fill="#FDF5E6"/>
<path d="M200.382 16.3445H198.769V24.0184H200.382V16.3445Z" fill="#FDF5E6"/>
<path d="M210.217 22.4069H207.297L206.836 24.0184H205.068L207.681 16.3445H209.832L212.445 24.0184H210.754L210.217 22.4069ZM209.832 21.1023L208.757 17.4956L207.681 21.1023H209.832Z" fill="#FDF5E6"/>
<path d="M53.86 76.3509C53.9368 76.3509 54.0905 76.2742 54.0905 76.1974C54.3978 74.9697 56.2418 67.7566 57.1638 63.9966C58.1627 59.853 59.2383 55.7093 60.2372 51.5656C60.5445 50.4146 61.0055 49.8774 62.3117 49.8774C66.9985 49.9542 66.4607 49.2636 66.4607 54.0211C66.4607 66.4521 66.4607 78.8832 66.4607 91.3142C66.4607 93.7697 66.4607 93.7697 64.002 93.7697C60.0835 93.7697 60.2372 94.3068 60.2372 90.0097C60.2372 87.6309 60.0067 82.4897 59.9298 80.1876C59.9298 80.0342 59.6225 79.9574 59.6225 80.1876C59.0078 82.7199 57.548 88.9354 56.9333 91.9281C56.626 93.3093 56.0882 93.9232 54.5515 93.8464C51.2477 93.693 51.555 94.3068 50.7098 90.777C50.0183 87.9378 48.7122 82.4129 48.0207 80.0342C47.9438 79.804 47.6365 79.8807 47.6365 80.1109C47.5597 82.6432 47.5597 88.8587 47.5597 92.0815C47.5597 93.0791 46.7913 93.8464 45.7156 93.8464C44.64 93.8464 43.1801 93.7697 42.1813 93.7697C41.5666 93.7697 41.0288 93.2325 41.0288 92.6187V51.3354C41.0288 50.5681 41.6435 49.9542 42.4118 49.9542C42.9496 49.9542 43.4106 49.9542 43.5643 49.9542C47.5597 49.9542 46.7913 49.417 47.7133 53.177C49.4805 60.0064 53.1685 74.3558 53.6295 76.1974C53.6295 76.2742 53.7832 76.3509 53.86 76.3509Z" fill="#FDF5E6"/>
<path d="M76.6799 93.7697C75.2201 93.7697 73.7602 93.7697 72.2236 93.7697C71.1479 93.7697 70.6101 93.3093 70.6869 92.235C70.6869 91.5444 70.6869 90.9305 70.6869 90.2399C70.6869 77.5019 70.6869 64.764 70.6869 52.026C70.6869 49.9542 70.7637 49.8774 72.8382 49.8774C75.2969 49.8774 77.8324 49.8774 80.2911 49.8774C85.3621 49.9542 88.5123 52.6399 89.2038 57.6276C89.7416 61.8481 89.7416 66.6823 86.5914 69.9052C86.2841 70.2121 86.2073 70.5958 86.2073 70.9795C86.2841 71.2864 86.3609 71.5166 86.5914 71.7468C90.1258 74.6627 90.0489 82.7966 88.5123 88.3215C87.5134 91.8513 84.9011 93.5395 81.0594 93.6929C79.5996 93.8464 78.1398 93.7697 76.6799 93.7697ZM76.9873 80.8015C76.9873 82.7966 76.9873 84.715 76.9873 86.7101C76.9873 87.0938 77.0641 87.7076 77.3714 87.9378C78.8313 89.0889 82.5193 88.0146 82.8266 84.6383C83.1339 80.8783 83.4413 79.1134 83.0571 76.5811C82.8266 74.9697 81.6741 73.5885 80.2143 73.5885C79.5228 73.5885 78.9081 73.5885 78.2166 73.5885C77.2946 73.5117 76.9873 73.9721 76.9873 74.8929C76.9873 76.888 76.9873 78.8832 76.9873 80.8015ZM76.9873 61.7713C76.9873 63.4595 76.9873 65.1476 76.9873 66.7591C76.9873 67.1427 77.2178 67.7566 77.5251 67.9101C79.5228 68.9844 82.5961 67.6031 82.9034 65.3778C83.2108 63.6129 83.2108 61.7713 83.1339 59.9297C83.0571 56.1697 81.9046 55.3256 78.2166 55.4791C77.2178 55.5558 76.9104 55.9395 76.9104 56.8603C76.9873 58.5485 76.9873 60.1599 76.9873 61.7713Z" fill="#FDF5E6"/>
<path d="M202.994 75.7369C202.84 75.7369 202.764 75.8137 202.687 75.8904C202.226 76.9647 199.921 81.492 199.921 83.4871C199.921 85.8659 200.074 90.3165 200.074 92.3116C200.074 93.4626 199.537 93.6928 198 93.6928C197.155 93.6928 196.386 93.6928 195.618 93.6928C194.235 93.6928 193.697 93.4626 193.697 92.4651C193.697 92.0814 193.697 91.7745 193.697 91.3908C193.697 78.3459 193.697 65.301 193.697 52.2561C193.697 49.9541 193.697 49.8773 196.002 49.8773C200.535 49.8773 200.074 49.3402 200.074 53.9443C200.074 57.781 200.074 65.1475 200.074 66.3753C200.074 66.452 200.151 66.6055 200.228 66.6055C200.382 66.6055 200.459 66.6055 200.535 66.452C200.689 66.1451 200.92 65.6079 200.996 65.2243C202.533 60.6969 204.147 56.0928 205.53 51.4888C205.991 50.1075 206.682 49.5704 208.065 49.7239C208.987 49.8006 209.909 49.7239 210.831 49.7239C211.83 49.7239 212.368 50.4912 212.06 51.412C210.754 55.4022 209.448 59.3924 208.065 63.3826C207.527 64.9173 207.45 66.3753 207.758 67.9867C209.371 75.8137 210.908 83.7173 212.521 91.5443C212.829 93.2324 212.675 93.5394 210.908 93.5394C205.914 93.4626 206.913 94.3067 205.991 89.5492C205.145 85.3288 203.532 77.1949 203.301 75.7369C203.225 75.8904 203.148 75.7369 202.994 75.7369Z" fill="#FDF5E6"/>
<path d="M112.561 71.8236C112.561 65.1476 112.561 58.5485 112.561 51.8725C112.561 50.0309 112.714 49.8774 114.558 49.8774C117.862 49.9542 121.166 49.8774 124.47 50.1844C127.466 50.4146 129.541 52.2562 130.309 55.0954C132 60.8505 131.462 71.977 129.003 74.586C127.774 75.8905 128.158 77.5787 128.465 78.8064C129.387 83.4105 130.156 87.017 131.001 91.6211C131.385 93.6162 131.154 93.8464 129.157 93.8464C124.47 93.7697 125.469 94.6905 124.47 89.9329C123.702 86.2497 122.933 82.4897 122.319 78.7297C122.011 76.9648 120.859 77.5787 119.937 77.5019C118.784 77.4252 118.784 78.1925 118.784 79.0366C118.784 83.3338 118.784 87.5542 118.784 91.8513C118.784 93.6929 118.631 93.8464 116.787 93.8464C111.869 93.7697 112.561 94.6138 112.484 89.5493C112.561 83.6407 112.561 77.7321 112.561 71.8236ZM118.784 63.6897C118.784 65.9917 118.861 67.066 118.861 69.3681C118.861 71.1329 119.168 71.977 121.473 71.977C124.239 71.977 125.008 70.5191 125.085 67.6032C125.161 65.0709 125.161 62.5387 125.085 60.0064C125.008 56.3232 123.932 55.4023 120.167 55.5558C119.092 55.6325 118.784 56.0162 118.784 57.0138C118.861 59.1623 118.784 61.4644 118.784 63.6897Z" fill="#FDF5E6"/>
<path d="M37.4179 67.6034C37.4179 72.2843 37.4948 77.0418 37.4179 81.7226C37.4179 83.641 37.4179 93.6932 27.5833 93.6932C18.8243 93.6932 18.6706 84.1781 18.6706 82.0296C18.5937 71.9773 18.5938 61.9251 18.5938 51.8728C18.5938 50.0312 18.7474 49.8777 20.5914 49.8777C25.4319 49.9545 24.8173 49.2639 24.8173 54.0214C24.8173 63.69 24.8173 73.2818 24.8173 82.9504C24.8173 83.8712 24.8941 84.8688 25.1246 85.7896C25.5088 87.401 26.5076 88.1683 28.0443 88.0916C29.6578 88.0149 30.4261 87.0941 30.7334 85.7128C30.8871 84.792 31.0408 83.8712 31.0408 83.0271C31.0408 72.7447 31.0408 62.4622 31.0408 52.103C31.0408 49.9545 31.1176 49.8777 33.2689 49.8777C37.8021 49.8777 37.2643 49.3406 37.2643 53.7912C37.4179 58.472 37.4179 62.9994 37.4179 67.6034Z" fill="#FDF5E6"/>
<path d="M166.575 93.7699C163.501 93.6932 163.655 94.3071 163.04 90.854C162.579 88.245 162.579 88.245 159.89 88.245C158.584 88.245 157.201 88.245 156.048 88.245C154.819 88.245 154.665 88.6287 154.281 90.0099C154.051 90.854 153.513 92.4654 153.282 93.3095C153.206 93.6164 152.898 93.8467 152.514 93.8467C151.746 93.8467 149.748 93.7699 148.519 93.7699C147.981 93.7699 147.674 93.3095 147.75 92.7724C148.288 89.6262 150.132 79.574 151.054 74.663C152.514 67.0662 153.974 59.3928 155.434 51.796C155.664 50.4148 156.202 49.8777 157.662 49.9544C162.195 50.1079 161.35 49.2638 162.272 53.8679C164.731 66.5291 167.112 79.1903 169.494 91.8515C169.878 93.6932 169.725 93.8467 167.804 93.8467C167.42 93.7699 167.036 93.7699 166.575 93.7699ZM161.58 81.5691C160.658 76.1977 159.813 71.0564 158.968 65.8385C158.968 65.7618 158.891 65.7618 158.891 65.7618C158.738 65.7618 158.738 65.7618 158.584 65.7618C158.507 65.7618 158.507 65.8385 158.507 65.8385C157.662 70.9797 156.74 76.1209 155.895 81.4156C155.818 81.7226 156.125 82.1062 156.433 82.1062H161.196C161.427 82.183 161.657 81.876 161.58 81.5691Z" fill="#FDF5E6"/>
<path d="M177.485 71.9005C177.485 75.7372 177.485 79.4972 177.485 83.334C177.485 84.2548 177.639 85.2524 177.87 86.1732C178.254 87.4777 179.176 88.1683 180.559 88.1683C181.942 88.1683 183.017 87.4777 183.248 86.0964C183.555 84.3315 183.632 82.4899 183.632 80.6483C183.632 79.1903 184.17 78.7299 185.63 78.7299C187.243 78.7299 187.474 78.7299 188.703 78.7299C189.548 78.7299 189.933 79.4972 189.933 80.3413C189.933 83.4107 189.548 86.0197 188.78 89.0124C188.012 91.9283 185.63 93.3862 182.633 93.7699C182.249 93.8466 181.788 93.8466 181.404 93.9234C175.718 94.3838 171.877 91.9283 171.646 86.3266C171.185 76.6581 171.031 66.9128 171.646 57.3209C172.107 50.5683 179.637 47.4221 185.707 50.7985C187.858 51.9495 188.934 53.9446 189.318 56.1699C189.702 58.5487 189.779 61.0042 190.009 63.383C190.086 64.3805 189.548 64.8409 188.55 64.8409C187.474 64.8409 186.398 64.8409 185.323 64.8409C184.17 64.9177 183.709 64.3805 183.632 63.2295C183.632 61.3879 183.555 59.5462 183.325 57.7813C183.094 56.3234 182.172 55.4793 180.559 55.4793C179.253 55.4793 178.254 56.0164 177.87 57.3209C177.562 58.3185 177.409 59.316 177.409 60.3136C177.485 64.227 177.485 68.0638 177.485 71.9005Z" fill="#FDF5E6"/>
<path d="M93.0452 71.7468C93.0452 65.1476 93.0452 58.5485 93.0452 51.9493C93.0452 50.0309 93.1989 49.8774 95.1197 49.8774C99.1151 49.8774 103.034 49.8774 107.029 49.8774C108.335 49.8774 108.873 50.4146 108.796 51.6423C108.719 55.0954 109.027 55.6325 107.259 55.786C106.645 55.786 101.881 55.786 100.421 55.786C99.5761 55.786 99.2687 56.1697 99.2687 57.0138C99.2687 60.1599 99.2687 63.306 99.2687 66.4521C99.2687 67.5264 99.8066 67.7566 100.729 67.7566C102.88 67.7566 105.031 67.7566 107.183 67.7566C108.335 67.7566 108.873 68.217 108.796 69.3681C108.719 74.0489 109.411 73.5885 104.724 73.5885C103.341 73.5885 101.958 73.5885 100.575 73.5885C99.7297 73.5885 99.2687 73.8187 99.2687 74.8162C99.2687 78.8064 99.2687 82.7199 99.2687 86.7101C99.2687 87.7076 99.8066 87.8611 100.575 87.8611C102.726 87.8611 104.878 87.8611 107.029 87.8611C108.258 87.8611 108.796 88.3215 108.796 89.5493C108.719 94.4603 109.18 93.6929 104.724 93.7697C101.497 93.7697 98.1931 93.6929 94.9661 93.7697C93.5062 93.8464 92.9684 93.2325 93.0452 91.8513C93.0452 85.1754 93.0452 78.4995 93.0452 71.7468Z" fill="#FDF5E6"/>
<path d="M0 71.7472C0 65.148 0 58.5488 0 51.9497C0 50.0313 0.0768336 49.8778 2.0745 49.8778C6.76134 49.8778 6.22351 49.2639 6.30034 53.9448C6.30034 64.3807 6.30034 74.8166 6.30034 85.3293C6.30034 87.4011 6.30034 87.4011 8.45168 87.4011C10.2957 87.4011 12.1397 87.4778 13.9837 87.4011C15.2899 87.3244 15.8277 87.7848 15.8277 89.166C15.7509 94.6142 16.3655 93.6166 11.4482 93.6933C8.29801 93.7701 5.14784 93.6166 1.99767 93.6933C0.537834 93.6933 0 93.2329 0 91.775C0.0768335 85.1758 0 78.4231 0 71.7472Z" fill="#FDF5E6"/>
<path d="M145.215 85.0987C145.062 89.5493 142.91 92.3117 139.376 93.2325C138.147 93.5395 137.378 93.5395 136.072 93.6929C135.073 93.7697 133.921 93.386 133.998 92.3117C133.998 92.0048 133.998 90.3166 133.998 90.0097C133.921 88.0913 133.998 88.3983 136.764 87.5542C137.993 87.1705 138.838 86.3264 138.992 85.0987C139.222 83.7174 139.299 82.2595 139.299 80.8783C139.299 71.2864 139.299 61.6946 139.299 52.1027C139.299 49.9542 139.376 49.8774 141.527 49.8774C145.907 49.9542 145.599 49.2636 145.599 53.9444C145.523 58.4717 145.446 79.1901 145.215 85.0987Z" fill="#FDF5E6"/>
<path d="M18.978 22.33C18.978 29.0059 18.978 35.7585 18.978 42.4345C18.978 42.8181 19.0549 43.2018 18.9012 43.5087C18.7475 43.8157 18.3634 44.2761 18.056 44.2761C16.5962 44.3528 15.0595 44.3528 13.5997 44.2761C13.2924 44.2761 12.9082 43.8157 12.7545 43.5087C12.6009 43.2018 12.6777 42.7414 12.6777 42.3577C12.6777 36.8328 12.6777 31.3079 12.6777 25.783C12.6777 24.0181 12.6777 24.0181 10.9105 24.0181C9.75802 24.0181 8.60552 24.0181 7.45302 24.0181C6.37735 24.0181 6.30052 24.0949 6.30052 25.1691C6.30052 30.8475 6.30052 36.6026 6.30052 42.281C6.30052 44.2761 6.30052 44.3528 4.22601 44.3528C3.15035 44.3528 2.07468 44.3528 0.999008 44.3528C0.307507 44.3528 0.000173308 44.0459 -0.0766602 43.3553C-0.0766602 43.0483 -0.0766602 42.7414 -0.0766602 42.4345C0.000173308 28.9291 0.000173308 15.5006 0.000173308 1.99527C0.000173308 0.383843 0.230674 0.153639 1.84418 0.153639C2.84301 0.153639 3.91868 0.153639 4.91751 0.153639C5.99318 0.153639 6.30052 0.460578 6.30052 1.53486C6.30052 6.59935 6.30052 11.6638 6.30052 16.7283C6.30052 18.0328 6.30052 18.0328 7.60669 18.0328C8.91286 18.0328 10.2959 18.0328 11.602 18.0328C12.2935 18.0328 12.524 17.8026 12.524 17.112C12.524 15.0402 12.524 12.9683 12.524 10.8965C12.524 7.82711 12.524 4.75772 12.524 1.68833C12.524 0.307109 12.7545 0.0769043 14.1375 0.0769043C15.2132 0.0769043 16.2889 0.0769043 17.3645 0.0769043C18.5939 0.0769043 18.8244 0.307108 18.8244 1.53486C18.978 8.59445 18.978 15.4238 18.978 22.33Z" fill="#FDF5E6"/>
<path d="M22.8962 9.74507C22.973 8.21037 23.3572 6.59895 23.8182 5.06425C24.6634 2.45527 26.5842 0.843843 29.2734 0.306701C31.4247 -0.153708 33.5761 -0.153708 35.7274 0.46017C38.8776 1.38099 40.3374 3.75976 40.9521 6.75242C41.2594 8.28711 41.4899 9.89854 41.4899 11.51C41.5667 18.6463 41.5667 25.8594 41.4899 32.9957C41.4899 34.914 41.1057 36.9091 40.6447 38.7508C39.8764 41.8202 37.8019 43.7385 34.5749 44.2757C32.654 44.5826 30.7332 44.5826 28.8124 44.1222C25.5085 43.2781 23.8182 40.8994 23.2035 37.83C22.8194 35.7581 22.6657 33.6096 22.5889 31.5377C22.6657 28.3916 22.8194 13.8887 22.8962 9.74507ZM35.3432 22.2528C35.3432 18.2626 35.3432 14.1957 35.3432 10.2055C35.3432 9.28466 35.1127 8.36384 34.8054 7.51976C34.4212 6.36874 33.4224 5.8316 32.1931 5.8316C30.9637 5.8316 29.9649 6.44548 29.6575 7.5965C29.427 8.44058 29.1965 9.36139 29.1965 10.2822C29.1965 18.2626 29.1965 26.243 29.1965 34.2234C29.1965 35.1443 29.427 36.0651 29.6575 36.9091C30.0417 38.0602 30.9637 38.5973 32.1162 38.674C33.4992 38.7508 34.4212 38.2136 34.8054 37.0626C35.1127 36.2185 35.2664 35.2977 35.2664 34.3769C35.3432 30.31 35.3432 26.243 35.3432 22.2528Z" fill="#FDF5E6"/>
<path d="M65.0011 22.2536C65.0011 15.5009 65.0011 8.74826 65.0011 1.99561C65.0011 0.460917 65.2317 0.230713 66.7683 0.230713C70.9173 0.230713 75.1432 0.230713 79.2922 0.230713C80.5983 0.230713 80.9057 0.460917 80.9057 1.76541C80.9057 2.76296 80.9057 3.83724 80.9057 4.83479C80.9057 5.83235 80.5983 6.06255 79.5995 6.06255H72.5308C71.4552 6.06255 71.3015 6.21602 71.3015 7.29031C71.3015 10.4364 71.3015 13.6593 71.3015 16.8054C71.3015 17.9564 71.3783 18.0332 72.5308 18.0332H79.369C80.5215 18.0332 80.8288 18.3401 80.8288 19.4911C80.8288 20.5654 80.8288 21.6397 80.8288 22.6372C80.8288 23.6348 80.5215 23.9417 79.5227 23.9417C77.1408 23.9417 74.759 23.9417 72.3772 23.9417C71.532 23.9417 71.3015 24.2487 71.3015 25.016C71.3015 29.083 71.3015 33.0732 71.3015 37.1401C71.3015 38.1377 71.3783 38.2144 72.454 38.2144C74.6822 38.2144 76.9872 38.2144 79.2153 38.2144C80.5215 38.2144 80.8288 38.5213 80.8288 39.7491C80.8288 40.8234 80.8288 41.8977 80.8288 42.8952C80.8288 43.816 80.5215 44.123 79.5995 44.123C75.0663 44.123 70.61 44.123 66.0768 44.123C65.1548 44.123 64.9243 43.816 64.9243 42.8185C64.9243 40.5932 64.9243 38.4446 64.9243 36.2193C65.0011 31.6919 65.0011 26.9344 65.0011 22.2536Z" fill="#FDF5E6"/>
<path d="M49.5572 24.9389C49.5572 19.1838 49.5572 13.3519 49.5572 7.59683C49.5572 6.13887 49.5572 6.13887 48.0973 6.13887H44.4093C43.641 6.13887 43.2568 5.83193 43.2568 4.98785C43.2568 3.83683 43.2568 2.68581 43.2568 1.53479C43.2568 0.460503 43.4873 0.153564 44.6398 0.153564H60.698C61.9274 0.153564 62.2347 0.460503 62.2347 1.68826C62.2347 2.76254 62.2347 3.83683 62.2347 4.83438C62.2347 5.83193 61.9274 6.13887 61.0054 6.13887C59.6992 6.13887 58.393 6.13887 57.0869 6.13887C56.088 6.13887 55.9344 6.29234 55.9344 7.28989C55.9344 13.9658 55.9344 20.7185 55.9344 27.3944C55.9344 32.5356 55.9344 37.6001 55.9344 42.7413C55.9344 44.1993 55.7807 44.3527 54.244 44.3527C53.0915 44.3527 51.8622 44.3527 50.7097 44.3527C49.9413 44.3527 49.634 43.9691 49.5572 43.2785C49.5572 42.9715 49.5572 42.6646 49.5572 42.2809C49.5572 36.4491 49.5572 30.694 49.5572 24.9389Z" fill="#FDF5E6"/>
<path d="M84.6704 22.2533C84.6704 15.4239 84.6704 8.67121 84.6704 1.91856C84.6704 0.460598 84.9009 0.307129 86.3607 0.307129C87.5133 0.307129 88.5889 0.307129 89.7414 0.307129C90.7403 0.307129 90.9708 0.537333 91.0476 1.61162C91.0476 1.91856 91.0476 2.2255 91.0476 2.60917C91.0476 13.8892 91.0476 25.0924 91.0476 36.3724C91.0476 38.2141 91.0476 38.2141 92.8916 38.2141C94.9661 38.2141 97.1174 38.2141 99.1919 38.2141C100.268 38.2141 100.575 38.521 100.575 39.5186C100.575 40.7463 100.575 41.9741 100.575 43.2018C100.575 44.1994 100.268 44.5063 99.2688 44.5063C94.8124 44.5063 90.3561 44.5063 85.8998 44.5063C84.9009 44.5063 84.6704 44.1994 84.6704 43.1251C84.6704 35.9888 84.6704 29.0826 84.6704 22.2533Z" fill="#FDF5E6"/>
</g>
<defs>
<clipPath id="clip0">
<rect width="212.675" height="94" fill="white"/>
</clipPath>
</defs>
</svg>
