<svg width="129" height="58" viewBox="0 0 129 58" fill="none" xmlns="http://www.w3.org/2000/svg">
<path fill-rule="evenodd" clip-rule="evenodd" d="M47.9075 6.40361C47.9541 5.47163 48.1871 4.49306 48.4667 3.56108C48.9793 1.97672 50.0976 0.998145 51.7752 0.671954C53.08 0.392361 54.3847 0.392361 55.6895 0.765151C57.6 1.32434 58.4854 2.7689 58.8582 4.53966C59.0446 5.47163 59.1844 6.45021 59.1844 7.42878C59.231 11.7625 59.231 16.1428 59.1844 20.4765C59.1844 21.6414 58.9514 22.853 58.6718 23.9714C58.2058 25.8353 56.9477 27.0003 54.9905 27.3265C53.8255 27.5129 52.6606 27.5129 51.4956 27.2333C49.4918 26.7207 48.4667 25.3227 48.0939 23.4122C47.8609 22.154 47.7677 20.8492 47.7211 19.5911C47.7393 18.8646 47.7574 17.0834 47.7783 15.0309L47.7783 15.0302L47.7784 15.0293L47.7784 15.0279C47.8111 11.815 47.8506 7.9387 47.9075 6.40361ZM55.4099 13.9526V6.6366C55.4099 6.07742 55.2701 5.51823 55.0837 5.00564C54.8507 4.30666 54.2449 3.98047 53.4993 3.98047C52.7538 3.98047 52.148 4.35326 51.9616 5.05224C51.8218 5.56483 51.682 6.12402 51.682 6.6832V21.1754C51.682 21.7346 51.8218 22.2938 51.9616 22.8064C52.1946 23.5054 52.7072 23.8316 53.4527 23.8782C54.2915 23.8782 54.8507 23.5986 55.0837 22.8996C55.2701 22.387 55.3633 21.8278 55.3633 21.2686C55.4331 19.4535 55.4245 17.6383 55.4157 15.8035V15.8029V15.8023V15.8016C55.4128 15.1877 55.4099 14.5716 55.4099 13.9526ZM45.5319 26.208V13.9991V13.9986C45.5319 9.85145 45.5319 5.65773 45.4387 1.41741C45.4387 0.718426 45.2989 0.532031 44.5533 0.532031H42.6428C41.804 0.532031 41.6642 0.671827 41.6642 1.51061V7.10246V10.877C41.6642 11.2964 41.5244 11.4362 41.105 11.4362H38.6819C38.2858 11.4362 38.0877 11.4362 37.9887 11.3371C37.8897 11.2381 37.8897 11.0401 37.8897 10.644V1.46401C37.8897 0.811623 37.7033 0.625228 37.0509 0.625228H35.187C34.2084 0.625228 34.0686 0.765025 34.0686 1.7436V26.2546V26.8138C34.1152 27.2332 34.3016 27.4196 34.721 27.4196H36.6315C37.8897 27.4196 37.8897 27.373 37.8897 26.1614V15.7698C37.8897 15.1175 37.9363 15.0709 38.5887 15.0709H40.6856C41.7108 15.0709 41.7108 15.0709 41.7108 16.1426V26.1614C41.7108 26.2189 41.708 26.2793 41.7051 26.3404V26.3404V26.3404C41.6963 26.5268 41.6872 26.72 41.7574 26.8604C41.8506 27.0468 42.0836 27.3264 42.27 27.3264C43.1554 27.373 44.0873 27.373 44.9727 27.3264C45.1591 27.3264 45.3921 27.0468 45.4853 26.8604C45.5549 26.7212 45.5465 26.556 45.5378 26.3842C45.5349 26.326 45.5319 26.267 45.5319 26.208ZM107.554 51.0453V44.1021C107.554 41.7721 107.554 39.3956 107.507 37.1588C107.507 36.5531 107.6 35.9473 107.786 35.3415C108.019 34.5493 108.625 34.2231 109.417 34.2231C110.396 34.2231 110.955 34.7357 111.095 35.6211C111.235 36.7395 111.281 37.8112 111.281 38.9296C111.281 39.6286 111.561 39.9548 112.26 39.9082H114.217C114.823 39.9082 115.149 39.6286 115.103 39.0228C115.055 38.5354 115.019 38.0428 114.982 37.5484C114.91 36.5774 114.838 35.5997 114.683 34.6425C114.45 33.2911 113.751 32.0796 112.493 31.3806C108.858 29.3302 104.292 31.2408 104.012 35.3415C103.639 41.1663 103.732 47.0378 104.012 52.9092C104.152 56.2644 106.482 57.7555 109.93 57.4759C110.047 57.4526 110.175 57.441 110.303 57.4293C110.431 57.4177 110.559 57.406 110.676 57.3827C112.493 57.1497 113.938 56.2644 114.404 54.4936C114.87 52.6763 115.103 51.0919 115.103 49.2279C115.103 48.7153 114.87 48.2494 114.357 48.2494H112.493C111.608 48.2494 111.281 48.529 111.281 49.4143C111.281 50.5327 111.235 51.6511 111.048 52.7228C110.909 53.5616 110.256 53.981 109.417 53.981C108.579 53.981 108.019 53.5616 107.786 52.7694C107.647 52.2103 107.554 51.6045 107.554 51.0453ZM100.265 57.3336C99.7957 57.3386 99.5263 57.3415 99.3517 57.2143C99.1166 57.043 99.0534 56.6357 98.905 55.6801L98.8872 55.5652C98.6076 53.9809 98.6076 53.9809 96.9766 53.9809H94.6467C93.9011 53.9809 93.8079 54.2139 93.5749 55.0526C93.488 55.3714 93.3289 55.8705 93.1875 56.3143C93.1015 56.5842 93.022 56.8336 92.9691 57.0098C92.9225 57.1962 92.7361 57.336 92.5031 57.336C92.2974 57.336 91.9463 57.3269 91.5542 57.3168L91.5539 57.3167C91.058 57.3039 90.4963 57.2894 90.08 57.2894C89.7538 57.2894 89.5674 57.0098 89.614 56.6836C89.9402 54.7731 91.0586 48.6686 91.6178 45.6863C92.5031 41.073 93.3885 36.4597 94.2739 31.7998C94.4137 30.9611 94.7399 30.6815 95.6253 30.6815C96.0513 30.6959 96.399 30.6958 96.6845 30.6957C97.3194 30.6955 97.6467 30.6954 97.8438 30.8556C98.0534 31.026 98.1156 31.3779 98.2439 32.1042C98.2908 32.3692 98.3464 32.684 98.4212 33.058C99.9124 40.7468 101.357 48.389 102.801 56.0778C103.034 57.1962 102.941 57.2894 101.776 57.2894C101.45 57.336 101.217 57.336 100.984 57.336C100.703 57.329 100.466 57.3315 100.265 57.3336H100.265ZM97.9086 49.9734C97.3494 46.7115 96.8368 43.5893 96.3242 40.4672C96.3242 40.4206 96.2776 40.4206 96.2776 40.4206H96.0913C96.0447 40.4206 96.0446 40.4672 96.0446 40.4672C95.5321 43.5893 95.0195 46.7115 94.4603 49.9268C94.4137 50.1132 94.6001 50.2996 94.7865 50.2996H97.6756C97.8154 50.2996 97.9552 50.1132 97.9086 49.9734ZM122.887 46.5251C122.887 46.4785 122.933 46.4319 123.026 46.4319C123.073 46.4319 123.166 46.4785 123.213 46.5717C123.353 47.4105 124.331 52.35 124.844 54.9129C124.926 55.3389 124.983 55.691 125.03 55.9817L125.03 55.9818C125.142 56.6679 125.198 57.0129 125.4 57.1837C125.606 57.3565 125.961 57.3509 126.676 57.3397C126.986 57.3349 127.364 57.3289 127.826 57.336C128.898 57.336 128.991 57.1497 128.805 56.1245C128.679 55.4822 128.553 54.8391 128.427 54.1954L128.411 54.1165L128.41 54.1121C127.609 50.0193 126.803 45.9018 125.962 41.8186C125.776 40.8401 125.822 39.9547 126.148 39.0227C126.987 36.5996 127.779 34.1764 128.572 31.7533C128.758 31.1941 128.432 30.7281 127.826 30.7281C127.64 30.7281 127.453 30.7333 127.267 30.7385L127.267 30.7385C126.894 30.7488 126.521 30.7592 126.148 30.7281C125.31 30.6349 124.89 30.9611 124.611 31.7999C123.939 34.003 123.177 36.236 122.421 38.451L122.421 38.4515C122.233 39.0005 122.046 39.5484 121.861 40.0945C121.815 40.2809 121.675 40.6071 121.582 40.7935C121.535 40.8867 121.442 40.8867 121.395 40.8867C121.349 40.8867 121.302 40.7935 121.302 40.7469V33.1979C121.297 32.9025 121.296 32.642 121.296 32.4123V32.4113C121.293 31.5494 121.292 31.121 121.077 30.911C120.865 30.7033 120.444 30.7093 119.606 30.7213L119.606 30.7213C119.38 30.7245 119.123 30.7281 118.832 30.7281C117.434 30.7281 117.434 30.7747 117.434 32.1727V55.8915V56.5439C117.434 57.1497 117.761 57.2894 118.599 57.2894H120.044C120.976 57.2894 121.302 57.1497 121.302 56.4507C121.302 55.8995 121.281 55.004 121.259 54.0605C121.235 53.0098 121.209 51.8995 121.209 51.1384C121.209 50.1351 122.168 48.0774 122.656 47.0291C122.757 46.8114 122.838 46.6373 122.887 46.5251ZM46.5109 57.336H43.8082C43.1558 57.336 42.8296 57.0564 42.8762 56.404V55.1925V32.0329C42.8762 30.7747 42.9228 30.7281 44.181 30.7281H48.7011C51.7766 30.7747 53.6871 32.4057 54.1065 35.4346C54.4327 37.9975 54.4327 40.9332 52.5222 42.8904C52.3358 43.0768 52.2892 43.3098 52.2892 43.5428C52.3358 43.7292 52.3824 43.869 52.5222 44.0088C54.6657 45.7795 54.6191 50.719 53.6871 54.0275C53.0813 56.1244 51.497 57.1962 49.167 57.2894C48.2817 57.336 47.3964 57.336 46.5111 57.336H46.5109ZM46.6973 49.5074V53.0955C46.6973 53.3285 46.7439 53.7013 46.9303 53.8411C47.8157 54.5401 50.0058 53.8877 50.1922 51.8374C50.2284 51.3939 50.2646 50.9962 50.2977 50.6323C50.4352 49.1219 50.5198 48.1927 50.332 46.9911C50.1922 46.0125 49.4932 45.1737 48.6079 45.1737H47.3963C46.8371 45.1271 46.6507 45.4067 46.6507 45.9659C46.7205 46.8033 46.7119 47.693 46.7032 48.5958V48.5961V48.5964V48.5967V48.597V48.5973V48.5976V48.5979V48.5982V48.5985V48.5989V48.5992V48.5995V48.5998C46.7002 48.9014 46.6973 49.2044 46.6973 49.5074ZM46.6973 37.9509V40.9798C46.6973 41.2128 46.8371 41.5856 47.0235 41.6788C48.2351 42.3312 50.099 41.4924 50.2854 40.1411C50.4718 39.0693 50.4718 37.9509 50.4252 36.8325C50.3786 34.5492 49.7262 34.0366 47.4429 34.1298C46.8371 34.1764 46.6507 34.4094 46.6507 34.9686C46.7204 35.7004 46.7119 36.4322 46.7032 37.1835V37.1837V37.184V37.1842V37.1844V37.1847V37.1849V37.1851V37.1854V37.1856V37.1859V37.1861V37.1863V37.1866C46.7003 37.4389 46.6973 37.6934 46.6973 37.9509ZM32.7158 46.7581C32.7624 46.7581 32.8556 46.7115 32.8556 46.6649C32.886 46.5435 32.9397 46.3259 33.0112 46.0369L33.014 46.0252L33.0173 46.0118L33.0175 46.0114C33.388 44.5119 34.2153 41.1643 34.7196 39.3023C35.0224 38.0444 35.3369 36.7981 35.6513 35.5519L35.6516 35.5509C35.9661 34.3044 36.2806 33.058 36.5835 31.7999C36.7699 31.1009 37.0495 30.7747 37.8417 30.7747C38.2033 30.7806 38.5136 30.779 38.7798 30.7776C39.5658 30.7735 39.9676 30.7714 40.1703 30.9713C40.3823 31.1803 40.3765 31.6101 40.3647 32.4893V32.4894V32.4896V32.4897V32.4898V32.49V32.4901V32.4903V32.4905V32.4907V32.4909V32.4912V32.4915C40.3616 32.7249 40.358 32.99 40.358 33.291V55.8914C40.358 57.3826 40.358 57.3826 38.8669 57.3826C38.6019 57.3826 38.3676 57.3867 38.1605 57.3903H38.1602H38.1599C37.4361 57.4028 37.044 57.4096 36.8318 57.2176C36.581 56.9905 36.5817 56.4856 36.5833 55.3837V55.3836L36.5835 55.0993C36.5835 54.0355 36.5077 52.0621 36.4491 50.5373L36.4491 50.5369L36.4491 50.5367L36.449 50.5341C36.4281 49.9896 36.4094 49.5024 36.3971 49.1346C36.3971 49.0414 36.2107 48.9948 36.2107 49.1346C35.8379 50.6724 34.9526 54.4469 34.5798 56.2642C34.3934 57.103 34.0672 57.4758 33.1352 57.4292C32.8394 57.4154 32.5914 57.4118 32.3818 57.4088H32.3817H32.3816H32.3815C31.877 57.4015 31.5952 57.3974 31.4063 57.2628C31.1672 57.0923 31.0773 56.7126 30.8734 55.8521C30.8521 55.7619 30.8294 55.6664 30.8053 55.5653C30.7332 55.2691 30.6502 54.9248 30.5599 54.5506L30.5599 54.5506C30.1247 52.7462 29.5217 50.2458 29.1743 49.088C29.1277 48.9482 28.9413 48.9948 28.9413 49.1346C28.8947 50.6724 28.8947 54.4469 28.8947 56.404C28.8947 57.0098 28.4287 57.4758 27.8229 57.4758C27.4907 57.4758 27.098 57.4637 26.7127 57.4519L26.7124 57.4518C26.3411 57.4404 25.9766 57.4292 25.6794 57.4292C25.3066 57.4292 24.9804 57.103 24.9804 56.7302V31.6135C24.9804 31.1475 25.3532 30.7747 25.8192 30.7747H26.5182C26.7925 30.7747 27.0298 30.7711 27.2357 30.768C27.9415 30.7573 28.2791 30.7522 28.4771 30.916C28.6587 31.0661 28.7229 31.3582 28.846 31.9182L28.846 31.9183L28.8461 31.9185C28.8955 32.1436 28.9545 32.412 29.0345 32.7318C29.7562 35.4931 31.0062 40.3674 31.8311 43.5842C32.2312 45.1445 32.5313 46.3148 32.6226 46.6649C32.576 46.7115 32.6692 46.7581 32.7158 46.7581ZM68.2255 44.0554V31.9863C68.2255 30.8679 68.3187 30.7747 69.4371 30.7747C70.0096 30.788 70.5821 30.7937 71.1546 30.7994C72.5859 30.8137 74.0171 30.828 75.4484 30.9611C77.2657 31.1009 78.4773 32.2193 78.9899 33.8968C80.0151 37.3452 79.6889 44.1486 78.1977 45.6863C77.4521 46.4785 77.6851 47.5037 77.8715 48.2493C77.9522 48.6459 78.0309 49.0318 78.1081 49.4102L78.1083 49.4115C78.5662 51.6563 78.9707 53.6391 79.4093 56.0313C79.6423 57.2428 79.5025 57.3826 78.2909 57.336C77.8221 57.3284 77.4471 57.3372 77.145 57.3442C76.5346 57.3586 76.2217 57.3659 76.034 57.2162C75.8366 57.0589 75.7776 56.728 75.6565 56.0493V56.0492C75.6041 55.7557 75.5401 55.3972 75.4484 54.9595C74.9824 52.7228 74.5164 50.4394 74.1436 48.1561C73.9992 47.3258 73.5472 47.3624 73.0908 47.3994C72.9581 47.4102 72.825 47.421 72.699 47.4105C72.0001 47.3639 72.0001 47.8299 72.0001 48.3425V56.0779C72.0001 57.1963 71.9069 57.2895 70.7885 57.2895C70.3526 57.2826 69.9895 57.2878 69.6869 57.292C68.9478 57.3025 68.5701 57.3078 68.3779 57.1217C68.1769 56.927 68.1786 56.523 68.1822 55.6967C68.1833 55.4224 68.1847 55.1016 68.179 54.7265C68.2255 51.1856 68.2255 47.5981 68.2255 44.0571V44.0554ZM72.0467 39.0693C72.0467 39.7683 72.0583 40.2809 72.07 40.7935C72.0816 41.3061 72.0933 41.8186 72.0933 42.5176C72.0933 43.5894 72.2796 44.102 73.6776 44.102C75.3552 44.102 75.8212 43.2166 75.8678 41.4459C75.9144 39.9081 75.9144 38.3703 75.8678 36.8326C75.8212 34.5958 75.1688 34.0366 72.932 34.1298C72.2796 34.1764 72.0933 34.4094 72.0933 35.0152C72.0467 36.3666 72.0467 37.7179 72.0467 39.0693ZM22.7544 44.2951L22.7544 44.2942C22.7492 43.3418 22.7441 42.3912 22.7441 41.4457C22.7441 38.6964 22.7441 35.9004 22.6975 33.1045C22.6975 32.8144 22.7012 32.5591 22.7045 32.3346V32.3346V32.3345V32.3345V32.3344V32.3344V32.3343V32.3343V32.3343L22.7046 32.334V32.334C22.7166 31.5187 22.7226 31.1093 22.5209 30.9067C22.3174 30.7023 21.9024 30.7084 21.0688 30.7207H21.0688H21.0687H21.0687H21.0686H21.0685H21.0684H21.0683H21.0682H21.0681C20.8371 30.7241 20.574 30.728 20.2743 30.728C18.9696 30.728 18.923 30.7746 18.923 32.0793V50.8121C18.923 51.3246 18.8298 51.8838 18.7366 52.443L18.7366 52.443C18.5502 53.2818 18.0842 53.841 17.1056 53.8876C16.1736 53.9342 15.5679 53.4682 15.3349 52.4896C15.1951 51.9304 15.1485 51.3247 15.1485 50.7655V33.2443C15.1485 32.9133 15.1534 32.6258 15.1576 32.376C15.1717 31.5458 15.1788 31.1325 14.9756 30.9278C14.7741 30.7247 14.366 30.7268 13.5532 30.7309C13.2791 30.7323 12.9591 30.7339 12.5855 30.728C11.4672 30.728 11.374 30.8212 11.374 31.9395V31.9399C11.374 38.0442 11.374 44.102 11.4206 50.2063C11.4206 51.511 11.5138 57.2893 16.826 57.2893C22.7441 57.2893 22.7441 51.1849 22.7441 50.0199C22.7752 48.1234 22.7648 46.2061 22.7544 44.2958V44.2957V44.2957V44.2956V44.2955V44.2955V44.2954V44.2953V44.2953V44.2952V44.2951ZM56.4361 44.0088V32.0329C56.4361 30.8679 56.5293 30.7747 57.6943 30.7747H64.9171C65.7093 30.7747 66.0355 31.1009 65.9889 31.8465C65.984 32.1418 65.9832 32.4024 65.9825 32.6321V32.6332C65.98 33.4959 65.9788 33.9253 65.7634 34.1398C65.55 34.3524 65.1262 34.3538 64.2822 34.3565C64.0587 34.3572 63.8056 34.358 63.5192 34.3628H60.9096C60.397 34.3628 60.2107 34.5958 60.2107 35.1084V40.8401C60.2107 41.4925 60.5368 41.6323 61.096 41.6323H64.9637C65.6627 41.6323 65.9889 41.9118 65.9423 42.6108C65.9363 42.9775 65.938 43.2922 65.9395 43.5622C65.9439 44.3558 65.9462 44.7639 65.7433 44.9717C65.5285 45.1917 65.0839 45.1872 64.1687 45.1781H64.1686C63.9616 45.1761 63.7305 45.1738 63.4726 45.1738H60.9562C60.4436 45.1738 60.164 45.3136 60.164 45.9193V53.0956C60.164 53.7013 60.4902 53.7945 60.9562 53.7945H64.8239C65.5695 53.7945 65.8957 54.0741 65.8957 54.8197C65.8914 55.0925 65.8899 55.3364 65.8885 55.5543V55.5544V55.5545V55.5546C65.8825 56.5186 65.8797 56.9756 65.6501 57.1911C65.4432 57.3853 65.0521 57.3833 64.3083 57.3796C64.0567 57.3783 63.7648 57.3768 63.426 57.3827C62.7753 57.3827 62.1195 57.3775 61.4619 57.3723C60.1417 57.362 58.8144 57.3515 57.5079 57.3827C56.6225 57.4293 56.2963 57.0565 56.3429 56.2177C56.4361 52.117 56.4361 48.0629 56.4361 44.0088ZM0.0975218 32.0331V44.009C0.0975218 44.8198 0.0993858 45.6307 0.10125 46.4415C0.108706 49.6848 0.116161 52.928 0.00432417 56.1713C-0.0422747 57.0567 0.283917 57.3363 1.16929 57.3363C2.12458 57.313 3.07987 57.3246 4.03516 57.3363C4.99042 57.3479 5.94569 57.3596 6.90095 57.3363C7.36778 57.329 7.75241 57.3377 8.0693 57.3448C8.75948 57.3604 9.12837 57.3688 9.32554 57.1889C9.5519 56.9823 9.5519 56.5277 9.5519 55.5511C9.5519 55.2739 9.5519 54.9546 9.55708 54.5869C9.55708 53.7482 9.23089 53.4686 8.43871 53.5152C7.72586 53.5462 6.9924 53.5359 6.25204 53.5256C5.87926 53.5204 5.50473 53.5152 5.13019 53.5152C3.87203 53.5152 3.87203 53.5152 3.87203 52.257V33.2447C3.87203 32.948 3.87558 32.6864 3.87871 32.4557C3.89051 31.5873 3.89634 31.1574 3.68435 30.9483C3.47645 30.7433 3.05905 30.7507 2.2323 30.7653C1.98008 30.7698 1.68977 30.775 1.35569 30.775C0.144121 30.775 0.0975218 30.8681 0.0975218 32.0331ZM88.0289 52.0704C87.9357 54.7731 86.6309 56.4506 84.4874 57.0098C83.9502 57.1441 83.5582 57.1817 83.0849 57.227C82.9011 57.2446 82.7051 57.2634 82.4836 57.2894C81.8778 57.336 81.1788 57.103 81.2254 56.4506V55.0527C81.1844 54.0678 81.2156 54.0587 82.3693 53.7204C82.5257 53.6746 82.7027 53.6227 82.903 53.5615C83.6486 53.3285 84.1612 52.8159 84.2544 52.0704C84.3942 51.2316 84.4408 50.3462 84.4408 49.5074V32.0795C84.4408 30.7747 84.4874 30.7281 85.7921 30.7281C86.1343 30.7341 86.4293 30.7324 86.6836 30.7309H86.6837H86.6838C87.4238 30.7265 87.8191 30.7242 88.0294 30.9203C88.2706 31.1453 88.2683 31.6313 88.2634 32.675C88.2627 32.8357 88.2619 33.0096 88.2619 33.1978C88.2469 34.0797 88.232 35.9684 88.2139 38.2457V38.247L88.2139 38.2525L88.2139 38.2543C88.1757 43.076 88.1238 49.6346 88.0289 52.0704ZM73.3981 1.65058V13.9527H73.5379V22.4337V26.4412C73.5379 27.0469 73.6777 27.2333 74.2369 27.2333H82.3917C82.9043 27.2333 83.0907 27.0469 83.0907 26.4878V24.5772C83.0907 23.8316 82.9043 23.6452 82.1121 23.6452H78.0114C77.359 23.6452 77.3124 23.5986 77.3124 22.9928V15.6302C77.3124 15.1642 77.4522 14.9778 77.9648 14.9778H82.2519C82.8577 14.9778 83.0441 14.7915 83.0441 14.1857V12.2751C83.0441 11.5761 82.8577 11.3897 82.1587 11.3897H78.0114C77.3124 11.3897 77.2658 11.3431 77.2658 10.6442V4.8659C77.2658 4.21352 77.359 4.12032 78.0114 4.12032H82.2519C82.8577 4.12032 83.0441 3.98052 83.0441 3.37474V1.51079C83.0441 0.718607 82.8577 0.57881 82.0655 0.57881H74.4699C73.5379 0.57881 73.3981 0.718607 73.3981 1.65058ZM64.0777 15.5836V5.0523C64.0777 4.16692 64.0777 4.16692 63.1923 4.16692H60.9556C60.4896 4.16692 60.2566 3.98052 60.2566 3.46794V1.41759C60.2566 0.765206 60.3964 0.57881 61.0954 0.57881H70.7879C71.5335 0.57881 71.7199 0.765206 71.7199 1.51079V3.42134C71.7199 3.98052 71.5335 4.16692 70.9743 4.16692H68.5978C67.992 4.16692 67.8988 4.26012 67.8988 4.8659V17.0748V26.348C67.8988 27.2333 67.8056 27.3265 66.8736 27.3265H64.7301C64.2641 27.3265 64.0777 27.0935 64.0311 26.6742V26.0684C64.0777 22.6201 64.0777 19.0785 64.0777 15.5836ZM85.3277 1.60399V13.9527C85.3277 18.1466 85.3277 22.3405 85.3743 26.5344C85.3743 27.1867 85.5141 27.3731 86.1199 27.3731H94.1814C94.7872 27.3731 94.9736 27.1867 94.9736 26.581V24.3442C94.9736 23.7384 94.7872 23.552 94.1349 23.552H90.3138C89.1954 23.552 89.1954 23.552 89.1954 22.4337V1.97678V1.37099C89.1488 0.765207 89.009 0.62541 88.4032 0.62541H86.3529C85.4675 0.62541 85.3277 0.718608 85.3277 1.60399Z" fill="#F7D23A"/>
</svg>
