<svg width="348" height="212" viewBox="0 0 348 212" fill="none" xmlns="http://www.w3.org/2000/svg">
<rect x="1" y="1" width="346" height="210" fill="#FDF5E6" stroke="#274D44" stroke-width="1.5" stroke-linecap="round" stroke-linejoin="round"/>
<rect x="5" y="5" width="338" height="202" fill="#FDF5E6" stroke="#274D44" stroke-width="1.5" stroke-linecap="round" stroke-linejoin="round"/>
<g clip-path="url(#clip0)">
<path d="M16.557 129.882C16.061 130.098 15.5678 130.341 15.0718 130.558C14.2148 130.976 13.3848 131.391 12.525 131.782C11.641 132.203 10.757 132.625 9.84322 133.022C9.08857 133.374 8.30407 133.703 7.54941 134.056C6.97525 134.308 6.40393 134.586 5.82977 134.838C4.63313 135.402 3.43082 135.911 2.237 136.501C0.523023 137.338 -1.16112 138.198 -2.8751 139.035C-3.96659 139.56 -5.05807 140.085 -6.11972 140.634C-6.82039 140.981 -7.51538 141.382 -8.21321 141.756C-8.36954 141.828 -8.49602 141.923 -8.65519 141.967C-9.04884 142.118 -9.17969 142.432 -9.28069 142.771C-9.29919 142.855 -9.20118 143.008 -9.14151 143.057C-8.78635 143.32 -8.57603 143.243 -8.19087 143.011C-7.60387 142.621 -7.00839 142.313 -6.38589 142.001C-5.11675 141.348 -3.81493 140.746 -2.51879 140.091C-1.22264 139.435 0.0408537 138.728 1.33983 138.099C2.32615 137.612 3.3423 137.15 4.35845 136.688C6.31259 135.798 8.23974 134.912 10.1939 134.023C11.1319 133.596 12.0997 133.194 13.0377 132.767C14.2855 132.171 15.5035 131.55 16.7243 130.957C17.3738 130.643 18.0233 130.328 18.6429 129.99C19.2384 129.681 19.8581 129.343 20.4507 129.007C21.4044 128.469 22.3552 127.904 23.3117 127.394C25.0413 126.446 26.744 125.501 28.5063 124.605C29.2823 124.195 30.1591 123.966 30.9706 123.635C31.7551 123.306 32.5396 122.978 33.3241 122.649C34.6045 122.104 35.8878 121.586 37.1655 121.014C38.1547 120.555 39.1382 120.041 40.1301 119.609C41.5371 118.969 42.7779 118.045 44.0571 117.227C44.5687 116.9 45.1457 116.675 45.6631 116.402C46.2315 116.096 46.8 115.791 47.3089 115.436C48.0949 114.862 48.8735 114.998 49.6478 115.354C50.4492 115.707 51.2106 116.2 51.9906 116.61C54.0734 117.73 56.1562 118.849 58.2419 119.996C59.4282 120.636 60.5931 121.333 61.7553 122.003C62.5111 122.442 63.2698 122.909 64.0256 123.349C64.1151 123.421 64.2288 123.464 64.4021 123.555C63.7639 123.977 63.2253 124.307 62.7164 124.662C61.7471 125.31 60.748 125.935 59.7516 126.587C58.4995 127.402 57.2445 128.19 55.9924 129.005C54.9449 129.689 53.9571 130.422 52.9067 131.079C52.1123 131.573 51.2581 132.018 50.4039 132.463C49.1376 133.143 47.8955 133.794 46.6292 134.474C45.6457 134.987 44.6352 135.504 43.6787 136.014C42.8515 136.457 42.0272 136.926 41.2299 137.393C40.2762 137.931 39.3553 138.519 38.4286 139.054C38.1458 139.221 37.8601 139.36 37.5773 139.527C37.4991 139.562 37.3968 139.628 37.3215 139.69C37.0713 139.908 36.9034 140.39 37.0284 140.541C37.3111 140.894 37.7786 140.927 38.1339 140.67C39.0279 140.084 39.8949 139.501 40.7917 138.942C41.4839 138.514 42.176 138.086 42.8739 137.711C43.8275 137.174 44.8138 136.687 45.7703 136.176C46.4923 135.772 47.2143 135.368 47.9633 134.961C48.9198 134.451 49.9089 133.991 50.8654 133.481C51.7977 133 52.7272 132.492 53.6269 131.96C54.6772 131.302 55.6949 130.594 56.7153 129.913C57.1758 129.618 57.6037 129.272 58.0642 128.978C58.7535 128.523 59.5025 128.116 60.1918 127.661C61.6244 126.744 63.0514 125.774 64.4869 124.885C65.2814 124.391 66.1384 123.973 66.9599 123.477C67.9619 122.879 68.9638 122.282 69.9388 121.687C71.2478 120.893 72.554 120.072 73.8331 119.254C75.0853 118.439 76.3701 117.675 77.5867 116.782C78.9569 115.79 80.4577 115.003 81.9557 114.19C83.0898 113.551 84.1317 112.813 85.2331 112.123C86.0276 111.629 86.8221 111.135 87.7203 110.849C89.7567 110.225 91.6754 109.257 93.4634 108.085C94.3573 107.499 94.4113 107.493 95.2495 108.198C96.3235 109.068 97.3676 109.915 98.3904 110.818C99.4104 111.694 100.355 112.633 101.375 113.51C102.395 114.386 103.463 115.202 104.507 116.049C105.313 116.702 106.091 117.358 106.924 118.008C107.756 118.658 108.616 119.305 109.448 119.955C110.278 120.578 111.084 121.231 111.94 121.851C112.797 122.472 113.702 123.032 114.585 123.65C115.293 124.149 115.976 124.678 116.66 125.207C117.522 125.882 118.384 126.556 119.268 127.173C120.743 128.22 122.214 129.24 123.713 130.257C124.095 130.518 124.526 130.718 124.953 130.892C124.881 130.462 124.607 130.191 124.311 129.976C123.387 129.226 122.435 128.479 121.486 127.759C120.8 127.203 120.065 126.707 119.379 126.15C118.815 125.718 118.299 125.226 117.735 124.793C116.876 124.146 115.992 123.529 115.136 122.908C113.807 121.955 112.455 121.032 111.151 120.049C109.641 118.924 108.152 117.742 106.639 116.589C105.747 115.891 104.857 115.219 103.962 114.494C103.065 113.741 102.194 112.986 101.32 112.204C100.509 111.497 99.7489 110.757 98.9648 110.047C97.9718 109.168 96.9546 108.319 95.9375 107.469C95.696 107.249 95.4545 107.028 95.24 106.805C94.8763 106.461 94.4572 106.368 93.9882 106.582C93.3657 106.893 92.6864 107.183 92.0994 107.573C90.8231 108.418 89.4487 109.11 87.9651 109.539C86.6165 109.955 85.407 110.656 84.2032 111.411C83.4868 111.869 82.8302 112.376 82.0812 112.783C81.1275 113.321 80.1142 113.81 79.1336 114.351C78.6702 114.618 78.2126 114.94 77.7521 115.234C76.8851 115.817 75.9883 116.376 75.1213 116.96C74.8654 117.123 74.7248 117.083 74.5401 116.884C73.5955 115.945 72.6778 115.004 71.709 114.095C70.4987 112.965 69.2912 111.863 68.0567 110.763C67.4544 110.225 66.8094 109.801 66.2313 109.234C65.7454 108.766 65.3563 108.178 64.9458 107.647C64.693 107.319 64.0066 107.282 63.7465 107.665C63.3683 108.224 62.824 108.5 62.2825 108.803C61.5093 109.239 60.8285 109.776 60.3025 110.487C59.6315 111.378 58.9634 112.295 58.352 113.234C57.9042 113.91 57.5487 114.685 57.1307 115.385C56.7369 116.055 56.2834 116.677 55.8597 117.323C55.7176 117.529 55.5286 117.549 55.3226 117.407C54.4503 116.897 53.5779 116.388 52.7085 115.906C51.7821 115.402 50.9013 114.812 49.9565 114.392C48.9847 113.975 48.0029 113.724 46.9795 114.378C45.7757 115.133 44.4767 115.762 43.2133 116.469C42.1814 117.043 41.2448 117.742 40.1831 118.292C38.8898 118.974 37.5312 119.555 36.2052 120.187C35.189 120.649 34.1729 121.111 33.1539 121.547C32.1349 121.982 31.0889 122.42 30.0344 122.777C28.3518 123.392 26.7401 124.163 25.1995 125.09C23.99 125.792 22.7479 126.442 21.5114 127.146C19.9111 128.025 18.3108 128.904 16.7375 129.781C16.7645 129.778 16.6621 129.843 16.557 129.882C16.5868 129.906 16.6408 129.9 16.5868 129.906C16.6706 129.924 16.6138 129.903 16.557 129.882ZM74.0226 117.677C73.899 117.799 73.7781 117.948 73.6488 118.017C72.6766 118.638 71.7045 119.26 70.7053 119.885C69.1917 120.809 67.678 121.734 66.1616 122.632C65.8276 122.831 65.4851 122.949 65.0731 122.664C64.3386 122.168 63.5558 121.731 62.7999 121.292C61.4915 120.528 60.1588 119.794 58.829 119.087C58.2195 118.741 57.5859 118.425 56.9494 118.082C57.1882 117.756 57.4029 117.461 57.5905 117.168C58.1877 116.093 58.7849 115.019 59.3849 113.972C59.618 113.593 59.8512 113.213 60.1113 112.83C60.3743 112.474 60.6942 112.14 60.9572 111.784C61.1505 111.545 61.26 111.288 61.4533 111.049C62.2295 110.12 63.294 109.598 64.2605 108.922C64.4893 108.761 64.6456 108.69 64.8658 108.968C65.4908 109.722 66.1641 110.416 66.9369 111.018C67.4711 111.426 68.0507 111.747 68.4826 112.221C69.6474 113.437 71.0595 114.409 72.1277 115.745C72.693 116.45 73.355 117.036 74.0226 117.677ZM8.8639 133.835C8.91507 133.803 8.93923 133.773 8.96907 133.797C9.0259 133.818 9.05856 133.869 9.09123 133.921C9.09406 133.948 9.0429 133.98 9.01873 134.01C8.98323 133.932 8.9264 133.911 8.8639 133.835ZM2.96016 136.89C2.90049 136.841 2.87064 136.817 2.86497 136.763C2.86214 136.736 2.91049 136.676 2.93749 136.673C2.96732 136.698 3.02414 136.719 3.05397 136.743C3.03264 136.8 2.98149 136.833 2.96016 136.89ZM53.7554 116.779C53.7796 116.749 53.8038 116.719 53.8009 116.692C53.8606 116.741 53.9203 116.789 54.0041 116.808C54.0069 116.835 53.9799 116.838 53.9828 116.865C53.9259 116.843 53.8421 116.825 53.7554 116.779ZM50.735 115.048C50.7051 115.024 50.6753 115 50.6697 114.946L50.718 114.886C50.7478 114.91 50.7777 114.934 50.8075 114.958C50.7833 114.988 50.7591 115.018 50.735 115.048ZM7.91024 134.373C7.93441 134.343 7.98274 134.283 7.98557 134.31C8.01541 134.335 8.04524 134.359 8.07507 134.383C8.05091 134.413 8.02674 134.443 8.02674 134.443C7.96991 134.421 7.94008 134.397 7.91024 134.373ZM6.0456 135.335C6.07827 135.386 6.1081 135.41 6.13794 135.434C6.14077 135.461 6.11944 135.518 6.0896 135.494C6.0626 135.497 6.00577 135.476 6.00294 135.449C6.0001 135.421 6.02427 135.392 6.0456 135.335ZM-2.91795 139.668C-2.88812 139.692 -2.85827 139.716 -2.85544 139.743C-2.85261 139.77 -2.87678 139.8 -2.90095 139.83C-2.93078 139.806 -2.9606 139.782 -2.96344 139.755C-2.94211 139.698 -2.91795 139.668 -2.91795 139.668ZM-1.77963 139.329C-1.80379 139.359 -1.82795 139.389 -1.82795 139.389C-1.85495 139.392 -1.88479 139.368 -1.88762 139.341C-1.86345 139.311 -1.83928 139.281 -1.83928 139.281C-1.83928 139.281 -1.80946 139.305 -1.77963 139.329ZM-0.318638 138.684C-0.321471 138.657 -0.348482 138.659 -0.351315 138.632L-0.327138 138.602C-0.300142 138.6 -0.297301 138.627 -0.267472 138.651C-0.267472 138.651 -0.291642 138.681 -0.318638 138.684ZM12.3899 132.316C12.3899 132.316 12.387 132.289 12.414 132.286C12.4438 132.31 12.4708 132.307 12.4737 132.334C12.4737 132.334 12.4765 132.361 12.4495 132.364C12.4495 132.364 12.4197 132.34 12.3899 132.316ZM70.7415 113.459C70.7387 113.432 70.7628 113.402 70.76 113.375L70.787 113.372C70.7898 113.399 70.7927 113.426 70.7955 113.453C70.7955 113.453 70.7685 113.456 70.7415 113.459ZM0.707686 137.537C0.707686 137.537 0.734675 137.534 0.737508 137.561C0.740341 137.588 0.713353 137.591 0.716186 137.618L0.686342 137.594C0.683508 137.567 0.707686 137.537 0.707686 137.537ZM7.36441 134.895L7.36158 134.868C7.38858 134.865 7.41841 134.889 7.41841 134.889L7.39425 134.919C7.39142 134.892 7.36441 134.895 7.36441 134.895ZM22.2715 127.367C22.2744 127.394 22.307 127.445 22.3099 127.472C22.3099 127.472 22.2587 127.505 22.2317 127.507C22.2019 127.483 22.199 127.456 22.1692 127.432C22.1934 127.402 22.2204 127.399 22.2715 127.367ZM44.5625 136.112L44.5327 136.088C44.5568 136.058 44.5569 136.058 44.581 136.028L44.6108 136.053C44.5867 136.083 44.5597 136.085 44.5625 136.112ZM2.18416 137.299C2.21399 137.324 2.21682 137.351 2.24665 137.375L2.22249 137.405C2.19549 137.407 2.16566 137.383 2.13866 137.386C2.16283 137.356 2.187 137.326 2.18416 137.299ZM1.76633 137.48L1.7635 137.453C1.7635 137.453 1.7905 137.45 1.78767 137.423C1.7905 137.45 1.7905 137.45 1.79333 137.477L1.76633 137.48ZM3.3568 136.247L3.35397 136.22L3.38098 136.217L3.38381 136.244L3.3568 136.247ZM6.42927 135.349L6.40227 135.352C6.39944 135.325 6.42643 135.322 6.4236 135.295C6.4236 135.295 6.45059 135.292 6.45343 135.319C6.42642 135.322 6.42643 135.322 6.42927 135.349ZM13.9218 131.826L13.946 131.797L13.9758 131.821L13.9218 131.826ZM8.65907 134.485L8.68323 134.456L8.68607 134.483L8.65907 134.485ZM-2.6266 139.583C-2.62944 139.556 -2.62945 139.556 -2.65928 139.531C-2.63228 139.529 -2.60528 139.526 -2.57829 139.523L-2.57545 139.55C-2.59962 139.58 -2.6266 139.583 -2.6266 139.583ZM9.28723 134.228L9.31139 134.198C9.31139 134.198 9.33839 134.195 9.34122 134.222L9.31706 134.252C9.31706 134.252 9.31423 134.225 9.28723 134.228ZM48.2051 134.143L48.2321 134.141L48.208 134.171L48.2051 134.143ZM10.5564 133.575C10.5564 133.575 10.5535 133.548 10.5805 133.545L10.6075 133.542C10.5834 133.572 10.5862 133.599 10.5564 133.575C10.5592 133.602 10.5592 133.602 10.5564 133.575ZM11.8767 132.889C11.9037 132.886 11.9065 132.913 11.9335 132.911C11.9335 132.911 11.9094 132.94 11.9065 132.913C11.9065 132.913 11.9065 132.913 11.8767 132.889ZM11.0284 132.869C11.0255 132.842 11.0255 132.842 11.0227 132.815L11.0497 132.812C11.0525 132.839 11.0554 132.866 11.0284 132.869ZM11.7944 132.625C11.8185 132.595 11.8157 132.568 11.8427 132.565C11.8697 132.562 11.8995 132.586 11.9265 132.583C11.9024 132.613 11.8782 132.643 11.881 132.67C11.8512 132.646 11.8214 132.622 11.7944 132.625ZM17.3783 129.905C17.3754 129.877 17.3754 129.877 17.3456 129.853L17.3726 129.85C17.3754 129.877 17.3754 129.877 17.3783 129.905ZM46.7255 135.393L46.7013 135.422L46.6985 135.395L46.7255 135.393Z" fill="black"/>
<path d="M79.1695 142.535C79.6017 142.49 79.674 142.92 79.9369 143.083C80.0563 143.18 80.1031 143.366 80.2495 143.46C80.339 143.533 80.5011 143.516 80.6389 143.529C80.6546 143.418 80.6973 143.304 80.6348 143.228C80.3322 142.686 80.0538 142.114 79.727 141.602C79.0324 140.445 78.3135 139.317 77.6217 138.187C77.4554 137.904 77.2651 137.651 77.1259 137.365C77.0577 137.235 77.0165 137.103 76.9753 136.97C77.0265 136.938 77.0535 136.935 77.1047 136.902C77.3633 137.285 77.5977 137.698 77.8832 138.078C78.6234 139.148 79.3394 140.248 80.1066 141.316C80.2998 141.596 80.6224 141.808 80.8938 142.053C81.0459 142.201 81.2164 142.265 81.4155 142.08C81.5903 141.925 81.4411 141.804 81.346 141.677C80.6484 140.493 79.9239 139.312 79.2236 138.1C78.7548 137.275 78.3343 136.39 77.8926 135.561C77.8897 135.534 77.8897 135.534 77.8599 135.51C77.5743 135.13 77.2831 134.696 76.9463 134.349C76.6693 134.05 76.3452 134.084 75.9897 134.34C75.3784 134.76 75.0655 135.422 74.7199 136.033C74.0017 137.257 73.3702 138.526 72.652 139.75C72.3548 140.301 71.9979 140.803 71.6736 141.357C71.5797 141.504 71.3807 141.689 71.6678 141.822C71.9008 141.962 72.1751 142.234 72.441 141.905C72.8306 141.454 73.2443 140.973 73.5714 140.446C74.1773 139.453 74.7504 138.408 75.3264 137.39C75.4174 137.217 75.5383 137.067 75.6805 136.861C75.686 137.434 75.7128 137.951 75.7098 138.444C75.7027 138.636 75.6742 138.885 75.5803 139.031C74.9901 139.914 74.4 140.796 73.753 141.657C73.3235 142.249 72.8614 142.79 72.4049 143.385C72.139 143.714 72.1901 144.201 72.4828 144.388C72.7159 144.528 72.9703 144.61 73.1878 144.341C73.8377 143.507 74.5145 142.671 75.1643 141.837C75.261 141.717 75.3549 141.57 75.4516 141.451C75.8053 141.96 75.6416 142.743 75.117 143.209C74.3933 143.859 73.6994 144.534 73.0084 145.235C72.8847 145.358 72.8179 145.501 72.751 145.645C72.6117 145.879 72.5533 146.103 72.8191 146.294C73.082 146.458 73.3549 146.456 73.6051 146.239C74.2776 145.621 74.9231 145.006 75.6823 144.434C75.6453 144.602 75.6381 144.794 75.5443 144.941C75.311 145.321 75.075 145.674 74.7821 146.005C74.3925 146.456 73.946 146.886 73.4996 147.316C73.3005 147.501 73.0204 147.695 73.2378 147.945C73.3927 148.12 73.758 148.218 73.9683 148.141C74.3138 148.05 74.618 147.827 74.9251 147.63C75.181 147.467 75.3744 147.228 75.727 146.944C75.7211 147.41 75.6741 147.743 75.684 148.097C75.7063 149.353 75.7286 150.608 75.7751 151.833C75.8046 152.896 75.8313 153.933 75.8608 154.996C75.8607 155.515 75.8633 156.062 75.8902 156.578C75.8943 156.879 76.3064 157.163 76.7385 157.118C77.0356 157.086 77.148 156.856 77.1438 156.556C77.0716 155.606 77.0023 154.684 76.9571 153.732C76.9121 152.26 76.8941 150.786 76.8491 149.314C76.8294 148.605 76.8098 147.897 76.7901 147.188C76.7902 146.668 76.7634 146.152 76.7906 145.629C76.8063 145.518 76.8759 145.402 76.9485 145.312C77.2329 144.899 77.2315 144.626 76.9971 144.213C76.8664 144.008 76.8381 143.738 76.7586 143.5C76.8126 143.495 76.8368 143.465 76.8908 143.459C77.1707 143.785 77.4534 144.138 77.7333 144.464C78.2661 145.118 78.7989 145.773 79.3289 146.401C79.6117 146.754 80.0253 146.792 80.3267 146.542C80.5556 146.381 80.7276 146.199 80.3994 145.933C80.3397 145.884 80.3042 145.806 80.2715 145.755C80.2928 145.698 80.317 145.668 80.3142 145.641C80.978 145.461 81.0719 145.315 80.7068 144.697C80.2437 143.926 79.708 143.244 79.1695 142.535C79.1639 142.481 79.1582 142.427 79.1554 142.4C79.1525 142.373 79.1739 142.316 79.1711 142.289C79.1981 142.286 79.2251 142.283 79.2251 142.283C79.2307 142.337 79.2336 142.364 79.2392 142.419C79.2421 142.446 79.1937 142.505 79.1695 142.535ZM77.9316 142.447C77.788 142.38 77.6175 142.316 77.5223 142.189C77.2694 141.861 76.9141 141.597 76.8418 141.168C76.866 141.138 76.9171 141.105 76.9441 141.102C77.2922 141.558 77.6133 142.016 77.9316 142.447C77.9372 142.501 77.9671 142.525 77.9727 142.579C78.0082 142.658 78.0139 142.712 78.0494 142.79C77.9954 142.796 77.9442 142.828 77.9144 142.804C77.8817 142.753 77.8192 142.678 77.8135 142.624C77.8349 142.567 77.9102 142.504 77.9316 142.447ZM79.4758 144.936C79.5028 144.933 79.5326 144.958 79.5326 144.958C79.5085 144.987 79.4843 145.017 79.4843 145.017C79.4573 145.02 79.4274 144.996 79.3976 144.972C79.4246 144.969 79.4516 144.966 79.4758 144.936ZM77.3841 138.787C77.3543 138.762 77.2946 138.714 77.2917 138.687C77.2889 138.66 77.3373 138.6 77.3643 138.597C77.4211 138.619 77.4509 138.643 77.4808 138.667C77.4594 138.724 77.4353 138.754 77.3841 138.787ZM76.0514 150.3L76.0485 150.273C76.0756 150.271 76.1026 150.268 76.1054 150.295L76.1082 150.322C76.1054 150.295 76.0784 150.298 76.0514 150.3ZM80.0351 142.717C80.0621 142.715 80.0863 142.685 80.0863 142.685C80.1133 142.682 80.1161 142.709 80.146 142.733C80.119 142.736 80.0948 142.766 80.0948 142.766C80.0678 142.769 80.0379 142.744 80.0351 142.717ZM79.2154 145.839C79.2154 145.839 79.1884 145.841 79.1855 145.814C79.2126 145.812 79.2097 145.785 79.2367 145.782C79.2097 145.785 79.2367 145.782 79.2154 145.839C79.2396 145.809 79.2126 145.812 79.2154 145.839ZM76.0775 152.895C76.0804 152.922 76.1102 152.946 76.1102 152.946C76.0832 152.949 76.0832 152.949 76.0562 152.952C76.0804 152.922 76.0775 152.895 76.0775 152.895ZM76.6404 153.054C76.6702 153.079 76.6702 153.079 76.7 153.103L76.6759 153.133C76.6489 153.136 76.6489 153.136 76.6219 153.138C76.619 153.111 76.6162 153.084 76.6404 153.054Z" fill="black"/>
<path d="M101.678 136.447C101.908 136.559 102.112 136.674 102.369 136.784C102.426 136.805 102.504 136.77 102.585 136.761C102.576 136.68 102.568 136.599 102.535 136.548C102.282 136.219 102.03 135.89 101.752 135.591C100.585 134.347 99.3896 133.106 98.1974 131.892C98.1349 131.817 98.0966 131.712 98.1094 131.574C98.4405 131.867 98.7986 132.157 99.1297 132.45C99.8813 133.109 100.606 133.771 101.358 134.43C101.596 134.624 101.835 134.817 102.074 135.011C102.134 135.059 102.223 135.132 102.277 135.126C102.442 135.136 102.601 135.092 102.79 135.072C102.749 134.939 102.729 134.75 102.61 134.653C102.115 134.104 101.594 133.558 101.075 133.038C100.25 132.196 99.4001 131.383 98.5475 130.543C98.485 130.468 98.4708 130.333 98.4325 130.227C98.5192 130.273 98.6329 130.315 98.7224 130.388C99.6673 131.327 100.688 132.204 101.826 132.904C101.913 132.95 102.048 132.936 102.156 132.924C102.177 132.867 102.201 132.837 102.249 132.778C101.32 131.727 100.394 130.704 99.4916 129.651C99.3964 129.524 99.3254 129.368 99.2572 129.238C99.3084 129.205 99.3326 129.175 99.3837 129.143C99.8072 129.536 100.179 129.961 100.627 130.324C101.077 130.714 101.555 131.101 102.027 131.434C102.146 131.531 102.473 131.524 102.546 131.434C102.693 131.282 102.59 131.074 102.408 130.902C101.672 130.132 100.96 129.332 100.221 128.535C99.944 128.236 99.6968 127.961 99.7595 127.517C99.8065 127.184 99.4981 127.108 99.2465 127.052C98.941 127.002 98.276 126.389 98.2988 126.086C98.306 125.894 98.451 125.714 98.569 125.538C98.6871 125.361 98.8648 125.233 98.9828 125.057C99.1947 124.734 99.1792 124.325 98.868 124.221C98.6136 124.139 98.2326 124.151 98.0279 124.282C97.546 124.634 97.1024 125.091 96.6858 125.545C96.417 125.847 96.2947 126.242 96.0828 126.565C95.1115 127.98 94.1403 129.395 93.1961 130.807C92.8661 131.306 92.5931 131.827 92.293 132.351C92.8345 132.567 93.1302 132.262 93.3478 131.994C94.0274 131.184 94.6801 130.377 95.3299 129.543C95.7138 129.037 96.0708 128.535 96.476 127.973C96.8381 129.083 96.6091 129.763 95.7645 130.563C94.8446 131.426 93.9602 132.366 93.046 133.283C92.9465 133.375 92.8796 133.519 92.81 133.636C92.7673 133.75 92.7573 133.915 92.8226 134.017C92.9235 134.198 93.1154 134.205 93.2931 134.077C93.3684 134.014 93.4708 133.949 93.6058 133.935C93.4906 134.138 93.3726 134.315 93.2332 134.548C94.6759 134.505 95.3514 133.395 96.25 132.59C96.3523 132.524 96.4248 132.435 96.4974 132.345C96.5542 132.366 96.5812 132.363 96.6381 132.385C96.5637 133.76 96.4865 135.107 96.4392 136.479C96.4218 137.356 96.4315 138.23 96.4141 139.107C96.4081 140.092 96.4021 141.076 96.3421 142.067C96.2636 143.142 96.1282 144.195 96.0227 145.272C96.0027 145.602 96.0097 145.93 96.0977 146.248C96.1502 146.489 96.2056 146.757 96.5438 146.858C96.9389 146.98 97.1706 146.846 97.1523 146.411C97.1226 145.867 97.066 145.326 97.0931 144.804C97.1773 143.783 97.3425 142.754 97.4239 141.707C97.4781 141.182 97.4512 140.665 97.4514 140.146C97.4474 139.326 97.4192 138.536 97.4422 137.713C97.5038 136.477 97.6193 135.234 97.705 133.967C97.7093 133.748 97.6838 133.505 97.6611 133.289C97.6555 133.234 97.6981 133.121 97.7763 133.085C97.8005 133.055 97.917 133.125 97.9767 133.173C98.7639 133.911 99.5241 134.651 100.308 135.361C100.735 135.781 101.233 136.111 101.678 136.447C102.039 136.245 102.039 136.245 102.154 136.561C102.014 136.521 101.846 136.484 101.678 136.447ZM97.6573 127.52C97.7355 127.485 97.7895 127.479 97.8677 127.443C97.9117 127.603 97.9827 127.759 97.9997 127.922C98.0026 127.949 97.8704 127.99 97.8192 128.023C97.7752 127.863 97.7283 127.677 97.6573 127.52ZM94.7344 133.761C94.7103 133.791 94.7131 133.818 94.6889 133.848C94.6889 133.848 94.6349 133.854 94.6321 133.827C94.6562 133.797 94.6534 133.77 94.6776 133.74C94.6776 133.74 94.7046 133.737 94.7344 133.761ZM93.2171 131.789C93.2441 131.786 93.2711 131.783 93.2952 131.753C93.2981 131.78 93.2981 131.78 93.3009 131.807C93.2739 131.81 93.2469 131.813 93.2227 131.843C93.1929 131.818 93.2171 131.789 93.2171 131.789ZM92.9655 131.733C92.9627 131.706 92.9897 131.703 92.9868 131.676L92.9897 131.703L92.9655 131.733ZM94.0634 134.133L94.0606 134.106L94.0634 134.133ZM101.258 134.003C101.285 134 101.288 134.027 101.315 134.024L101.288 134.027C101.261 134.03 101.261 134.03 101.258 134.003Z" fill="black"/>
<path d="M60.7862 140.342C60.9297 140.409 61.0946 140.419 61.1869 140.518C61.4938 140.841 61.7467 141.17 62.0536 141.493C62.1758 141.617 62.325 141.738 62.4898 141.748C62.7954 141.798 62.9888 141.559 62.8496 141.273C62.6394 140.83 62.3993 140.363 62.1379 139.953C61.4902 138.983 60.8424 138.012 60.1946 137.042C60.0994 136.915 60.0796 136.726 60.0356 136.566C60.0867 136.533 60.1137 136.531 60.1649 136.498C60.5372 136.923 60.9094 137.349 61.3086 137.772C61.678 138.17 62.0233 138.598 62.3927 138.997C62.637 139.245 63.126 139.22 63.3165 138.954C63.3648 138.894 63.345 138.705 63.2825 138.63C62.8663 138.045 62.4258 137.49 62.0124 136.932C61.4357 136.118 60.8831 135.274 60.3333 134.457C60.2324 134.276 60.2069 134.033 60.1814 133.79C60.1773 133.489 59.9712 133.347 59.7439 133.262C59.2024 133.045 58.5713 133.276 58.3011 133.824C57.745 135.031 56.8635 135.998 56.0417 137.015C55.5852 137.609 55.2155 138.25 55.0191 138.981C54.9024 139.431 55.0771 139.795 55.4069 139.815C55.5717 139.825 55.8333 139.716 55.876 139.602C56.4179 138.26 57.4344 137.278 58.2719 136.151C58.4653 135.912 58.6586 135.672 58.9387 135.479C58.8945 135.839 58.8532 136.226 58.809 136.586C58.7933 136.697 58.7237 136.814 58.6483 136.876C57.8138 137.511 57.2806 138.415 56.6549 139.219C56.4402 139.515 56.1687 139.79 55.9511 140.059C55.5459 140.621 55.6964 141.015 56.4212 141.157C56.2464 141.313 56.1553 141.486 55.9748 141.587C55.7459 141.748 55.7899 141.907 55.8908 142.088C55.9945 142.296 56.1195 142.447 56.4379 142.359C57.0477 142.185 57.5268 141.806 57.9433 141.352C58.067 141.23 58.2177 141.105 58.3414 140.982C58.3741 141.034 58.4309 141.055 58.4636 141.106C58.1949 141.408 57.9262 141.71 57.6546 141.984C57.0632 142.593 56.4689 143.176 55.9045 143.782C55.7054 143.967 55.7039 144.213 55.8104 144.448C55.9411 144.653 56.0931 144.801 56.3462 144.61C56.9248 144.139 57.5304 143.665 58.109 143.194C58.2597 143.069 58.4132 142.971 58.6123 142.786C58.6378 143.029 58.6818 143.188 58.6718 143.353C58.6004 144.236 58.5021 145.121 58.4037 146.006C58.3881 146.117 58.3184 146.234 58.2785 146.375C58.1804 146.741 58.3196 147.027 58.6578 147.128C58.9392 147.207 59.2732 147.008 59.3472 146.672C59.4768 146.085 59.6063 145.497 59.6548 144.917C59.7447 143.951 59.7535 142.993 59.7865 142.006C59.8022 141.895 59.8178 141.784 59.8605 141.67C59.8819 141.613 59.9544 141.523 60.0084 141.517C60.0624 141.512 60.1249 141.587 60.1846 141.636C60.5 142.04 60.8154 142.444 61.1308 142.848C61.3538 143.153 61.6835 143.173 62.0019 143.084C62.3501 143.02 62.417 142.877 62.2181 142.542C61.7607 141.825 61.2734 141.083 60.7862 140.342C60.7777 140.261 60.7692 140.18 60.7635 140.126L60.7905 140.123C60.799 140.204 60.7777 140.261 60.7862 140.342ZM57.5429 140.137C57.5131 140.113 57.5131 140.113 57.4832 140.089C57.7008 139.82 57.8913 139.553 58.1089 139.285C58.1089 139.285 58.1089 139.285 58.1387 139.309C57.9212 139.578 57.7335 139.871 57.5429 140.137Z" fill="black"/>
<path d="M24.5672 141.94C24.6922 142.091 24.7789 142.137 24.8144 142.215C25.1041 142.895 25.6227 143.415 26.1143 143.937C26.2039 144.01 26.3232 144.107 26.4341 144.122C26.599 144.132 26.7553 144.061 26.9444 144.041C26.9274 143.879 26.9345 143.687 26.8393 143.56C26.3734 142.762 25.8563 141.996 25.3932 141.225C25.2298 140.968 25.1204 140.707 25.0381 140.442C25.0026 140.364 25.0453 140.25 25.0609 140.139C25.1476 140.184 25.2613 140.227 25.2968 140.305C25.5909 140.766 25.8338 141.26 26.1549 141.718C26.2827 141.896 26.4916 142.066 26.6948 142.181C26.7815 142.227 27.0701 142.114 27.1156 142.027C27.1768 141.829 27.2024 141.553 27.1286 141.37C26.64 140.355 26.1244 139.343 25.5817 138.334C25.3473 137.921 25.0348 137.544 24.7492 137.164C24.4665 136.811 24.4438 136.595 24.7282 136.182C25.0311 135.685 24.9758 135.418 24.5125 135.166C24.1359 134.96 23.7421 135.11 23.5444 135.569C22.9073 136.784 22.3 138.024 21.66 139.212C21.2504 139.994 20.8408 140.775 20.3473 141.538C20.2079 141.771 20.2221 141.906 20.3713 142.027C20.6044 142.167 20.5347 142.284 20.4138 142.433C20.2688 142.612 20.0641 142.743 20.2601 143.051C20.4562 143.358 20.7262 143.33 20.9338 143.226C21.3517 143.045 21.7341 142.786 22.1464 142.551C22.1976 142.518 22.2786 142.51 22.3596 142.501C22.3383 142.558 22.3496 142.666 22.2984 142.699C21.9515 143.036 21.6018 143.347 21.279 143.654C21.1312 143.806 20.9563 143.961 20.8653 144.135C20.7984 144.279 20.7187 144.561 20.8111 144.66C20.9063 144.787 21.1877 144.867 21.317 144.798C21.6838 144.65 22.0449 144.448 22.3463 144.198C22.6775 143.971 22.9463 143.67 23.3472 143.327C23.3954 143.786 23.4621 144.162 23.4747 144.544C23.4515 145.886 23.4284 147.228 23.3782 148.573C23.3682 148.738 23.307 148.936 23.297 149.101C23.3225 149.344 23.3508 149.614 23.4304 149.852C23.4687 149.957 23.6151 150.051 23.7259 150.067C23.834 150.056 23.9847 149.93 24.0032 149.846C24.1384 149.313 24.2977 148.749 24.3491 148.197C24.4361 147.204 24.4421 146.219 24.4751 145.231C24.4795 145.012 24.5406 144.814 24.5877 144.481C24.9826 145.123 25.3392 145.659 25.6687 146.199C25.9003 146.584 26.2712 146.737 26.638 146.589C26.8753 146.509 26.9365 146.311 26.8087 146.133C26.4408 145.489 26.0188 144.85 25.6481 144.178C25.283 143.56 24.9179 142.942 24.5798 142.322C24.5471 142.271 24.5628 142.16 24.5672 141.94ZM21.8085 141.411C21.7787 141.387 21.7488 141.363 21.719 141.338C22.0461 140.812 22.3461 140.288 22.6704 139.735C22.6917 139.678 22.7969 139.639 22.8239 139.636C22.9731 139.757 23.1223 139.878 23.2232 140.059C23.2587 140.137 23.1705 140.338 23.0681 140.403C22.67 140.773 22.2393 141.092 21.8085 141.411ZM23.8698 149.095C23.894 149.065 23.9181 149.035 23.9153 149.008C23.9451 149.032 23.975 149.057 23.9807 149.111C23.9835 149.138 23.9593 149.168 23.9622 149.195C23.9295 149.143 23.8996 149.119 23.8698 149.095ZM23.8266 146.338C23.7968 146.314 23.794 146.287 23.7641 146.263C23.7883 146.233 23.8153 146.23 23.8665 146.197C23.8693 146.224 23.8991 146.249 23.902 146.276C23.8778 146.306 23.8508 146.308 23.8266 146.338Z" fill="black"/>
<path d="M34.2238 128.62C34.7355 128.293 35.25 127.992 35.7021 127.617C36.7355 126.797 37.739 125.953 38.7454 125.136C38.9714 124.948 39.2003 124.788 39.3965 124.576C39.5685 124.393 39.7916 124.179 39.5715 123.901C39.3811 123.648 39.0401 123.52 38.7274 123.662C38.3877 123.807 38.0807 124.004 37.8035 124.224C36.881 125.059 35.9883 125.919 35.0657 126.754C34.6677 127.124 34.2426 127.497 33.8745 127.891C33.7778 128.011 33.7464 128.233 33.7663 128.422C33.799 128.473 34.0235 128.532 34.2238 128.62ZM35.0599 127.22C35.03 127.195 35.003 127.198 35.0002 127.171C34.9974 127.144 35.0215 127.114 35.0457 127.084C35.0755 127.109 35.1025 127.106 35.1054 127.133C35.1082 127.16 35.057 127.193 35.0599 127.22Z" fill="black"/>
<path d="M43.8891 126.29C43.6063 126.457 43.2936 126.599 43.0704 126.814C42.2558 127.638 41.4953 128.456 40.7134 129.331C40.4205 129.663 40.1305 130.022 39.8703 130.404C39.8248 130.491 39.8418 130.653 39.8802 130.759C39.9128 130.81 40.0805 130.847 40.1587 130.811C40.3449 130.764 40.5552 130.687 40.7357 130.586C42.0875 129.679 43.2546 128.571 44.3918 127.44C44.6633 127.165 44.5838 126.928 44.5015 126.663C44.4163 126.371 44.2132 126.256 43.9005 126.398C43.9246 126.368 43.9218 126.341 43.8891 126.29Z" fill="black"/>
<path d="M88.0352 118.553C87.9842 118.066 87.7782 117.924 87.3546 118.05C86.7719 118.221 86.6665 118.779 86.4688 119.237C86.2284 119.81 85.9881 120.382 85.7775 120.978C85.6467 121.292 85.5727 121.628 85.439 121.916C85.3323 122.2 85.5141 122.373 85.6633 122.494C85.75 122.539 86.0656 122.424 86.1324 122.28C86.5561 121.634 86.923 120.967 87.2899 120.299C87.5175 119.865 87.7152 119.407 87.9129 118.948C88.0067 118.802 88.0167 118.637 88.0352 118.553Z" fill="black"/>
<path d="M101.91 119.415C101.38 118.788 100.877 118.157 100.323 117.56C99.799 116.986 99.2776 116.44 98.705 115.926C98.4336 115.681 98.0599 115.502 97.7161 115.347C97.6024 115.304 97.3082 115.362 97.311 115.389C97.2498 115.587 97.2 115.893 97.3193 115.99C97.7541 116.491 98.2399 116.959 98.7472 117.37C99.6124 118.072 100.502 118.744 101.388 119.388C101.508 119.485 101.697 119.465 101.84 119.532C101.865 119.502 101.886 119.445 101.91 119.415Z" fill="black"/>
<path d="M11.1371 141.687C11.1938 142.227 11.4779 142.334 11.8333 142.078C12.3905 141.664 12.9151 141.199 13.4424 140.76C13.7708 140.507 14.0963 140.227 14.4275 140C14.8099 139.741 14.871 139.543 14.7262 139.203C14.6197 138.969 14.1352 138.774 13.9035 138.907C13.5666 139.08 13.2056 139.282 12.9611 139.553C12.418 140.103 11.9318 140.673 11.4456 141.244C11.2679 141.372 11.1826 141.6 11.1371 141.687ZM11.8021 141.781L11.7993 141.754C11.8263 141.751 11.8263 141.751 11.8561 141.775L11.832 141.805C11.832 141.805 11.8291 141.778 11.8021 141.781Z" fill="black"/>
<path d="M77.9973 123.574C78.0356 123.679 78.0469 123.788 78.0853 123.893C78.162 124.104 78.3026 124.143 78.4448 123.937C78.6354 123.671 78.8231 123.378 78.9838 123.087C79.345 122.366 79.7062 121.644 80.0405 120.926C80.1557 120.722 80.268 120.491 80.2994 120.269C80.3122 120.131 80.1787 119.899 80.0593 119.803C79.94 119.706 79.6884 119.65 79.5591 119.719C79.2492 119.888 78.9719 120.109 78.8468 120.477C78.5864 121.38 78.2962 122.258 78.0358 123.16C77.9931 123.274 78.0073 123.409 77.9973 123.574Z" fill="black"/>
<path d="M107.892 127.782C108.118 128.114 108.347 128.472 108.624 128.771C109.303 129.52 110.006 130.239 110.909 130.772C111.112 130.888 111.361 130.916 111.588 131.001C111.508 130.764 111.456 130.523 111.325 130.318C110.588 129.275 109.751 128.324 108.742 127.556C108.653 127.483 108.566 127.438 108.453 127.395C108.339 127.352 108.138 127.264 108.063 127.327C107.991 127.417 107.981 127.582 107.968 127.72C107.944 127.75 107.919 127.779 107.892 127.782Z" fill="black"/>
<path d="M22.2729 127.363C22.2217 127.395 22.2217 127.395 22.1947 127.398C22.2246 127.422 22.2302 127.476 22.2572 127.474L22.3354 127.438C22.3084 127.441 22.2786 127.417 22.2729 127.363Z" fill="white"/>
<path d="M44.5649 136.117C44.562 136.09 44.5892 136.087 44.5863 136.06L44.5563 136.036C44.532 136.066 44.532 136.066 44.5077 136.096C44.5348 136.093 44.5377 136.12 44.5649 136.117Z" fill="white"/>
<path d="M48.2073 134.147L48.2101 134.174L48.2312 134.117L48.2073 134.147Z" fill="white"/>
<path d="M16.5593 129.878C16.6158 129.899 16.6455 129.923 16.589 129.902C16.6723 129.921 16.6158 129.899 16.5593 129.878C16.5621 129.905 16.5593 129.878 16.5593 129.878Z" fill="white"/>
<path d="M17.3805 129.9C17.3777 129.874 17.3778 129.874 17.4016 129.844L17.3749 129.847C17.3483 129.85 17.3511 129.876 17.3805 129.9Z" fill="white"/>
<path d="M46.7275 135.397L46.702 135.4L46.7047 135.425L46.7275 135.397Z" fill="white"/>
<path d="M77.9336 142.474C77.6126 142.016 77.2915 141.558 76.9733 141.126C76.9491 141.156 76.898 141.189 76.8709 141.192C76.9433 141.622 77.2744 141.915 77.5514 142.214C77.6167 142.316 77.7873 142.38 77.9336 142.474C77.9308 142.447 77.9336 142.474 77.9336 142.474Z" fill="white"/>
<path d="M77.9308 142.447C77.9095 142.504 77.8341 142.567 77.8398 142.621C77.8454 142.675 77.881 142.753 77.9406 142.801C77.9435 142.828 78.0216 142.793 78.0757 142.787C78.0402 142.709 78.0345 142.655 77.999 142.577C77.9691 142.552 77.9365 142.501 77.9308 142.447Z" fill="white"/>
<path d="M79.4748 144.937C79.4478 144.94 79.4236 144.969 79.3966 144.972C79.4265 144.996 79.4563 145.021 79.4833 145.018C79.5103 145.015 79.5345 144.985 79.5316 144.958C79.5316 144.958 79.5046 144.961 79.4748 144.937Z" fill="white"/>
<path d="M77.3829 138.786C77.434 138.754 77.4582 138.724 77.4824 138.694C77.4525 138.67 77.3929 138.621 77.3659 138.624C77.3389 138.627 77.2905 138.687 77.2934 138.714C77.2962 138.741 77.353 138.762 77.3829 138.786Z" fill="white"/>
<path d="M76.053 150.3C76.0796 150.297 76.1091 150.321 76.1091 150.321L76.1063 150.295C76.0797 150.297 76.0502 150.274 76.0502 150.274C76.0502 150.274 76.0502 150.274 76.053 150.3Z" fill="white"/>
<path d="M80.033 142.718C80.063 142.743 80.0659 142.77 80.0931 142.767C80.1203 142.764 80.1446 142.734 80.1446 142.734C80.1145 142.71 80.1117 142.682 80.0845 142.685C80.0545 142.661 80.0302 142.691 80.033 142.718Z" fill="white"/>
<path d="M79.1683 142.536C79.1896 142.479 79.2138 142.449 79.2351 142.392C79.2323 142.365 79.2266 142.311 79.2209 142.257C79.2209 142.257 79.1939 142.259 79.1669 142.262C79.1698 142.289 79.1484 142.346 79.1513 142.373C79.1569 142.427 79.1896 142.479 79.1683 142.536Z" fill="white"/>
<path d="M79.2148 145.839C79.2119 145.812 79.2388 145.809 79.2148 145.839C79.2388 145.809 79.236 145.782 79.2091 145.785C79.1823 145.788 79.1851 145.815 79.1583 145.818C79.1851 145.815 79.1851 145.815 79.2148 145.839Z" fill="white"/>
<path d="M97.656 127.52C97.7028 127.706 97.7468 127.866 97.8207 128.049C97.8718 128.017 98.004 127.975 98.0012 127.948C97.9572 127.789 97.9132 127.629 97.8692 127.47C97.8152 127.476 97.7342 127.484 97.656 127.52Z" fill="white"/>
<path d="M101.677 136.447C101.845 136.484 102.012 136.521 102.153 136.561C102.038 136.245 102.038 136.245 101.677 136.447Z" fill="white"/>
<path d="M94.735 133.761C94.7078 133.764 94.6778 133.739 94.6778 133.739C94.6535 133.769 94.6563 133.797 94.632 133.827C94.6592 133.824 94.6892 133.848 94.6892 133.848C94.7136 133.818 94.7107 133.791 94.735 133.761Z" fill="white"/>
<path d="M93.217 131.788C93.2198 131.815 93.2198 131.815 93.2227 131.842C93.2498 131.839 93.277 131.837 93.3014 131.807C93.3014 131.807 93.2985 131.779 93.2957 131.752C93.2685 131.755 93.2441 131.785 93.217 131.788Z" fill="white"/>
<path d="M92.9665 131.731C92.9932 131.728 92.9931 131.728 92.9903 131.702L92.9875 131.675C92.9609 131.678 92.9637 131.705 92.9665 131.731Z" fill="white"/>
<path d="M94.0644 134.131L94.0882 134.102L94.0588 134.078L94.0644 134.131Z" fill="white"/>
<path d="M101.258 134.003C101.261 134.03 101.261 134.03 101.287 134.027L101.314 134.025C101.287 134.027 101.261 134.03 101.258 134.003Z" fill="white"/>
<path d="M57.5432 140.137C57.7309 139.843 57.9214 139.577 58.1361 139.281C58.1361 139.281 58.1361 139.281 58.1063 139.257C57.8888 139.526 57.6982 139.792 57.4807 140.061C57.4864 140.115 57.5134 140.112 57.5432 140.137Z" fill="white"/>
<path d="M60.7857 140.342C60.7772 140.261 60.7985 140.204 60.79 140.123L60.763 140.126C60.7687 140.18 60.7772 140.261 60.7857 140.342Z" fill="white"/>
<path d="M21.8087 141.411C22.2394 141.092 22.6673 140.746 23.0682 140.403C23.1705 140.338 23.2587 140.137 23.2232 140.059C23.1522 139.902 22.976 139.784 22.824 139.636C22.8212 139.609 22.6918 139.677 22.6705 139.734C22.3434 140.261 22.0164 140.787 21.7192 141.338C21.749 141.362 21.7789 141.387 21.8087 141.411Z" fill="white"/>
<path d="M23.8708 149.095C23.9007 149.12 23.9305 149.144 23.9604 149.168C23.9575 149.141 23.9817 149.111 23.9789 149.084C23.976 149.057 23.9462 149.033 23.9135 148.982C23.9192 149.036 23.895 149.065 23.8708 149.095Z" fill="white"/>
<path d="M23.8273 146.338C23.8543 146.336 23.8785 146.306 23.9055 146.303C23.9026 146.276 23.8728 146.252 23.87 146.225C23.8458 146.254 23.8188 146.257 23.7676 146.29C23.7946 146.287 23.7975 146.314 23.8273 146.338Z" fill="white"/>
<path d="M35.06 127.22C35.0842 127.19 35.1084 127.16 35.1055 127.133C35.1027 127.106 35.0487 127.111 35.0459 127.084C35.0217 127.114 34.9975 127.144 35.0003 127.171C34.9762 127.201 35.0302 127.195 35.06 127.22Z" fill="white"/>
</g>
<path d="M108.165 153.007C110.395 149.675 112.559 146.462 114.719 143.308C116.486 140.739 118.314 138.173 120.141 135.607C123.075 131.526 126.064 127.569 128.878 123.481C130.118 121.732 131.009 119.721 132.132 117.905C133.852 115.091 135.571 112.278 137.348 109.527C138.801 107.184 140.25 104.9 141.7 102.617C143.68 99.454 145.662 96.2306 147.464 92.9978C148.6 90.94 149.437 88.806 150.455 86.6815C150.728 86.0909 150.886 85.3732 151.274 84.9096C152.051 83.9219 152.705 84.1376 153.377 85.1408C154.111 86.1472 155.031 87.0424 156.018 87.82C157.351 88.9183 159.005 89.6704 159.947 91.2927C160.169 91.6673 160.271 92.0356 160.43 92.4674C161.116 94.3787 162.052 96.1217 163.426 97.5851C165.946 100.258 168.647 102.94 171.095 105.851C173.031 108.131 174.586 110.753 176.456 113.15C178.211 115.42 180.033 117.572 181.915 119.728C183.226 121.248 184.66 122.715 186.031 124.238C187.403 125.762 188.77 127.346 190.202 128.873C190.545 129.254 191.008 129.641 191.414 129.965C194.228 127.027 197.163 124.096 199.984 121.037C201.843 119.018 203.591 116.81 205.393 114.727C207.001 112.875 208.667 111.087 210.218 109.172C211.9 107.082 213.527 104.869 215.151 102.716C215.992 101.671 216.893 100.629 217.734 99.5843C218.314 98.8888 218.955 98.1964 219.536 97.5009C220.373 96.5164 221.452 96.6939 221.751 97.9195C222.208 99.5768 222.723 101.298 223.862 102.628C224.548 103.39 225.297 104.094 226.042 104.859C227.531 106.45 228.956 108.097 230.448 109.627C231.479 110.71 232.635 111.738 233.726 112.824C235.221 110.845 236.594 108.861 238.146 106.946C239.954 104.742 241.823 102.541 243.805 100.467C247.511 96.6682 251.045 92.6792 254.056 88.2998C256.089 85.2606 258.297 82.3515 260.566 79.4456C262.441 77.1241 264.608 74.9993 266.6 72.7444C267.051 72.2235 267.593 72.252 268.063 72.5186C268.767 72.9185 269.345 73.4327 269.986 73.8898C270.161 74.0199 270.392 74.2135 270.567 74.3437C273.423 76.3687 276.41 78.2191 279.136 80.4189C281.63 82.425 283.741 84.8344 286.102 87.0755C288.061 88.9325 290.079 90.7927 292.101 92.5925C295.395 95.4875 298.877 98.2712 302.105 101.284C304.063 103.141 305.634 105.461 307.529 107.376C309.132 109.093 310.925 110.639 312.718 112.185C315.21 114.251 317.821 116.324 320.38 118.273C323.344 120.545 326.438 122.643 329.402 124.916C331.145 126.278 332.884 127.7 334.496 129.236C335.534 130.198 336.382 131.332 337.407 132.535C337.213 132.767 337.004 133.3 336.636 133.402C336.017 133.672 335.49 133.342 335.036 132.773C332.884 129.999 330.412 127.57 327.559 125.485C324.823 123.466 322.024 121.505 319.352 119.429C317.435 117.937 315.645 116.331 313.791 114.782C312.226 113.49 310.468 112.43 309.031 111.023C306.558 108.595 304.095 105.986 301.877 103.329C299.998 101.113 297.922 99.1891 295.596 97.4338C293.793 96.0689 291.933 94.6406 290.321 93.1042C286.75 89.7108 283.307 86.203 279.673 82.8668C277.711 81.0701 275.49 79.6228 273.395 78.0611C271.881 76.9534 270.364 75.9059 268.911 74.8013C268.155 74.2173 267.562 74.0047 266.851 74.8749C264.212 77.9428 261.455 80.9441 258.872 84.0755C257.384 85.9334 256.303 88.1151 254.875 89.9761C252.353 93.1107 249.713 96.1786 247.074 99.2466C244.498 102.257 241.864 105.205 239.349 108.219C237.8 110.073 236.427 112.058 234.996 113.979C237.056 116.205 239.001 118.303 240.947 120.401C242.15 121.674 243.477 122.893 244.74 124.169C245.889 125.319 247.098 126.471 248.244 127.68C249.796 129.214 251.348 130.747 252.9 132.28C254.512 133.816 256.128 135.292 257.676 136.886C259.514 138.737 261.349 140.648 263.183 142.559C265.246 144.724 267.373 146.832 269.372 149.054C270.743 150.577 271.984 152.276 273.289 153.917C274.028 154.803 274.768 155.688 275.381 156.689C275.546 157 275.393 157.597 275.19 158.009C274.845 158.838 274.15 158.257 273.607 158.229C273.426 158.219 273.217 157.604 273.051 157.292C272.89 156.921 272.851 156.495 272.626 156.181C270.004 153.14 267.446 150.042 264.761 147.058C262.19 144.201 259.495 141.398 256.801 138.595C254.966 136.684 253.002 134.947 251.164 133.097C247.482 129.516 243.801 125.935 240.183 122.297C237.371 119.428 234.562 116.498 231.813 113.571C229.925 111.536 228.096 109.504 226.208 107.469C225.348 106.577 224.3 105.797 223.504 104.847C222.253 103.33 221.13 101.698 219.831 99.9362C218.594 101.626 217.227 103.49 215.863 105.294C214.435 107.155 212.947 109.013 211.462 110.81C209.01 113.767 206.561 116.663 203.994 119.493C201.171 122.612 198.233 125.604 195.352 128.659C194.457 129.58 193.68 130.568 192.776 131.67C194.255 133.441 195.674 135.21 197.153 136.981C198.632 138.752 200.171 140.527 201.65 142.298C202.104 142.866 201.958 143.343 201.39 143.797C200.762 144.248 199.801 144.137 199.464 143.636C198.28 142.001 197.1 140.305 195.912 138.731C194.554 136.966 193.075 135.194 191.656 133.426C191.431 133.112 190.955 132.966 190.539 132.823C189.527 132.528 189.304 132.153 189.774 131.271C188.403 129.747 187.092 128.226 185.781 126.706C182.639 123.214 179.43 119.839 176.412 116.293C175.047 114.649 173.999 112.719 172.825 110.903C171.038 108.087 168.743 105.728 166.452 103.309C164.046 100.763 161.513 98.3318 159.735 95.3348C159.234 94.5221 158.926 93.4775 158.612 92.5536C158.081 91.1344 157.104 90.1758 155.876 89.3854C154.46 88.7063 153.299 87.7985 152.134 86.951C151.655 88.0148 151.233 89.1421 150.634 90.1996C149.758 91.9081 148.822 93.6135 147.89 95.2585C146.757 97.256 145.561 99.3106 144.311 101.241C143.058 103.233 141.691 105.097 140.438 107.088C138.991 109.311 137.665 111.54 136.279 113.767C134.956 115.936 133.63 118.165 132.307 120.334C130.721 122.913 129.195 125.494 127.495 127.946C126.055 130.049 124.383 131.957 122.882 134.056C120.858 136.915 118.831 139.833 116.867 142.695C115.884 144.155 114.901 145.616 113.92 147.017C112.677 148.827 111.373 150.634 110.069 152.441C109.549 153.14 108.99 153.413 108.165 153.007Z" fill="black"/>
<path d="M198.323 149.261C199.129 150.029 200.065 150.623 200.684 151.502C202.09 153.512 203.373 155.575 204.716 157.642C204.83 157.769 204.693 158.064 204.665 158.607C204.021 158.21 203.551 157.944 203.145 157.62C202.681 157.233 202.342 156.792 201.942 156.347C201.878 156.404 201.755 156.458 201.691 156.516C202.244 157.512 202.859 158.452 203.469 159.512C202.342 160.24 203.031 160.941 203.418 161.627C203.644 161.941 203.806 162.313 204.095 162.57C204.901 163.338 204.691 163.872 203.644 164.24C203.866 164.615 204.212 164.936 204.254 165.301C204.349 165.79 204.555 166.466 204.362 166.698C203.658 167.447 204.178 167.898 204.448 168.517C204.613 168.828 204.591 169.251 204.632 169.616C204.27 169.597 203.721 169.689 203.55 169.499C202.401 168.349 201.379 167.086 200.065 165.626C200.262 166.483 200.281 167.27 200.621 167.712C201.583 168.972 202.671 170.118 203.7 171.261C203.985 171.578 204.337 171.778 204.503 172.089C204.725 172.464 204.763 172.889 204.861 173.318C204.5 173.299 204.005 173.515 203.833 173.325C202.846 172.547 201.983 171.715 201.059 170.88C200.945 170.753 200.831 170.626 200.717 170.499C200.717 170.499 200.656 170.496 200.415 170.484C200.403 171.874 200.327 173.322 200.435 174.719C200.594 177.45 200.874 180.187 201.033 182.918C201.068 183.403 200.919 183.94 200.653 184.41C200.583 184.588 199.916 184.613 199.685 184.42C199.336 184.16 198.936 183.715 198.894 183.35C198.739 181.708 198.703 180.073 198.668 178.438C198.633 175.653 198.597 172.869 198.568 169.963C198.371 170.256 198.118 170.484 197.981 170.78C197.712 171.31 197.563 171.847 197.293 172.377C196.887 173.203 196.208 173.469 195.262 173.057C195.83 171.453 196.398 169.85 197.041 167.947C196.163 168.567 195.537 168.958 194.909 169.409C194.62 169.152 194.389 168.958 194.097 168.761C194.769 167.465 195.378 166.227 195.987 164.988C195.87 164.922 195.756 164.795 195.638 164.728C194.775 166.195 193.744 167.412 191.675 167.666C193.265 165.027 194.784 162.566 196.243 160.102C196.186 160.038 196.132 159.914 196.075 159.851C195.825 160.019 195.517 160.124 195.384 160.359C194.993 160.883 194.721 161.474 194.273 161.934C193.953 162.281 193.515 162.56 193.147 162.662C192.842 162.706 192.433 162.443 192.138 162.306C192.274 162.011 192.41 161.716 192.544 161.481C193.33 160.312 194.12 159.083 194.907 157.914C195.237 157.387 195.567 156.86 196.068 156.523C196.446 156.241 197.049 156.272 197.725 156.066C197.626 154.488 197.6 152.671 197.454 150.849C197.444 149.88 197.469 149.398 198.323 149.261ZM198.056 161.286C197.935 161.279 197.814 161.273 197.634 161.264C197.488 161.74 197.339 162.276 197.12 162.991C197.551 162.832 197.977 162.794 198.043 162.676C198.126 162.257 198.091 161.771 198.056 161.286Z" fill="black"/>
<path d="M305.738 149.627C304.656 150.66 303.885 151.527 303.06 152.27C302.175 153.01 301.166 152.655 300.686 151.419C302.444 151.33 302.831 149.717 303.789 148.739C303.732 148.675 303.678 148.551 303.621 148.488C303.367 148.717 303.117 148.885 302.923 149.117C302.352 149.631 301.838 150.209 301.153 150.597C300.902 150.765 300.312 150.492 299.95 150.473C300.09 150.118 300.115 149.635 300.312 149.343C300.505 149.111 300.934 149.013 301.302 148.911C301.19 148.724 301.019 148.533 300.905 148.406C300.597 148.511 300.223 148.733 299.921 148.718C299.559 148.699 299.204 148.559 298.849 148.419C298.982 148.184 299.058 147.886 299.251 147.654C299.575 147.248 300.019 146.847 300.289 146.317C300.105 146.368 299.921 146.419 299.74 146.409C299.435 146.454 299.137 146.378 298.832 146.422C298.848 146.121 298.81 145.695 298.943 145.46C299.663 144.409 300.501 143.424 301.408 142.262C300.551 142.459 299.876 142.666 299.143 142.809C299.098 142.504 298.99 142.256 299.114 142.202C300.802 139.992 302.493 137.721 304.298 135.577C304.748 135.057 305.424 134.85 305.881 134.208C306.341 133.507 307.699 134.122 308.14 134.932C309.299 137.049 310.458 139.167 311.616 141.285C311.839 141.659 311.874 142.145 311.909 142.631C311.902 142.751 311.645 143.04 311.522 143.094C311.341 143.085 311.046 142.949 310.931 142.822C309.973 141.501 309.014 140.18 308.059 138.799C307.722 138.298 307.449 137.739 307.119 137.117C306.532 137.933 306.672 138.727 307.31 139.244C307.888 139.758 308.395 140.45 308.906 141.082C309.757 142.155 310.611 143.168 311.398 144.298C311.849 144.926 312.239 145.552 312.566 146.234C312.671 146.542 312.585 147.022 312.389 147.314C312.259 147.489 311.71 147.581 311.475 147.448C311.005 147.181 310.542 146.794 310.139 146.41C309.218 145.515 308.358 144.623 307.381 143.664C306.924 144.305 306.962 144.731 307.546 145.124C307.955 145.388 308.361 145.712 308.765 146.096C310.434 147.696 312.04 149.353 313.646 151.01C313.192 151.591 312.996 151.883 312.739 152.172C310.482 151.388 309.384 149.274 307.584 147.849C307.537 148.754 307.432 149.595 307.448 150.443C307.63 153.901 307.812 157.358 307.993 160.816C308.031 161.242 308.003 161.785 307.8 162.198C307.6 162.55 307.105 162.766 306.788 163.052C306.508 162.614 305.54 162.624 306.013 161.68C306.213 161.328 306.238 160.845 306.2 160.42C306.028 157.93 305.856 155.441 305.748 152.895C305.561 151.856 305.675 150.834 305.738 149.627Z" fill="black"/>
<path d="M162.851 160.469C162.283 160.923 161.719 161.317 161.151 161.772C160.459 162.28 159.825 162.851 159.079 163.236C158.394 163.623 157.794 163.531 157.416 162.665C160.072 160.445 162.845 158.291 164.754 155.306C164.697 155.242 164.583 155.115 164.526 155.052C164.015 155.57 163.501 156.148 162.93 156.662C161.915 157.577 161.119 158.927 159.484 158.962C159.183 158.946 158.891 158.749 158.596 158.613C158.729 158.378 158.865 158.083 159.059 157.851C160.782 156.126 162.622 154.468 164.23 152.617C164.681 152.096 164.617 151.003 164.719 150.222C164.601 150.156 164.48 150.149 164.423 150.086C164.036 150.55 163.649 151.013 163.202 151.474C162.244 152.452 161.346 153.433 160.331 154.348C160.077 154.577 159.528 154.669 159.106 154.647C158.144 154.536 158.046 154.107 158.69 153.355C159.527 152.37 160.482 151.452 161.323 150.407C162.034 149.537 162.748 148.607 163.401 147.673C164.058 146.679 165.026 146.669 165.762 147.615C166.044 147.993 166.448 148.377 166.794 148.698C168.457 150.418 170.18 152.142 171.78 153.92C172.008 154.174 171.732 154.825 171.71 155.247C171.291 155.164 170.745 155.196 170.457 154.939C169.251 153.727 168.108 152.457 166.965 151.187C166.908 151.124 166.848 151.12 166.788 151.117C166.436 152.067 166.798 153.235 167.493 153.816C168.594 154.721 169.632 155.682 170.606 156.701C170.835 156.955 170.682 157.552 170.721 157.978C170.594 158.092 170.41 158.143 170.283 158.257C169.169 157.594 168.055 156.931 166.884 156.204C166.862 156.626 166.894 157.172 166.932 157.598C168.512 158.588 170.495 158.813 171.546 160.683C169.734 161.798 168.744 159.931 167.24 159.792C167.297 161.005 167.291 162.275 167.409 163.491C167.523 164.767 167.638 166.044 167.752 167.32C167.902 169.082 167.991 170.841 168.08 172.6C168.102 173.328 168.417 174.251 167.322 174.376C166.957 174.417 166.129 174.071 166.084 173.766C165.798 172.299 165.697 170.782 165.595 169.264C165.48 166.838 165.426 164.415 165.311 161.99C165.317 161.869 165.14 161.799 164.971 161.548C164.645 162.015 164.321 162.422 163.997 162.828C163.16 163.813 162.1 164.423 160.824 164.537C160.583 164.525 160.291 164.328 159.996 164.191C160.19 163.96 160.383 163.728 160.577 163.496C161.154 162.861 161.789 162.289 162.366 161.654C162.687 161.308 162.947 160.958 163.207 160.609C163.023 160.66 162.966 160.596 162.851 160.469ZM165.114 159.983C165.079 159.497 165.101 159.075 165.123 158.652C165.063 158.649 164.945 158.583 164.885 158.58C164.565 158.926 164.241 159.332 163.791 159.853C164.333 159.881 164.635 159.897 165.114 159.983Z" fill="black"/>
<path d="M260.647 170.192C261.253 171.313 261.853 172.554 262.577 173.741C263.078 174.554 263.703 175.313 264.268 176.068C264.437 176.319 264.789 176.519 264.833 176.824C264.935 177.192 264.853 177.611 264.83 178.034C264.469 178.015 264.107 177.996 263.745 177.977C263.625 177.971 263.45 177.84 263.333 177.774C263.269 177.831 263.202 177.948 263.139 178.006C263.542 178.39 263.942 178.834 264.415 179.04C265.767 179.777 265.814 180.021 264.482 181.222C264.66 181.292 264.898 181.365 264.952 181.488C265.05 181.917 265.32 182.536 265.126 182.768C264.676 183.289 264.016 183.194 263.438 182.679C262.918 182.229 262.337 181.775 261.524 181.127C261.49 181.791 261.471 182.153 261.452 182.515C261.487 184.15 261.519 185.846 261.494 187.478C261.51 189.475 261.469 191.409 261.486 193.406C261.457 193.949 261.663 194.625 260.877 194.644C260.15 194.667 259.753 194.162 259.794 193.378C259.838 190.234 259.939 187.154 259.922 184.008C259.9 183.28 259.814 182.611 259.748 181.579C259.3 182.039 258.986 182.265 258.729 182.554C257.828 183.595 256.924 184.697 256.023 185.739C255.509 186.317 254.979 186.047 254.512 185.72C253.811 185.26 253.89 184.901 254.579 184.453C255.08 184.117 255.524 183.717 256.029 183.32C255.975 183.196 255.918 183.132 255.864 183.008C255.305 183.282 254.69 183.491 254.131 183.765C253.382 184.209 253.049 183.647 252.773 183.149C252.503 182.53 253.049 182.498 253.484 182.279C254.102 182.009 254.556 181.427 255.254 180.799C254.289 180.748 253.686 180.716 252.903 180.675C253.166 180.266 253.302 179.97 253.436 179.735C253.642 179.262 254.089 178.802 253.264 178.395C253.147 178.329 253.064 177.599 253.254 177.427C254.844 175.937 256.027 174.124 256.915 172.174C257.61 170.456 258.854 169.796 260.647 170.192ZM259.095 172.107C258.632 172.869 258.236 173.514 257.839 174.159C258.937 173.974 259.511 173.399 259.095 172.107Z" fill="black"/>
<path d="M228.583 162.523C228.453 162.697 228.326 162.812 228.32 162.932C228.533 164.637 228.863 166.409 229.016 168.111C229.105 168.72 228.952 169.317 228.86 169.918C228.854 170.038 228.064 170.118 228.007 170.054C227.677 169.432 227.229 168.743 227.143 168.073C226.934 166.308 226.844 164.549 226.695 162.787C226.698 162.726 226.581 162.66 226.466 162.533C226.019 162.993 225.518 163.33 225.188 163.857C224.725 164.619 224.046 164.886 223.319 164.909C222.954 164.95 222.548 164.626 222.262 164.309C222.205 164.245 222.478 163.655 222.732 163.426C223.176 163.026 223.617 162.686 224.182 162.292C223.468 162.073 222.319 160.924 221.928 160.298C221.541 159.613 221.684 159.197 222.312 158.746C222.753 158.406 223.137 158.002 223.413 157.351C223.105 157.456 222.734 157.618 222.362 157.78C221.734 157.082 221.582 156.53 222.527 155.793C223.663 154.884 224.681 153.909 225.586 152.807C225.973 152.343 225.896 151.493 226.112 150.838C226.251 150.483 226.572 150.137 226.769 149.844C227.115 150.165 227.587 150.371 227.749 150.743C228.295 151.86 228.657 153.029 229.203 154.146C229.752 155.203 230.422 156.267 231.092 157.33C230.898 157.562 230.641 157.851 230.385 158.14C231.083 158.661 231.778 159.242 231.178 160.299C231.115 160.356 231.581 160.683 231.746 160.994C231.969 161.369 232.124 161.861 232.4 162.36C231.477 162.674 231.271 163.147 231.956 163.909C232.128 164.1 232.042 164.579 232.147 164.887C231.785 164.868 231.293 165.024 231.062 164.83C230.367 164.249 229.738 163.551 229.11 162.853C228.808 162.837 228.754 162.713 228.583 162.523Z" fill="black"/>
<path d="M150.294 104.76C151.379 105.966 151.087 106.919 150.545 108.04C149.26 110.634 148.093 113.296 146.869 115.893C146.19 117.31 145.508 118.786 144.769 120.199C144.569 120.552 144.068 120.889 143.703 120.93C143.458 120.978 142.824 120.4 142.893 120.222C143.182 119.33 143.588 118.504 143.934 117.675C144.207 117.085 144.422 116.43 144.695 115.84C145.992 113.004 147.29 110.168 148.59 107.272C148.73 106.916 148.695 106.431 148.952 106.142C149.339 105.678 149.846 105.221 150.294 104.76Z" fill="black"/>
<path d="M156.276 125.581C155.965 126.896 155.518 128.506 155.131 130.119C154.744 131.732 154.36 133.285 153.853 134.892C153.701 135.489 153.365 136.137 152.974 136.661C152.844 136.835 152.238 136.864 152.003 136.731C151.769 136.597 151.676 136.048 151.749 135.81C152.361 133.362 153.037 130.856 153.649 128.408C154.026 126.976 154.223 125.534 154.6 124.102C154.679 123.743 155.114 123.524 155.371 123.235C155.656 123.553 156.066 123.816 156.225 124.248C156.393 124.499 156.31 124.918 156.276 125.581Z" fill="black"/>
<path d="M263.327 115.584C263.257 113.463 264.316 111.704 265.017 109.865C265.509 108.56 265.705 107.118 266.08 105.746C266.308 104.851 266.596 103.959 267.577 103.708C267.885 103.603 268.418 103.812 268.646 104.066C268.815 104.317 268.846 104.863 268.707 105.219C268.215 106.524 267.724 107.829 267.175 109.071C266.759 110.077 266.284 111.081 265.865 112.148C265.51 113.158 265.212 114.231 264.857 115.241C264.72 115.536 264.581 115.892 264.327 116.12C264.2 116.235 263.832 116.336 263.654 116.267C263.479 116.136 263.435 115.832 263.327 115.584Z" fill="black"/>
<path d="M168.17 127.052C166.605 124.611 165.1 122.172 163.592 119.795C163.313 119.356 162.843 119.09 162.624 118.655C162.399 118.341 162.243 117.848 162.32 117.55C162.392 117.312 162.945 117.159 163.306 117.178C164.515 117.181 164.938 118.353 165.442 119.105C166.731 121.048 167.829 123.162 168.991 125.22C169.375 125.966 169.337 126.69 168.17 127.052Z" fill="black"/>
<path d="M303.545 116.482C304.002 116.99 304.462 117.437 304.862 117.882C306.227 119.526 307.655 121.113 309.02 122.758C309.474 123.326 310.055 123.78 310.509 124.348C310.677 124.599 310.598 124.958 310.639 125.323C310.337 125.307 309.906 125.466 309.731 125.336C306.805 123.489 304.58 120.952 302.485 118.241C302.314 118.051 302.342 117.508 302.539 117.215C302.618 116.857 303.047 116.758 303.545 116.482Z" fill="black"/>
<path d="M274.504 118.045C274.973 118.312 275.694 118.41 275.278 119.417C274.796 120.541 274.549 121.798 274.245 122.992C273.943 124.126 273.642 125.259 273.341 126.393C273.195 126.869 273.049 127.346 272.846 127.758C272.716 127.933 272.345 128.095 272.107 128.022C271.929 127.952 271.646 127.575 271.656 127.394C271.852 125.952 272.109 124.514 272.426 123.078C272.67 121.881 272.918 120.624 273.101 119.423C273.279 118.344 273.726 117.883 274.504 118.045Z" fill="black"/>
<path d="M218.433 120.854C218.233 121.206 218.033 121.559 217.837 121.851C216.454 124.017 215.013 126.119 213.63 128.285C213.237 128.869 212.682 129.082 212.221 128.634C211.701 128.184 212.085 127.78 212.415 127.253C213.598 125.44 214.664 123.56 215.73 121.68C215.996 121.21 216.205 120.676 216.529 120.27C216.786 119.981 217.281 119.765 217.64 119.844C217.998 119.923 218.341 120.304 218.69 120.564C218.566 120.619 218.5 120.736 218.433 120.854Z" fill="black"/>
<path d="M196.105 150.052C197.089 150.89 197.318 152.294 196.528 153.523C195.278 155.454 194.25 157.759 191.629 158.166C191.515 158.039 191.337 157.969 191.223 157.842C192.869 155.267 194.516 152.691 196.105 150.052Z" fill="black"/>
<path d="M217.928 137.403C218.607 134.837 219.282 132.332 219.961 129.766C220.11 129.229 220.5 128.705 221.211 128.985C221.862 129.261 222.014 129.813 221.802 130.407C221.072 132.789 220.406 135.113 219.62 137.431C219.547 137.669 218.76 137.689 218.331 137.787C218.157 137.657 218.043 137.53 217.928 137.403Z" fill="black"/>
<path d="M232.989 138.434C233.823 137.51 234.62 137.31 235.305 138.072C236.848 139.786 238.327 141.557 239.746 143.326C239.917 143.516 239.771 143.992 239.812 144.357C239.514 144.281 239.092 144.259 238.86 144.066C236.902 142.209 234.944 140.352 232.989 138.434Z" fill="black"/>
<path d="M283.516 101.821C284.493 101.63 285.089 101.782 285.397 102.827C285.915 104.487 286.737 106.103 287.81 107.551C288.093 107.929 288.061 108.532 288.21 109.145C285.814 108.717 283.091 104.158 283.516 101.821Z" fill="black"/>
<path d="M231.67 128.988C231.089 128.534 230.448 128.077 230.055 127.512C229.093 126.252 228.255 124.938 227.417 123.623C227.023 123.058 226.998 122.391 227.556 122.118C227.928 121.956 228.696 122.299 228.978 122.677C230.045 124.245 230.927 125.864 231.87 127.486C232.035 127.798 232.01 128.28 232.048 128.706C231.924 128.76 231.797 128.874 231.67 128.988Z" fill="black"/>
<path d="M294.542 129.077C293.904 129.709 293.364 129.62 292.974 128.995C292.034 127.312 291.155 125.633 290.399 123.899C290.292 123.652 290.628 123.004 290.939 122.839C291.126 122.727 291.656 122.997 292.011 123.137C292.189 123.207 292.234 123.511 292.345 123.699C293.04 125.429 293.792 127.223 294.542 129.077Z" fill="black"/>
<g clip-path="url(#clip1)">
<path d="M130.439 51.7454C130.192 53.218 130.038 54.7212 129.607 56.163C129.237 57.4208 128.406 58.4945 127.451 59.4148C126.311 60.5192 125.048 61.4396 123.6 62.1145C123.107 62.3292 122.675 62.6974 122.213 63.0041C120.642 63.9551 118.948 64.1699 117.13 64.1085C115.251 64.0165 113.957 63.0041 112.848 61.6236C112.016 60.5499 111.122 59.4762 110.445 58.3104C109.274 56.2857 108.257 54.1076 108.535 51.6841C108.689 50.3343 109.151 49.0151 109.983 47.8801C110.321 47.4199 110.599 46.929 110.999 46.5302C112.232 45.2725 113.495 44.0453 114.789 42.8796C115.774 41.9899 117.099 41.9286 118.331 41.6525C119.348 41.4377 120.303 41.5605 121.289 41.8979C122.336 42.266 123.384 42.5728 124.431 42.9103C125.386 43.217 126.187 43.7692 126.865 44.4748C127.574 45.1804 128.344 45.886 128.775 46.7757C129.361 47.9721 129.699 49.2912 130.1 50.5797C130.223 50.9478 130.192 51.3773 130.223 51.7761C130.346 51.7454 130.377 51.7454 130.439 51.7454ZM123.784 56.5005C123.784 56.4391 123.815 56.3778 123.815 56.3471C124.092 56.3778 124.37 56.4391 124.647 56.4391C125.356 56.5005 126.218 56.1323 126.341 55.7029C126.68 54.5678 127.019 53.4327 127.296 52.267C127.42 51.7148 127.481 51.1626 127.451 50.6104C127.389 49.3833 126.927 48.2482 126.311 47.2358C125.294 45.5486 123.846 44.3521 121.967 43.6465C120.765 43.1864 119.533 43.217 118.301 43.4318C116.575 43.7079 115.035 44.4135 113.649 45.4872C112.663 46.2541 112.108 47.3279 111.523 48.4016C111.03 49.2912 110.784 50.2729 110.691 51.2853C110.599 52.451 110.845 53.5247 111.184 54.5985C111.708 56.255 112.54 57.7583 113.649 59.1081C114.296 59.9057 115.066 60.5806 115.959 61.1635C116.822 61.7463 117.777 61.9611 118.763 62.0224C119.595 62.0838 120.488 61.9304 121.32 61.777C122.152 61.6543 122.953 61.3782 123.507 60.7033C123.815 60.3045 124.154 59.9364 124.431 59.4762C124.924 58.6786 125.386 57.8196 125.941 56.8379C125.14 56.7459 124.462 56.6232 123.784 56.5005ZM128.806 49.7821C128.714 50.3343 128.621 50.8558 128.56 51.3773C128.498 51.7761 128.529 52.2056 128.467 52.6351C128.406 53.31 128.436 54.0156 128.221 54.6291C127.974 55.304 127.451 55.8869 127.112 56.5618C126.619 57.5128 126.157 58.5252 125.694 59.4762C125.664 59.5682 125.664 59.6603 125.664 59.783C129.33 57.022 129.73 51.8068 128.806 49.7821ZM114.049 61.1942C114.326 61.8997 116.082 62.9735 116.76 62.9121C115.867 62.3599 114.973 61.777 114.049 61.1942Z" fill="black"/>
<path d="M93.2849 28.8292C93.6854 28.6451 93.9627 28.7371 94.2708 29.1666C94.7021 29.7495 95.3182 30.179 95.8728 30.6392C96.797 31.4368 97.7828 32.1424 98.6455 33.0013C99.847 34.1978 100.956 35.4556 102.127 36.6827C103.082 37.6643 104.068 38.6153 105.023 39.6277C105.731 40.364 106.378 41.1616 107.056 41.9592C107.302 42.2353 107.364 42.5728 107.118 42.8489C106.902 43.0943 106.625 43.125 106.224 43.0636C104.561 42.7875 103.575 41.5297 102.496 40.5174C100.802 38.9221 99.2616 37.1735 97.6596 35.5169C96.2116 34.0137 94.7637 32.5412 93.3465 31.038C92.9152 30.6085 92.4839 30.1483 92.1142 29.6881C91.9602 29.5041 91.8062 29.228 91.8062 29.0132C91.837 28.6144 92.145 28.277 92.5455 28.277C92.7612 28.277 93.0077 28.6144 93.2849 28.8292Z" fill="black"/>
<path d="M153.267 73.864C151.419 73.4651 150.002 72.2687 148.431 71.3484C146.983 70.4894 145.535 69.6304 144.118 68.7101C142.854 67.8818 141.591 67.0228 140.328 66.1639C139.096 65.3356 137.864 64.5379 136.57 63.771C135.584 63.1881 134.567 62.6359 133.52 62.1451C133.088 61.9303 132.75 61.7463 132.873 61.2248C132.934 60.8873 133.612 60.7032 134.074 60.9487C134.999 61.4395 135.892 61.9303 136.785 62.4825C137.771 63.0654 138.726 63.679 139.681 64.3232C140.482 64.8447 141.222 65.4276 141.992 65.9798C142.762 66.532 143.563 67.0535 144.333 67.575C145.658 68.4647 146.983 69.3237 148.338 70.1826C149.601 70.9803 150.895 71.7472 152.158 72.5141C152.497 72.7289 152.836 72.9129 153.206 73.1277C153.699 73.3424 153.668 73.5879 153.267 73.864Z" fill="black"/>
<path d="M155.485 29.5042C155.763 30.0257 155.701 30.3938 155.208 30.6392C154.561 30.9767 153.883 31.2528 153.236 31.6209C152.497 32.0197 151.85 32.5412 151.111 32.94C149.878 33.615 148.615 34.1978 147.383 34.8727C145.627 35.8237 143.933 36.8668 142.177 37.7564C140.174 38.7688 138.11 39.6585 136.107 40.6095C135.522 40.8856 134.937 41.1923 134.351 41.4684C134.074 41.6218 133.735 41.7445 133.52 41.4071C133.366 41.1923 133.273 40.8242 133.335 40.6401C133.427 40.4254 133.766 40.2413 134.013 40.1186C134.844 39.7812 135.738 39.5664 136.57 39.1983C138.356 38.37 140.082 37.4497 141.868 36.5907C143.748 35.6704 145.596 34.75 147.475 33.8297C148.985 33.0628 150.464 32.2651 151.943 31.4982C152.836 31.038 153.76 30.5779 154.654 30.087C154.931 29.903 155.177 29.7189 155.485 29.5042Z" fill="black"/>
<path d="M142.331 21.1292C142.731 22.571 141.838 23.4607 140.975 24.3196C139.681 25.5774 138.357 26.8045 137.063 28.0623C135.461 29.6269 133.92 31.1914 132.318 32.756C130.932 34.1058 129.546 35.4249 128.159 36.7748C127.913 37.0202 127.666 37.327 127.42 37.5724C127.358 37.6337 127.297 37.6951 127.235 37.7564C126.927 38.0632 126.557 38.278 126.249 37.9098C126.126 37.7564 126.28 37.2042 126.465 37.0202C127.451 36.0385 128.529 35.1488 129.515 34.1672C130.254 33.4309 130.963 32.6333 131.671 31.8663C132.041 31.4982 132.472 31.1914 132.842 30.8233C133.335 30.3324 133.735 29.7802 134.228 29.2894C134.721 28.7986 135.245 28.3384 135.769 27.8476C137.001 26.6511 138.233 25.4547 139.435 24.2583C139.959 23.7368 140.451 23.2152 140.914 22.663C141.098 22.4176 141.222 22.0802 141.283 21.7734C141.437 21.1905 141.961 21.2825 142.331 21.1292Z" fill="black"/>
<path d="M90.9126 69.7839C91.8368 69.0477 92.6686 68.3727 93.5312 67.6978C95.3489 66.256 97.5054 65.5504 99.5696 64.5994C101.172 63.8631 102.743 63.0962 104.314 62.2986C104.807 62.0225 105.207 61.5623 105.639 61.1635C105.947 60.8874 106.224 60.642 106.655 60.8874C107.025 61.1021 107.056 61.6543 106.717 61.9918C105.731 62.9428 104.591 63.7404 103.328 64.2926C100.894 65.397 98.3989 66.4094 95.9959 67.6058C94.7327 68.2194 93.5621 69.0783 92.3606 69.8453C91.9601 70.1214 91.5288 70.2748 90.9126 69.7839Z" fill="black"/>
<path d="M110.075 18C110.198 18.2147 110.352 18.4295 110.445 18.6749C111.307 20.4542 112.262 22.2028 113.002 24.0128C113.71 25.7614 114.326 27.5408 114.85 29.3507C115.189 30.5165 115.281 31.7436 115.435 32.9707C115.497 33.4002 115.528 33.8603 115.405 34.2592C115.343 34.5659 115.035 34.8727 114.758 34.9954C114.45 35.1488 114.234 34.842 114.265 34.5353C114.326 33.4002 114.203 32.3265 113.926 31.2221C113.618 30.0256 113.433 28.7679 113.002 27.6021C112.201 25.3933 111.246 23.2459 110.352 21.0984C110.229 20.761 109.982 20.4542 109.921 20.1168C109.828 19.6566 109.859 19.1964 109.859 18.7363C109.859 18.5215 109.921 18.3068 109.921 18.092C109.982 18.0307 110.013 18.0307 110.075 18Z" fill="black"/>
<path d="M160.784 56.163C159.829 55.7028 158.936 55.2426 158.043 54.8131C157.18 54.3837 156.286 53.9849 155.393 53.5554C154.099 52.9725 152.836 52.3589 151.542 51.8374C150.464 51.4079 149.355 51.0705 148.276 50.7023C147.475 50.4569 146.674 50.2729 145.904 50.0274C145.781 49.9968 145.658 49.69 145.689 49.5979C145.812 49.3832 146.089 49.0151 146.212 49.0457C147.198 49.2912 148.184 49.6286 149.17 49.9047C150.002 50.1501 150.895 50.3035 151.727 50.5796C152.374 50.7944 153.021 51.1012 153.637 51.4386C154.438 51.8374 155.177 52.3283 155.978 52.7577C156.317 52.9418 156.687 53.0645 157.057 53.2179C157.457 53.3713 157.858 53.7394 158.351 53.2486C158.474 53.1259 158.936 53.2793 159.182 53.4327C159.799 53.8621 160.353 54.353 160.908 54.8438C161 54.9359 161.062 55.1199 161.031 55.2426C160.969 55.4881 160.877 55.7948 160.784 56.163Z" fill="black"/>
<path d="M109.582 85C108.997 84.6012 108.935 84.049 109.058 83.5581C109.52 81.8095 110.352 80.2449 111.615 78.8951C112.355 78.0975 113.063 77.2692 113.803 76.4716C114.265 75.9808 114.819 75.5206 115.312 75.0604C116.144 74.2935 116.976 73.5265 117.5 72.4835C117.715 72.054 118.085 71.962 118.424 72.0847C118.855 72.2381 118.763 72.6369 118.609 72.9743C117.993 74.3548 116.853 75.3058 115.805 76.3489C114.203 77.9441 112.324 79.2939 111.246 81.38C110.722 82.3617 110.291 83.4047 109.798 84.4171C109.798 84.6319 109.705 84.8159 109.582 85Z" fill="black"/>
<path d="M141.16 84.7239C140.513 84.8772 140.143 84.5398 140.297 83.8956C139.866 84.2944 139.712 84.0183 139.435 83.7115C138.726 82.8832 137.956 82.1469 137.186 81.3493C136.446 80.5824 135.738 79.7847 134.968 79.0485C133.55 77.7293 132.102 76.4409 130.685 75.1524C129.977 74.5082 129.268 73.864 128.59 73.2197C128.344 72.9743 128.344 72.3914 128.621 72.146C128.868 71.9006 129.453 71.9926 129.699 72.2687C130.254 72.9129 130.778 73.5879 131.394 74.1707C132.626 75.3672 133.889 76.5022 135.122 77.6987C135.984 78.527 136.785 79.3859 137.586 80.2756C138.295 81.0425 139.003 81.8402 139.65 82.6684C140.174 83.3127 140.636 83.9876 141.16 84.7239Z" fill="black"/>
<path d="M100.894 54.6905C100.124 54.7825 99.3539 54.8745 98.5837 54.9359C97.0433 55.0279 95.5029 55.0279 93.9626 55.1506C92.0833 55.304 90.2348 55.4881 88.3556 55.6722C88.0783 55.7028 87.801 55.8562 87.5238 55.8869C87.3697 55.9176 87.1233 55.8562 87.0308 55.7642C86.9692 55.6415 87 55.3654 87.0925 55.2734C87.4313 54.9973 87.8318 54.6291 88.2323 54.5678C90.3273 54.2917 92.4222 54.0769 94.5171 53.9235C96.3039 53.7701 98.1216 53.7088 99.9084 53.5554C100.463 53.5247 100.987 53.3407 101.51 53.2486C101.942 53.1566 102.342 53.1566 102.465 53.7088C102.558 54.1996 102.188 54.5984 101.634 54.6598C101.387 54.6905 101.141 54.7212 100.863 54.7212C100.894 54.7212 100.894 54.6905 100.894 54.6905Z" fill="black"/>
<path d="M149.909 59.1387C149.231 59.2921 148.615 58.9853 148.03 58.7092C146.644 58.065 145.319 57.3287 143.963 56.6231C142.485 55.8562 140.944 55.304 139.281 54.9972C138.48 54.8438 137.679 54.6904 136.847 54.7825C136.415 54.8438 136.107 54.5984 136.046 54.2303C135.984 53.7701 136.354 53.494 136.785 53.494C137.494 53.494 138.233 53.5247 138.942 53.6474C140.051 53.8622 141.16 54.1689 142.269 54.5064C143.809 54.9665 145.134 55.8869 146.459 56.7459C146.674 56.8992 146.952 57.0219 147.167 57.1753C148.092 57.7582 149.016 58.3718 149.971 58.9546C149.971 59.0467 149.94 59.108 149.909 59.1387Z" fill="black"/>
<path d="M126.095 19.3192C126.187 19.2885 126.403 19.2271 126.65 19.1658C127.081 19.6566 127.081 20.2088 127.019 20.7917C126.865 22.2949 126.341 23.7061 125.725 25.0559C124.986 26.6204 124.308 28.185 123.569 29.7189C123.322 30.2404 122.953 30.7312 122.645 31.2528C122.46 31.5595 122.152 31.5289 121.936 31.3755C121.813 31.2834 121.751 30.946 121.844 30.7926C122.367 29.7189 122.983 28.6758 123.476 27.5715C124.216 25.9762 124.924 24.381 125.51 22.7244C125.818 21.6507 125.879 20.5156 126.095 19.3192Z" fill="black"/>
</g>
<defs>
<clipPath id="clip0">
<rect width="156" height="84" fill="white" transform="translate(14 67)"/>
</clipPath>
<clipPath id="clip1">
<rect width="74" height="67" fill="white" transform="translate(87 18)"/>
</clipPath>
</defs>
</svg>
