<svg width="391" height="65" viewBox="0 0 391 65" fill="none" xmlns="http://www.w3.org/2000/svg">
<path d="M9.8625 63.7136H19.5606C22.5194 59.6864 24.0809 54.5908 24.0809 48.7555C24.0809 40.1258 19.3141 36.0986 13.6431 30.0989C10.4378 26.7292 7.64344 24.1814 7.64344 17.4421C7.64344 12.593 11.4241 7.66174 17.5059 7.66174C23.3413 7.66174 26.7931 11.5245 27.0397 17.4421H34.4366C34.6009 7.33299 27.2041 0.922363 17.5059 0.922363C7.80781 0.922363 0 7.99049 0 17.4421C0 26.7292 4.76688 31.4961 7.97219 34.948C12.2459 39.9614 16.1909 42.6736 16.1909 49.8239C16.1909 54.673 14.2184 59.5221 9.8625 63.7136Z" fill="black"/>
<path d="M54.7651 64.6999C72.682 64.6999 86.3251 50.4814 86.3251 32.8111C86.3251 15.1408 72.682 0.922363 54.7651 0.922363C36.8483 0.922363 23.2051 15.1408 23.2051 32.8111C23.2051 50.4814 36.8483 64.6999 54.7651 64.6999ZM54.7651 57.4674C41.2042 57.4674 31.0129 46.783 31.0129 32.8111C31.0129 18.9214 41.2042 8.15486 54.7651 8.15486C68.3261 8.15486 78.5173 18.9214 78.5173 32.8111C78.5173 46.7008 68.3261 57.4674 54.7651 57.4674Z" fill="black"/>
<path d="M87.5843 63.7136H94.8168V14.0724H94.9811L129.171 63.7136H136.732V1.90861H129.5V50.8102H129.336L95.6386 1.90861H87.5843V63.7136Z" fill="black"/>
<path d="M169.539 64.6999C187.456 64.6999 201.099 50.4814 201.099 32.8111C201.099 15.1408 187.456 0.922363 169.539 0.922363C151.622 0.922363 137.979 15.1408 137.979 32.8111C137.979 50.4814 151.622 64.6999 169.539 64.6999ZM169.539 57.4674C155.978 57.4674 145.787 46.783 145.787 32.8111C145.787 18.9214 155.978 8.15486 169.539 8.15486C183.1 8.15486 193.291 18.9214 193.291 32.8111C193.291 46.7008 183.1 57.4674 169.539 57.4674Z" fill="black"/>
<path d="M216.741 41.6874C227.014 37.9067 231.617 32.0714 231.617 22.9486C231.617 9.63424 221.672 1.90861 202.851 1.90861H202.358V63.7136H209.59V41.0299C212.138 52.6183 220.932 60.8371 234.247 63.7136V56.4811C226.192 54.5908 220.028 49.4952 216.741 41.6874ZM209.59 8.89455C219.124 9.30549 224.631 14.8121 224.631 22.9486C224.631 31.003 218.22 36.0986 209.59 37.4136V8.89455Z" fill="black"/>
<path d="M233.73 63.7136H241.127C241.209 57.3852 241.62 51.1389 242.853 45.2214H263.811V63.7136H271.372V1.90861C243.839 15.4696 233.73 35.1124 233.73 63.7136ZM244.743 38.4821C247.949 30.0167 253.373 21.8802 263.811 14.9764V38.4821H244.743Z" fill="black"/>
<path d="M290.751 63.7136H297.983V1.90861H290.751V63.7136Z" fill="black"/>
<path d="M299.956 63.7136H307.188V14.0724H307.352L341.542 63.7136H349.104V1.90861H341.871V50.8102H341.707L308.01 1.90861H299.956V63.7136Z" fill="black"/>
<path d="M341.852 63.7136H349.084V14.0724H349.249L383.439 63.7136H391V1.90861H383.767V50.8102H383.603L349.906 1.90861H341.852V63.7136Z" fill="black"/>
</svg>
