<svg width="1323" height="216" viewBox="0 0 1323 216" fill="none" xmlns="http://www.w3.org/2000/svg">
<path d="M33.3557 212.364H66.1554C76.1621 198.744 81.4434 181.51 81.4434 161.775C81.4434 132.589 65.3215 118.969 46.142 98.6772C35.3014 87.2807 25.8506 78.6638 25.8506 55.8707C25.8506 39.4709 38.637 22.793 59.2063 22.793C78.9417 22.793 90.6162 35.8573 91.4501 55.8707H116.467C117.023 21.6812 92.006 0 59.2063 0C26.4066 0 0 23.9049 0 55.8707C0 87.2807 16.1219 103.403 26.9625 115.077C41.4166 132.033 54.7589 141.206 54.7589 165.389C54.7589 181.788 48.0877 198.188 33.3557 212.364Z" fill="#F7D23A"/>
<path d="M185.219 215.7C245.816 215.7 291.958 167.612 291.958 107.85C291.958 48.0877 245.816 0 185.219 0C124.623 0 78.4814 48.0877 78.4814 107.85C78.4814 167.612 124.623 215.7 185.219 215.7ZM185.219 191.239C139.355 191.239 104.888 155.104 104.888 107.85C104.888 60.8741 139.355 24.4608 185.219 24.4608C231.084 24.4608 265.551 60.8741 265.551 107.85C265.551 154.826 231.084 191.239 185.219 191.239Z" fill="#F7D23A"/>
<path d="M296.216 212.364H320.677V44.4742H321.233L436.866 212.364H462.439V3.33557H437.978V168.724H437.422L323.457 3.33557H296.216V212.364Z" fill="#F7D23A"/>
<path d="M573.392 215.7C633.988 215.7 680.13 167.612 680.13 107.85C680.13 48.0877 633.988 0 573.392 0C512.796 0 466.654 48.0877 466.654 107.85C466.654 167.612 512.796 215.7 573.392 215.7ZM573.392 191.239C527.528 191.239 493.06 155.104 493.06 107.85C493.06 60.8741 527.528 24.4608 573.392 24.4608C619.256 24.4608 653.723 60.8741 653.723 107.85C653.723 154.826 619.256 191.239 573.392 191.239Z" fill="#F7D23A"/>
<path d="M733.032 137.87C767.777 125.084 783.343 105.348 783.343 74.4943C783.343 29.4642 749.71 3.33557 686.056 3.33557H684.388V212.364H708.849V135.646C717.466 174.839 747.208 202.636 792.238 212.364V187.904C764.998 181.51 744.151 164.277 733.032 137.87ZM708.849 26.9625C741.093 28.3523 759.716 46.9759 759.716 74.4943C759.716 101.735 738.035 118.969 708.849 123.416V26.9625Z" fill="#F7D23A"/>
<path d="M790.492 212.364H815.509C815.787 190.961 817.177 169.836 821.346 149.823H892.227V212.364H917.8V3.33557C824.682 49.1996 790.492 115.633 790.492 212.364ZM827.739 127.029C838.58 98.3992 856.926 70.8808 892.227 47.5318V127.029H827.739Z" fill="#F7D23A"/>
<path d="M983.339 212.364H1007.8V3.33557H983.339V212.364Z" fill="#F7D23A"/>
<path d="M1014.47 212.364H1038.93V44.4742H1039.49L1155.12 212.364H1180.69V3.33557H1156.23V168.724H1155.68L1041.71 3.33557H1014.47V212.364Z" fill="#F7D23A"/>
<path d="M1156.17 212.364H1180.63V44.4742H1181.18L1296.82 212.364H1322.39V3.33557H1297.93V168.724H1297.37L1183.41 3.33557H1156.17V212.364Z" fill="#F7D23A"/>
</svg>
