<svg width="235" height="54" viewBox="0 0 235 54" fill="none" xmlns="http://www.w3.org/2000/svg">
<path d="M35.498 14.7202H37.0728V10.2598H41.9067V14.7202H43.4814V4.37109H41.9067V8.80957H37.0728V4.37109H35.498V14.7202ZM50.5493 14.8594C53.9038 14.8594 55.4639 12.3618 55.4639 9.54199C55.4639 6.72217 53.9038 4.23193 50.5493 4.23193C47.1948 4.23193 45.6348 6.72217 45.6348 9.54199C45.6348 12.3618 47.1948 14.8594 50.5493 14.8594ZM50.5493 13.4604C48.2056 13.4604 47.2974 11.6367 47.2974 9.54199C47.2974 7.45459 48.2056 5.63086 50.5493 5.63086C52.8931 5.63086 53.8013 7.45459 53.8013 9.54199C53.8013 11.6367 52.8931 13.4604 50.5493 13.4604ZM59.4995 14.7202H61.0742V5.78467H64.436V4.37109H56.1304V5.78467H59.4995V14.7202ZM66.1279 14.7202H72.9761V13.2334H67.7026V10.2598H72.5513V8.80957H67.7026V5.82129H72.9761V4.37109H66.1279V14.7202ZM75.3271 14.7202H81.4282V13.2334H76.9019V4.37109H75.3271V14.7202ZM82.4243 10.8457H86.5918V9.6958H82.4243V10.8457ZM93.3301 14.8594C95.3735 14.8594 96.9629 13.834 97.7832 11.9297L96.3184 11.3291C95.7324 12.772 94.7656 13.3579 93.3301 13.3579C90.9863 13.3579 89.9902 11.6733 89.9902 9.47607C89.9902 7.3374 91.0376 5.71875 93.3301 5.71875C94.7803 5.71875 95.8569 6.29004 96.2891 7.71826L97.7686 7.13232C96.9556 5.22803 95.3955 4.21729 93.3447 4.21729C90.0195 4.21729 88.4302 6.62695 88.4302 9.54199C88.4302 12.4497 90.0342 14.8594 93.3301 14.8594ZM103.767 14.8594C107.122 14.8594 108.682 12.3618 108.682 9.54199C108.682 6.72217 107.122 4.23193 103.767 4.23193C100.413 4.23193 98.8525 6.72217 98.8525 9.54199C98.8525 12.3618 100.413 14.8594 103.767 14.8594ZM103.767 13.4604C101.423 13.4604 100.515 11.6367 100.515 9.54199C100.515 7.45459 101.423 5.63086 103.767 5.63086C106.111 5.63086 107.019 7.45459 107.019 9.54199C107.019 11.6367 106.111 13.4604 103.767 13.4604ZM118.95 4.37109L115.962 12.0762L112.966 4.37109H110.835V14.7202H112.351V6.54639L115.193 13.8413H116.724L119.565 6.54639V14.7202H121.082V4.37109H118.95ZM123.96 14.7202H125.527V10.3477H127.073C129.182 10.3477 130.669 9.29297 130.669 7.38867C130.669 5.46973 129.175 4.37109 127.073 4.37109H123.96V14.7202ZM125.527 8.87549V5.84326H127.073C128.45 5.84326 129.109 6.40723 129.109 7.38867C129.109 8.35547 128.472 8.87549 127.073 8.87549H125.527ZM130.457 14.7202H132.178L133.035 12.3911H137.195L138.037 14.7202H139.736L135.708 4.37109H134.5L130.457 14.7202ZM133.525 11.0361L135.115 6.66357L136.697 11.0361H133.525ZM147.61 4.37109V12.1055L142.988 4.37109H141.406V14.7202H142.922V6.95654L147.529 14.7202H149.119V4.37109H147.61ZM151.997 14.7202H153.572V4.37109H151.997V14.7202ZM160.647 14.8594C164.001 14.8594 165.562 12.3618 165.562 9.54199C165.562 6.72217 164.001 4.23193 160.647 4.23193C157.292 4.23193 155.732 6.72217 155.732 9.54199C155.732 12.3618 157.292 14.8594 160.647 14.8594ZM160.647 13.4604C158.303 13.4604 157.395 11.6367 157.395 9.54199C157.395 7.45459 158.303 5.63086 160.647 5.63086C162.991 5.63086 163.899 7.45459 163.899 9.54199C163.899 11.6367 162.991 13.4604 160.647 13.4604ZM173.918 4.37109V12.1055L169.297 4.37109H167.715V14.7202H169.231V6.95654L173.838 14.7202H175.427V4.37109H173.918ZM186.194 14.8594C189.548 14.8594 191.108 12.3618 191.108 9.54199C191.108 6.72217 189.548 4.23193 186.194 4.23193C182.839 4.23193 181.279 6.72217 181.279 9.54199C181.279 12.3618 182.839 14.8594 186.194 14.8594ZM186.194 13.4604C183.85 13.4604 182.942 11.6367 182.942 9.54199C182.942 7.45459 183.85 5.63086 186.194 5.63086C188.538 5.63086 189.446 7.45459 189.446 9.54199C189.446 11.6367 188.538 13.4604 186.194 13.4604ZM193.262 14.7202H194.836V10.2598H199.81V8.80957H194.836V5.82129H200.483V4.37109H193.262V14.7202Z" fill="#FDF5E6"/>
<path fill-rule="evenodd" clip-rule="evenodd" d="M8.9402 53.0077C10.2925 51.1726 11.0062 48.8507 11.0062 46.1916C11.0062 42.6424 9.23135 40.8016 6.97975 38.4664C6.73671 38.2144 6.48812 37.9566 6.2356 37.6902C6.15897 37.6099 6.08286 37.5306 6.00741 37.452C4.64049 36.028 3.49344 34.8331 3.49344 31.9227C3.49344 29.7131 5.22137 27.466 8.0011 27.466C10.6681 27.466 12.2458 29.2262 12.3585 31.9227H15.7393C15.8144 27.3162 12.4336 24.395 8.0011 24.395C3.56857 24.395 0 27.6158 0 31.9227C0 36.0021 2.02443 38.1676 3.48259 39.7273L3.64369 39.8998C3.99875 40.3151 4.34885 40.6957 4.68405 41.0601L4.68422 41.0603L4.68426 41.0603L4.68436 41.0604L4.68454 41.0606L4.68456 41.0607C6.1932 42.7008 7.40008 44.0128 7.40008 46.6785C7.40008 48.8881 6.49855 51.0977 4.50766 53.0077H8.9402ZM30.3515 53.4574C38.5405 53.4574 44.7761 46.9783 44.7761 38.9263C44.7761 30.8743 38.5405 24.3953 30.3515 24.3953C22.1626 24.3953 15.927 30.8743 15.927 38.9263C15.927 46.9783 22.1626 53.4574 30.3515 53.4574ZM19.4958 38.9262C19.4958 45.2929 24.1538 50.1616 30.3518 50.1616C36.5498 50.1616 41.2077 45.2555 41.2077 38.9262C41.2077 32.597 36.5498 27.6909 30.3518 27.6909C24.1538 27.6909 19.4958 32.597 19.4958 38.9262ZM78.5281 53.4574C86.717 53.4574 92.9526 46.9783 92.9526 38.9263C92.9526 30.8743 86.717 24.3953 78.5281 24.3953C70.3392 24.3953 64.1036 30.8743 64.1036 38.9263C64.1036 46.9783 70.3392 53.4574 78.5281 53.4574ZM67.6724 38.9262C67.6724 45.2929 72.3303 50.1616 78.5283 50.1616C84.7264 50.1616 89.3843 45.2555 89.3843 38.9262C89.3843 32.597 84.7264 27.6909 78.5283 27.6909C72.3303 27.6909 67.6724 32.597 67.6724 38.9262ZM97.122 53.0078V42.6713C98.2865 47.9519 102.306 51.697 108.391 53.0078V49.7121C104.71 48.8507 101.893 46.5287 100.39 42.9709C105.086 41.2481 107.189 38.5891 107.189 34.432C107.189 28.3649 102.644 24.8445 94.0417 24.8445H93.8164V53.0078H97.122ZM97.122 28.0279V41.0234C101.066 40.4242 103.996 38.1022 103.996 34.432C103.996 30.7244 101.479 28.2151 97.122 28.0279ZM112.793 53.0078C112.83 50.1241 113.018 47.2778 113.582 44.5813H123.16V53.0078H126.616V24.8445C114.032 31.0239 109.412 39.9748 109.412 53.0078H112.793ZM114.145 41.5104H122.86V30.7993C118.089 33.9452 115.61 37.6529 114.145 41.5104ZM190.051 38.9266C190.051 46.9786 183.816 53.4577 175.627 53.4577C167.438 53.4577 161.202 46.9786 161.202 38.9266C161.202 30.8746 167.438 24.3955 175.627 24.3955C183.816 24.3955 190.051 30.8746 190.051 38.9266ZM145.831 40.2747V53.0081H142.526V24.8448H145.831V37.1288H156.455V24.8448H159.761V53.0081H156.455V40.2747H145.831ZM175.626 50.1619C169.428 50.1619 164.77 45.2932 164.77 38.9265C164.77 32.5973 169.428 27.6911 175.626 27.6911C181.824 27.6911 186.482 32.5973 186.482 38.9265C186.482 45.2558 181.824 50.1619 175.626 50.1619ZM198.052 27.9907V53.0081H194.747V27.9907H187.609V24.8448H204.851V27.9907H198.052ZM216.759 53.4202C219.802 53.4202 222.469 52.6712 224.647 51.1731V46.8663C222.732 48.9635 219.839 50.1245 216.834 50.1245C211.275 50.1245 207.03 46.3045 206.429 40.3498H224.309V37.054H206.429C207.293 31.2491 211.425 27.6912 216.834 27.6912C219.839 27.6912 222.732 28.8897 224.647 30.9869V26.6426C222.469 25.1446 219.802 24.3955 216.759 24.3955C208.495 24.3955 202.41 30.7622 202.41 38.9266C202.41 47.0161 208.42 53.4202 216.759 53.4202ZM235 49.8996V53.0081H225.496V24.8448H228.802V49.8996H235ZM45.692 25.4447V53.608H49.1479V31.5492C56.3977 36.7924 59.2526 43.1217 59.5155 53.608H59.6218H62.8963H62.9274V25.4447H59.6218V38.0531C56.9425 32.9178 52.4737 28.7951 45.692 25.4447Z" fill="#FDF5E6"/>
</svg>
