<svg width="240" height="240" viewBox="0 0 240 240" fill="none" xmlns="http://www.w3.org/2000/svg">
<rect width="240" height="240" rx="120" fill="#9C0C34"/>
<path d="M95.3557 226.364H128.155C138.162 212.744 143.443 195.51 143.443 175.775C143.443 146.589 127.322 132.969 108.142 112.677C97.3014 101.281 87.8506 92.6638 87.8506 69.8707C87.8506 53.4709 100.637 36.793 121.206 36.793C140.942 36.793 152.616 49.8573 153.45 69.8707H178.467C179.023 35.6812 154.006 14 121.206 14C88.4066 14 62 37.9049 62 69.8707C62 101.281 78.1219 117.403 88.9625 129.077C103.417 146.033 116.759 155.206 116.759 179.389C116.759 195.788 110.088 212.188 95.3557 226.364Z" fill="#F7D23A"/>
</svg>
