<svg width="325" height="53" viewBox="0 0 325 53" fill="none" xmlns="http://www.w3.org/2000/svg">
<path d="M8.19588 52.1804H16.2552C18.7139 48.8338 20.0116 44.5992 20.0116 39.75C20.0116 32.5786 16.0503 29.232 11.3376 24.2461C8.67397 21.4459 6.35181 19.3286 6.35181 13.7281C6.35181 9.69845 9.49356 5.60052 14.5477 5.60052C19.3969 5.60052 22.2655 8.81057 22.4704 13.7281H28.6173C28.7539 5.32732 22.607 0 14.5477 0C6.4884 0 0 5.87371 0 13.7281C0 21.4459 3.96134 25.4072 6.625 28.2758C10.1765 32.442 13.4549 34.6959 13.4549 40.6379C13.4549 44.6675 11.8157 48.6972 8.19588 52.1804Z" fill="#F7D23A"/>
<path d="M45.5106 53C60.3998 53 71.7374 41.1843 71.7374 26.5C71.7374 11.8157 60.3998 0 45.5106 0C30.6214 0 19.2838 11.8157 19.2838 26.5C19.2838 41.1843 30.6214 53 45.5106 53ZM45.5106 46.9897C34.2413 46.9897 25.7722 38.1108 25.7722 26.5C25.7722 14.9575 34.2413 6.01031 45.5106 6.01031C56.7799 6.01031 65.249 14.9575 65.249 26.5C65.249 38.0425 56.7799 46.9897 45.5106 46.9897Z" fill="#F7D23A"/>
<path d="M72.7838 52.1804H78.7941V10.9278H78.9307L107.343 52.1804H113.627V0.819589H107.616V41.4575H107.48L79.4771 0.819589H72.7838V52.1804Z" fill="#F7D23A"/>
<path d="M140.889 53C155.778 53 167.116 41.1843 167.116 26.5C167.116 11.8157 155.778 0 140.889 0C126 0 114.662 11.8157 114.662 26.5C114.662 41.1843 126 53 140.889 53ZM140.889 46.9897C129.62 46.9897 121.151 38.1108 121.151 26.5C121.151 14.9575 129.62 6.01031 140.889 6.01031C152.158 6.01031 160.627 14.9575 160.627 26.5C160.627 38.0425 152.158 46.9897 140.889 46.9897Z" fill="#F7D23A"/>
<path d="M180.115 33.8763C188.652 30.7345 192.477 25.8853 192.477 18.3041C192.477 7.23969 184.212 0.819589 168.572 0.819589H168.162V52.1804H174.173V33.3299C176.29 42.9601 183.598 49.7899 194.662 52.1804V46.1701C187.969 44.5992 182.846 40.3647 180.115 33.8763ZM174.173 6.625C182.095 6.96649 186.671 11.5425 186.671 18.3041C186.671 24.9974 181.344 29.232 174.173 30.3247V6.625Z" fill="#F7D23A"/>
<path d="M194.233 52.1804H200.38C200.448 46.9214 200.79 41.7307 201.814 36.8131H219.231V52.1804H225.514V0.819589C202.634 12.0889 194.233 28.4124 194.233 52.1804ZM203.385 31.2126C206.049 24.1778 210.557 17.4162 219.231 11.6791V31.2126H203.385Z" fill="#F7D23A"/>
<path d="M241.618 52.1804H247.628V0.819589H241.618V52.1804Z" fill="#F7D23A"/>
<path d="M249.267 52.1804H255.278V10.9278H255.414L283.827 52.1804H290.11V0.819589H284.1V41.4575H283.963L255.961 0.819589H249.267V52.1804Z" fill="#F7D23A"/>
<path d="M284.084 52.1804H290.094V10.9278H290.231L318.643 52.1804H324.926V0.819589H318.916V41.4575H318.78L290.777 0.819589H284.084V52.1804Z" fill="#F7D23A"/>
</svg>
