<svg width="46" height="46" viewBox="0 0 46 46" fill="none" xmlns="http://www.w3.org/2000/svg">
<path fill-rule="evenodd" clip-rule="evenodd" d="M2.92925 0.000488281C1.31147 0.000488281 0 1.31196 0 2.92974V42.9628C0 44.5805 1.31147 45.892 2.92925 45.892H42.9623C44.58 45.892 45.8915 44.5805 45.8915 42.9627V2.92973C45.8915 1.31196 44.58 0.000488281 42.9623 0.000488281H2.92925ZM41.7227 14.9489H33.5347C31.0988 12.5826 27.3349 11.1814 23.3544 11.1814C19.5362 11.1814 15.6851 12.6162 13.1783 14.9489H5.17467L7.35565 18.4194C5.95306 20.0962 5.10718 22.2548 5.10718 24.607C5.10718 29.9326 9.44008 34.265 14.7652 34.265C17.5183 34.265 20.0057 33.1074 21.7665 31.2531L23.3544 34.9174L24.9418 31.2531C26.7029 33.1074 29.1902 34.265 31.9433 34.265C37.2687 34.265 41.6016 29.9326 41.6016 24.607C41.6016 22.3151 40.7984 20.2077 39.4597 18.5497L41.7227 14.9489ZM14.7652 32.127C10.6187 32.127 7.24569 28.7535 7.24569 24.607C7.24569 20.4604 10.6187 17.0874 14.7652 17.0874C18.9118 17.0874 22.285 20.4604 22.285 24.607C22.285 28.7535 18.9118 32.127 14.7652 32.127ZM39.4631 24.607C39.4631 28.7535 36.0898 32.127 31.9433 32.127C27.797 32.127 24.4233 28.7537 24.4233 24.607C24.4233 20.4609 27.797 17.0874 31.9433 17.0874C36.0898 17.0874 39.4631 20.4609 39.4631 24.607ZM9.68054 24.6068C9.68054 21.8023 11.9621 19.521 14.7663 19.521C17.5708 19.521 19.8523 21.8023 19.8523 24.6068C19.8523 27.4113 17.5708 29.6931 14.7663 29.6931C11.9621 29.6931 9.68054 27.4113 9.68054 24.6068ZM13.6453 24.6068C13.6453 25.225 14.1482 25.7278 14.7663 25.7278C15.3845 25.7278 15.8873 25.225 15.8873 24.6068C15.8873 23.9889 15.3845 23.4858 14.7663 23.4858C14.1482 23.4858 13.6453 23.9889 13.6453 24.6068ZM26.8574 24.6068C26.8574 21.8023 29.1392 19.521 31.9437 19.521C34.7482 19.521 37.0297 21.8023 37.0297 24.6068C37.0297 27.4113 34.748 29.6931 31.9437 29.6931C29.1392 29.6931 26.8574 27.4113 26.8574 24.6068ZM30.8732 24.6068C30.8732 25.225 31.376 25.7278 31.9944 25.7278C32.6126 25.7278 33.1154 25.225 33.1154 24.6068C33.1154 23.9889 32.6126 23.4858 31.9944 23.4858C31.376 23.4858 30.8732 23.9889 30.8732 24.6068Z" fill="#F7D23A"/>
</svg>
