<svg width="46" height="46" viewBox="0 0 46 46" fill="none" xmlns="http://www.w3.org/2000/svg">
<path fill-rule="evenodd" clip-rule="evenodd" d="M2.92925 0.000610352C1.31147 0.000610352 0 1.31208 0 2.92986V42.9629C0 44.5807 1.31147 45.8921 2.92925 45.8921H42.9623C44.58 45.8921 45.8915 44.5807 45.8915 42.9629V2.92986C45.8915 1.31208 44.58 0.000610352 42.9623 0.000610352H2.92925ZM41.721 14.9491H33.533C31.0971 12.5829 27.3332 11.1816 23.3527 11.1816C19.5345 11.1816 15.6834 12.6164 13.1766 14.9491H5.17296L7.35394 18.4196C5.95135 20.0964 5.10547 22.255 5.10547 24.6072C5.10547 29.9328 9.43837 34.2653 14.7635 34.2653C17.5166 34.2653 20.004 33.1076 21.7648 31.2534L23.3527 34.9176L24.9401 31.2534C26.7011 33.1076 29.1885 34.2653 31.9416 34.2653C37.267 34.2653 41.5999 29.9328 41.5999 24.6072C41.5999 22.3154 40.7967 20.2079 39.458 18.5499L41.721 14.9491ZM14.7635 32.1272C10.617 32.1272 7.24398 28.7537 7.24398 24.6072C7.24398 20.4607 10.617 17.0876 14.7635 17.0876C18.9101 17.0876 22.2833 20.4607 22.2833 24.6072C22.2833 28.7537 18.9101 32.1272 14.7635 32.1272ZM39.4614 24.6072C39.4614 28.7537 36.0881 32.1272 31.9416 32.1272C27.7953 32.1272 24.4216 28.7539 24.4216 24.6072C24.4216 20.4611 27.7953 17.0876 31.9416 17.0876C36.0881 17.0876 39.4614 20.4611 39.4614 24.6072ZM9.6788 24.607C9.6788 21.8025 11.9603 19.5212 14.7646 19.5212C17.5691 19.5212 19.8507 21.8025 19.8507 24.607C19.8507 27.4115 17.5691 29.6933 14.7646 29.6933C11.9603 29.6933 9.6788 27.4115 9.6788 24.607ZM13.6436 24.607C13.6436 25.2252 14.1465 25.728 14.7646 25.728C15.3828 25.728 15.8856 25.2252 15.8856 24.607C15.8856 23.9891 15.3828 23.486 14.7646 23.486C14.1465 23.486 13.6436 23.9891 13.6436 24.607ZM26.8557 24.607C26.8557 21.8025 29.1374 19.5212 31.9419 19.5212C34.7464 19.5212 37.028 21.8025 37.028 24.607C37.028 27.4115 34.7462 29.6933 31.9419 29.6933C29.1374 29.6933 26.8557 27.4115 26.8557 24.607ZM30.8714 24.607C30.8714 25.2252 31.3743 25.728 31.9927 25.728C32.6108 25.728 33.1136 25.2252 33.1136 24.607C33.1136 23.9891 32.6108 23.486 31.9927 23.486C31.3743 23.486 30.8714 23.9891 30.8714 24.607Z" fill="black"/>
</svg>
