<svg width="47" height="46" viewBox="0 0 47 46" fill="none" xmlns="http://www.w3.org/2000/svg">
<path fill-rule="evenodd" clip-rule="evenodd" d="M3.33501 0.000488281C1.71723 0.000488281 0.405762 1.31196 0.405762 2.92974V42.9628C0.405762 44.5805 1.71723 45.892 3.33501 45.892H43.368C44.9858 45.892 46.2973 44.5805 46.2973 42.9627V2.92973C46.2973 1.31196 44.9858 0.000488281 43.368 0.000488281H3.33501ZM34.9105 15.2428C36.161 15.0838 37.3604 14.7566 38.486 14.2628C37.6423 15.519 36.6075 16.6105 35.3759 17.4845C35.3891 17.7475 35.3986 18.0124 35.3986 18.2867C35.3986 26.4858 29.1557 35.9448 17.7367 35.9448C14.2236 35.9448 10.966 34.9327 8.21716 33.16C8.70525 33.2225 9.19333 33.2452 9.70223 33.2452C12.6043 33.2452 15.2849 32.2501 17.3962 30.5985C14.6834 30.5399 12.4018 28.7332 11.5978 26.2758C11.9743 26.359 12.3753 26.3817 12.7726 26.3817C13.344 26.3817 13.8945 26.3155 14.3996 26.1774C11.5789 25.6004 9.42792 23.0956 9.42792 20.0801V20.012C10.2565 20.4679 11.2346 20.7574 12.2316 20.7763C10.5819 19.6734 9.47521 17.7683 9.47521 15.6192C9.47521 14.4747 9.78925 13.4115 10.3246 12.4826C13.3912 16.2492 17.9562 18.7218 23.1151 18.9734C23.013 18.5231 22.9713 18.0502 22.9713 17.5583C22.9713 14.1398 25.7372 11.3513 29.1727 11.3513C30.9434 11.3513 32.5666 12.1024 33.7054 13.315C35.1167 13.0331 36.441 12.528 37.6404 11.8129C37.1788 13.2677 36.1969 14.4747 34.9105 15.2428Z" fill="#F7D23A"/>
</svg>
