<svg width="47" height="46" viewBox="0 0 47 46" fill="none" xmlns="http://www.w3.org/2000/svg">
<path fill-rule="evenodd" clip-rule="evenodd" d="M3.33501 0.000610352C1.71723 0.000610352 0.405762 1.31208 0.405762 2.92986V42.9629C0.405762 44.5807 1.71723 45.8921 3.33501 45.8921H43.368C44.9858 45.8921 46.2973 44.5807 46.2973 42.9629V2.92986C46.2973 1.31208 44.9858 0.000610352 43.368 0.000610352H3.33501ZM34.9116 15.2428C36.1621 15.0838 37.3615 14.7566 38.4871 14.2628C37.6434 15.519 36.6086 16.6105 35.377 17.4845C35.3902 17.7475 35.3997 18.0124 35.3997 18.2867C35.3997 26.4858 29.1567 35.9448 17.7378 35.9448C14.2247 35.9448 10.9671 34.9327 8.21826 33.16C8.70635 33.2225 9.19443 33.2452 9.70333 33.2452C12.6054 33.2452 15.286 32.2501 17.3973 30.5985C14.6844 30.5399 12.4029 28.7332 11.5989 26.2758C11.9754 26.359 12.3764 26.3817 12.7737 26.3817C13.3451 26.3817 13.8956 26.3155 14.4007 26.1774C11.58 25.6004 9.42902 23.0956 9.42902 20.0801V20.012C10.2576 20.4679 11.2357 20.7574 12.2327 20.7763C10.583 19.6734 9.47631 17.7683 9.47631 15.6192C9.47631 14.4747 9.79035 13.4115 10.3257 12.4826C13.3923 16.2492 17.9573 18.7218 23.1162 18.9734C23.0141 18.5231 22.9724 18.0502 22.9724 17.5583C22.9724 14.1398 25.7383 11.3513 29.1738 11.3513C30.9445 11.3513 32.5677 12.1024 33.7065 13.315C35.1178 13.0331 36.4421 12.528 37.6415 11.8129C37.1799 13.2677 36.198 14.4747 34.9116 15.2428Z" fill="black"/>
</svg>
